<svg width="390" height="844" viewBox="0 0 390 844" fill="none" xmlns="http://www.w3.org/2000/svg">
<g clip-path="url(#clip0_6_1930)">
<rect width="390" height="844" fill="white"/>
<rect width="390" height="844" fill="white"/>
<g clip-path="url(#clip1_6_1930)">
<path d="M85 -2H304C301.894 -1.39731 300.418 0.495246 300.345 2.68446L300.317 3.5618C300.317 17.0587 289.375 28 275.878 28H113.122C99.6249 28 88.6835 17.0587 88.6835 3.5618L88.6545 2.68447C88.5823 0.49525 87.1059 -1.39731 85 -2Z" fill="black"/>
<path opacity="0.35" d="M351.5 20C351.5 18.8034 352.47 17.8334 353.667 17.8334H370.333C371.53 17.8334 372.5 18.8034 372.5 20V26C372.5 27.1967 371.53 28.1667 370.333 28.1667H353.667C352.47 28.1667 351.5 27.1967 351.5 26V20Z" stroke="black"/>
<path opacity="0.4" d="M374 21.0001V25.0001C374.805 24.6613 375.328 23.8732 375.328 23.0001C375.328 22.1269 374.805 21.3388 374 21.0001Z" fill="black"/>
<path d="M353 20.6667C353 19.9303 353.597 19.3334 354.333 19.3334H369.667C370.403 19.3334 371 19.9303 371 20.6667V25.3334C371 26.0698 370.403 26.6667 369.667 26.6667H354.333C353.597 26.6667 353 26.0698 353 25.3334V20.6667Z" fill="black"/>
<path fill-rule="evenodd" clip-rule="evenodd" d="M338.33 19.608C340.546 19.6081 342.677 20.4596 344.283 21.9863C344.404 22.1042 344.598 22.1027 344.717 21.983L345.873 20.8163C345.933 20.7556 345.967 20.6734 345.966 20.5878C345.966 20.5022 345.931 20.4204 345.87 20.3603C341.655 16.3208 335.005 16.3208 330.79 20.3603C330.729 20.4203 330.694 20.5021 330.694 20.5877C330.693 20.6733 330.727 20.7556 330.787 20.8163L331.943 21.983C332.062 22.1029 332.256 22.1044 332.377 21.9863C333.983 20.4595 336.114 19.608 338.33 19.608ZM338.33 23.4037C339.548 23.4036 340.722 23.8561 341.624 24.6733C341.746 24.7893 341.939 24.7868 342.058 24.6677L343.212 23.501C343.273 23.4398 343.307 23.3568 343.306 23.2705C343.305 23.1843 343.27 23.102 343.208 23.042C340.459 20.4856 336.204 20.4856 333.455 23.042C333.393 23.102 333.358 23.1843 333.357 23.2706C333.356 23.3569 333.39 23.4399 333.451 23.501L334.605 24.6677C334.724 24.7868 334.917 24.7893 335.039 24.6733C335.941 23.8567 337.114 23.4042 338.33 23.4037ZM340.643 25.9575C340.645 26.044 340.611 26.1274 340.549 26.188L338.552 28.2037C338.493 28.2629 338.414 28.2963 338.33 28.2963C338.247 28.2963 338.167 28.2629 338.109 28.2037L336.111 26.188C336.049 26.1274 336.015 26.0439 336.017 25.9574C336.019 25.8709 336.056 25.789 336.121 25.731C337.396 24.6521 339.264 24.6521 340.54 25.731C340.604 25.789 340.642 25.871 340.643 25.9575Z" fill="black"/>
<path fill-rule="evenodd" clip-rule="evenodd" d="M324.667 17.6666H323.667C323.114 17.6666 322.667 18.1143 322.667 18.6666V27.3333C322.667 27.8856 323.114 28.3333 323.667 28.3333H324.667C325.219 28.3333 325.667 27.8856 325.667 27.3333V18.6666C325.667 18.1143 325.219 17.6666 324.667 17.6666ZM319 20H320C320.552 20 321 20.4477 321 21V27.3333C321 27.8856 320.552 28.3333 320 28.3333H319C318.448 28.3333 318 27.8856 318 27.3333V21C318 20.4477 318.448 20 319 20ZM315.333 22.3333H314.333C313.781 22.3333 313.333 22.781 313.333 23.3333V27.3333C313.333 27.8856 313.781 28.3333 314.333 28.3333H315.333C315.886 28.3333 316.333 27.8856 316.333 27.3333V23.3333C316.333 22.781 315.886 22.3333 315.333 22.3333ZM310.667 24.3333H309.667C309.114 24.3333 308.667 24.781 308.667 25.3333V27.3333C308.667 27.8856 309.114 28.3333 309.667 28.3333H310.667C311.219 28.3333 311.667 27.8856 311.667 27.3333V25.3333C311.667 24.781 311.219 24.3333 310.667 24.3333Z" fill="black"/>
<path d="M37.3207 28.2563C40.0087 28.2563 41.6053 26.1543 41.6053 22.5947C41.6053 21.2544 41.349 20.1265 40.8583 19.2549C40.1478 17.8999 38.9247 17.1675 37.3793 17.1675C35.0795 17.1675 33.4535 18.7129 33.4535 20.8809C33.4535 22.917 34.9183 24.3965 36.9325 24.3965C38.1703 24.3965 39.1737 23.8179 39.6718 22.8145H39.6937C39.6937 22.8145 39.723 22.8145 39.7303 22.8145C39.745 22.8145 39.7963 22.8145 39.7963 22.8145C39.7963 25.2314 38.8807 26.6743 37.3353 26.6743C36.4271 26.6743 35.724 26.1763 35.4823 25.3779H33.6C33.9149 27.1138 35.3871 28.2563 37.3207 28.2563ZM37.3866 22.895C36.1708 22.895 35.3065 22.0308 35.3065 20.8223C35.3065 19.6431 36.2147 18.7422 37.3939 18.7422C38.5731 18.7422 39.4813 19.6577 39.4813 20.8516C39.4813 22.0308 38.5951 22.895 37.3866 22.895Z" fill="black"/>
<path d="M44.6965 28.1538C45.3923 28.1538 45.8683 27.6558 45.8683 26.9966C45.8683 26.3301 45.3923 25.8394 44.6965 25.8394C44.008 25.8394 43.5246 26.3301 43.5246 26.9966C43.5246 27.6558 44.008 28.1538 44.6965 28.1538ZM44.6965 22.6606C45.3923 22.6606 45.8683 22.1699 45.8683 21.5107C45.8683 20.8442 45.3923 20.3535 44.6965 20.3535C44.008 20.3535 43.5246 20.8442 43.5246 21.5107C43.5246 22.1699 44.008 22.6606 44.6965 22.6606Z" fill="black"/>
<path d="M52.7241 28H54.5332V26.0298H55.9614V24.4331H54.5332V17.4312H51.8672C49.9995 20.2437 48.5127 22.5947 47.5605 24.3452V26.0298H52.7241V28ZM49.311 24.3672C50.5415 22.1992 51.6401 20.4634 52.6509 18.9692H52.7534V24.4771H49.311V24.3672Z" fill="black"/>
<path d="M59.99 28H61.8797V17.4312H59.9973L57.2361 19.3647V21.1812L59.8655 19.3354H59.99V28Z" fill="black"/>
</g>
<path d="M336.544 83V71.3636H343.76V72.875H338.3V76.4205H343.243V77.9261H338.3V83H336.544ZM345.783 83V74.2727H347.482V83H345.783ZM346.641 72.9261C346.345 72.9261 346.091 72.8277 345.879 72.6307C345.671 72.4299 345.567 72.1913 345.567 71.9148C345.567 71.6345 345.671 71.3958 345.879 71.1989C346.091 70.9981 346.345 70.8977 346.641 70.8977C346.936 70.8977 347.188 70.9981 347.396 71.1989C347.608 71.3958 347.714 71.6345 347.714 71.9148C347.714 72.1913 347.608 72.4299 347.396 72.6307C347.188 72.8277 346.936 72.9261 346.641 72.9261ZM351.466 71.3636V83H349.767V71.3636H351.466ZM357.825 74.2727V75.6364H353.058V74.2727H357.825ZM354.337 72.1818H356.036V80.4375C356.036 80.767 356.085 81.0152 356.183 81.1818C356.282 81.3447 356.409 81.4564 356.564 81.517C356.723 81.5739 356.895 81.6023 357.081 81.6023C357.217 81.6023 357.337 81.5928 357.439 81.5739C357.541 81.5549 357.621 81.5398 357.678 81.5284L357.984 82.9318C357.886 82.9697 357.746 83.0076 357.564 83.0455C357.382 83.0871 357.155 83.1098 356.882 83.1136C356.435 83.1212 356.018 83.0417 355.632 82.875C355.246 82.7083 354.933 82.4508 354.695 82.1023C354.456 81.7538 354.337 81.3163 354.337 80.7898V72.1818ZM363.372 83.1761C362.512 83.1761 361.772 82.9924 361.151 82.625C360.533 82.2538 360.056 81.733 359.719 81.0625C359.385 80.3883 359.219 79.5985 359.219 78.6932C359.219 77.7992 359.385 77.0114 359.719 76.3295C360.056 75.6477 360.526 75.1155 361.128 74.733C361.734 74.3504 362.442 74.1591 363.253 74.1591C363.745 74.1591 364.223 74.2405 364.685 74.4034C365.147 74.5663 365.562 74.822 365.929 75.1705C366.296 75.5189 366.586 75.9716 366.798 76.5284C367.01 77.0814 367.116 77.7538 367.116 78.5455V79.1477H360.179V77.875H365.452C365.452 77.428 365.361 77.0322 365.179 76.6875C364.997 76.339 364.741 76.0644 364.412 75.8636C364.086 75.6629 363.704 75.5625 363.264 75.5625C362.787 75.5625 362.37 75.6799 362.014 75.9148C361.662 76.1458 361.389 76.4489 361.196 76.8239C361.007 77.1951 360.912 77.5985 360.912 78.0341V79.0284C360.912 79.6117 361.014 80.108 361.219 80.517C361.427 80.9261 361.717 81.2386 362.088 81.4545C362.459 81.6667 362.893 81.7727 363.389 81.7727C363.711 81.7727 364.005 81.7273 364.27 81.6364C364.535 81.5417 364.764 81.4015 364.957 81.2159C365.151 81.0303 365.298 80.8011 365.401 80.5284L367.009 80.8182C366.88 81.2917 366.649 81.7064 366.315 82.0625C365.986 82.4148 365.571 82.6894 365.071 82.8864C364.575 83.0795 364.009 83.1761 363.372 83.1761ZM369.001 83V74.2727H370.643V75.6591H370.734C370.893 75.1894 371.174 74.8201 371.575 74.5511C371.981 74.2784 372.439 74.142 372.95 74.142C373.056 74.142 373.181 74.1458 373.325 74.1534C373.473 74.161 373.589 74.1705 373.672 74.1818V75.8068C373.604 75.7879 373.482 75.767 373.308 75.7443C373.134 75.7178 372.96 75.7045 372.786 75.7045C372.384 75.7045 372.026 75.7898 371.712 75.9602C371.401 76.1269 371.155 76.3598 370.973 76.6591C370.791 76.9545 370.7 77.2917 370.7 77.6705V83H369.001Z" fill="#FFB84E"/>
<path d="M148.12 65.63H164.59V68.18H148.12V65.63ZM147.37 73.16H165.13V75.86H147.37V73.16ZM147.31 84.47H165.22V87.29H147.31V84.47ZM150.4 80.84H162.4V83.06H150.4V80.84ZM148.69 69.38H163.96V71.87H148.69V69.38ZM151.27 63.5H154.48V74.36H151.27V63.5ZM157.96 63.5H161.2V74.36H157.96V63.5ZM154.66 74.51H157.63V86.15H154.66V74.51ZM160.42 76.97H163.69V88.55C163.69 90.02 163.39 90.77 162.37 91.25C161.35 91.67 159.88 91.7 157.87 91.7C157.75 90.86 157.39 89.72 157.03 88.94C158.2 89 159.55 89 159.91 88.97C160.3 88.94 160.42 88.85 160.42 88.49V76.97ZM148.81 76.97H161.62V79.46H151.84V91.73H148.81V76.97ZM138.22 72.95H146.47V75.65H138.22V72.95ZM138.37 64.46H146.35V67.19H138.37V64.46ZM138.22 77.15H146.47V79.85H138.22V77.15ZM136.87 68.63H147.34V71.45H136.87V68.63ZM139.87 81.38H146.59V90.5H139.87V87.68H143.59V84.23H139.87V81.38ZM138.13 81.38H141.07V91.7H138.13V81.38ZM168.94 66.35H193.09V69.02H168.94V66.35ZM170.5 70.1H191.53V72.59H170.5V70.1ZM167.53 73.7H194.47V76.43H167.53V73.7ZM167.5 80.72H194.62V83.36H167.5V80.72ZM179.08 67.88H182.8V75.08H179.08V67.88ZM185.5 63.47L189.46 64.25C188.65 65.45 187.81 66.53 187.18 67.25L184.09 66.47C184.6 65.57 185.2 64.34 185.5 63.47ZM167.38 84.98C170.89 84.83 176.23 84.56 181.39 84.23L181.36 86.66C176.47 87.08 171.37 87.44 167.68 87.71L167.38 84.98ZM173.44 77.63H176.92V88.58C176.92 90.17 176.56 90.86 175.42 91.28C174.28 91.67 172.72 91.7 170.47 91.7C170.29 90.86 169.87 89.72 169.45 88.94C170.77 89.03 172.42 89.03 172.84 89C173.29 89 173.44 88.88 173.44 88.49V77.63ZM178.99 76.34L181.03 78.41C177.64 79.25 172.78 79.67 168.76 79.82C168.67 79.19 168.31 78.23 168.01 77.63C171.88 77.45 176.38 76.97 178.99 76.34ZM181.6 76.82H185.05C185.35 83.27 188.23 88.46 191.41 88.43C192.13 88.4 192.34 87.89 192.49 86.18C193.18 86.81 194.29 87.32 195.13 87.59C194.62 90.95 193.6 91.67 191.23 91.67C185.77 91.67 182.08 85.25 181.6 76.82ZM189.64 83.21L192.7 84.23C189.94 87.86 184.93 90.26 179.98 91.67C179.65 90.95 178.78 89.51 178.21 88.82C182.83 87.86 187.42 85.97 189.64 83.21ZM186.16 78.35L188.11 76.28C189.88 76.91 192.1 78.02 193.24 78.98L191.17 81.23C190.12 80.3 187.93 79.07 186.16 78.35ZM173.08 64.55L176.23 63.53C177.01 64.34 177.76 65.51 178.09 66.35L174.79 67.58C174.52 66.74 173.8 65.45 173.08 64.55ZM197.14 75.35H224.92V79.28H197.14V75.35ZM234.85 80.84V81.83H246.97V80.84H234.85ZM234.85 83.6V84.62H246.97V83.6H234.85ZM234.85 78.11V79.07H246.97V78.11H234.85ZM231.46 76.22H250.54V86.51H231.46V76.22ZM242.23 85.52H245.77V87.8C245.77 88.55 245.98 88.61 247.18 88.61C247.75 88.61 250.06 88.61 250.78 88.61C251.74 88.61 251.92 88.28 252.07 86.18C252.73 86.63 254.14 87.11 255.04 87.29C254.71 90.56 253.78 91.43 251.11 91.43C250.36 91.43 247.45 91.43 246.73 91.43C243.13 91.43 242.23 90.56 242.23 87.83V85.52ZM235.63 85.79H239.14C238.42 89.3 236.32 90.98 228.46 91.76C228.25 90.95 227.5 89.69 226.93 89.03C233.62 88.64 235.03 87.83 235.63 85.79ZM243.91 71.9H253.93V74.63H243.91V71.9ZM244.15 66.44H254.68V69.2H244.15V66.44ZM244.03 63.5L247.24 64.22C246.37 67.31 244.84 70.46 243.19 72.41C242.59 71.9 241.21 70.97 240.43 70.58C242.02 68.87 243.34 66.17 244.03 63.5ZM233.83 65.45H236.71V68.27H233.83V65.45ZM233.83 71.12H236.71V74H233.83V71.12ZM230.29 67.46H240.58V72.35H230.29V70.43H237.46V69.38H230.29V67.46ZM241 64.52V66.5H231.73V73.43H241.48V75.44H228.49V64.52H241Z" fill="black"/>
<path d="M17.2784 83V71.3636H21.5398C22.3655 71.3636 23.0492 71.5 23.5909 71.7727C24.1326 72.0417 24.5379 72.4072 24.8068 72.8693C25.0758 73.3277 25.2102 73.8447 25.2102 74.4205C25.2102 74.9053 25.1212 75.3144 24.9432 75.6477C24.7652 75.9773 24.5265 76.2424 24.2273 76.4432C23.9318 76.6402 23.6061 76.7841 23.25 76.875V76.9886C23.6364 77.0076 24.0133 77.1326 24.3807 77.3636C24.7519 77.5909 25.0587 77.9148 25.3011 78.3352C25.5436 78.7557 25.6648 79.267 25.6648 79.8693C25.6648 80.464 25.5246 80.9981 25.2443 81.4716C24.9678 81.9413 24.5398 82.3144 23.9602 82.5909C23.3807 82.8636 22.6402 83 21.7386 83H17.2784ZM19.0341 81.4943H21.5682C22.4091 81.4943 23.0114 81.3314 23.375 81.0057C23.7386 80.6799 23.9205 80.2727 23.9205 79.7841C23.9205 79.4167 23.8277 79.0795 23.642 78.7727C23.4564 78.4659 23.1913 78.2216 22.8466 78.0398C22.5057 77.858 22.1004 77.767 21.6307 77.767H19.0341V81.4943ZM19.0341 76.3977H21.3864C21.7803 76.3977 22.1345 76.322 22.4489 76.1705C22.767 76.0189 23.0189 75.8068 23.2045 75.5341C23.3939 75.2576 23.4886 74.9318 23.4886 74.5568C23.4886 74.0758 23.3201 73.6723 22.983 73.3466C22.6458 73.0208 22.1288 72.858 21.4318 72.858H19.0341V76.3977ZM30.1506 83.1932C29.5975 83.1932 29.0975 83.0909 28.6506 82.8864C28.2036 82.678 27.8494 82.3769 27.5881 81.983C27.3305 81.589 27.2017 81.1061 27.2017 80.5341C27.2017 80.0417 27.2964 79.6364 27.4858 79.3182C27.6752 79 27.9309 78.7481 28.2528 78.5625C28.5748 78.3769 28.9347 78.2367 29.3324 78.142C29.7301 78.0473 30.1354 77.9754 30.5483 77.9261C31.071 77.8655 31.4953 77.8163 31.821 77.7784C32.1468 77.7367 32.3835 77.6705 32.5312 77.5795C32.679 77.4886 32.7528 77.3409 32.7528 77.1364V77.0966C32.7528 76.6004 32.6127 76.2159 32.3324 75.9432C32.0559 75.6705 31.643 75.5341 31.0938 75.5341C30.5218 75.5341 30.071 75.661 29.7415 75.9148C29.4157 76.1648 29.1903 76.4432 29.0653 76.75L27.4688 76.3864C27.6581 75.8561 27.9347 75.428 28.2983 75.1023C28.6657 74.7727 29.0881 74.5341 29.5653 74.3864C30.0426 74.2348 30.5445 74.1591 31.071 74.1591C31.4195 74.1591 31.7888 74.2008 32.179 74.2841C32.5729 74.3636 32.9403 74.5114 33.2812 74.7273C33.6259 74.9432 33.9081 75.2519 34.1278 75.6534C34.3475 76.0511 34.4574 76.5682 34.4574 77.2045V83H32.7983V81.8068H32.7301C32.6203 82.0265 32.4555 82.2424 32.2358 82.4545C32.0161 82.6667 31.7339 82.8428 31.3892 82.983C31.0445 83.1231 30.6316 83.1932 30.1506 83.1932ZM30.5199 81.8295C30.9896 81.8295 31.3911 81.7367 31.7244 81.5511C32.0616 81.3655 32.3172 81.1231 32.4915 80.8239C32.6695 80.5208 32.7585 80.197 32.7585 79.8523V78.7273C32.6979 78.7879 32.5805 78.8447 32.4062 78.8977C32.2358 78.947 32.0407 78.9905 31.821 79.0284C31.6013 79.0625 31.3873 79.0947 31.179 79.125C30.9706 79.1515 30.7964 79.1742 30.6562 79.1932C30.3267 79.2348 30.0256 79.3049 29.7528 79.4034C29.4839 79.5019 29.268 79.6439 29.1051 79.8295C28.946 80.0114 28.8665 80.2538 28.8665 80.5568C28.8665 80.9773 29.0218 81.2955 29.3324 81.5114C29.643 81.7235 30.0388 81.8295 30.5199 81.8295ZM40.3963 83.1761C39.5516 83.1761 38.8243 82.9848 38.2145 82.6023C37.6084 82.2159 37.1425 81.6837 36.8168 81.0057C36.491 80.3277 36.3281 79.5511 36.3281 78.6761C36.3281 77.7898 36.4948 77.0076 36.8281 76.3295C37.1615 75.6477 37.6312 75.1155 38.2372 74.733C38.8433 74.3504 39.5573 74.1591 40.3793 74.1591C41.0421 74.1591 41.633 74.2822 42.152 74.5284C42.6709 74.7708 43.0895 75.1117 43.4077 75.5511C43.7296 75.9905 43.9209 76.5038 43.9815 77.0909H42.3281C42.2372 76.6818 42.0289 76.3295 41.7031 76.0341C41.3812 75.7386 40.9493 75.5909 40.4077 75.5909C39.9342 75.5909 39.5194 75.7159 39.1634 75.9659C38.8111 76.2121 38.5365 76.5644 38.3395 77.0227C38.1425 77.4773 38.044 78.0152 38.044 78.6364C38.044 79.2727 38.1406 79.822 38.3338 80.2841C38.527 80.7462 38.7997 81.1042 39.152 81.358C39.508 81.6117 39.9266 81.7386 40.4077 81.7386C40.7296 81.7386 41.0213 81.6799 41.2827 81.5625C41.5478 81.4413 41.7694 81.2689 41.9474 81.0455C42.1293 80.822 42.2562 80.553 42.3281 80.2386H43.9815C43.9209 80.803 43.7372 81.3068 43.4304 81.75C43.1236 82.1932 42.7126 82.5417 42.1974 82.7955C41.6861 83.0492 41.0857 83.1761 40.3963 83.1761ZM47.3608 80.0398L47.3494 77.9659H47.6449L51.1222 74.2727H53.1562L49.1903 78.4773H48.9233L47.3608 80.0398ZM45.7983 83V71.3636H47.4972V83H45.7983ZM51.3097 83L48.1847 78.8523L49.3551 77.6648L53.3949 83H51.3097Z" fill="#FFB84E"/>
<path d="M16.5 153C16.5 139.469 27.469 128.5 41 128.5H349C362.531 128.5 373.5 139.469 373.5 153C373.5 166.531 362.531 177.5 349 177.5H41C27.469 177.5 16.5 166.531 16.5 153Z" fill="#F6F6F6" stroke="#E8E8E8"/>
<path d="M39.625 150.42C39.5644 149.883 39.3144 149.466 38.875 149.17C38.4356 148.871 37.8826 148.722 37.2159 148.722C36.7386 148.722 36.3258 148.797 35.9773 148.949C35.6288 149.097 35.358 149.301 35.1648 149.562C34.9754 149.82 34.8807 150.114 34.8807 150.443C34.8807 150.72 34.9451 150.958 35.0739 151.159C35.2064 151.36 35.3788 151.528 35.5909 151.665C35.8068 151.797 36.0379 151.909 36.2841 152C36.5303 152.087 36.767 152.159 36.9943 152.216L38.1307 152.511C38.5019 152.602 38.8826 152.725 39.2727 152.881C39.6629 153.036 40.0246 153.241 40.358 153.494C40.6913 153.748 40.9602 154.062 41.1648 154.438C41.3731 154.812 41.4773 155.261 41.4773 155.784C41.4773 156.443 41.3068 157.028 40.9659 157.54C40.6288 158.051 40.1383 158.455 39.4943 158.75C38.8542 159.045 38.0795 159.193 37.1705 159.193C36.2992 159.193 35.5455 159.055 34.9091 158.778C34.2727 158.502 33.7746 158.11 33.4148 157.602C33.0549 157.091 32.8561 156.485 32.8182 155.784H34.5795C34.6136 156.205 34.75 156.555 34.9886 156.835C35.2311 157.112 35.5398 157.318 35.9148 157.455C36.2936 157.587 36.7083 157.653 37.1591 157.653C37.6553 157.653 38.0966 157.576 38.483 157.42C38.8731 157.261 39.1799 157.042 39.4034 156.761C39.6269 156.477 39.7386 156.146 39.7386 155.767C39.7386 155.422 39.6402 155.14 39.4432 154.92C39.25 154.701 38.9867 154.519 38.6534 154.375C38.3239 154.231 37.9508 154.104 37.5341 153.994L36.1591 153.619C35.2273 153.366 34.4886 152.992 33.9432 152.5C33.4015 152.008 33.1307 151.356 33.1307 150.545C33.1307 149.875 33.3125 149.29 33.6761 148.79C34.0398 148.29 34.5322 147.902 35.1534 147.625C35.7746 147.345 36.4754 147.205 37.2557 147.205C38.0436 147.205 38.7386 147.343 39.3409 147.619C39.947 147.896 40.4242 148.277 40.7727 148.761C41.1212 149.242 41.303 149.795 41.3182 150.42H39.625ZM47.2003 159.176C46.3404 159.176 45.5999 158.992 44.9787 158.625C44.3613 158.254 43.884 157.733 43.5469 157.062C43.2135 156.388 43.0469 155.598 43.0469 154.693C43.0469 153.799 43.2135 153.011 43.5469 152.33C43.884 151.648 44.3537 151.116 44.956 150.733C45.562 150.35 46.2704 150.159 47.081 150.159C47.5734 150.159 48.0507 150.241 48.5128 150.403C48.9749 150.566 49.3897 150.822 49.7571 151.17C50.1245 151.519 50.4143 151.972 50.6264 152.528C50.8385 153.081 50.9446 153.754 50.9446 154.545V155.148H44.0071V153.875H49.2798C49.2798 153.428 49.1889 153.032 49.0071 152.688C48.8253 152.339 48.5696 152.064 48.2401 151.864C47.9143 151.663 47.5317 151.562 47.0923 151.562C46.6151 151.562 46.1984 151.68 45.8423 151.915C45.4901 152.146 45.2173 152.449 45.0241 152.824C44.8348 153.195 44.7401 153.598 44.7401 154.034V155.028C44.7401 155.612 44.8423 156.108 45.0469 156.517C45.2552 156.926 45.545 157.239 45.9162 157.455C46.2874 157.667 46.7211 157.773 47.2173 157.773C47.5393 157.773 47.8329 157.727 48.098 157.636C48.3632 157.542 48.5923 157.402 48.7855 157.216C48.9787 157.03 49.1264 156.801 49.2287 156.528L50.8366 156.818C50.7079 157.292 50.4768 157.706 50.1435 158.062C49.8139 158.415 49.3991 158.689 48.8991 158.886C48.4029 159.08 47.8366 159.176 47.2003 159.176ZM55.3693 159.193C54.8163 159.193 54.3163 159.091 53.8693 158.886C53.4223 158.678 53.0682 158.377 52.8068 157.983C52.5492 157.589 52.4205 157.106 52.4205 156.534C52.4205 156.042 52.5152 155.636 52.7045 155.318C52.8939 155 53.1496 154.748 53.4716 154.562C53.7936 154.377 54.1534 154.237 54.5511 154.142C54.9489 154.047 55.3542 153.975 55.767 153.926C56.2898 153.866 56.714 153.816 57.0398 153.778C57.3655 153.737 57.6023 153.67 57.75 153.58C57.8977 153.489 57.9716 153.341 57.9716 153.136V153.097C57.9716 152.6 57.8314 152.216 57.5511 151.943C57.2746 151.67 56.8617 151.534 56.3125 151.534C55.7405 151.534 55.2898 151.661 54.9602 151.915C54.6345 152.165 54.4091 152.443 54.2841 152.75L52.6875 152.386C52.8769 151.856 53.1534 151.428 53.517 151.102C53.8845 150.773 54.3068 150.534 54.7841 150.386C55.2614 150.235 55.7633 150.159 56.2898 150.159C56.6383 150.159 57.0076 150.201 57.3977 150.284C57.7917 150.364 58.1591 150.511 58.5 150.727C58.8447 150.943 59.1269 151.252 59.3466 151.653C59.5663 152.051 59.6761 152.568 59.6761 153.205V159H58.017V157.807H57.9489C57.839 158.027 57.6742 158.242 57.4545 158.455C57.2348 158.667 56.9527 158.843 56.608 158.983C56.2633 159.123 55.8504 159.193 55.3693 159.193ZM55.7386 157.83C56.2083 157.83 56.6098 157.737 56.9432 157.551C57.2803 157.366 57.536 157.123 57.7102 156.824C57.8883 156.521 57.9773 156.197 57.9773 155.852V154.727C57.9167 154.788 57.7992 154.845 57.625 154.898C57.4545 154.947 57.2595 154.991 57.0398 155.028C56.8201 155.062 56.6061 155.095 56.3977 155.125C56.1894 155.152 56.0152 155.174 55.875 155.193C55.5455 155.235 55.2443 155.305 54.9716 155.403C54.7027 155.502 54.4867 155.644 54.3239 155.83C54.1648 156.011 54.0852 156.254 54.0852 156.557C54.0852 156.977 54.2405 157.295 54.5511 157.511C54.8617 157.723 55.2576 157.83 55.7386 157.83ZM61.9389 159V150.273H63.581V151.659H63.6719C63.831 151.189 64.1113 150.82 64.5128 150.551C64.9181 150.278 65.3764 150.142 65.8878 150.142C65.9938 150.142 66.1188 150.146 66.2628 150.153C66.4105 150.161 66.526 150.17 66.6094 150.182V151.807C66.5412 151.788 66.42 151.767 66.2457 151.744C66.0715 151.718 65.8973 151.705 65.723 151.705C65.3215 151.705 64.9635 151.79 64.6491 151.96C64.3385 152.127 64.0923 152.36 63.9105 152.659C63.7287 152.955 63.6378 153.292 63.6378 153.67V159H61.9389ZM71.4432 159.176C70.5985 159.176 69.8712 158.985 69.2614 158.602C68.6553 158.216 68.1894 157.684 67.8636 157.006C67.5379 156.328 67.375 155.551 67.375 154.676C67.375 153.79 67.5417 153.008 67.875 152.33C68.2083 151.648 68.678 151.116 69.2841 150.733C69.8902 150.35 70.6042 150.159 71.4261 150.159C72.089 150.159 72.6799 150.282 73.1989 150.528C73.7178 150.771 74.1364 151.112 74.4545 151.551C74.7765 151.991 74.9678 152.504 75.0284 153.091H73.375C73.2841 152.682 73.0758 152.33 72.75 152.034C72.428 151.739 71.9962 151.591 71.4545 151.591C70.9811 151.591 70.5663 151.716 70.2102 151.966C69.858 152.212 69.5833 152.564 69.3864 153.023C69.1894 153.477 69.0909 154.015 69.0909 154.636C69.0909 155.273 69.1875 155.822 69.3807 156.284C69.5739 156.746 69.8466 157.104 70.1989 157.358C70.5549 157.612 70.9735 157.739 71.4545 157.739C71.7765 157.739 72.0682 157.68 72.3295 157.562C72.5947 157.441 72.8163 157.269 72.9943 157.045C73.1761 156.822 73.303 156.553 73.375 156.239H75.0284C74.9678 156.803 74.7841 157.307 74.4773 157.75C74.1705 158.193 73.7595 158.542 73.2443 158.795C72.733 159.049 72.1326 159.176 71.4432 159.176ZM78.544 153.818V159H76.8452V147.364H78.5213V151.693H78.6293C78.8338 151.223 79.1463 150.85 79.5668 150.574C79.9872 150.297 80.5365 150.159 81.2145 150.159C81.813 150.159 82.3357 150.282 82.7827 150.528C83.2334 150.775 83.5819 151.142 83.8281 151.631C84.0781 152.116 84.2031 152.722 84.2031 153.449V159H82.5043V153.653C82.5043 153.013 82.3395 152.517 82.0099 152.165C81.6804 151.809 81.2221 151.631 80.6349 151.631C80.2334 151.631 79.8736 151.716 79.5554 151.886C79.241 152.057 78.9929 152.307 78.8111 152.636C78.633 152.962 78.544 153.356 78.544 153.818Z" fill="#BDBDBD"/>
<path d="M47.896 214.2C47.768 214.344 47.576 214.584 47.464 214.76C46.824 215.848 45.304 217.912 43.48 219.176L42.408 218.328C43.896 217.48 45.4 215.752 45.912 214.76C44.792 214.76 37.56 214.76 36.792 214.76C36.2 214.76 35.608 214.792 34.984 214.84V213.4C35.544 213.48 36.2 213.544 36.792 213.544C37.56 213.544 45.032 213.544 45.992 213.544C46.296 213.544 46.872 213.496 47.096 213.432L47.896 214.2ZM41.496 216.296C41.496 220.632 41.112 223.56 37.032 225.608L35.864 224.648C36.296 224.504 36.856 224.232 37.304 223.928C39.768 222.408 40.12 220.136 40.12 217.464C40.12 217.08 40.12 216.728 40.056 216.296H41.496ZM57.2118 224.664C57.2758 224.424 57.3238 224.088 57.3238 223.768C57.3238 223.032 57.3238 215.192 57.3238 214.184C57.3238 213.576 57.2438 213.128 57.2438 213H58.7158C58.6998 213.128 58.6358 213.592 58.6358 214.2C58.6358 215.192 58.6358 222.936 58.6358 223.416C60.1238 222.744 62.0918 221.288 63.3078 219.48L64.0758 220.584C62.6838 222.456 60.4758 224.088 58.6198 225.016C58.3478 225.144 58.1878 225.288 58.0598 225.368L57.2118 224.664ZM49.8838 224.6C51.2438 223.64 52.1878 222.216 52.6678 220.664C53.1478 219.192 53.1478 216.008 53.1478 214.216C53.1478 213.752 53.1158 213.4 53.0358 213.064H54.5078C54.4918 213.24 54.4278 213.736 54.4278 214.2C54.4278 215.976 54.3798 219.416 53.9478 221.016C53.4678 222.728 52.4438 224.28 51.0998 225.4L49.8838 224.6ZM76.2753 211.8C76.6593 212.344 77.2513 213.336 77.5713 213.944L76.6753 214.328C76.3553 213.672 75.7953 212.728 75.3953 212.168L76.2753 211.8ZM78.3073 211.352C78.6913 211.896 79.2833 212.84 79.6193 213.464L78.7233 213.848C78.3713 213.192 77.8433 212.264 77.4113 211.72L78.3073 211.352ZM66.9633 214.52C67.4913 214.568 68.1953 214.616 68.7073 214.616H76.5953C76.9793 214.616 77.4593 214.6 77.7793 214.584C77.7633 214.936 77.7473 215.448 77.7473 215.816V224.088C77.7473 224.648 77.7793 225.384 77.7953 225.624H76.3553C76.3713 225.384 76.3873 224.792 76.3873 224.216V215.88H68.7233C68.1313 215.88 67.3473 215.912 66.9633 215.944V214.52ZM66.7553 223.352C67.1713 223.384 67.8753 223.432 68.5312 223.432H77.1073V224.744H68.5793C67.9233 224.744 67.1873 224.76 66.7553 224.808V223.352ZM92.9313 212.872C92.8993 213.256 92.8833 213.72 92.8833 214.264C92.8833 214.888 92.8833 216.248 92.8833 216.84C92.8833 220.696 92.3713 221.96 91.2033 223.32C90.1793 224.568 88.5793 225.272 87.4113 225.672L86.3553 224.568C87.8273 224.184 89.1873 223.56 90.1793 222.424C91.3153 221.112 91.5233 219.8 91.5233 216.792C91.5233 216.168 91.5233 214.824 91.5233 214.264C91.5233 213.72 91.4753 213.256 91.4273 212.872H92.9313ZM85.5073 213C85.4753 213.304 85.4593 213.768 85.4593 214.136C85.4593 214.616 85.4593 218.808 85.4593 219.48C85.4593 219.896 85.4753 220.424 85.5073 220.712H84.0513C84.0833 220.456 84.1153 219.944 84.1153 219.48C84.1153 218.792 84.1153 214.616 84.1153 214.136C84.1153 213.864 84.0993 213.304 84.0513 213H85.5073ZM108.627 211.992C109.043 212.568 109.635 213.544 109.939 214.184L109.075 214.568C108.755 213.912 108.211 212.968 107.779 212.344L108.627 211.992ZM110.451 211.432C110.867 212.008 111.491 213.016 111.795 213.608L110.931 213.992C110.579 213.288 110.051 212.392 109.603 211.784L110.451 211.432ZM108.995 214.584C108.899 214.712 108.691 215.064 108.611 215.288C107.971 216.856 106.755 219.096 105.427 220.584C103.635 222.568 101.347 224.488 98.8193 225.64L97.7953 224.568C100.387 223.56 102.739 221.656 104.387 219.816C105.475 218.584 106.643 216.696 107.059 215.368C106.483 215.368 101.363 215.368 100.819 215.368C100.243 215.368 99.3793 215.432 99.2033 215.448V213.992C99.4113 214.024 100.323 214.104 100.819 214.104C101.443 214.104 106.387 214.104 106.995 214.104C107.507 214.104 107.939 214.04 108.195 213.96L108.995 214.584ZM105.635 219.736C107.363 221.176 109.491 223.416 110.579 224.76L109.475 225.72C108.323 224.2 106.451 222.152 104.723 220.648L105.635 219.736ZM120.883 213.08C120.723 213.464 120.547 213.88 120.323 214.568C119.811 216.2 117.955 221.944 117.267 223.56L115.827 223.608C116.627 221.768 118.483 215.976 118.963 214.28C119.171 213.544 119.235 213.176 119.283 212.744L120.883 213.08ZM123.923 218.44C125.043 220.072 126.803 223.304 127.459 224.952L126.131 225.544C125.491 223.816 123.859 220.488 122.707 218.968L123.923 218.44ZM115.203 223.224C117.507 223.112 123.235 222.472 125.299 222.168L125.651 223.416C123.427 223.704 117.539 224.344 115.283 224.568C114.883 224.6 114.403 224.664 113.955 224.728L113.699 223.256C114.179 223.272 114.739 223.256 115.203 223.224ZM139.091 212.712C138.211 214.184 136.579 215.96 134.819 217.096C134.691 216.808 134.419 216.376 134.195 216.12C135.955 215.048 137.667 213.176 138.483 211.608H139.603C140.707 213.288 142.467 214.984 144.083 215.912C143.859 216.2 143.587 216.632 143.411 216.952C141.827 215.912 140.067 214.184 139.091 212.712ZM135.235 218.376H142.835V219.384H136.259V226.248H135.235V218.376ZM142.115 218.376H143.171V225.128C143.171 225.624 143.091 225.912 142.755 226.072C142.435 226.248 141.955 226.264 141.267 226.264C141.235 225.992 141.091 225.576 140.947 225.304C141.411 225.32 141.795 225.32 141.939 225.304C142.083 225.304 142.115 225.256 142.115 225.112V218.376ZM137.603 218.664H138.451V226.056H137.603V218.664ZM139.827 218.664H140.691V226.056H139.827V218.664ZM136.419 215.976H141.923V216.984H136.419V215.976ZM135.715 221.656H142.739V222.648H135.715V221.656ZM129.827 216.408H134.147V217.368H129.827V216.408ZM129.907 212.136H134.083V213.096H129.907V212.136ZM129.827 218.552H134.147V219.512H129.827V218.552ZM129.139 214.232H134.611V215.224H129.139V214.232ZM130.387 220.712H134.147V225.368H130.387V224.376H133.139V221.704H130.387V220.712ZM129.795 220.712H130.819V226.12H129.795V220.712Z" fill="black"/>
<line x1="33" y1="242.5" x2="359" y2="242.5" stroke="#E8E8E8"/>
<path d="M35.736 263.04C36.28 263.088 36.968 263.136 37.496 263.136H45.368C45.768 263.136 46.232 263.12 46.552 263.104C46.536 263.456 46.52 263.968 46.52 264.336V272.608C46.52 273.184 46.568 273.904 46.584 274.144H45.144C45.144 273.904 45.176 273.312 45.176 272.736V264.4H37.496C36.904 264.4 36.12 264.432 35.736 264.464V263.04ZM35.544 271.872C35.944 271.904 36.648 271.952 37.304 271.952H45.896V273.264H37.352C36.696 273.264 35.976 273.28 35.544 273.328V271.872ZM52.632 262.288C53.752 263.04 55.816 264.704 56.696 265.584L55.704 266.608C54.888 265.776 52.904 264.048 51.704 263.264L52.632 262.288ZM51.256 273.008C54.04 272.592 56.12 271.616 57.64 270.672C60.12 269.12 62.056 266.752 62.984 264.768L63.752 266.144C62.664 268.128 60.808 270.304 58.392 271.824C56.776 272.832 54.76 273.824 52.088 274.32L51.256 273.008ZM77.512 262.848C77.512 263.44 77.992 263.904 78.568 263.904C79.144 263.904 79.624 263.44 79.624 262.848C79.624 262.272 79.144 261.792 78.568 261.792C77.992 261.792 77.512 262.272 77.512 262.848ZM76.776 262.848C76.776 261.856 77.576 261.056 78.568 261.056C79.56 261.056 80.36 261.856 80.36 262.848C80.36 263.84 79.56 264.64 78.568 264.64C77.576 264.64 76.776 263.84 76.776 262.848ZM68.472 269.2C69.176 267.536 69.832 265.104 70.056 263.264L71.48 263.552C71.368 263.904 71.256 264.384 71.176 264.72C70.968 265.712 70.408 268.08 69.736 269.728C69.144 271.184 68.264 272.832 67.368 274.128L66.008 273.552C67.016 272.208 67.928 270.528 68.472 269.2ZM76.36 268.592C75.72 266.944 74.728 264.72 74.04 263.52L75.336 263.088C75.96 264.256 76.984 266.464 77.672 268.144C78.312 269.728 79.16 272.176 79.592 273.632L78.168 274.08C77.768 272.464 77.016 270.288 76.36 268.592ZM82.376 268.224C85.144 267.488 87.576 266.352 89.352 265.248C91.032 264.192 92.632 262.816 93.736 261.472L94.808 262.48C93.432 263.904 91.752 265.248 89.88 266.416C88.12 267.504 85.576 268.672 83 269.472L82.376 268.224ZM89.096 265.904L90.472 265.488V272.8C90.472 273.392 90.504 274.192 90.584 274.496H89C89.048 274.192 89.096 273.392 89.096 272.8V265.904ZM100.696 262.096C101.112 262.144 101.608 262.176 102.12 262.176C102.984 262.176 107.48 262.176 108.424 262.176C108.92 262.176 109.48 262.144 109.864 262.096V263.424C109.496 263.392 108.936 263.376 108.392 263.376C107.496 263.376 103 263.376 102.12 263.376C101.64 263.376 101.128 263.392 100.696 263.424V262.096ZM111.048 266.304C110.968 266.464 110.856 266.656 110.824 266.784C110.408 268.352 109.688 270.016 108.488 271.328C106.824 273.168 104.808 274.096 102.776 274.672L101.784 273.536C104.04 273.072 106.04 272.032 107.416 270.592C108.376 269.584 109.016 268.224 109.304 267.056C108.52 267.056 101.784 267.056 100.824 267.056C100.44 267.056 99.832 267.072 99.256 267.12V265.776C99.832 265.824 100.376 265.872 100.824 265.872C101.608 265.872 108.424 265.872 109.24 265.872C109.608 265.872 109.96 265.824 110.136 265.744L111.048 266.304Z" fill="black"/>
<line x1="33" y1="291.5" x2="359" y2="291.5" stroke="#E8E8E8"/>
<path d="M43.544 310.488C43.48 310.92 43.448 311.384 43.464 311.816C43.48 313.592 43.592 319.176 43.608 322.168C43.624 323.016 43.112 323.464 42.152 323.464C41.336 323.464 40.392 323.416 39.592 323.368L39.48 322.04C40.248 322.168 41.144 322.232 41.752 322.232C42.2 322.232 42.344 322.024 42.344 321.592C42.344 319.304 42.28 313.592 42.2 311.816C42.168 311.208 42.136 310.824 42.072 310.488H43.544ZM34.952 313.288C35.416 313.336 35.944 313.368 36.424 313.368C37.272 313.368 45.192 313.368 46.008 313.368C46.424 313.368 47.048 313.32 47.368 313.272V314.632C46.984 314.616 46.44 314.584 46.04 314.584C45.336 314.584 37.176 314.584 36.456 314.584C35.912 314.584 35.464 314.616 34.952 314.648V313.288ZM34.376 320.76C37.752 319.096 40.712 316.296 41.896 314.344H42.536L42.552 315.416C41.336 317.32 38.36 320.168 35.288 321.8L34.376 320.76ZM50.616 316.072C51.112 316.12 51.944 316.168 52.856 316.168C54.024 316.168 60.44 316.168 61.624 316.168C62.424 316.168 62.984 316.104 63.352 316.072V317.64C63.016 317.624 62.344 317.576 61.64 317.576C60.424 317.576 54.04 317.576 52.856 317.576C51.976 317.576 51.128 317.608 50.616 317.64V316.072ZM70.376 321.592C70.376 320.696 70.376 313.624 70.376 312.296C70.376 311.832 70.344 311.128 70.264 310.616H71.832C71.768 311.112 71.72 311.8 71.72 312.296C71.72 314.776 71.736 320.84 71.736 321.592C71.736 322.104 71.768 322.968 71.832 323.496H70.28C70.36 322.984 70.376 322.184 70.376 321.592ZM71.432 314.824C73.544 315.432 76.776 316.664 78.552 317.528L77.992 318.888C76.168 317.912 73.176 316.776 71.432 316.232V314.824ZM95.848 312.856C95.688 313.032 95.544 313.208 95.448 313.352C94.248 315.32 92.04 318.136 89.208 320.184L88.216 319.288C90.776 317.512 92.84 314.92 93.688 313.4C92.248 313.4 85.192 313.4 84.28 313.4C83.64 313.4 82.952 313.448 82.648 313.48V312.056C83.08 312.12 83.72 312.168 84.28 312.168C85.096 312.168 92.216 312.168 93.816 312.168C94.248 312.168 94.616 312.136 94.84 312.056L95.848 312.856ZM88.312 320.456C87.352 319.496 85.512 317.912 84.664 317.304L85.688 316.472C86.424 317 88.28 318.52 89.432 319.64C90.44 320.648 91.688 321.96 92.376 322.792L91.208 323.72C90.616 322.904 89.336 321.496 88.312 320.456ZM102.376 321.592C102.376 320.696 102.376 313.624 102.376 312.296C102.376 311.832 102.344 311.128 102.264 310.616H103.832C103.768 311.112 103.72 311.8 103.72 312.296C103.72 314.776 103.736 320.84 103.736 321.592C103.736 322.104 103.768 322.968 103.832 323.496H102.28C102.36 322.984 102.376 322.184 102.376 321.592ZM103.432 314.824C105.544 315.432 108.776 316.664 110.552 317.528L109.992 318.888C108.168 317.912 105.176 316.776 103.432 316.232V314.824ZM116.632 311.288C117.752 312.04 119.816 313.704 120.696 314.584L119.704 315.608C118.888 314.776 116.904 313.048 115.704 312.264L116.632 311.288ZM115.256 322.008C118.04 321.592 120.12 320.616 121.64 319.672C124.12 318.12 126.056 315.752 126.984 313.768L127.752 315.144C126.664 317.128 124.808 319.304 122.392 320.824C120.776 321.832 118.76 322.824 116.088 323.32L115.256 322.008Z" fill="black"/>
<line x1="33" y1="340.5" x2="359" y2="340.5" stroke="#E8E8E8"/>
<path d="M36.248 360.32C36.696 360.368 37.176 360.4 37.688 360.4C38.616 360.4 42.344 360.4 43.24 360.4C43.688 360.4 44.264 360.368 44.728 360.32V361.648C44.248 361.616 43.688 361.584 43.24 361.584C42.344 361.584 38.616 361.584 37.72 361.584C37.176 361.584 36.664 361.616 36.248 361.648V360.32ZM34.344 364.336C34.776 364.384 35.24 364.416 35.736 364.416C36.664 364.416 45.352 364.416 46.2 364.416C46.536 364.416 47.064 364.384 47.464 364.336V365.664C47.112 365.632 46.6 365.616 46.2 365.616C45.352 365.616 36.664 365.616 35.736 365.616C35.256 365.616 34.776 365.632 34.344 365.664V364.336ZM41.88 364.976C41.88 366.992 41.624 368.656 40.92 370C40.328 371.072 39.128 372.224 37.768 372.912L36.584 372.048C37.816 371.52 38.968 370.608 39.608 369.584C40.408 368.32 40.52 366.752 40.536 364.992L41.88 364.976ZM45.56 359.008C45.96 359.584 46.536 360.56 46.856 361.2L45.992 361.584C45.688 360.944 45.144 359.984 44.712 359.376L45.56 359.008ZM47.304 358.368C47.736 358.96 48.344 359.952 48.648 360.544L47.8 360.928C47.448 360.24 46.92 359.328 46.472 358.736L47.304 358.368ZM50.616 365.072C51.112 365.12 51.944 365.168 52.856 365.168C54.024 365.168 60.44 365.168 61.624 365.168C62.424 365.168 62.984 365.104 63.352 365.072V366.64C63.016 366.624 62.344 366.576 61.64 366.576C60.424 366.576 54.04 366.576 52.856 366.576C51.976 366.576 51.128 366.608 50.616 366.64V365.072ZM71.64 364.672C73.688 365.872 76.312 367.712 77.896 368.992L76.952 370.112C75.48 368.768 72.744 366.8 70.76 365.568L71.64 364.672ZM78.952 361.76C78.824 361.984 78.664 362.352 78.584 362.608C78.104 364.24 77.096 366.368 75.688 368.096C74.232 369.888 72.152 371.6 69.112 372.72L67.976 371.712C70.952 370.816 73.128 369.12 74.568 367.408C75.8 365.936 76.808 363.904 77.176 362.416H71.256L71.768 361.264H76.856C77.288 361.264 77.64 361.216 77.896 361.12L78.952 361.76ZM73.56 359.44C73.288 359.856 73 360.4 72.84 360.704C71.896 362.464 70.088 364.88 67.528 366.64L66.472 365.824C69.208 364.112 70.856 361.712 71.592 360.24C71.752 359.968 72.008 359.392 72.104 358.976L73.56 359.44ZM92.52 364.656C92.52 368.912 91.592 371.104 87.944 372.752L86.872 371.728C89.784 370.624 91.224 369.248 91.224 364.752V360.864C91.224 360.24 91.176 359.712 91.144 359.568H92.6C92.584 359.728 92.52 360.24 92.52 360.864V364.656ZM86.744 359.664C86.728 359.808 86.68 360.272 86.68 360.816V366.688C86.68 367.28 86.728 367.984 86.744 368.128H85.32C85.336 367.984 85.4 367.296 85.4 366.688V360.816C85.4 360.48 85.368 360.032 85.32 359.664H86.744ZM82.072 362.768C82.216 362.784 83 362.88 83.672 362.88H94.264C94.984 362.88 95.512 362.816 95.736 362.784V364.144C95.56 364.128 94.984 364.096 94.28 364.096H83.672C82.968 364.096 82.248 364.144 82.072 364.144V362.768ZM98.376 366.224C101.144 365.488 103.576 364.352 105.352 363.248C107.032 362.192 108.632 360.816 109.736 359.472L110.808 360.48C109.432 361.904 107.752 363.248 105.88 364.416C104.12 365.504 101.576 366.672 99 367.472L98.376 366.224ZM105.096 363.904L106.472 363.488V370.8C106.472 371.392 106.504 372.192 106.584 372.496H105C105.048 372.192 105.096 371.392 105.096 370.8V363.904ZM115.164 361.312C115.58 361.36 116.172 361.392 116.508 361.392H125.292C125.788 361.392 126.284 361.36 126.668 361.312V362.704C126.268 362.672 125.756 362.64 125.292 362.64H116.508C116.188 362.64 115.564 362.672 115.164 362.704V361.312ZM120.108 370.704V362.112H121.468V370.704H120.108ZM114.188 369.92C114.652 369.984 115.148 370.016 115.596 370.016H126.172C126.652 370.016 127.084 369.952 127.484 369.92V371.36C127.068 371.312 126.476 371.312 126.172 371.312H115.596C115.164 371.312 114.668 371.328 114.188 371.36V369.92ZM132.476 360.288C133.596 361.04 135.66 362.704 136.54 363.584L135.548 364.608C134.732 363.776 132.748 362.048 131.548 361.264L132.476 360.288ZM131.1 371.008C133.884 370.592 135.964 369.616 137.484 368.672C139.964 367.12 141.9 364.752 142.828 362.768L143.596 364.144C142.508 366.128 140.652 368.304 138.236 369.824C136.62 370.832 134.604 371.824 131.932 372.32L131.1 371.008ZM157.315 361.312C157.219 361.44 157.011 361.792 156.931 362C156.291 363.584 155.075 365.824 153.747 367.296C151.955 369.296 149.667 371.2 147.139 372.352L146.115 371.28C148.707 370.288 151.059 368.368 152.707 366.544C153.795 365.312 154.963 363.408 155.379 362.08C154.803 362.08 149.683 362.08 149.139 362.08C148.563 362.08 147.699 362.144 147.523 362.16V360.72C147.731 360.752 148.643 360.816 149.139 360.816C149.763 360.816 154.707 360.816 155.315 360.816C155.827 360.816 156.259 360.768 156.515 360.688L157.315 361.312ZM153.955 366.464C155.683 367.904 157.811 370.144 158.899 371.472L157.795 372.448C156.643 370.928 154.771 368.88 153.043 367.36L153.955 366.464ZM165.699 360.096H175.651V362.688H174.499V361.104H166.803V362.688H165.699V360.096ZM169.987 358.576H171.203V360.864H169.987V358.576ZM170.019 363.12H171.171V369.648H170.019V363.12ZM171.555 371.024L172.451 370.384C173.587 371.024 175.075 371.968 175.843 372.592L174.899 373.312C174.179 372.688 172.707 371.68 171.555 371.024ZM168.547 370.496L169.683 370.912C168.675 371.824 167.107 372.768 165.811 373.344C165.619 373.104 165.171 372.656 164.915 372.464C166.211 372 167.667 371.248 168.547 370.496ZM167.523 367.92V369.296H173.779V367.92H167.523ZM167.523 365.68V367.024H173.779V365.68H167.523ZM166.435 364.736H174.899V370.224H166.435V364.736ZM166.915 362.544H174.435V363.552H166.915V362.544ZM161.923 359.568L162.595 358.688C163.603 359.12 164.835 359.824 165.443 360.368L164.739 361.376C164.147 360.784 162.931 360.032 161.923 359.568ZM161.123 363.904L161.795 363.008C162.787 363.376 164.035 364.064 164.659 364.576L163.971 365.568C163.363 365.04 162.147 364.336 161.123 363.904ZM161.571 372.336C162.355 371.088 163.475 368.976 164.307 367.136L165.251 367.84C164.499 369.552 163.475 371.584 162.627 373.072L161.571 372.336ZM179.491 366.672H189.715V373.328H188.483V367.632H180.675V373.328H179.491V366.672ZM180.115 369.168H188.867V370.128H180.115V369.168ZM180.163 371.744H188.867V372.704H180.163V371.744ZM183.875 365.168L185.139 365.408C184.787 366.112 184.371 366.832 184.035 367.312L183.059 367.056C183.363 366.512 183.715 365.696 183.875 365.168ZM177.683 359.392H183.011V360.352H177.683V359.392ZM182.691 359.392H183.795V364.688C183.795 365.216 183.667 365.488 183.283 365.648C182.867 365.808 182.227 365.808 181.203 365.808C181.155 365.536 181.011 365.168 180.867 364.912C181.603 364.928 182.243 364.928 182.435 364.912C182.643 364.912 182.691 364.848 182.691 364.688V359.392ZM184.803 359.392H190.387V360.352H184.803V359.392ZM189.843 359.392H190.963V364.688C190.963 365.248 190.851 365.52 190.419 365.696C190.003 365.856 189.315 365.872 188.243 365.856C188.195 365.584 188.051 365.184 187.907 364.912C188.659 364.944 189.363 364.944 189.571 364.928C189.779 364.912 189.843 364.88 189.843 364.688V359.392ZM184.435 364.112C185.603 363.744 187.299 363.152 188.979 362.56L189.155 363.44C187.683 364 186.115 364.608 184.883 365.04L184.435 364.112ZM185.251 361.232L185.875 360.512C186.643 360.88 187.587 361.488 188.035 361.968L187.379 362.768C186.947 362.272 186.019 361.632 185.251 361.232ZM177.299 364.432C178.403 364.08 180.003 363.472 181.603 362.88L181.795 363.776C180.387 364.352 178.931 364.96 177.763 365.424L177.299 364.432ZM178.355 361.216L178.995 360.512C179.747 360.912 180.675 361.536 181.107 362.016L180.451 362.8C180.019 362.32 179.123 361.648 178.355 361.216Z" fill="black"/>
<line x1="33" y1="389.5" x2="359" y2="389.5" stroke="#E8E8E8"/>
<path d="M45.88 409.512C45.88 410.104 46.344 410.568 46.936 410.568C47.512 410.568 47.992 410.104 47.992 409.512C47.992 408.936 47.512 408.456 46.936 408.456C46.344 408.456 45.88 408.936 45.88 409.512ZM45.144 409.512C45.144 408.52 45.944 407.72 46.936 407.72C47.928 407.72 48.728 408.52 48.728 409.512C48.728 410.504 47.928 411.304 46.936 411.304C45.944 411.304 45.144 410.504 45.144 409.512ZM46.536 410.584C46.424 410.808 46.36 411.08 46.296 411.384C45.944 413.064 45.176 415.656 43.896 417.288C42.44 419.176 40.536 420.648 37.608 421.576L36.52 420.376C39.624 419.592 41.416 418.232 42.76 416.52C43.896 415.08 44.632 412.84 44.856 411.304C43.928 411.304 37.592 411.304 36.664 411.304C36.024 411.304 35.48 411.336 35.08 411.368V409.944C35.512 409.992 36.152 410.056 36.68 410.056C37.592 410.056 43.976 410.056 44.696 410.056C44.952 410.056 45.256 410.04 45.56 409.96L46.536 410.584ZM51.336 410.04C51.96 410.072 52.376 410.072 52.76 410.072C53.608 410.072 60.568 410.072 61.352 410.072C61.688 410.072 62.264 410.072 62.76 410.056C62.728 410.44 62.728 410.888 62.728 411.288C62.728 412.04 62.728 418.568 62.728 419.176C62.728 419.688 62.744 420.936 62.76 421.112H61.368C61.384 420.936 61.4 420.024 61.4 419.352C61.4 418.76 61.4 411.336 61.4 411.336H52.664C52.664 411.336 52.664 418.696 52.664 419.352C52.664 419.88 52.68 420.904 52.68 421.112H51.32C51.32 420.904 51.352 419.736 51.352 419.176C51.352 418.52 51.352 411.912 51.352 411.288C51.352 410.92 51.352 410.44 51.336 410.04ZM61.928 418.952V420.2H52.024V418.952H61.928ZM77.24 408.2C77.64 408.776 78.216 409.752 78.536 410.392L77.672 410.792C77.352 410.136 76.808 409.176 76.376 408.568L77.24 408.2ZM78.984 407.56C79.416 408.152 80.024 409.144 80.328 409.736L79.464 410.12C79.112 409.432 78.6 408.52 78.152 407.928L78.984 407.56ZM78.296 411.384C78.168 411.624 78.008 411.992 77.928 412.248C77.496 413.848 76.504 416.024 75.096 417.752C73.64 419.528 71.72 421 68.712 422.104L67.56 421.064C70.504 420.2 72.488 418.744 73.944 417.048C75.192 415.576 76.168 413.512 76.504 412.056H70.568L71.08 410.904C71.736 410.904 75.688 410.904 76.184 410.904C76.616 410.904 76.968 410.856 77.24 410.744L78.296 411.384ZM72.936 408.968C72.68 409.384 72.392 409.928 72.232 410.232C71.288 411.992 69.608 414.28 67.048 415.992L65.928 415.16C68.696 413.512 70.264 411.192 70.968 409.752C71.128 409.48 71.368 408.888 71.464 408.488L72.936 408.968ZM84.696 409.096C85.112 409.144 85.608 409.176 86.12 409.176C86.984 409.176 91.48 409.176 92.424 409.176C92.92 409.176 93.48 409.144 93.864 409.096V410.424C93.496 410.392 92.936 410.376 92.392 410.376C91.496 410.376 87 410.376 86.12 410.376C85.64 410.376 85.128 410.392 84.696 410.424V409.096ZM95.048 413.304C94.968 413.464 94.856 413.656 94.824 413.784C94.408 415.352 93.688 417.016 92.488 418.328C90.824 420.168 88.808 421.096 86.776 421.672L85.784 420.536C88.04 420.072 90.04 419.032 91.416 417.592C92.376 416.584 93.016 415.224 93.304 414.056C92.52 414.056 85.784 414.056 84.824 414.056C84.44 414.056 83.832 414.072 83.256 414.12V412.776C83.832 412.824 84.376 412.872 84.824 412.872C85.608 412.872 92.424 412.872 93.24 412.872C93.608 412.872 93.96 412.824 94.136 412.744L95.048 413.304ZM101.592 408.888C103.672 409.16 107.96 410.056 109.976 410.76L109.464 411.992C107.528 411.272 103.336 410.36 101.128 410.072L101.592 408.888ZM100.856 413.112C103.048 413.496 106.936 414.312 108.92 415.032L108.424 416.264C106.568 415.544 102.648 414.664 100.376 414.312L100.856 413.112ZM99.992 417.768C102.664 418.2 107.32 419.288 109.512 420.168L108.952 421.4C106.84 420.472 102.072 419.4 99.496 419L99.992 417.768ZM116.632 409.288C117.752 410.04 119.816 411.704 120.696 412.584L119.704 413.608C118.888 412.776 116.904 411.048 115.704 410.264L116.632 409.288ZM115.256 420.008C118.04 419.592 120.12 418.616 121.64 417.672C124.12 416.12 126.056 413.752 126.984 411.768L127.752 413.144C126.664 415.128 124.808 417.304 122.392 418.824C120.776 419.832 118.76 420.824 116.088 421.32L115.256 420.008ZM141.24 408.2C141.64 408.776 142.216 409.752 142.536 410.392L141.672 410.792C141.352 410.136 140.808 409.176 140.376 408.568L141.24 408.2ZM142.984 407.56C143.416 408.152 144.024 409.144 144.328 409.736L143.464 410.12C143.112 409.432 142.6 408.52 142.152 407.928L142.984 407.56ZM142.296 411.384C142.168 411.624 142.008 411.992 141.928 412.248C141.496 413.848 140.504 416.024 139.096 417.752C137.64 419.528 135.72 421 132.712 422.104L131.56 421.064C134.504 420.2 136.488 418.744 137.944 417.048C139.192 415.576 140.168 413.512 140.504 412.056H134.568L135.08 410.904C135.736 410.904 139.688 410.904 140.184 410.904C140.616 410.904 140.968 410.856 141.24 410.744L142.296 411.384ZM136.936 408.968C136.68 409.384 136.392 409.928 136.232 410.232C135.288 411.992 133.608 414.28 131.048 415.992L129.928 415.16C132.696 413.512 134.264 411.192 134.968 409.752C135.128 409.48 135.368 408.888 135.464 408.488L136.936 408.968ZM148.808 420.568H157.272V421.592H148.808V420.568ZM148.328 415.032H157.656V416.024H148.328V415.032ZM148.328 412.856H157.656V413.848H148.328V412.856ZM145.864 410.616H160.216V411.672H145.864V410.616ZM148.584 408.456H157.432V409.432H148.584V408.456ZM148.152 417.24H157.88V422.232H156.648V418.28H149.32V422.28H148.152V417.24ZM168.664 416.52H175.432V422.216H174.264V417.624H169.8V422.28H168.664V416.52ZM168.232 410.856H175V414.776H173.832V411.912H168.232V410.856ZM170.536 408.568L171.72 408.664C171.432 410.632 170.984 413.256 170.648 414.776H169.464C169.832 413.192 170.28 410.504 170.536 408.568ZM167.976 408.168H175.896V409.208H167.976V408.168ZM167.496 414.232H176.408V415.304H167.496V414.232ZM169.176 420.456H174.904V421.544H169.176V420.456ZM162.36 412.504H166.872V413.448H162.36V412.504ZM162.456 408.136H166.856V409.096H162.456V408.136ZM162.36 414.68H166.872V415.64H162.36V414.68ZM161.608 410.28H167.432V411.272H161.608V410.28ZM162.936 416.872H166.936V421.544H162.936V420.552H165.88V417.88H162.936V416.872ZM162.344 416.872H163.384V422.28H162.344V416.872ZM187.56 408.712C186.68 410.184 185.048 411.96 183.288 413.096C183.16 412.808 182.888 412.376 182.664 412.12C184.424 411.048 186.136 409.176 186.952 407.608H188.072C189.176 409.288 190.936 410.984 192.552 411.912C192.328 412.2 192.056 412.632 191.88 412.952C190.296 411.912 188.536 410.184 187.56 408.712ZM183.704 414.376H191.304V415.384H184.728V422.248H183.704V414.376ZM190.584 414.376H191.64V421.128C191.64 421.624 191.56 421.912 191.224 422.072C190.904 422.248 190.424 422.264 189.736 422.264C189.704 421.992 189.56 421.576 189.416 421.304C189.88 421.32 190.264 421.32 190.408 421.304C190.552 421.304 190.584 421.256 190.584 421.112V414.376ZM186.072 414.664H186.92V422.056H186.072V414.664ZM188.296 414.664H189.16V422.056H188.296V414.664ZM184.888 411.976H190.392V412.984H184.888V411.976ZM184.184 417.656H191.208V418.648H184.184V417.656ZM178.296 412.408H182.616V413.368H178.296V412.408ZM178.376 408.136H182.552V409.096H178.376V408.136ZM178.296 414.552H182.616V415.512H178.296V414.552ZM177.608 410.232H183.08V411.224H177.608V410.232ZM178.856 416.712H182.616V421.368H178.856V420.376H181.608V417.704H178.856V416.712ZM178.264 416.712H179.288V422.12H178.264V416.712Z" fill="black"/>
<line x1="33" y1="438.5" x2="359" y2="438.5" stroke="#E8E8E8"/>
<path d="M47.288 464.576L48.248 465.28C47.384 466.064 46.296 466.96 45.464 467.52L44.728 466.944C45.528 466.336 46.648 465.296 47.288 464.576ZM43.32 456.544L44.648 456.8C44.264 457.568 43.816 458.4 43.448 458.928L42.44 458.672C42.744 458.08 43.128 457.184 43.32 456.544ZM41.144 461.504V462.896H46.536V461.504H41.144ZM41.144 459.184V460.576H46.536V459.184H41.144ZM40.04 458.224H47.688V463.872H40.04V458.224ZM43.272 463.344H44.36V470C44.36 470.608 44.248 470.912 43.848 471.088C43.432 471.264 42.792 471.28 41.784 471.28C41.752 470.976 41.608 470.528 41.464 470.224C42.184 470.24 42.824 470.24 43.016 470.224C43.224 470.224 43.272 470.176 43.272 470V463.344ZM39.432 465.264H42.104V466.272H39.432V465.264ZM41.832 465.264H42.04L42.248 465.232L42.904 465.504C42.328 468.048 41.064 469.728 39.464 470.64C39.32 470.384 38.952 469.984 38.712 469.808C40.216 469.024 41.368 467.552 41.832 465.456V465.264ZM44.216 463.424C44.664 465.68 45.816 468.432 48.616 469.648C48.392 469.872 48.04 470.32 47.88 470.624C45.144 469.216 43.992 466.32 43.56 464.24L44.216 463.424ZM36.136 456.576L37.192 456.976C36.584 458.16 35.832 459.6 35.208 460.48L34.392 460.128C34.968 459.2 35.72 457.632 36.136 456.576ZM37.928 458.4L38.936 458.864C37.832 460.64 36.28 462.912 35.08 464.304L34.344 463.888C35.544 462.464 37.048 460.08 37.928 458.4ZM33.576 459.904L34.216 459.136C35.08 459.92 36.056 460.992 36.472 461.728L35.784 462.624C35.384 461.856 34.424 460.72 33.576 459.904ZM37.304 462.064L38.168 461.696C38.84 462.752 39.496 464.128 39.72 465.008L38.776 465.44C38.568 464.544 37.944 463.12 37.304 462.064ZM33.448 463.648C34.84 463.584 36.84 463.488 38.856 463.376V464.384C36.952 464.512 35.032 464.624 33.576 464.72L33.448 463.648ZM37.72 465.936L38.6 465.664C39.016 466.576 39.352 467.76 39.448 468.528L38.52 468.816C38.44 468.048 38.104 466.848 37.72 465.936ZM34.408 465.712L35.416 465.888C35.208 467.408 34.84 468.944 34.328 469.968C34.136 469.84 33.656 469.632 33.416 469.52C33.928 468.544 34.232 467.104 34.408 465.712ZM36.104 464.112H37.16V471.28H36.104V464.112ZM49.912 457.552H58.152V458.688H49.912V457.552ZM49.656 462.832H58.376V463.952H49.656V462.832ZM55.464 457.856H56.648V471.28H55.464V457.856ZM51.752 457.84H52.888V462.992C52.888 466 52.632 469.024 50.488 471.376C50.296 471.136 49.864 470.752 49.576 470.576C51.528 468.432 51.752 465.68 51.752 462.992V457.84ZM62.52 456.832L63.656 457.296C62.472 458.768 60.664 460.192 59.048 461.088C58.84 460.832 58.488 460.464 58.168 460.24C59.704 459.472 61.544 458.128 62.52 456.832ZM63 461.232L64.088 461.696C62.856 463.264 60.904 464.8 59.192 465.76C59 465.504 58.648 465.136 58.344 464.912C59.976 464.08 61.928 462.624 63 461.232ZM63.352 465.568L64.488 466.016C63.128 468.224 60.84 470.128 58.36 471.28C58.168 470.992 57.816 470.56 57.512 470.32C59.88 469.328 62.152 467.568 63.352 465.568ZM70.168 462.064L80.088 460.816L80.264 461.952L70.344 463.2L70.168 462.064ZM76.424 457.472L77.304 456.896C78.264 457.664 79.4 458.752 79.944 459.488L79.016 460.128C78.504 459.408 77.368 458.272 76.424 457.472ZM69.992 456.736L71.128 457.104C69.928 459.904 68.024 462.656 66.024 464.448C65.896 464.16 65.544 463.552 65.32 463.28C67.176 461.728 68.936 459.264 69.992 456.736ZM68.184 460.992L69.4 459.792V459.808V471.264H68.184V460.992ZM73.752 456.8H74.968C75.192 463.984 76.296 469.632 78.712 469.856C79.16 469.888 79.432 468.944 79.592 467.072C79.832 467.312 80.36 467.616 80.584 467.712C80.248 470.496 79.592 471.312 78.76 471.28C75.16 471.024 74.104 464.976 73.752 456.8ZM81.624 465.104H89.48V466.112H81.624V465.104ZM81.72 459.52H89.432V460.496H81.72V459.52ZM84.6 463.728L85.72 463.968C85 465.536 83.992 467.488 83.256 468.752L82.2 468.384C82.92 467.168 83.928 465.2 84.6 463.728ZM87 465.696L88.12 465.84C87.576 468.96 85.896 470.496 82.2 471.28C82.12 470.96 81.88 470.528 81.656 470.288C85 469.728 86.504 468.416 87 465.696ZM88.008 456.88L89.032 457.328C88.568 458.064 88.04 458.864 87.592 459.408L86.792 459.008C87.192 458.432 87.72 457.504 88.008 456.88ZM85.032 456.56H86.136V463.92H85.032V456.56ZM82.312 457.328L83.224 456.944C83.672 457.584 84.104 458.432 84.264 459.008L83.32 459.44C83.176 458.864 82.76 457.984 82.312 457.328ZM85.048 459.952L85.864 460.432C85.08 461.776 83.576 463.2 82.2 463.952C82.056 463.68 81.768 463.28 81.544 463.04C82.872 462.464 84.344 461.184 85.048 459.952ZM86.008 460.512C86.584 460.816 88.536 462.048 89 462.384L88.344 463.264C87.768 462.72 86.104 461.472 85.432 461.024L86.008 460.512ZM90.648 459.52H96.344V460.64H90.648V459.52ZM91.048 456.56L92.264 456.736C91.736 459.872 90.792 462.736 89.384 464.608C89.192 464.384 88.696 463.984 88.408 463.792C89.768 462.096 90.6 459.392 91.048 456.56ZM94.2 460.16L95.416 460.288C94.648 465.808 92.952 469.248 88.92 471.328C88.792 471.04 88.44 470.512 88.2 470.256C92.008 468.464 93.544 465.232 94.2 460.16ZM91.288 460.512C91.992 464.912 93.528 468.688 96.504 470.256C96.216 470.496 95.832 470.96 95.656 471.28C92.52 469.44 91 465.536 90.2 460.688L91.288 460.512ZM83.16 468.16L83.8 467.344C85.72 468.08 87.704 469.136 88.856 470.016L88.024 470.88C86.92 469.984 85.016 468.912 83.16 468.16ZM100.44 463.584H109.576V461.968H99.048V460.96H110.76V464.608H100.44V463.584ZM99.832 463.584H101.032C100.744 464.944 100.344 466.608 100.024 467.664L98.84 467.488C99.176 466.464 99.592 464.848 99.832 463.584ZM100.008 466.08H110.792V467.12H99.688L100.008 466.08ZM110.488 466.08H111.704C111.704 466.08 111.688 466.4 111.656 466.576C111.448 468.8 111.224 469.792 110.824 470.192C110.536 470.464 110.248 470.56 109.8 470.576C109.384 470.608 108.6 470.608 107.784 470.576C107.752 470.224 107.624 469.776 107.448 469.456C108.216 469.552 108.984 469.552 109.272 469.552C109.544 469.552 109.704 469.536 109.832 469.408C110.12 469.152 110.312 468.32 110.488 466.24V466.08ZM104.392 461.216H105.576V471.28H104.392V461.216ZM104.072 466.4L105.016 466.832C103.528 468.64 100.824 470.256 98.456 471.024C98.28 470.736 97.944 470.304 97.688 470.064C100.04 469.408 102.728 467.968 104.072 466.4ZM99.608 457.952H104.776V458.928H99.608V457.952ZM105.784 457.952H112.248V458.928H105.784V457.952ZM99.944 456.496L101.064 456.784C100.456 458.352 99.48 459.92 98.504 460.912C98.296 460.752 97.8 460.416 97.512 460.272C98.52 459.328 99.416 457.92 99.944 456.496ZM106.248 456.496L107.384 456.784C106.776 458.384 105.704 459.872 104.616 460.848C104.392 460.64 103.912 460.304 103.608 460.144C104.744 459.28 105.72 457.936 106.248 456.496ZM100.504 458.704L101.512 458.336C101.864 458.976 102.264 459.856 102.408 460.4L101.352 460.816C101.224 460.256 100.872 459.376 100.504 458.704ZM107.192 458.688L108.2 458.32C108.744 458.96 109.336 459.84 109.592 460.432L108.552 460.864C108.328 460.256 107.752 459.36 107.192 458.688ZM113.704 463.104H128.344V464.416H113.704V463.104Z" fill="black"/>
<line x1="33" y1="487.5" x2="359" y2="487.5" stroke="#E8E8E8"/>
<g filter="url(#filter0_b_6_1930)">
<path d="M0 747H391V843.617H0V747Z" fill="white"/>
<path d="M0 747.901H391V746.099H0V747.901Z" fill="#E2E2E2"/>
</g>
<g clip-path="url(#clip2_6_1930)">
<path d="M71.3363 763.444C71.8477 763.444 72.3381 763.658 72.6996 764.039C73.0612 764.42 73.2643 764.936 73.2643 765.475V767.505H77.1203C78.143 767.505 79.1238 767.933 79.847 768.694C80.5701 769.456 80.9764 770.488 80.9764 771.565V795.927C80.9764 797.004 80.5701 798.037 79.847 798.798C79.1238 799.56 78.143 799.988 77.1203 799.988H50.1282C49.1056 799.988 48.1248 799.56 47.4016 798.798C46.6785 798.037 46.2722 797.004 46.2722 795.927V771.565C46.2722 770.488 46.6785 769.456 47.4016 768.694C48.1248 767.933 49.1056 767.505 50.1282 767.505H53.9842V765.475C53.9842 764.936 54.1874 764.42 54.5489 764.039C54.9105 763.658 55.4009 763.444 55.9123 763.444C56.4236 763.444 56.914 763.658 57.2756 764.039C57.6371 764.42 57.8403 764.936 57.8403 765.475V767.505H69.4083V765.475C69.4083 764.936 69.6114 764.42 69.973 764.039C70.3346 763.658 70.825 763.444 71.3363 763.444ZM77.1203 771.565H50.1282V795.927H77.1203V771.565ZM69.069 776.395C69.4326 776.025 69.9196 775.82 70.4251 775.825C70.9307 775.83 71.4142 776.043 71.7717 776.42C72.1292 776.796 72.3319 777.305 72.3363 777.838C72.3407 778.37 72.1464 778.883 71.7952 779.266L62.267 789.301C62.0861 789.491 61.8714 789.643 61.635 789.746C61.3986 789.849 61.1453 789.902 60.8894 789.902C60.6335 789.902 60.3802 789.849 60.1438 789.746C59.9074 789.643 59.6927 789.491 59.5118 789.301L55.436 785.005C55.0848 784.622 54.8905 784.109 54.8949 783.577C54.8993 783.045 55.1021 782.535 55.4595 782.159C55.817 781.783 56.3006 781.569 56.8061 781.564C57.3116 781.56 57.7986 781.764 58.1622 782.134L60.8904 785.005L69.069 776.395Z" fill="black"/>
</g>
<path d="M339.908 768.114H313.687C311.879 768.114 310.409 769.662 310.409 771.565V792.273C310.409 794.176 311.879 795.724 313.687 795.724H318.603V802.224L328.89 795.724H339.908C341.715 795.724 343.185 794.176 343.185 792.273V771.565C343.185 769.662 341.715 768.114 339.908 768.114ZM339.908 792.273H327.982L321.881 796.126V792.273H313.687V771.565H339.908V792.273Z" fill="black"/>
<path d="M197.343 785.472C197.696 785.472 198.041 785.362 198.334 785.155C198.627 784.949 198.856 784.656 198.991 784.312C199.126 783.969 199.161 783.592 199.092 783.227C199.023 782.863 198.854 782.529 198.604 782.266C198.355 782.003 198.037 781.824 197.691 781.752C197.345 781.679 196.986 781.717 196.661 781.859C196.335 782.001 196.056 782.242 195.86 782.55C195.664 782.859 195.56 783.222 195.56 783.594C195.56 784.092 195.748 784.569 196.082 784.922C196.417 785.274 196.87 785.472 197.343 785.472ZM206.26 785.472C206.613 785.472 206.958 785.362 207.251 785.155C207.544 784.949 207.773 784.656 207.908 784.312C208.043 783.969 208.078 783.592 208.009 783.227C207.94 782.863 207.771 782.529 207.521 782.266C207.272 782.003 206.954 781.824 206.608 781.752C206.262 781.679 205.904 781.717 205.578 781.859C205.252 782.001 204.973 782.242 204.777 782.55C204.581 782.859 204.477 783.222 204.477 783.594C204.477 784.092 204.665 784.569 204.999 784.922C205.334 785.274 205.787 785.472 206.26 785.472ZM197.343 792.983C197.696 792.983 198.041 792.873 198.334 792.667C198.627 792.46 198.856 792.167 198.991 791.824C199.126 791.481 199.161 791.103 199.092 790.739C199.023 790.375 198.854 790.04 198.604 789.778C198.355 789.515 198.037 789.336 197.691 789.264C197.345 789.191 196.986 789.228 196.661 789.37C196.335 789.513 196.056 789.753 195.86 790.062C195.664 790.371 195.56 790.734 195.56 791.105C195.56 791.603 195.748 792.081 196.082 792.433C196.417 792.785 196.87 792.983 197.343 792.983ZM206.26 792.983C206.613 792.983 206.958 792.873 207.251 792.667C207.544 792.46 207.773 792.167 207.908 791.824C208.043 791.481 208.078 791.103 208.009 790.739C207.94 790.375 207.771 790.04 207.521 789.778C207.272 789.515 206.954 789.336 206.608 789.264C206.262 789.191 205.904 789.228 205.578 789.37C205.252 789.513 204.973 789.753 204.777 790.062C204.581 790.371 204.477 790.734 204.477 791.105C204.477 791.603 204.665 792.081 204.999 792.433C205.334 792.785 205.787 792.983 206.26 792.983ZM188.426 785.472C188.779 785.472 189.124 785.362 189.417 785.155C189.71 784.949 189.939 784.656 190.074 784.312C190.209 783.969 190.244 783.592 190.175 783.227C190.106 782.863 189.937 782.529 189.687 782.266C189.438 782.003 189.12 781.824 188.774 781.752C188.428 781.679 188.069 781.717 187.744 781.859C187.418 782.001 187.139 782.242 186.943 782.55C186.747 782.859 186.643 783.222 186.643 783.594C186.643 784.092 186.831 784.569 187.165 784.922C187.499 785.274 187.953 785.472 188.426 785.472ZM209.827 766.693H208.044V764.815C208.044 764.317 207.856 763.839 207.521 763.487C207.187 763.135 206.733 762.937 206.26 762.937C205.787 762.937 205.334 763.135 204.999 763.487C204.665 763.839 204.477 764.317 204.477 764.815V766.693H190.209V764.815C190.209 764.317 190.022 763.839 189.687 763.487C189.353 763.135 188.899 762.937 188.426 762.937C187.953 762.937 187.499 763.135 187.165 763.487C186.831 763.839 186.643 764.317 186.643 764.815V766.693H184.859C183.44 766.693 182.079 767.286 181.076 768.343C180.073 769.399 179.509 770.832 179.509 772.326V794.861C179.509 796.355 180.073 797.788 181.076 798.845C182.079 799.901 183.44 800.495 184.859 800.495H209.827C211.246 800.495 212.607 799.901 213.61 798.845C214.613 797.788 215.177 796.355 215.177 794.861V772.326C215.177 770.832 214.613 769.399 213.61 768.343C212.607 767.286 211.246 766.693 209.827 766.693ZM211.61 794.861C211.61 795.359 211.422 795.837 211.088 796.189C210.754 796.541 210.3 796.739 209.827 796.739H184.859C184.386 796.739 183.933 796.541 183.598 796.189C183.264 795.837 183.076 795.359 183.076 794.861V777.96H211.61V794.861ZM211.61 774.204H183.076V772.326C183.076 771.828 183.264 771.351 183.598 770.998C183.933 770.646 184.386 770.448 184.859 770.448H209.827C210.3 770.448 210.754 770.646 211.088 770.998C211.422 771.351 211.61 771.828 211.61 772.326V774.204ZM188.426 792.983C188.779 792.983 189.124 792.873 189.417 792.667C189.71 792.46 189.939 792.167 190.074 791.824C190.209 791.481 190.244 791.103 190.175 790.739C190.106 790.375 189.937 790.04 189.687 789.778C189.438 789.515 189.12 789.336 188.774 789.264C188.428 789.191 188.069 789.228 187.744 789.37C187.418 789.513 187.139 789.753 186.943 790.062C186.747 790.371 186.643 790.734 186.643 791.105C186.643 791.603 186.831 792.081 187.165 792.433C187.499 792.785 187.953 792.983 188.426 792.983Z" fill="black"/>
<path d="M43.6606 814.508V813.091H52.1035V814.508H48.6997V824H47.0591V814.508H43.6606ZM56.1012 824.165C55.3341 824.165 54.6647 823.989 54.093 823.638C53.5213 823.286 53.0774 822.794 52.7613 822.162C52.4453 821.53 52.2872 820.792 52.2872 819.946C52.2872 819.098 52.4453 818.355 52.7613 817.72C53.0774 817.084 53.5213 816.591 54.093 816.239C54.6647 815.887 55.3341 815.712 56.1012 815.712C56.8682 815.712 57.5376 815.887 58.1093 816.239C58.6811 816.591 59.1249 817.084 59.441 817.72C59.757 818.355 59.9151 819.098 59.9151 819.946C59.9151 820.792 59.757 821.53 59.441 822.162C59.1249 822.794 58.6811 823.286 58.1093 823.638C57.5376 823.989 56.8682 824.165 56.1012 824.165ZM56.1065 822.828C56.6036 822.828 57.0156 822.697 57.3423 822.434C57.669 822.171 57.9105 821.821 58.0667 821.385C58.2265 820.948 58.3064 820.467 58.3064 819.941C58.3064 819.419 58.2265 818.94 58.0667 818.503C57.9105 818.062 57.669 817.709 57.3423 817.443C57.0156 817.176 56.6036 817.043 56.1065 817.043C55.6058 817.043 55.1903 817.176 54.86 817.443C54.5333 817.709 54.2901 818.062 54.1303 818.503C53.974 818.94 53.8959 819.419 53.8959 819.941C53.8959 820.467 53.974 820.948 54.1303 821.385C54.2901 821.821 54.5333 822.171 54.86 822.434C55.1903 822.697 55.6058 822.828 56.1065 822.828ZM65.3523 824H61.8207V813.091H65.4642C66.5331 813.091 67.451 813.309 68.2181 813.746C68.9851 814.179 69.5728 814.803 69.9812 815.616C70.3931 816.425 70.5991 817.397 70.5991 818.529C70.5991 819.666 70.3914 820.642 69.9759 821.459C69.564 822.276 68.9674 822.904 68.1861 823.345C67.4049 823.782 66.4603 824 65.3523 824ZM63.4667 822.562H65.2618C66.0927 822.562 66.7834 822.406 67.3338 822.093C67.8843 821.777 68.2962 821.321 68.5696 820.724C68.8431 820.124 68.9798 819.392 68.9798 818.529C68.9798 817.674 68.8431 816.947 68.5696 816.351C68.2997 815.754 67.8967 815.301 67.3605 814.993C66.8243 814.684 66.1584 814.529 65.363 814.529H63.4667V822.562ZM75.9644 824.165C75.1974 824.165 74.528 823.989 73.9563 823.638C73.3845 823.286 72.9406 822.794 72.6246 822.162C72.3085 821.53 72.1505 820.792 72.1505 819.946C72.1505 819.098 72.3085 818.355 72.6246 817.72C72.9406 817.084 73.3845 816.591 73.9563 816.239C74.528 815.887 75.1974 815.712 75.9644 815.712C76.7315 815.712 77.4009 815.887 77.9726 816.239C78.5443 816.591 78.9882 817.084 79.3043 817.72C79.6203 818.355 79.7784 819.098 79.7784 819.946C79.7784 820.792 79.6203 821.53 79.3043 822.162C78.9882 822.794 78.5443 823.286 77.9726 823.638C77.4009 823.989 76.7315 824.165 75.9644 824.165ZM75.9698 822.828C76.4669 822.828 76.8789 822.697 77.2056 822.434C77.5323 822.171 77.7737 821.821 77.93 821.385C78.0898 820.948 78.1697 820.467 78.1697 819.941C78.1697 819.419 78.0898 818.94 77.93 818.503C77.7737 818.062 77.5323 817.709 77.2056 817.443C76.8789 817.176 76.4669 817.043 75.9698 817.043C75.469 817.043 75.0536 817.176 74.7233 817.443C74.3966 817.709 74.1534 818.062 73.9936 818.503C73.8373 818.94 73.7592 819.419 73.7592 819.941C73.7592 820.467 73.8373 820.948 73.9936 821.385C74.1534 821.821 74.3966 822.171 74.7233 822.434C75.0536 822.697 75.469 822.828 75.9698 822.828Z" fill="#1E1E1E"/>
<path d="M182.15 813.338H189.65V814.328H182.15V813.338ZM181.505 816.248H190.295V817.253H181.505V816.248ZM181.58 818.963H190.13V819.968H181.58V818.963ZM185.3 811.538H186.41V816.863H185.3V811.538ZM187.28 817.103H188.375V824.003C188.375 824.648 188.225 824.978 187.76 825.143C187.295 825.308 186.53 825.323 185.33 825.323C185.285 825.023 185.105 824.573 184.94 824.273C185.87 824.303 186.71 824.303 186.95 824.288C187.205 824.273 187.28 824.213 187.28 823.988V817.103ZM182.495 821.018L183.395 820.478C184.175 821.258 185.015 822.323 185.375 823.058L184.4 823.658C184.07 822.923 183.26 821.798 182.495 821.018ZM177.5 812.528H181.25V822.383H177.5V821.363H180.2V813.548H177.5V812.528ZM177.545 816.893H180.695V817.898H177.545V816.893ZM176.96 812.528H178.025V823.613H176.96V812.528ZM196.04 820.733H200.585V821.603H196.04V820.733ZM195.995 818.468H201.11V823.943H195.995V823.073H200.045V819.353H195.995V818.468ZM195.5 818.468H196.535V824.708H195.5V818.468ZM192.74 814.313H196.91V815.138H192.74V814.313ZM199.655 814.313H203.9V815.138H199.655V814.313ZM203.435 812.183H204.56V823.853C204.56 824.573 204.395 824.948 203.915 825.143C203.435 825.323 202.625 825.338 201.365 825.338C201.32 825.023 201.14 824.498 200.975 824.183C201.89 824.228 202.805 824.213 203.075 824.198C203.345 824.198 203.435 824.108 203.435 823.853V812.183ZM192.83 812.183H197.63V817.343H192.83V816.473H196.565V813.053H192.83V812.183ZM203.99 812.183V813.053H200.06V816.503H203.99V817.358H198.98V812.183H203.99ZM192.185 812.183H193.295V825.353H192.185V812.183ZM215.48 813.173H216.545V821.438H215.48V813.173ZM218.54 811.808H219.65V823.793C219.65 824.558 219.47 824.888 218.99 825.083C218.525 825.263 217.67 825.308 216.5 825.308C216.455 824.978 216.29 824.453 216.125 824.108C217.04 824.153 217.925 824.138 218.225 824.138C218.465 824.123 218.54 824.048 218.54 823.793V811.808ZM208.1 823.643H213.14V824.543H208.1V823.643ZM206.66 818.933H214.415V819.833H206.66V818.933ZM207.485 815.243H213.71V816.098H207.485V815.243ZM207.56 817.073H213.53V817.898H207.56V817.073ZM210.02 811.583H211.115V813.443H210.02V811.583ZM210.05 814.268H211.1V819.428H210.05V814.268ZM207.56 820.658H213.725V825.143H212.66V821.543H208.595V825.308H207.56V820.658ZM206.66 812.933H214.58V815.303H213.53V813.833H207.665V815.303H206.66V812.933Z" fill="#1E1E1E"/>
<path d="M297.39 814.229H299.387L302.86 822.709H302.988L306.461 814.229H308.458V825.138H306.892V817.244H306.791L303.574 825.122H302.274L299.057 817.239H298.956V825.138H297.39V814.229ZM314.25 825.303C313.444 825.303 312.75 825.131 312.167 824.786C311.588 824.438 311.141 823.95 310.825 823.322C310.512 822.69 310.356 821.949 310.356 821.1C310.356 820.262 310.512 819.524 310.825 818.885C311.141 818.245 311.581 817.746 312.146 817.388C312.714 817.029 313.378 816.85 314.138 816.85C314.6 816.85 315.047 816.926 315.48 817.079C315.914 817.231 316.302 817.471 316.647 817.798C316.991 818.125 317.263 818.549 317.462 819.071C317.661 819.589 317.76 820.22 317.76 820.962V821.527H311.256V820.333H316.199C316.199 819.914 316.114 819.543 315.944 819.22C315.773 818.893 315.534 818.636 315.225 818.448C314.919 818.26 314.561 818.165 314.149 818.165C313.701 818.165 313.311 818.275 312.977 818.496C312.647 818.712 312.391 818.996 312.21 819.348C312.032 819.696 311.943 820.074 311.943 820.483V821.415C311.943 821.962 312.039 822.427 312.231 822.81C312.426 823.194 312.698 823.487 313.046 823.689C313.394 823.888 313.801 823.987 314.266 823.987C314.568 823.987 314.843 823.945 315.092 823.86C315.34 823.771 315.555 823.639 315.736 823.465C315.917 823.291 316.056 823.077 316.152 822.821L317.659 823.093C317.538 823.536 317.322 823.925 317.009 824.259C316.7 824.589 316.311 824.847 315.843 825.032C315.377 825.213 314.846 825.303 314.25 825.303ZM325.658 818.954L324.215 819.209C324.154 819.025 324.059 818.849 323.927 818.682C323.799 818.515 323.625 818.378 323.405 818.272C323.185 818.165 322.91 818.112 322.58 818.112C322.129 818.112 321.752 818.213 321.45 818.416C321.148 818.615 320.998 818.872 320.998 819.188C320.998 819.462 321.099 819.682 321.301 819.849C321.504 820.016 321.83 820.152 322.281 820.259L323.581 820.557C324.334 820.731 324.895 820.999 325.264 821.361C325.634 821.724 325.818 822.194 325.818 822.773C325.818 823.263 325.676 823.7 325.392 824.083C325.111 824.463 324.719 824.762 324.215 824.978C323.714 825.195 323.134 825.303 322.473 825.303C321.557 825.303 320.809 825.108 320.23 824.717C319.652 824.323 319.297 823.764 319.165 823.039L320.705 822.805C320.8 823.206 320.998 823.51 321.296 823.716C321.594 823.918 321.983 824.019 322.462 824.019C322.984 824.019 323.402 823.911 323.714 823.695C324.027 823.474 324.183 823.206 324.183 822.89C324.183 822.635 324.087 822.42 323.895 822.246C323.707 822.072 323.418 821.94 323.027 821.851L321.642 821.548C320.879 821.374 320.314 821.097 319.948 820.717C319.586 820.337 319.405 819.856 319.405 819.273C319.405 818.79 319.54 818.368 319.81 818.006C320.08 817.643 320.452 817.361 320.928 817.159C321.404 816.953 321.949 816.85 322.564 816.85C323.448 816.85 324.144 817.041 324.652 817.425C325.159 817.805 325.495 818.315 325.658 818.954ZM333.7 818.954L332.257 819.209C332.196 819.025 332.101 818.849 331.969 818.682C331.841 818.515 331.667 818.378 331.447 818.272C331.227 818.165 330.952 818.112 330.622 818.112C330.171 818.112 329.794 818.213 329.492 818.416C329.19 818.615 329.039 818.872 329.039 819.188C329.039 819.462 329.141 819.682 329.343 819.849C329.546 820.016 329.872 820.152 330.323 820.259L331.623 820.557C332.376 820.731 332.937 820.999 333.306 821.361C333.676 821.724 333.86 822.194 333.86 822.773C333.86 823.263 333.718 823.7 333.434 824.083C333.153 824.463 332.761 824.762 332.257 824.978C331.756 825.195 331.176 825.303 330.515 825.303C329.599 825.303 328.851 825.108 328.272 824.717C327.694 824.323 327.339 823.764 327.207 823.039L328.747 822.805C328.842 823.206 329.039 823.51 329.338 823.716C329.636 823.918 330.025 824.019 330.504 824.019C331.026 824.019 331.444 823.911 331.756 823.695C332.069 823.474 332.225 823.206 332.225 822.89C332.225 822.635 332.129 822.42 331.937 822.246C331.749 822.072 331.46 821.94 331.069 821.851L329.684 821.548C328.921 821.374 328.356 821.097 327.99 820.717C327.628 820.337 327.447 819.856 327.447 819.273C327.447 818.79 327.582 818.368 327.852 818.006C328.122 817.643 328.494 817.361 328.97 817.159C329.446 816.953 329.991 816.85 330.606 816.85C331.49 816.85 332.186 817.041 332.694 817.425C333.201 817.805 333.537 818.315 333.7 818.954ZM337.992 825.319C337.474 825.319 337.005 825.223 336.586 825.032C336.167 824.836 335.835 824.554 335.59 824.185C335.349 823.815 335.228 823.362 335.228 822.826C335.228 822.365 335.317 821.985 335.494 821.686C335.672 821.388 335.911 821.152 336.213 820.978C336.515 820.804 336.852 820.673 337.225 820.584C337.598 820.495 337.978 820.427 338.365 820.381C338.855 820.324 339.253 820.278 339.558 820.243C339.864 820.204 340.086 820.142 340.224 820.056C340.363 819.971 340.432 819.833 340.432 819.641V819.604C340.432 819.138 340.301 818.778 340.038 818.522C339.779 818.267 339.392 818.139 338.877 818.139C338.34 818.139 337.918 818.258 337.609 818.496C337.303 818.73 337.092 818.991 336.975 819.279L335.478 818.938C335.656 818.441 335.915 818.039 336.256 817.734C336.6 817.425 336.996 817.201 337.444 817.063C337.891 816.921 338.362 816.85 338.855 816.85C339.182 816.85 339.528 816.889 339.894 816.967C340.263 817.041 340.608 817.18 340.927 817.382C341.251 817.585 341.515 817.874 341.721 818.251C341.927 818.624 342.03 819.108 342.03 819.705V825.138H340.475V824.019H340.411C340.308 824.225 340.153 824.428 339.947 824.627C339.741 824.826 339.477 824.991 339.154 825.122C338.83 825.253 338.443 825.319 337.992 825.319ZM338.339 824.041C338.779 824.041 339.155 823.954 339.468 823.78C339.784 823.606 340.024 823.378 340.187 823.098C340.354 822.814 340.437 822.51 340.437 822.187V821.132C340.38 821.189 340.27 821.242 340.107 821.292C339.947 821.338 339.764 821.379 339.558 821.415C339.352 821.447 339.152 821.477 338.956 821.505C338.761 821.53 338.598 821.551 338.466 821.569C338.157 821.608 337.875 821.674 337.619 821.766C337.367 821.859 337.165 821.992 337.012 822.166C336.863 822.336 336.789 822.563 336.789 822.848C336.789 823.242 336.934 823.54 337.225 823.742C337.517 823.941 337.888 824.041 338.339 824.041ZM347.582 828.377C346.932 828.377 346.373 828.291 345.904 828.121C345.439 827.951 345.059 827.725 344.764 827.445C344.469 827.164 344.249 826.857 344.103 826.523L345.472 825.958C345.568 826.115 345.696 826.28 345.856 826.454C346.019 826.631 346.239 826.782 346.516 826.907C346.797 827.031 347.157 827.093 347.598 827.093C348.201 827.093 348.7 826.946 349.095 826.651C349.489 826.36 349.686 825.894 349.686 825.255V823.647H349.585C349.489 823.821 349.35 824.014 349.169 824.227C348.992 824.44 348.747 824.625 348.434 824.781C348.122 824.937 347.715 825.016 347.214 825.016C346.568 825.016 345.986 824.865 345.467 824.563C344.952 824.257 344.544 823.808 344.242 823.215C343.944 822.619 343.794 821.885 343.794 821.015C343.794 820.145 343.942 819.399 344.237 818.778C344.535 818.157 344.943 817.681 345.462 817.35C345.98 817.017 346.568 816.85 347.225 816.85C347.733 816.85 348.143 816.935 348.455 817.105C348.768 817.272 349.011 817.468 349.185 817.691C349.363 817.915 349.499 818.112 349.595 818.283H349.712V816.956H351.273V825.319C351.273 826.022 351.11 826.599 350.783 827.05C350.456 827.501 350.014 827.835 349.457 828.052C348.903 828.268 348.278 828.377 347.582 828.377ZM347.566 823.695C348.024 823.695 348.411 823.588 348.727 823.375C349.047 823.158 349.288 822.849 349.451 822.448C349.618 822.043 349.702 821.559 349.702 820.994C349.702 820.443 349.62 819.959 349.457 819.54C349.293 819.121 349.054 818.794 348.738 818.56C348.422 818.322 348.031 818.203 347.566 818.203C347.086 818.203 346.687 818.327 346.367 818.576C346.048 818.821 345.806 819.154 345.643 819.577C345.483 820 345.403 820.472 345.403 820.994C345.403 821.53 345.485 822.001 345.648 822.405C345.812 822.81 346.053 823.126 346.373 823.354C346.696 823.581 347.093 823.695 347.566 823.695ZM356.935 825.303C356.129 825.303 355.435 825.131 354.853 824.786C354.274 824.438 353.826 823.95 353.51 823.322C353.198 822.69 353.042 821.949 353.042 821.1C353.042 820.262 353.198 819.524 353.51 818.885C353.826 818.245 354.267 817.746 354.831 817.388C355.4 817.029 356.064 816.85 356.824 816.85C357.285 816.85 357.733 816.926 358.166 817.079C358.599 817.231 358.988 817.471 359.332 817.798C359.677 818.125 359.949 818.549 360.147 819.071C360.346 819.589 360.446 820.22 360.446 820.962V821.527H353.942V820.333H358.885C358.885 819.914 358.8 819.543 358.629 819.22C358.459 818.893 358.219 818.636 357.91 818.448C357.605 818.26 357.246 818.165 356.834 818.165C356.387 818.165 355.996 818.275 355.662 818.496C355.332 818.712 355.076 818.996 354.895 819.348C354.718 819.696 354.629 820.074 354.629 820.483V821.415C354.629 821.962 354.725 822.427 354.917 822.81C355.112 823.194 355.384 823.487 355.732 823.689C356.08 823.888 356.486 823.987 356.951 823.987C357.253 823.987 357.528 823.945 357.777 823.86C358.026 823.771 358.24 823.639 358.422 823.465C358.603 823.291 358.741 823.077 358.837 822.821L360.345 823.093C360.224 823.536 360.007 823.925 359.695 824.259C359.386 824.589 358.997 824.847 358.528 825.032C358.063 825.213 357.532 825.303 356.935 825.303Z" fill="#1E1E1E"/>
<rect x="334.474" y="759.399" width="22.2441" height="23.3168" rx="11.122" fill="#FF2C20"/>
<path d="M345.559 778.256C344.499 778.256 343.554 778.074 342.725 777.71C341.902 777.34 341.25 776.834 340.772 776.19C340.299 775.541 340.055 774.793 340.041 773.945H343.137C343.156 774.301 343.272 774.613 343.485 774.883C343.703 775.148 343.992 775.354 344.352 775.501C344.712 775.648 345.116 775.721 345.566 775.721C346.035 775.721 346.449 775.638 346.809 775.472C347.169 775.307 347.451 775.077 347.654 774.783C347.858 774.49 347.96 774.151 347.96 773.768C347.96 773.38 347.851 773.036 347.633 772.738C347.42 772.435 347.112 772.198 346.71 772.028C346.312 771.857 345.839 771.772 345.289 771.772H343.933V769.514H345.289C345.753 769.514 346.163 769.433 346.518 769.272C346.878 769.111 347.157 768.889 347.356 768.604C347.555 768.316 347.654 767.979 347.654 767.596C347.654 767.231 347.567 766.912 347.392 766.637C347.221 766.358 346.98 766.14 346.667 765.984C346.359 765.828 346 765.749 345.588 765.749C345.171 765.749 344.79 765.825 344.444 765.977C344.098 766.123 343.821 766.334 343.613 766.609C343.405 766.883 343.294 767.205 343.279 767.575H340.332C340.346 766.737 340.585 765.998 341.049 765.359C341.513 764.72 342.138 764.22 342.924 763.86C343.715 763.496 344.607 763.313 345.602 763.313C346.606 763.313 347.484 763.496 348.237 763.86C348.99 764.225 349.574 764.717 349.991 765.337C350.412 765.953 350.621 766.644 350.616 767.411C350.621 768.226 350.367 768.905 349.856 769.45C349.349 769.994 348.689 770.34 347.875 770.487V770.6C348.945 770.738 349.759 771.109 350.318 771.715C350.881 772.317 351.161 773.069 351.156 773.974C351.161 774.802 350.921 775.539 350.438 776.183C349.96 776.827 349.3 777.333 348.457 777.703C347.614 778.072 346.648 778.256 345.559 778.256Z" fill="white"/>
<rect x="334.474" y="759.399" width="22.2441" height="23.3168" rx="11.122" stroke="white" stroke-width="2"/>
</g>
<rect x="0.5" y="0.5" width="389" height="843" stroke="black"/>
<defs>
<filter id="filter0_b_6_1930" x="-36.0533" y="710.045" width="463.107" height="169.625" filterUnits="userSpaceOnUse" color-interpolation-filters="sRGB">
<feFlood flood-opacity="0" result="BackgroundImageFix"/>
<feGaussianBlur in="BackgroundImageFix" stdDeviation="18.0267"/>
<feComposite in2="SourceAlpha" operator="in" result="effect1_backgroundBlur_6_1930"/>
<feBlend mode="normal" in="SourceGraphic" in2="effect1_backgroundBlur_6_1930" result="shape"/>
</filter>
<clipPath id="clip0_6_1930">
<rect width="390" height="844" fill="white"/>
</clipPath>
<clipPath id="clip1_6_1930">
<rect width="390" height="44" fill="white"/>
</clipPath>
<clipPath id="clip2_6_1930">
<rect width="46.2722" height="48.7241" fill="white" transform="translate(40.4882 757.354)"/>
</clipPath>
</defs>
</svg>
