<svg width="390" height="844" viewBox="0 0 390 844" fill="none" xmlns="http://www.w3.org/2000/svg">
<rect x="0.5" y="0.5" width="389" height="843" fill="white"/>
<rect x="0.5" y="0.5" width="389" height="843" stroke="black"/>
<g clip-path="url(#clip0_0_1)">
<rect width="382" height="836" transform="translate(3 1)" fill="white"/>
<g clip-path="url(#clip1_0_1)">
<path d="M84 -1H303C300.894 -0.397311 299.418 1.49525 299.345 3.68446L299.317 4.5618C299.317 18.0587 288.375 29 274.878 29H112.122C98.6249 29 87.6835 18.0587 87.6835 4.5618L87.6545 3.68447C87.5823 1.49525 86.1059 -0.397311 84 -1Z" fill="black"/>
<path opacity="0.35" d="M346.5 21C346.5 19.8034 347.47 18.8334 348.667 18.8334H365.333C366.53 18.8334 367.5 19.8034 367.5 21V27C367.5 28.1967 366.53 29.1667 365.333 29.1667H348.667C347.47 29.1667 346.5 28.1967 346.5 27V21Z" stroke="black"/>
<path opacity="0.4" d="M369 22.0001V26.0001C369.805 25.6613 370.328 24.8732 370.328 24.0001C370.328 23.1269 369.805 22.3388 369 22.0001Z" fill="black"/>
<path d="M348 21.6667C348 20.9303 348.597 20.3334 349.333 20.3334H364.667C365.403 20.3334 366 20.9303 366 21.6667V26.3334C366 27.0698 365.403 27.6667 364.667 27.6667H349.333C348.597 27.6667 348 27.0698 348 26.3334V21.6667Z" fill="black"/>
<path fill-rule="evenodd" clip-rule="evenodd" d="M333.33 20.608C335.546 20.6081 337.678 21.4596 339.283 22.9863C339.404 23.1042 339.598 23.1027 339.717 22.983L340.873 21.8163C340.933 21.7556 340.967 21.6734 340.966 21.5878C340.966 21.5022 340.931 21.4204 340.87 21.3603C336.655 17.3208 330.005 17.3208 325.79 21.3603C325.729 21.4203 325.694 21.5021 325.694 21.5877C325.693 21.6733 325.727 21.7556 325.787 21.8163L326.943 22.983C327.062 23.1029 327.256 23.1044 327.377 22.9863C328.983 21.4595 331.114 20.608 333.33 20.608ZM333.33 24.4037C334.548 24.4036 335.722 24.8561 336.624 25.6733C336.747 25.7893 336.939 25.7868 337.058 25.6677L338.212 24.501C338.273 24.4398 338.307 24.3568 338.306 24.2705C338.305 24.1843 338.27 24.102 338.208 24.042C335.46 21.4856 331.204 21.4856 328.455 24.042C328.393 24.102 328.358 24.1843 328.357 24.2706C328.356 24.3569 328.39 24.4399 328.451 24.501L329.605 25.6677C329.724 25.7868 329.917 25.7893 330.039 25.6733C330.941 24.8567 332.114 24.4042 333.33 24.4037ZM335.643 26.9575C335.645 27.044 335.611 27.1274 335.549 27.188L333.552 29.2037C333.494 29.2629 333.414 29.2963 333.33 29.2963C333.247 29.2963 333.167 29.2629 333.109 29.2037L331.111 27.188C331.049 27.1274 331.015 27.0439 331.017 26.9574C331.019 26.8709 331.057 26.789 331.121 26.731C332.396 25.6521 334.265 25.6521 335.54 26.731C335.604 26.789 335.642 26.871 335.643 26.9575Z" fill="black"/>
<path fill-rule="evenodd" clip-rule="evenodd" d="M319.667 18.6666H318.667C318.114 18.6666 317.667 19.1143 317.667 19.6666V28.3333C317.667 28.8856 318.114 29.3333 318.667 29.3333H319.667C320.219 29.3333 320.667 28.8856 320.667 28.3333V19.6666C320.667 19.1143 320.219 18.6666 319.667 18.6666ZM314 21H315C315.552 21 316 21.4477 316 22V28.3333C316 28.8856 315.552 29.3333 315 29.3333H314C313.448 29.3333 313 28.8856 313 28.3333V22C313 21.4477 313.448 21 314 21ZM310.333 23.3333H309.333C308.781 23.3333 308.333 23.781 308.333 24.3333V28.3333C308.333 28.8856 308.781 29.3333 309.333 29.3333H310.333C310.886 29.3333 311.333 28.8856 311.333 28.3333V24.3333C311.333 23.781 310.886 23.3333 310.333 23.3333ZM305.667 25.3333H304.667C304.114 25.3333 303.667 25.781 303.667 26.3333V28.3333C303.667 28.8856 304.114 29.3333 304.667 29.3333H305.667C306.219 29.3333 306.667 28.8856 306.667 28.3333V26.3333C306.667 25.781 306.219 25.3333 305.667 25.3333Z" fill="black"/>
<path d="M40.3208 29.2563C43.0088 29.2563 44.6055 27.1543 44.6055 23.5947C44.6055 22.2544 44.3491 21.1265 43.8584 20.2549C43.1479 18.8999 41.9248 18.1675 40.3794 18.1675C38.0796 18.1675 36.4536 19.7129 36.4536 21.8809C36.4536 23.917 37.9185 25.3965 39.9326 25.3965C41.1704 25.3965 42.1738 24.8179 42.6719 23.8145H42.6938C42.6938 23.8145 42.7231 23.8145 42.7305 23.8145C42.7451 23.8145 42.7964 23.8145 42.7964 23.8145C42.7964 26.2314 41.8809 27.6743 40.3354 27.6743C39.4272 27.6743 38.7241 27.1763 38.4824 26.3779H36.6001C36.915 28.1138 38.3872 29.2563 40.3208 29.2563ZM40.3867 23.895C39.1709 23.895 38.3066 23.0308 38.3066 21.8223C38.3066 20.6431 39.2148 19.7422 40.394 19.7422C41.5732 19.7422 42.4814 20.6577 42.4814 21.8516C42.4814 23.0308 41.5952 23.895 40.3867 23.895Z" fill="black"/>
<path d="M47.6966 29.1538C48.3924 29.1538 48.8685 28.6558 48.8685 27.9966C48.8685 27.3301 48.3924 26.8394 47.6966 26.8394C47.0081 26.8394 46.5247 27.3301 46.5247 27.9966C46.5247 28.6558 47.0081 29.1538 47.6966 29.1538ZM47.6966 23.6606C48.3924 23.6606 48.8685 23.1699 48.8685 22.5107C48.8685 21.8442 48.3924 21.3535 47.6966 21.3535C47.0081 21.3535 46.5247 21.8442 46.5247 22.5107C46.5247 23.1699 47.0081 23.6606 47.6966 23.6606Z" fill="black"/>
<path d="M55.7242 29H57.5333V27.0298H58.9615V25.4331H57.5333V18.4312H54.8673C52.9996 21.2437 51.5128 23.5947 50.5606 25.3452V27.0298H55.7242V29ZM52.3111 25.3672C53.5416 23.1992 54.6402 21.4634 55.651 19.9692H55.7535V25.4771H52.3111V25.3672Z" fill="black"/>
<path d="M62.9901 29H64.8798V18.4312H62.9975L60.2362 20.3647V22.1812L62.8656 20.3354H62.9901V29Z" fill="black"/>
</g>
<path d="M135.514 89.34C135.664 88.77 135.754 87.96 135.754 87.15C135.754 85.56 135.754 72.09 135.754 69.66C135.754 68.31 135.544 67.14 135.544 67.08H139.984C139.984 67.14 139.774 68.34 139.774 69.69C139.774 72.09 139.774 83.52 139.774 85.35C142.234 84.3 145.174 81.93 147.214 79.02L149.494 82.35C147.004 85.59 142.714 88.83 139.324 90.54C138.694 90.87 138.334 91.2 138.034 91.41L135.514 89.34ZM121.624 88.92C124.294 87.06 125.914 84.3 126.724 81.72C127.594 79.17 127.624 73.47 127.624 69.87C127.624 68.64 127.504 67.86 127.324 67.11H131.734C131.734 67.23 131.524 68.58 131.524 69.81C131.524 73.38 131.434 79.71 130.654 82.74C129.724 86.1 127.864 89.07 125.284 91.35L121.624 88.92ZM153.184 76.11C154.294 76.2 156.454 76.32 158.014 76.32C161.554 76.32 171.454 76.32 174.124 76.32C175.534 76.32 176.854 76.17 177.664 76.11V80.85C176.944 80.82 175.414 80.67 174.154 80.67C171.424 80.67 161.554 80.67 158.014 80.67C156.334 80.67 154.324 80.76 153.184 80.85V76.11ZM196.166 67.38C195.776 68.28 195.356 69.39 194.906 70.74C193.796 74.1 190.676 83.76 189.386 86.88L184.976 87.03C186.596 83.19 189.716 73.35 190.706 69.87C191.126 68.37 191.276 67.41 191.396 66.42L196.166 67.38ZM201.536 77.07C203.696 80.31 206.756 86.22 208.136 89.55L204.086 91.35C202.736 87.72 199.946 81.51 197.816 78.63L201.536 77.07ZM184.676 85.68C188.846 85.53 198.656 84.42 202.856 83.85L203.726 87.69C199.286 88.26 188.966 89.34 184.916 89.76C184.166 89.85 183.026 90 182.096 90.12L181.376 85.71C182.396 85.74 183.716 85.71 184.676 85.68ZM224.306 69.42H238.706V72.84H222.626L224.306 69.42ZM228.266 76.02H237.926V79.29H228.266V76.02ZM228.236 82.65H238.316V86.01H228.236V82.65ZM226.436 70.56H230.126V92.7H226.436V70.56ZM224.996 64.8L228.476 65.73C226.796 70.59 224.096 75.57 221.336 78.69C220.766 78.03 219.386 76.74 218.606 76.17C221.246 73.47 223.616 69.15 224.996 64.8ZM217.076 64.65L220.556 65.76C218.606 70.86 215.456 76.35 212.156 79.77C211.826 78.87 210.806 76.83 210.176 75.93C212.936 73.2 215.546 68.94 217.076 64.65ZM214.046 72.93L217.646 69.3L217.676 69.33V92.67H214.046V72.93ZM244.976 75.81H251.906V79.11H244.976V75.81ZM250.526 75.81H254.036C254.036 75.81 254.006 76.71 254.006 77.13C253.886 83.49 253.736 86.16 253.046 87.09C252.446 87.84 251.846 88.11 250.976 88.26C250.166 88.38 248.876 88.38 247.466 88.35C247.406 87.3 247.016 85.89 246.476 84.99C247.556 85.11 248.576 85.11 249.056 85.11C249.476 85.11 249.746 85.05 249.986 84.75C250.346 84.27 250.466 82.17 250.526 76.35V75.81ZM259.556 66.42L261.716 64.23C263.366 65.1 265.586 66.48 266.666 67.47L264.356 69.9C263.366 68.85 261.236 67.38 259.556 66.42ZM263.096 74.13L266.726 75C264.206 82.83 259.796 88.92 253.856 92.58C253.316 91.83 251.996 90.33 251.246 89.61C257.006 86.52 261.026 81.09 263.096 74.13ZM245.186 69.03H268.316V72.57H245.186V69.03ZM242.786 69.03H246.566V77.85C246.566 82.35 246.056 89.01 243.326 93.06C242.726 92.34 241.106 91.02 240.266 90.6C242.576 87 242.786 81.75 242.786 77.82V69.03ZM254.966 64.56H258.746C258.536 76.8 261.296 88.83 264.326 88.83C265.016 88.83 265.376 87.3 265.556 83.52C266.366 84.36 267.656 85.2 268.616 85.56C268.046 91.14 266.846 92.49 264.026 92.49C257.486 92.49 255.056 78.24 254.966 64.56Z" fill="black"/>
<path d="M20.2784 84V72.3636H24.5398C25.3655 72.3636 26.0492 72.5 26.5909 72.7727C27.1326 73.0417 27.5379 73.4072 27.8068 73.8693C28.0758 74.3277 28.2102 74.8447 28.2102 75.4205C28.2102 75.9053 28.1212 76.3144 27.9432 76.6477C27.7652 76.9773 27.5265 77.2424 27.2273 77.4432C26.9318 77.6402 26.6061 77.7841 26.25 77.875V77.9886C26.6364 78.0076 27.0133 78.1326 27.3807 78.3636C27.7519 78.5909 28.0587 78.9148 28.3011 79.3352C28.5436 79.7557 28.6648 80.267 28.6648 80.8693C28.6648 81.464 28.5246 81.9981 28.2443 82.4716C27.9678 82.9413 27.5398 83.3144 26.9602 83.5909C26.3807 83.8636 25.6402 84 24.7386 84H20.2784ZM22.0341 82.4943H24.5682C25.4091 82.4943 26.0114 82.3314 26.375 82.0057C26.7386 81.6799 26.9205 81.2727 26.9205 80.7841C26.9205 80.4167 26.8277 80.0795 26.642 79.7727C26.4564 79.4659 26.1913 79.2216 25.8466 79.0398C25.5057 78.858 25.1004 78.767 24.6307 78.767H22.0341V82.4943ZM22.0341 77.3977H24.3864C24.7803 77.3977 25.1345 77.322 25.4489 77.1705C25.767 77.0189 26.0189 76.8068 26.2045 76.5341C26.3939 76.2576 26.4886 75.9318 26.4886 75.5568C26.4886 75.0758 26.3201 74.6723 25.983 74.3466C25.6458 74.0208 25.1288 73.858 24.4318 73.858H22.0341V77.3977ZM33.1506 84.1932C32.5975 84.1932 32.0975 84.0909 31.6506 83.8864C31.2036 83.678 30.8494 83.3769 30.5881 82.983C30.3305 82.589 30.2017 82.1061 30.2017 81.5341C30.2017 81.0417 30.2964 80.6364 30.4858 80.3182C30.6752 80 30.9309 79.7481 31.2528 79.5625C31.5748 79.3769 31.9347 79.2367 32.3324 79.142C32.7301 79.0473 33.1354 78.9754 33.5483 78.9261C34.071 78.8655 34.4953 78.8163 34.821 78.7784C35.1468 78.7367 35.3835 78.6705 35.5312 78.5795C35.679 78.4886 35.7528 78.3409 35.7528 78.1364V78.0966C35.7528 77.6004 35.6127 77.2159 35.3324 76.9432C35.0559 76.6705 34.643 76.5341 34.0938 76.5341C33.5218 76.5341 33.071 76.661 32.7415 76.9148C32.4157 77.1648 32.1903 77.4432 32.0653 77.75L30.4688 77.3864C30.6581 76.8561 30.9347 76.428 31.2983 76.1023C31.6657 75.7727 32.0881 75.5341 32.5653 75.3864C33.0426 75.2348 33.5445 75.1591 34.071 75.1591C34.4195 75.1591 34.7888 75.2008 35.179 75.2841C35.5729 75.3636 35.9403 75.5114 36.2812 75.7273C36.6259 75.9432 36.9081 76.2519 37.1278 76.6534C37.3475 77.0511 37.4574 77.5682 37.4574 78.2045V84H35.7983V82.8068H35.7301C35.6203 83.0265 35.4555 83.2424 35.2358 83.4545C35.0161 83.6667 34.7339 83.8428 34.3892 83.983C34.0445 84.1231 33.6316 84.1932 33.1506 84.1932ZM33.5199 82.8295C33.9896 82.8295 34.3911 82.7367 34.7244 82.5511C35.0616 82.3655 35.3172 82.1231 35.4915 81.8239C35.6695 81.5208 35.7585 81.197 35.7585 80.8523V79.7273C35.6979 79.7879 35.5805 79.8447 35.4062 79.8977C35.2358 79.947 35.0407 79.9905 34.821 80.0284C34.6013 80.0625 34.3873 80.0947 34.179 80.125C33.9706 80.1515 33.7964 80.1742 33.6562 80.1932C33.3267 80.2348 33.0256 80.3049 32.7528 80.4034C32.4839 80.5019 32.268 80.6439 32.1051 80.8295C31.946 81.0114 31.8665 81.2538 31.8665 81.5568C31.8665 81.9773 32.0218 82.2955 32.3324 82.5114C32.643 82.7235 33.0388 82.8295 33.5199 82.8295ZM43.3963 84.1761C42.5516 84.1761 41.8243 83.9848 41.2145 83.6023C40.6084 83.2159 40.1425 82.6837 39.8168 82.0057C39.491 81.3277 39.3281 80.5511 39.3281 79.6761C39.3281 78.7898 39.4948 78.0076 39.8281 77.3295C40.1615 76.6477 40.6312 76.1155 41.2372 75.733C41.8433 75.3504 42.5573 75.1591 43.3793 75.1591C44.0421 75.1591 44.633 75.2822 45.152 75.5284C45.6709 75.7708 46.0895 76.1117 46.4077 76.5511C46.7296 76.9905 46.9209 77.5038 46.9815 78.0909H45.3281C45.2372 77.6818 45.0289 77.3295 44.7031 77.0341C44.3812 76.7386 43.9493 76.5909 43.4077 76.5909C42.9342 76.5909 42.5194 76.7159 42.1634 76.9659C41.8111 77.2121 41.5365 77.5644 41.3395 78.0227C41.1425 78.4773 41.044 79.0152 41.044 79.6364C41.044 80.2727 41.1406 80.822 41.3338 81.2841C41.527 81.7462 41.7997 82.1042 42.152 82.358C42.508 82.6117 42.9266 82.7386 43.4077 82.7386C43.7296 82.7386 44.0213 82.6799 44.2827 82.5625C44.5478 82.4413 44.7694 82.2689 44.9474 82.0455C45.1293 81.822 45.2562 81.553 45.3281 81.2386H46.9815C46.9209 81.803 46.7372 82.3068 46.4304 82.75C46.1236 83.1932 45.7126 83.5417 45.1974 83.7955C44.6861 84.0492 44.0857 84.1761 43.3963 84.1761ZM50.3608 81.0398L50.3494 78.9659H50.6449L54.1222 75.2727H56.1562L52.1903 79.4773H51.9233L50.3608 81.0398ZM48.7983 84V72.3636H50.4972V84H48.7983ZM54.3097 84L51.1847 79.8523L52.3551 78.6648L56.3949 84H54.3097Z" fill="#FFB84E"/>
<path d="M29.9432 163.148C29.5455 160.659 27.5966 159.205 25.1364 159.205C22.125 159.205 19.9034 161.46 19.9034 165.182C19.9034 168.903 22.1136 171.159 25.1364 171.159C27.6932 171.159 29.5625 169.557 29.9432 167.256L28.1705 167.25C27.8693 168.739 26.6193 169.557 25.1477 169.557C23.1534 169.557 21.6477 168.028 21.6477 165.182C21.6477 162.358 23.1477 160.807 25.1534 160.807C26.6364 160.807 27.8807 161.642 28.1705 163.148H29.9432ZM35.5838 171.176C38.044 171.176 39.652 169.375 39.652 166.676C39.652 163.96 38.044 162.159 35.5838 162.159C33.1236 162.159 31.5156 163.96 31.5156 166.676C31.5156 169.375 33.1236 171.176 35.5838 171.176ZM35.5895 169.75C33.9815 169.75 33.2315 168.347 33.2315 166.67C33.2315 165 33.9815 163.58 35.5895 163.58C37.1861 163.58 37.9361 165 37.9361 166.67C37.9361 168.347 37.1861 169.75 35.5895 169.75ZM41.5483 171H43.2472V165.619C43.2472 164.443 44.071 163.625 45.0369 163.625C45.9801 163.625 46.6335 164.25 46.6335 165.199V171H48.3267V165.438C48.3267 164.386 48.9688 163.625 50.0767 163.625C50.9744 163.625 51.7131 164.125 51.7131 165.307V171H53.4119V165.148C53.4119 163.153 52.2983 162.159 50.7188 162.159C49.4631 162.159 48.5199 162.761 48.0994 163.693H48.0085C47.6278 162.739 46.8267 162.159 45.6619 162.159C44.5085 162.159 43.6506 162.733 43.2869 163.693H43.179V162.273H41.5483V171ZM55.6889 174.273H57.3878V169.642H57.4901C57.7969 170.199 58.4219 171.17 60.0128 171.17C62.1264 171.17 63.6605 169.477 63.6605 166.653C63.6605 163.824 62.1037 162.159 59.9957 162.159C58.3764 162.159 57.7912 163.148 57.4901 163.688H57.348V162.273H55.6889V174.273ZM57.3537 166.636C57.3537 164.812 58.1491 163.602 59.6321 163.602C61.1719 163.602 61.9446 164.903 61.9446 166.636C61.9446 168.386 61.1491 169.722 59.6321 169.722C58.1719 169.722 57.3537 168.472 57.3537 166.636ZM69.2401 171.176C71.7003 171.176 73.3082 169.375 73.3082 166.676C73.3082 163.96 71.7003 162.159 69.2401 162.159C66.7798 162.159 65.1719 163.96 65.1719 166.676C65.1719 169.375 66.7798 171.176 69.2401 171.176ZM69.2457 169.75C67.6378 169.75 66.8878 168.347 66.8878 166.67C66.8878 165 67.6378 163.58 69.2457 163.58C70.8423 163.58 71.5923 165 71.5923 166.67C71.5923 168.347 70.8423 169.75 69.2457 169.75ZM81.7443 164.403C81.392 163.045 80.3295 162.159 78.4432 162.159C76.4716 162.159 75.0739 163.199 75.0739 164.744C75.0739 165.983 75.8239 166.807 77.4602 167.17L78.9375 167.494C79.7784 167.682 80.1705 168.057 80.1705 168.602C80.1705 169.278 79.4489 169.807 78.3352 169.807C77.3182 169.807 76.6648 169.369 76.4602 168.511L74.8182 168.761C75.1023 170.307 76.3864 171.176 78.3466 171.176C80.4545 171.176 81.9148 170.057 81.9148 168.477C81.9148 167.244 81.1307 166.483 79.5284 166.114L78.142 165.795C77.1818 165.568 76.767 165.244 76.7727 164.653C76.767 163.983 77.4943 163.506 78.4602 163.506C79.517 163.506 80.0057 164.091 80.2045 164.676L81.7443 164.403ZM87.544 171.176C89.4474 171.176 90.794 170.239 91.1804 168.818L89.5724 168.528C89.2656 169.352 88.527 169.773 87.5611 169.773C86.1065 169.773 85.1293 168.83 85.0838 167.148H91.2884V166.545C91.2884 163.392 89.402 162.159 87.4247 162.159C84.9929 162.159 83.3906 164.011 83.3906 166.693C83.3906 169.403 84.9702 171.176 87.544 171.176ZM85.0895 165.875C85.1577 164.636 86.0554 163.562 87.4361 163.562C88.7543 163.562 89.6179 164.54 89.6236 165.875H85.0895ZM98.4815 174.25C99.8849 174.25 100.777 173.517 101.277 172.165L104.885 162.29L103.05 162.273L100.839 169.045H100.749L98.5384 162.273H96.7202L99.9134 171.114L99.7031 171.693C99.2713 172.824 98.6634 172.926 97.7315 172.67L97.3224 174.062C97.527 174.159 97.9702 174.25 98.4815 174.25ZM109.849 171.176C112.31 171.176 113.918 169.375 113.918 166.676C113.918 163.96 112.31 162.159 109.849 162.159C107.389 162.159 105.781 163.96 105.781 166.676C105.781 169.375 107.389 171.176 109.849 171.176ZM109.855 169.75C108.247 169.75 107.497 168.347 107.497 166.67C107.497 165 108.247 163.58 109.855 163.58C111.452 163.58 112.202 165 112.202 166.67C112.202 168.347 111.452 169.75 109.855 169.75ZM121.342 167.381C121.348 168.864 120.246 169.568 119.291 169.568C118.24 169.568 117.513 168.807 117.513 167.619V162.273H115.814V167.824C115.814 169.989 117.001 171.114 118.678 171.114C119.99 171.114 120.882 170.42 121.286 169.489H121.376V171H123.047V162.273H121.342V167.381ZM125.33 171H127.028V165.67C127.028 164.528 127.909 163.705 129.114 163.705C129.466 163.705 129.864 163.767 130 163.807V162.182C129.83 162.159 129.494 162.142 129.278 162.142C128.256 162.142 127.381 162.722 127.062 163.659H126.972V162.273H125.33V171ZM135.705 171H137.403V165.619C137.403 164.443 138.227 163.625 139.193 163.625C140.136 163.625 140.79 164.25 140.79 165.199V171H142.483V165.438C142.483 164.386 143.125 163.625 144.233 163.625C145.131 163.625 145.869 164.125 145.869 165.307V171H147.568V165.148C147.568 163.153 146.455 162.159 144.875 162.159C143.619 162.159 142.676 162.761 142.256 163.693H142.165C141.784 162.739 140.983 162.159 139.818 162.159C138.665 162.159 137.807 162.733 137.443 163.693H137.335V162.273H135.705V171ZM153.607 171.176C155.51 171.176 156.857 170.239 157.243 168.818L155.635 168.528C155.328 169.352 154.589 169.773 153.624 169.773C152.169 169.773 151.192 168.83 151.146 167.148H157.351V166.545C157.351 163.392 155.464 162.159 153.487 162.159C151.055 162.159 149.453 164.011 149.453 166.693C149.453 169.403 151.033 171.176 153.607 171.176ZM151.152 165.875C151.22 164.636 152.118 163.562 153.499 163.562C154.817 163.562 155.68 164.54 155.686 165.875H151.152ZM165.776 164.403C165.423 163.045 164.361 162.159 162.474 162.159C160.503 162.159 159.105 163.199 159.105 164.744C159.105 165.983 159.855 166.807 161.491 167.17L162.969 167.494C163.81 167.682 164.202 168.057 164.202 168.602C164.202 169.278 163.48 169.807 162.366 169.807C161.349 169.807 160.696 169.369 160.491 168.511L158.849 168.761C159.134 170.307 160.418 171.176 162.378 171.176C164.486 171.176 165.946 170.057 165.946 168.477C165.946 167.244 165.162 166.483 163.56 166.114L162.173 165.795C161.213 165.568 160.798 165.244 160.804 164.653C160.798 163.983 161.526 163.506 162.491 163.506C163.548 163.506 164.037 164.091 164.236 164.676L165.776 164.403ZM174.354 164.403C174.001 163.045 172.939 162.159 171.053 162.159C169.081 162.159 167.683 163.199 167.683 164.744C167.683 165.983 168.433 166.807 170.07 167.17L171.547 167.494C172.388 167.682 172.78 168.057 172.78 168.602C172.78 169.278 172.058 169.807 170.945 169.807C169.928 169.807 169.274 169.369 169.07 168.511L167.428 168.761C167.712 170.307 168.996 171.176 170.956 171.176C173.064 171.176 174.524 170.057 174.524 168.477C174.524 167.244 173.74 166.483 172.138 166.114L170.751 165.795C169.791 165.568 169.376 165.244 169.382 164.653C169.376 163.983 170.104 163.506 171.07 163.506C172.126 163.506 172.615 164.091 172.814 164.676L174.354 164.403ZM178.932 171.193C180.375 171.193 181.188 170.46 181.511 169.807H181.58V171H183.239V165.205C183.239 162.665 181.239 162.159 179.852 162.159C178.273 162.159 176.818 162.795 176.25 164.386L177.847 164.75C178.097 164.131 178.733 163.534 179.875 163.534C180.972 163.534 181.534 164.108 181.534 165.097V165.136C181.534 165.756 180.898 165.744 179.33 165.926C177.676 166.119 175.983 166.551 175.983 168.534C175.983 170.25 177.273 171.193 178.932 171.193ZM179.301 169.83C178.341 169.83 177.648 169.398 177.648 168.557C177.648 167.648 178.455 167.324 179.438 167.193C179.989 167.119 181.295 166.972 181.54 166.727V167.852C181.54 168.886 180.716 169.83 179.301 169.83ZM189.161 174.438C191.382 174.438 193.098 173.42 193.098 171.193V162.273H191.433V163.688H191.308C191.007 163.148 190.405 162.159 188.78 162.159C186.672 162.159 185.121 163.824 185.121 166.602C185.121 169.386 186.706 170.869 188.768 170.869C190.371 170.869 190.99 169.966 191.297 169.409H191.405V171.125C191.405 172.472 190.467 173.068 189.178 173.068C187.763 173.068 187.212 172.358 186.911 171.875L185.45 172.477C185.911 173.528 187.075 174.438 189.161 174.438ZM189.143 169.46C187.626 169.46 186.837 168.295 186.837 166.58C186.837 164.903 187.609 163.602 189.143 163.602C190.626 163.602 191.422 164.812 191.422 166.58C191.422 168.381 190.609 169.46 189.143 169.46ZM199.138 171.176C201.041 171.176 202.388 170.239 202.774 168.818L201.166 168.528C200.859 169.352 200.121 169.773 199.155 169.773C197.7 169.773 196.723 168.83 196.678 167.148H202.882V166.545C202.882 163.392 200.996 162.159 199.018 162.159C196.587 162.159 194.984 164.011 194.984 166.693C194.984 169.403 196.564 171.176 199.138 171.176ZM196.683 165.875C196.751 164.636 197.649 163.562 199.03 163.562C200.348 163.562 201.212 164.54 201.217 165.875H196.683ZM210.7 165.818C210.7 164.426 211.581 163.631 212.791 163.631C213.962 163.631 214.661 164.375 214.661 165.653V171H216.359V165.449C216.359 163.273 215.166 162.159 213.371 162.159C212.013 162.159 211.195 162.75 210.786 163.693H210.678V159.364H209.001V171H210.7V165.818ZM222.388 171.176C224.291 171.176 225.638 170.239 226.024 168.818L224.416 168.528C224.109 169.352 223.371 169.773 222.405 169.773C220.95 169.773 219.973 168.83 219.928 167.148H226.132V166.545C226.132 163.392 224.246 162.159 222.268 162.159C219.837 162.159 218.234 164.011 218.234 166.693C218.234 169.403 219.814 171.176 222.388 171.176ZM219.933 165.875C220.001 164.636 220.899 163.562 222.28 163.562C223.598 163.562 224.462 164.54 224.467 165.875H219.933ZM228.017 171H229.716V165.67C229.716 164.528 230.597 163.705 231.801 163.705C232.153 163.705 232.551 163.767 232.688 163.807V162.182C232.517 162.159 232.182 162.142 231.966 162.142C230.943 162.142 230.068 162.722 229.75 163.659H229.659V162.273H228.017V171ZM237.607 171.176C239.51 171.176 240.857 170.239 241.243 168.818L239.635 168.528C239.328 169.352 238.589 169.773 237.624 169.773C236.169 169.773 235.192 168.83 235.146 167.148H241.351V166.545C241.351 163.392 239.464 162.159 237.487 162.159C235.055 162.159 233.453 164.011 233.453 166.693C233.453 169.403 235.033 171.176 237.607 171.176ZM235.152 165.875C235.22 164.636 236.118 163.562 237.499 163.562C238.817 163.562 239.68 164.54 239.686 165.875H235.152ZM244.355 171.108C244.974 171.108 245.491 170.602 245.491 169.972C245.491 169.352 244.974 168.841 244.355 168.841C243.73 168.841 243.219 169.352 243.219 169.972C243.219 170.602 243.73 171.108 244.355 171.108ZM248.886 171.108C249.506 171.108 250.023 170.602 250.023 169.972C250.023 169.352 249.506 168.841 248.886 168.841C248.261 168.841 247.75 169.352 247.75 169.972C247.75 170.602 248.261 171.108 248.886 171.108ZM253.418 171.108C254.037 171.108 254.554 170.602 254.554 169.972C254.554 169.352 254.037 168.841 253.418 168.841C252.793 168.841 252.281 169.352 252.281 169.972C252.281 170.602 252.793 171.108 253.418 171.108Z" fill="#BDBDBD"/>
<rect x="19" y="479" width="350" height="51" rx="25.5" fill="#FFB84E"/>
<path d="M182.432 502.656V508.544H180.56V504.432H178.688V502.656H182.432ZM182.432 507.712C183.072 508.768 184.288 509.232 185.952 509.296C187.824 509.376 191.456 509.328 193.616 509.152C193.408 509.6 193.088 510.528 193.008 511.104C191.072 511.2 187.84 511.232 185.92 511.152C183.952 511.072 182.624 510.608 181.584 509.36C180.88 509.984 180.16 510.592 179.296 511.296L178.352 509.296C179.072 508.848 179.936 508.288 180.672 507.712H182.432ZM178.72 497.936L180.144 496.784C181.104 497.456 182.272 498.464 182.832 499.216L181.296 500.48C180.816 499.728 179.664 498.656 178.72 497.936ZM184.816 497.984H191.84V502.512H184.816V500.944H189.968V499.552H184.816V497.984ZM186.912 496.384L189.184 496.672C188.816 497.552 188.432 498.368 188.144 498.944L186.32 498.608C186.56 497.952 186.8 497.056 186.912 496.384ZM183.888 497.984H185.76V508.368H183.888V497.984ZM184.976 503.584H192.464V508.368H184.976V506.784H190.576V505.168H184.976V503.584ZM203.792 508.144H207.904V510H203.792V508.144ZM194.784 499.28H200.656V501.168H194.784V499.28ZM202.944 498.24H208.768V510.992H206.832V500.096H204.784V511.12H202.944V498.24ZM200.176 499.28H202.032C202.032 499.28 202.032 499.92 202.032 500.16C201.888 507.008 201.776 509.472 201.264 510.224C200.896 510.752 200.56 510.944 200.032 511.04C199.552 511.152 198.832 511.152 198.096 511.12C198.064 510.56 197.856 509.728 197.536 509.184C198.176 509.248 198.752 509.248 199.056 509.248C199.296 509.264 199.44 509.184 199.6 508.96C199.936 508.48 200.064 506.176 200.176 499.712V499.28ZM196.688 496.64H198.576C198.56 502.944 198.496 508.256 195.728 511.44C195.424 510.976 194.784 510.336 194.304 510.032C196.8 507.216 196.672 502.496 196.688 496.64Z" fill="white"/>
<rect width="385" height="299" transform="translate(3 539)" fill="#CCCED3"/>
<g filter="url(#filter0_b_0_1)">
<rect x="3" y="539" width="385" height="299" fill="#D1D5DB"/>
</g>
<rect x="129" y="825.065" width="134" height="5" rx="2.5" fill="black"/>
<path fill-rule="evenodd" clip-rule="evenodd" d="M342.656 797.241C343.128 797.241 343.511 797.625 343.511 798.098C343.511 798.126 343.51 798.154 343.507 798.182V800.54H343.503V800.547C343.503 800.563 343.504 800.579 343.505 800.595C343.506 800.61 343.507 800.625 343.507 800.639V800.961H343.523C343.777 804.007 346.268 806.38 349.319 806.486H349.665C352.717 806.382 355.209 804.008 355.462 800.961H355.482V798.108L355.489 798.108L355.489 798.098C355.489 797.625 355.872 797.241 356.345 797.241C356.817 797.241 357.2 797.625 357.2 798.098C357.2 798.122 357.199 798.147 357.197 798.171V800.273H357.187H357.186C357.189 804.207 354.251 807.521 350.349 807.987V810.59H353.573V810.601C353.584 810.6 353.595 810.6 353.607 810.6C354.079 810.6 354.462 810.983 354.462 811.456C354.462 811.929 354.079 812.313 353.607 812.313C353.595 812.313 353.584 812.313 353.573 812.312V812.313H345.424V812.312C345.414 812.313 345.404 812.313 345.393 812.313C344.921 812.313 344.538 811.929 344.538 811.456C344.538 810.983 344.921 810.6 345.393 810.6C345.404 810.6 345.414 810.6 345.424 810.601V810.59H348.655V807.987C344.744 807.532 341.795 804.214 341.8 800.273C341.8 800.252 341.802 800.233 341.803 800.214L341.803 800.214C341.805 800.198 341.806 800.182 341.807 800.167V798.204C341.802 798.169 341.8 798.134 341.8 798.098C341.8 797.625 342.183 797.241 342.656 797.241ZM354.113 798.831C354.113 799.348 354.113 799.893 354.086 800.41C354.065 800.876 353.994 801.339 353.874 801.79C353.606 802.737 353.035 803.57 352.248 804.16C350.635 805.435 348.359 805.435 346.745 804.16C345.957 803.572 345.385 802.738 345.119 801.79C344.998 801.339 344.927 800.876 344.907 800.41C344.877 799.893 344.88 799.348 344.88 798.831V794.501C344.88 793.987 344.883 791.716 344.88 791.333C344.894 790.863 344.974 790.399 345.12 789.952C345.667 787.986 347.457 786.625 349.497 786.625C351.537 786.625 353.326 787.986 353.874 789.952C354.003 790.403 354.083 790.865 354.114 791.333C354.145 791.85 354.114 793.987 354.114 794.501V798.831H354.113ZM352.402 799.639C352.402 799.968 352.395 800.077 352.375 800.406C352.363 800.705 352.318 801.001 352.241 801.29C352.077 801.896 351.721 802.433 351.225 802.818C350.209 803.608 348.788 803.608 347.772 802.818C347.274 802.434 346.916 801.897 346.752 801.29C346.677 801.001 346.632 800.705 346.619 800.406C346.601 800.077 346.598 799.968 346.598 799.639C346.598 795.083 346.577 791.706 346.605 791.343C346.625 791.044 346.674 790.748 346.752 790.459C346.916 789.852 347.274 789.315 347.772 788.931C348.788 788.141 350.209 788.141 351.225 788.931C351.721 789.317 352.077 789.853 352.241 790.459C352.328 790.747 352.383 791.043 352.406 791.343C352.429 791.733 352.402 795.07 352.402 799.639Z" fill="#50555C"/>
<path fill-rule="evenodd" clip-rule="evenodd" d="M42.5267 785.598C50.1814 785.598 56.3867 791.808 56.3867 799.469C56.3867 807.13 50.1814 813.34 42.5267 813.34C34.8721 813.34 28.6667 807.13 28.6667 799.469C28.6667 791.808 34.8721 785.598 42.5267 785.598ZM42.5267 787.214C49.2895 787.215 54.7712 792.702 54.7707 799.47C54.7702 806.238 49.2876 811.725 42.5249 811.724C35.7622 811.724 30.2801 806.237 30.2801 799.469C30.2801 796.219 31.5705 793.101 33.8672 790.803C36.1639 788.505 39.2789 787.214 42.5267 787.214ZM38.1421 793.453C37.7137 793.447 37.3012 793.614 36.9968 793.916C36.6925 794.218 36.5218 794.629 36.5229 795.058C36.5229 795.953 37.2479 796.679 38.1421 796.679C39.0364 796.679 39.7613 795.953 39.7613 795.058C39.7625 794.629 39.5918 794.218 39.2874 793.916C38.9831 793.614 38.5705 793.447 38.1421 793.453ZM51.7634 801.858C51.0254 805.85 47.1761 809.182 42.525 809.182C37.911 809.182 34.0843 805.898 33.3029 801.952C33.1446 800.967 33.9505 800.735 34.7097 800.919C37.2494 801.654 39.8832 802.011 42.5267 801.98C45.1643 802.01 47.7921 801.654 50.3265 800.922C51.0645 800.735 51.8549 800.946 51.7634 801.858ZM49.2579 802.413C49.1858 802.441 49.1127 802.462 49.0389 802.486C49.0312 802.49 49.2752 802.41 49.2679 802.413C47.0764 803.017 44.8111 803.31 42.5382 803.284C39.8258 803.284 37.3999 802.982 35.7305 802.382C34.5202 802.021 34.7523 803.447 35.603 803.884C37.7792 804.875 40.1469 805.375 42.5378 805.347C45.3819 805.347 47.9162 804.685 49.5901 803.828C50.3822 803.318 50.5389 801.952 49.2579 802.413ZM46.9204 793.453C46.4919 793.447 46.0794 793.614 45.775 793.916C45.4706 794.218 45.2998 794.629 45.3008 795.058C45.2923 795.643 45.599 796.187 46.1036 796.482C46.6081 796.776 47.2322 796.776 47.7368 796.482C48.2413 796.187 48.5481 795.643 48.5396 795.058C48.5406 794.629 48.3699 794.218 48.0656 793.916C47.7612 793.615 47.3487 793.448 46.9204 793.453Z" fill="#50555C"/>
<g filter="url(#filter1_d_0_1)">
<path fill-rule="evenodd" clip-rule="evenodd" d="M294.573 721.034C294.573 718.457 294.573 717.169 295.075 716.185C295.516 715.32 296.22 714.616 297.085 714.175C298.069 713.674 299.357 713.674 301.933 713.674H377.213C379.79 713.674 381.078 713.674 382.062 714.175C382.927 714.616 383.631 715.32 384.072 716.185C384.573 717.169 384.573 718.457 384.573 721.034V749.314C384.573 751.89 384.573 753.178 384.072 754.162C383.631 755.027 382.927 755.731 382.062 756.172C381.078 756.674 379.79 756.674 377.213 756.674H301.933C299.357 756.674 298.069 756.674 297.085 756.172C296.22 755.731 295.516 755.027 295.075 754.162C294.573 753.178 294.573 751.89 294.573 749.314V721.034Z" fill="#ADB3BC"/>
</g>
<path d="M338.929 736.428V735.053H334.358V736.287H337.53V736.56C337.53 738.467 336.163 739.756 334.148 739.756C331.882 739.756 330.476 737.99 330.476 735.146C330.476 732.342 331.905 730.545 334.14 730.545C335.812 730.545 336.944 731.349 337.429 732.873H338.858C338.452 730.639 336.64 729.248 334.14 729.248C331.054 729.248 329.03 731.584 329.03 735.146C329.03 738.756 331.023 741.053 334.14 741.053C337.023 741.053 338.929 739.209 338.929 736.428ZM344.39 740.935C346.788 740.935 348.273 739.279 348.273 736.576C348.273 733.865 346.788 732.217 344.39 732.217C341.992 732.217 340.507 733.865 340.507 736.576C340.507 739.279 341.992 740.935 344.39 740.935ZM344.39 739.724C342.796 739.724 341.898 738.568 341.898 736.576C341.898 734.576 342.796 733.428 344.39 733.428C345.984 733.428 346.882 734.576 346.882 736.576C346.882 738.568 345.984 739.724 344.39 739.724Z" fill="black"/>
<g filter="url(#filter2_d_0_1)">
<path fill-rule="evenodd" clip-rule="evenodd" d="M101.56 721.034C101.56 718.457 101.56 717.169 102.061 716.185C102.502 715.32 103.206 714.616 104.072 714.175C105.056 713.674 106.344 713.674 108.92 713.674H281.2C283.776 713.674 285.064 713.674 286.048 714.175C286.914 714.616 287.618 715.32 288.059 716.185C288.56 717.169 288.56 718.457 288.56 721.034V749.314C288.56 751.89 288.56 753.178 288.059 754.162C287.618 755.027 286.914 755.731 286.048 756.172C285.064 756.674 283.776 756.674 281.2 756.674H108.92C106.344 756.674 105.056 756.674 104.072 756.172C103.206 755.731 102.502 755.027 102.061 754.162C101.56 753.178 101.56 751.89 101.56 749.314V721.034Z" fill="#FCFCFE"/>
</g>
<path d="M171.747 734.67C171.747 735.889 172.466 736.568 174.044 736.951L175.489 737.303C176.388 737.521 176.825 737.912 176.825 738.49C176.825 739.264 176.013 739.803 174.88 739.803C173.802 739.803 173.13 739.349 172.903 738.639H171.52C171.669 740.037 172.958 740.935 174.833 740.935C176.747 740.935 178.208 739.896 178.208 738.389C178.208 737.178 177.442 736.49 175.856 736.107L174.559 735.795C173.567 735.553 173.098 735.193 173.098 734.615C173.098 733.865 173.88 733.357 174.88 733.357C175.895 733.357 176.552 733.803 176.731 734.474H178.059C177.88 733.092 176.653 732.217 174.888 732.217C173.098 732.217 171.747 733.271 171.747 734.67ZM184.099 732.217C182.95 732.217 181.943 732.803 181.403 733.771H181.278V732.365H179.997V743.599H181.341V739.521H181.466C181.927 740.412 182.896 740.935 184.099 740.935C186.239 740.935 187.638 739.209 187.638 736.576C187.638 733.928 186.247 732.217 184.099 732.217ZM183.778 739.724C182.263 739.724 181.302 738.506 181.302 736.576C181.302 734.639 182.263 733.428 183.786 733.428C185.325 733.428 186.247 734.607 186.247 736.576C186.247 738.545 185.325 739.724 183.778 739.724ZM191.771 740.935C192.896 740.935 193.818 740.443 194.365 739.545H194.49V740.787H195.771V735.021C195.771 733.271 194.623 732.217 192.568 732.217C190.771 732.217 189.443 733.107 189.263 734.459H190.623C190.81 733.795 191.513 733.412 192.521 733.412C193.779 733.412 194.427 733.982 194.427 735.021V735.787L191.998 735.935C190.037 736.053 188.927 736.92 188.927 738.428C188.927 739.967 190.138 740.935 191.771 740.935ZM192.021 739.756C191.044 739.756 190.318 739.256 190.318 738.396C190.318 737.553 190.88 737.107 192.162 737.021L194.427 736.873V737.646C194.427 738.849 193.404 739.756 192.021 739.756ZM204.904 734.943C204.67 733.443 203.42 732.217 201.373 732.217C199.013 732.217 197.513 733.92 197.513 736.545C197.513 739.224 199.021 740.935 201.381 740.935C203.404 740.935 204.662 739.795 204.904 738.248H203.545C203.295 739.201 202.506 739.724 201.373 739.724C199.873 739.724 198.904 738.49 198.904 736.545C198.904 734.639 199.857 733.428 201.373 733.428C202.584 733.428 203.326 734.107 203.545 734.943H204.904ZM212.147 738.607C211.795 739.349 211.061 739.748 209.975 739.748C208.545 739.748 207.615 738.693 207.545 737.029V736.967H213.6V736.451C213.6 733.834 212.217 732.217 209.943 732.217C207.631 732.217 206.147 733.935 206.147 736.584C206.147 739.248 207.608 740.935 209.943 740.935C211.787 740.935 213.1 740.045 213.49 738.607H212.147ZM209.928 733.404C211.264 733.404 212.154 734.389 212.186 735.881H207.545C207.647 734.389 208.584 733.404 209.928 733.404Z" fill="black"/>
<g filter="url(#filter3_d_0_1)">
<path fill-rule="evenodd" clip-rule="evenodd" d="M6.08008 721.034C6.08008 718.457 6.08008 717.169 6.58145 716.185C7.02247 715.32 7.72618 714.616 8.59172 714.175C9.57572 713.674 10.8638 713.674 13.4401 713.674H87.7201C90.2963 713.674 91.5844 713.674 92.5684 714.175C93.434 714.616 94.1377 715.32 94.5787 716.185C95.0801 717.169 95.0801 718.457 95.0801 721.034V749.314C95.0801 751.89 95.0801 753.178 94.5787 754.162C94.1377 755.027 93.434 755.731 92.5684 756.172C91.5844 756.674 90.2963 756.674 87.7201 756.674H13.4401C10.8638 756.674 9.57572 756.674 8.59172 756.172C7.72618 755.731 7.02247 755.027 6.58145 754.162C6.08008 753.178 6.08008 751.89 6.08008 749.314V721.034Z" fill="#ADB3BC"/>
</g>
<path d="M40.2673 740.787H41.6735V729.514H40.2751L37.2751 731.67V733.154L40.1423 731.076H40.2673V740.787ZM44.6504 732.693H46.0098C46.0098 731.357 46.9082 730.474 48.2598 730.474C49.5879 730.474 50.3926 731.365 50.3926 732.56C50.3926 733.553 49.9707 734.139 48.5332 735.693L44.7207 739.818V740.787H52.0176V739.521H46.6738V739.396L49.2363 736.748C51.2676 734.646 51.8301 733.709 51.8301 732.412C51.8301 730.584 50.3223 729.248 48.3535 729.248C46.1973 729.248 44.6504 730.685 44.6504 732.693ZM56.4398 735.592H57.8382C59.4241 735.592 60.4007 736.404 60.4007 737.709C60.4007 738.974 59.346 739.826 57.8616 739.826C56.4085 739.826 55.3929 739.068 55.2679 737.881H53.9085C54.0101 739.795 55.5882 741.053 57.8773 741.053C60.1195 741.053 61.846 739.639 61.846 737.748C61.846 736.178 60.8773 735.185 59.4163 734.951V734.826C60.5726 734.49 61.4163 733.592 61.4241 732.232C61.432 730.654 60.1507 729.248 57.9241 729.248C55.6429 729.248 54.2445 730.599 54.1038 732.435H55.471C55.5882 731.17 56.471 730.474 57.8304 730.474C59.1898 730.474 59.9945 731.334 59.9945 732.389C59.9945 733.56 59.0726 734.389 57.7757 734.389H56.4398V735.592Z" fill="black"/>
<g filter="url(#filter4_d_0_1)">
<path fill-rule="evenodd" clip-rule="evenodd" d="M341.8 665.549C341.8 662.973 341.8 661.685 342.301 660.701C342.742 659.835 343.446 659.131 344.312 658.69C345.296 658.189 346.584 658.189 349.16 658.189H377.44C380.016 658.189 381.304 658.189 382.288 658.69C383.154 659.131 383.858 659.835 384.299 660.701C384.8 661.685 384.8 662.973 384.8 665.549V693.829C384.8 696.405 384.8 697.693 384.299 698.677C383.858 699.543 383.154 700.247 382.288 700.688C381.304 701.189 380.016 701.189 377.44 701.189H349.16C346.584 701.189 345.296 701.189 344.312 700.688C343.446 700.247 342.742 699.543 342.301 698.677C341.8 697.693 341.8 696.405 341.8 693.829V665.549Z" fill="#ADB3BC"/>
</g>
<path fill-rule="evenodd" clip-rule="evenodd" d="M355.365 675.429C355.35 675.443 355.32 675.472 355.287 675.504C355.263 675.528 355.244 675.547 355.204 675.587L353.003 677.789C352.946 677.849 352.906 677.89 352.813 677.983C352.761 678.035 352.723 678.075 352.641 678.162C352.488 678.31 352.328 678.486 352.177 678.672C352.035 678.822 351.922 678.997 351.842 679.189C351.679 679.686 351.679 680.17 351.825 680.619L351.844 680.671C351.924 680.86 352.037 681.034 352.177 681.184C352.328 681.368 352.489 681.544 352.658 681.712C352.723 681.781 352.761 681.821 352.813 681.873L353.003 682.063L355.01 684.074C355.103 684.168 355.149 684.214 355.203 684.265C355.26 684.325 355.319 684.384 355.379 684.441C355.39 684.45 357.947 687.008 357.947 687.008C358.026 687.087 358.09 687.149 358.233 687.287C358.248 687.302 358.271 687.325 358.278 687.333C358.315 687.372 358.336 687.394 358.351 687.408C358.649 687.707 358.992 687.958 359.367 688.153C359.751 688.344 360.151 688.476 360.563 688.548C360.953 688.612 361.339 688.646 361.726 688.652C361.792 688.653 361.848 688.654 361.971 688.655C362.09 688.656 362.142 688.657 362.207 688.658L369.825 688.659C369.904 688.657 369.957 688.656 370.077 688.655C370.202 688.654 370.258 688.653 370.329 688.652C370.718 688.645 371.106 688.61 371.491 688.546C371.912 688.475 372.318 688.341 372.696 688.149C373.078 687.955 373.426 687.701 373.728 687.398C374.028 687.096 374.28 686.749 374.474 686.37C374.666 685.986 374.798 685.582 374.869 685.165C374.934 684.775 374.968 684.385 374.972 683.993C374.976 683.912 374.977 683.835 374.979 683.665C374.981 683.584 374.981 683.548 374.982 683.504L374.982 676.322C374.981 676.266 374.981 676.231 374.979 676.151L374.978 676.069C374.977 675.964 374.975 675.886 374.972 675.808C374.968 675.439 374.935 675.054 374.874 674.672C374.8 674.249 374.668 673.849 374.481 673.473C374.285 673.09 374.035 672.746 373.736 672.447C373.438 672.147 373.092 671.894 372.713 671.701C372.336 671.512 371.938 671.38 371.528 671.307C371.134 671.245 370.747 671.212 370.36 671.207C370.232 671.202 370.118 671.2 369.867 671.2C369.785 671.199 369.689 671.198 369.581 671.198C369.5 671.197 369.435 671.197 369.289 671.197H362.798C362.507 671.197 362.375 671.198 362.209 671.2C361.969 671.2 361.855 671.202 361.709 671.207C361.341 671.211 360.955 671.244 360.573 671.306C360.151 671.38 359.751 671.511 359.376 671.698C358.992 671.897 358.649 672.148 358.35 672.447C358.336 672.461 358.315 672.484 358.28 672.521C358.271 672.53 358.233 672.569 358.233 672.569C358.09 672.707 358.026 672.769 357.947 672.848L357.617 673.178L355.425 675.375C355.406 675.39 355.386 675.408 355.365 675.429ZM369.289 672.491C369.433 672.491 369.497 672.491 369.575 672.491C369.679 672.491 369.769 672.492 369.857 672.494C370.101 672.494 370.203 672.495 370.326 672.5C370.669 672.504 370.993 672.532 371.314 672.583C371.59 672.632 371.869 672.724 372.13 672.855C372.383 672.984 372.618 673.155 372.821 673.36C373.026 673.566 373.197 673.8 373.328 674.056C373.456 674.314 373.548 674.595 373.599 674.886C373.648 675.195 373.676 675.518 373.68 675.842C373.683 675.925 373.685 675.994 373.686 676.088L373.687 676.168C373.688 676.251 373.689 676.288 373.69 676.335L373.69 683.491C373.689 683.526 373.688 683.564 373.687 683.648C373.685 683.807 373.684 683.877 373.68 683.961C373.677 684.305 373.648 684.629 373.595 684.951C373.546 685.239 373.454 685.521 373.322 685.786C373.191 686.04 373.018 686.278 372.812 686.485C372.607 686.692 372.37 686.864 372.111 686.995C371.849 687.129 371.568 687.222 371.278 687.271C370.958 687.323 370.632 687.353 370.305 687.359C370.238 687.36 370.185 687.361 370.065 687.362C369.94 687.363 369.884 687.364 369.813 687.365L362.22 687.365C362.162 687.364 362.107 687.363 361.984 687.362C361.865 687.361 361.812 687.36 361.748 687.359C361.421 687.354 361.098 687.325 360.779 687.273C360.497 687.224 360.216 687.131 359.952 686.999C359.704 686.871 359.469 686.699 359.265 686.494L359.214 686.441C359.164 686.389 359.143 686.366 359.118 686.344C358.989 686.22 358.93 686.163 358.861 686.093L356.299 683.529C356.275 683.507 356.261 683.494 356.251 683.486C356.205 683.441 356.167 683.403 356.131 683.365C356.057 683.293 356.017 683.253 355.924 683.16L353.918 681.149L353.727 680.958C353.687 680.918 353.655 680.885 353.582 680.807C353.423 680.65 353.289 680.503 353.164 680.349L353.125 680.305C353.093 680.271 353.066 680.233 353.045 680.191C352.995 680.018 352.996 679.835 353.046 679.663C353.065 679.623 353.091 679.586 353.122 679.554L353.166 679.505C353.289 679.351 353.421 679.206 353.562 679.069C353.655 678.971 353.687 678.937 353.727 678.898C353.828 678.797 353.873 678.751 353.929 678.692L355.924 676.696L356.118 676.502C356.156 676.463 356.173 676.446 356.194 676.426L356.236 676.387L356.236 676.387C356.267 676.36 356.285 676.344 356.302 676.327L358.532 674.092L358.861 673.763C358.93 673.693 358.989 673.636 359.118 673.512C359.143 673.489 359.164 673.467 359.213 673.416L359.265 673.362C359.469 673.157 359.704 672.985 359.961 672.851C360.216 672.725 360.497 672.632 360.787 672.581C361.097 672.531 361.419 672.504 361.742 672.5C361.884 672.495 361.986 672.494 362.22 672.494C362.387 672.491 362.514 672.491 362.798 672.491H369.289ZM363.168 683.351C363.116 683.402 363.053 683.444 362.983 683.473C362.765 683.563 362.515 683.513 362.349 683.346C362.123 683.119 362.123 682.752 362.349 682.524C362.382 682.491 362.418 682.463 362.457 682.439L364.966 679.925L362.349 677.309L362.357 677.301C362.305 677.248 362.264 677.186 362.235 677.115C362.145 676.898 362.195 676.647 362.362 676.481C362.589 676.255 362.956 676.255 363.182 676.481C363.215 676.514 363.244 676.55 363.268 676.589L365.785 679.104L368.327 676.558C368.345 676.531 368.367 676.505 368.391 676.481C368.556 676.314 368.806 676.264 369.022 676.354C369.239 676.444 369.381 676.655 369.381 676.89C369.381 677.046 369.318 677.193 369.212 677.299L369.218 677.305L366.605 679.923L369.155 682.471C369.178 682.488 369.2 682.507 369.221 682.528C369.387 682.693 369.437 682.943 369.348 683.16C369.258 683.377 369.047 683.518 368.812 683.518C368.656 683.518 368.51 683.455 368.403 683.349L368.397 683.355L365.785 680.744L363.176 683.359L363.168 683.351Z" fill="black"/>
<g filter="url(#filter5_d_0_1)">
<rect x="6.08008" y="658.189" width="43" height="43" rx="4.6" fill="#FCFCFE"/>
</g>
<path d="M36.6748 681.476H32.3658V685.555C32.3658 685.637 32.3658 685.712 32.3658 685.791C32.3658 685.859 32.3658 685.924 32.3631 685.993C32.3612 686.14 32.3485 686.286 32.3251 686.431C32.2997 686.575 32.2536 686.715 32.1882 686.846C32.1214 686.976 32.0341 687.095 31.9296 687.198C31.8246 687.301 31.7048 687.388 31.5741 687.455C31.4417 687.52 31.3012 687.566 31.1563 687.592C31.0111 687.615 30.8644 687.627 30.7174 687.63C30.6489 687.63 30.5826 687.633 30.5155 687.633H24.9724C24.904 687.633 24.838 687.63 24.7706 687.63C24.6235 687.627 24.4768 687.615 24.3316 687.592C24.1869 687.566 24.0464 687.52 23.9142 687.455C23.7835 687.388 23.6636 687.301 23.5587 687.198C23.4541 687.095 23.3668 686.976 23.3 686.846C23.2347 686.715 23.1886 686.575 23.1632 686.431C23.1396 686.286 23.1268 686.14 23.1248 685.993C23.1248 685.924 23.1221 685.859 23.1221 685.791C23.1221 685.712 23.1221 685.637 23.1221 685.555V681.476H18.745C18.3023 681.476 17.7343 680.521 18.266 679.99C18.718 679.542 25.8216 672.454 27.3082 670.978C27.4175 670.844 27.5718 670.753 27.7424 670.724H27.7541C27.9017 670.732 28.0387 670.804 28.1304 670.92C29.617 672.395 36.7449 679.542 37.1972 679.99C37.7293 680.521 37.2838 681.476 36.6748 681.476Z" fill="black"/>
<g filter="url(#filter6_d_0_1)">
<rect x="295.6" y="658.189" width="33" height="43" rx="4.6" fill="#FCFCFE"/>
</g>
<path d="M319.475 687.189V671.336H317.179L311.752 684.563H311.576L306.149 671.336H303.853V687.189H305.698V675.082H305.83L310.829 687.189H312.499L317.498 675.082H317.63V687.189H319.475Z" fill="black"/>
<g filter="url(#filter7_d_0_1)">
<rect x="256.587" y="658.189" width="33" height="43" rx="4.6" fill="#FCFCFE"/>
</g>
<path d="M268.8 687.189V674.895H268.975L277.578 687.189H279.5V671.336H277.545V683.673H277.369L268.767 671.336H266.844V687.189H268.8Z" fill="black"/>
<g filter="url(#filter8_d_0_1)">
<rect x="217.573" y="658.189" width="33" height="43" rx="4.6" fill="#FCFCFE"/>
</g>
<path d="M234.982 687.189C238.355 687.189 240.355 685.53 240.355 682.74C240.355 680.641 238.981 679.158 236.817 678.883V678.708C238.344 678.433 239.553 676.939 239.553 675.291C239.553 672.863 237.773 671.336 234.862 671.336H228.797V687.189H234.982ZM230.775 673.083H234.444C236.411 673.083 237.553 674.016 237.553 675.631C237.553 677.312 236.334 678.169 233.939 678.169H230.775V673.083ZM230.775 685.442V679.872H234.499C237.026 679.872 238.322 680.806 238.322 682.641C238.322 684.475 237.07 685.442 234.686 685.442H230.775Z" fill="black"/>
<g filter="url(#filter9_d_0_1)">
<rect x="179.587" y="658.189" width="33" height="43" rx="4.6" fill="#FCFCFE"/>
</g>
<path d="M196.65 687.189L202.495 671.336H200.418L195.76 684.629H195.584L190.926 671.336H188.85L194.694 687.189H196.65Z" fill="black"/>
<g filter="url(#filter10_d_0_1)">
<rect x="140.573" y="658.189" width="33" height="43" rx="4.6" fill="#FCFCFE"/>
</g>
<path d="M157.51 687.563C160.883 687.563 163.388 685.684 163.916 682.773H161.905C161.4 684.607 159.719 685.739 157.51 685.739C154.456 685.739 152.545 683.245 152.545 679.268C152.545 675.291 154.456 672.786 157.5 672.786C159.686 672.786 161.378 674.071 161.905 676.115H163.916C163.443 673.061 160.839 670.962 157.5 670.962C153.193 670.962 150.512 674.148 150.512 679.268C150.512 684.377 153.204 687.563 157.51 687.563Z" fill="black"/>
<g filter="url(#filter11_d_0_1)">
<rect x="102.587" y="658.189" width="33" height="43" rx="4.6" fill="#FCFCFE"/>
</g>
<path d="M112.025 687.189H114.267L118.496 680.938H118.672L122.825 687.189H125.198L119.826 679.301L125.319 671.336H123.067L118.826 677.642H118.65L114.475 671.336H112.091L117.453 679.213L112.025 687.189Z" fill="black"/>
<g filter="url(#filter12_d_0_1)">
<rect x="63.5735" y="658.189" width="33" height="43" rx="4.6" fill="#FCFCFE"/>
</g>
<path d="M74.3027 687.189H86.0251V685.409H76.9065V685.234L85.8384 672.742V671.336H74.6104V673.116H83.2786V673.291L74.3027 685.783V687.189Z" fill="black"/>
<g filter="url(#filter13_d_0_1)">
<rect x="333.587" y="602.704" width="33" height="43" rx="4.6" fill="#FCFCFE"/>
</g>
<path d="M355.445 629.925H347.798V615.851H345.821V631.704H355.445V629.925Z" fill="black"/>
<g filter="url(#filter14_d_0_1)">
<rect x="294.573" y="602.704" width="33" height="43" rx="4.6" fill="#FCFCFE"/>
</g>
<path d="M307.753 631.704V626.167L309.653 624.069L315.377 631.704H317.937L311.016 622.696L317.355 615.851H314.872L307.928 623.553H307.753V615.851H305.775V631.704H307.753Z" fill="black"/>
<g filter="url(#filter15_d_0_1)">
<rect x="256.587" y="602.704" width="33" height="43" rx="4.6" fill="#FCFCFE"/>
</g>
<path d="M268.085 628.002C268.085 630.43 269.952 632.078 272.611 632.078C275.479 632.078 277.225 630.309 277.225 627.288V615.851H275.248V627.277C275.248 629.222 274.292 630.254 272.6 630.254C271.106 630.254 270.095 629.331 270.051 628.002H268.085Z" fill="black"/>
<g filter="url(#filter16_d_0_1)">
<rect x="217.573" y="602.704" width="33" height="43" rx="4.6" fill="#FCFCFE"/>
</g>
<path d="M240.487 631.704V615.851H238.51V622.707H229.808V615.851H227.831V631.704H229.808V624.486H238.51V631.704H240.487Z" fill="black"/>
<g filter="url(#filter17_d_0_1)">
<rect x="179.587" y="602.704" width="33" height="43" rx="4.6" fill="#FCFCFE"/>
</g>
<path d="M203.094 625.574V623.641H196.667V625.376H201.127V625.761C201.127 628.442 199.204 630.254 196.37 630.254C193.184 630.254 191.206 627.771 191.206 623.772C191.206 619.828 193.217 617.301 196.359 617.301C198.71 617.301 200.303 618.433 200.984 620.575H202.995C202.423 617.433 199.875 615.478 196.359 615.478C192.019 615.478 189.174 618.763 189.174 623.772C189.174 628.848 191.975 632.078 196.359 632.078C200.413 632.078 203.094 629.485 203.094 625.574Z" fill="black"/>
<g filter="url(#filter18_d_0_1)">
<rect x="140.573" y="602.704" width="33" height="43" rx="4.6" fill="#FCFCFE"/>
</g>
<path d="M154.741 631.704V624.838H161.761V623.08H154.741V617.631H162.388V615.851H152.764V631.704H154.741Z" fill="black"/>
<g filter="url(#filter19_d_0_1)">
<rect x="102.587" y="602.704" width="33" height="43" rx="4.6" fill="#FCFCFE"/>
</g>
<path d="M113.02 615.851V631.704H118.458C123.171 631.704 125.94 628.771 125.94 623.772C125.94 618.785 123.16 615.851 118.458 615.851H113.02ZM114.997 617.631H118.326C121.842 617.631 123.918 619.916 123.918 623.794C123.918 627.661 121.864 629.925 118.326 629.925H114.997V617.631Z" fill="black"/>
<g filter="url(#filter20_d_0_1)">
<rect x="63.5735" y="602.704" width="33" height="43" rx="4.6" fill="#FCFCFE"/>
</g>
<path d="M74.2588 627.563C74.4675 630.298 76.7856 632.078 80.1475 632.078C83.7729 632.078 86.0691 630.221 86.0691 627.31C86.0691 624.981 84.7507 623.706 81.4658 622.882L79.8069 622.443C77.6206 621.883 76.7527 621.169 76.7527 619.927C76.7527 618.323 78.1479 617.268 80.2573 617.268C82.2349 617.268 83.5752 618.235 83.8499 619.861H85.8384C85.6736 617.301 83.3884 615.478 80.3232 615.478C76.9724 615.478 74.7202 617.301 74.7202 619.993C74.7202 622.245 75.9617 623.542 78.8291 624.267L80.8616 624.794C83.0479 625.343 84.0366 626.2 84.0366 627.552C84.0366 629.123 82.4656 630.276 80.3342 630.276C78.082 630.276 76.5 629.222 76.2583 627.563H74.2588Z" fill="black"/>
<g filter="url(#filter21_d_0_1)">
<rect x="25.5867" y="602.704" width="33" height="43" rx="4.6" fill="#FCFCFE"/>
</g>
<path d="M46.4182 631.704H48.4946L42.6499 615.851H40.6943L34.8496 631.704H36.926L38.519 627.167H44.8252L46.4182 631.704ZM41.5842 618.411H41.76L44.2429 625.486H39.1013L41.5842 618.411Z" fill="black"/>
<g filter="url(#filter22_d_0_1)">
<rect x="352.067" y="547.22" width="33" height="43" rx="4.6" fill="#FCFCFE"/>
</g>
<path d="M363.532 560.367V576.22H365.51V570.562H369.498C372.475 570.562 374.595 568.464 374.595 565.497C374.595 562.476 372.519 560.367 369.52 560.367H363.532ZM365.51 562.125H369.003C371.3 562.125 372.563 563.322 372.563 565.497C372.563 567.596 371.256 568.804 369.003 568.804H365.51V562.125Z" fill="black"/>
<g filter="url(#filter23_d_0_1)">
<rect x="314.08" y="547.22" width="33" height="43" rx="4.6" fill="#FCFCFE"/>
</g>
<path d="M330.155 559.993C325.672 559.993 322.882 563.19 322.882 568.288C322.882 573.364 325.606 576.594 330.155 576.594C334.681 576.594 337.428 573.353 337.428 568.288C337.428 563.201 334.659 559.993 330.155 559.993ZM330.155 561.817C333.396 561.817 335.395 564.322 335.395 568.288C335.395 572.221 333.407 574.77 330.155 574.77C326.859 574.77 324.914 572.221 324.914 568.288C324.914 564.322 326.925 561.817 330.155 561.817Z" fill="black"/>
<g filter="url(#filter24_d_0_1)">
<rect x="275.067" y="547.22" width="33" height="43" rx="4.6" fill="#FCFCFE"/>
</g>
<path d="M292.694 576.22V560.367H290.717V576.22H292.694Z" fill="black"/>
<g filter="url(#filter25_d_0_1)">
<rect x="237.08" y="547.22" width="33" height="43" rx="4.6" fill="#FCFCFE"/>
</g>
<path d="M249.348 560.367H247.37V570.771C247.37 574.155 249.732 576.594 253.666 576.594C257.599 576.594 259.961 574.155 259.961 570.771V560.367H257.983V570.639C257.983 573.034 256.412 574.77 253.666 574.77C250.919 574.77 249.348 573.034 249.348 570.639V560.367Z" fill="black"/>
<g filter="url(#filter26_d_0_1)">
<rect x="198.067" y="547.22" width="33" height="43" rx="4.6" fill="#FCFCFE"/>
</g>
<path d="M215.651 576.22V569.397L221.276 560.367H219.024L214.75 567.409H214.575L210.301 560.367H208.049L213.674 569.397V576.22H215.651Z" fill="black"/>
<g filter="url(#filter27_d_0_1)">
<rect x="160.08" y="547.22" width="33" height="43" rx="4.6" fill="#FCFCFE"/>
</g>
<path d="M177.665 576.22V562.146H182.773V560.367H170.579V562.146H175.687V576.22H177.665Z" fill="black"/>
<g filter="url(#filter28_d_0_1)">
<rect x="121.067" y="547.22" width="33" height="43" rx="4.6" fill="#FCFCFE"/>
</g>
<path d="M134.312 569.947H138.212L141.607 576.22H143.925L140.255 569.639C142.244 569.013 143.441 567.299 143.441 565.091C143.441 562.234 141.442 560.367 138.388 560.367H132.334V576.22H134.312V569.947ZM134.312 562.125H138.124C140.167 562.125 141.398 563.256 141.398 565.157C141.398 567.101 140.244 568.189 138.212 568.189H134.312V562.125Z" fill="black"/>
<g filter="url(#filter29_d_0_1)">
<rect x="83.0801" y="547.22" width="33" height="43" rx="4.6" fill="#FCFCFE"/>
</g>
<path d="M104.318 574.44H96.4734V568.991H103.911V567.233H96.4734V562.146H104.318V560.367H94.4958V576.22H104.318V574.44Z" fill="black"/>
<g filter="url(#filter30_d_0_1)">
<rect x="44.0667" y="547.22" width="33" height="43" rx="4.6" fill="#FCFCFE"/>
</g>
<path d="M60.054 563.707H60.1858L63.8333 576.22H65.7009L70.0186 560.367H67.9531L64.8 573.254H64.6682L61.1196 560.367H59.1201L55.5715 573.254H55.4397L52.2866 560.367H50.2212L54.5388 576.22H56.4065L60.054 563.707Z" fill="black"/>
<g filter="url(#filter31_d_0_1)">
<rect x="6.08008" y="547.22" width="33" height="43" rx="4.6" fill="#FCFCFE"/>
</g>
<path d="M22.1658 576.594C23.1875 576.594 24.1543 576.429 25.0002 576.11L26.3955 578.011H28.6147L26.6042 575.22C28.406 573.924 29.4167 571.452 29.4167 568.299C29.4167 563.19 26.6262 559.993 22.1658 559.993C17.6833 559.993 14.8818 563.179 14.8818 568.299C14.8818 573.44 17.6504 576.594 22.1658 576.594ZM22.1768 574.77C18.9248 574.77 16.9143 572.298 16.9143 568.299C16.9143 564.311 18.9358 561.817 22.1658 561.817C25.3738 561.817 27.3843 564.322 27.3843 568.299C27.3843 570.716 26.6921 572.605 25.4507 573.594L24.0115 571.683H21.7703L23.8687 574.528C23.3193 574.693 22.759 574.77 22.1768 574.77Z" fill="black"/>
</g>
<defs>
<filter id="filter0_b_0_1" x="-105.731" y="430.269" width="602.463" height="516.463" filterUnits="userSpaceOnUse" color-interpolation-filters="sRGB">
<feFlood flood-opacity="0" result="BackgroundImageFix"/>
<feGaussianBlur in="BackgroundImageFix" stdDeviation="54.3656"/>
<feComposite in2="SourceAlpha" operator="in" result="effect1_backgroundBlur_0_1"/>
<feBlend mode="normal" in="SourceGraphic" in2="effect1_backgroundBlur_0_1" result="shape"/>
</filter>
<filter id="filter1_d_0_1" x="294.573" y="713.674" width="90" height="44" filterUnits="userSpaceOnUse" color-interpolation-filters="sRGB">
<feFlood flood-opacity="0" result="BackgroundImageFix"/>
<feColorMatrix in="SourceAlpha" type="matrix" values="0 0 0 0 0 0 0 0 0 0 0 0 0 0 0 0 0 0 127 0" result="hardAlpha"/>
<feOffset dy="1"/>
<feColorMatrix type="matrix" values="0 0 0 0 0.537255 0 0 0 0 0.541176 0 0 0 0 0.552941 0 0 0 1 0"/>
<feBlend mode="normal" in2="BackgroundImageFix" result="effect1_dropShadow_0_1"/>
<feBlend mode="normal" in="SourceGraphic" in2="effect1_dropShadow_0_1" result="shape"/>
</filter>
<filter id="filter2_d_0_1" x="101.56" y="713.674" width="187" height="44" filterUnits="userSpaceOnUse" color-interpolation-filters="sRGB">
<feFlood flood-opacity="0" result="BackgroundImageFix"/>
<feColorMatrix in="SourceAlpha" type="matrix" values="0 0 0 0 0 0 0 0 0 0 0 0 0 0 0 0 0 0 127 0" result="hardAlpha"/>
<feOffset dy="1"/>
<feColorMatrix type="matrix" values="0 0 0 0 0.537255 0 0 0 0 0.541176 0 0 0 0 0.552941 0 0 0 1 0"/>
<feBlend mode="normal" in2="BackgroundImageFix" result="effect1_dropShadow_0_1"/>
<feBlend mode="normal" in="SourceGraphic" in2="effect1_dropShadow_0_1" result="shape"/>
</filter>
<filter id="filter3_d_0_1" x="6.08008" y="713.674" width="89" height="44" filterUnits="userSpaceOnUse" color-interpolation-filters="sRGB">
<feFlood flood-opacity="0" result="BackgroundImageFix"/>
<feColorMatrix in="SourceAlpha" type="matrix" values="0 0 0 0 0 0 0 0 0 0 0 0 0 0 0 0 0 0 127 0" result="hardAlpha"/>
<feOffset dy="1"/>
<feColorMatrix type="matrix" values="0 0 0 0 0.537255 0 0 0 0 0.541176 0 0 0 0 0.552941 0 0 0 1 0"/>
<feBlend mode="normal" in2="BackgroundImageFix" result="effect1_dropShadow_0_1"/>
<feBlend mode="normal" in="SourceGraphic" in2="effect1_dropShadow_0_1" result="shape"/>
</filter>
<filter id="filter4_d_0_1" x="341.8" y="658.189" width="43" height="44" filterUnits="userSpaceOnUse" color-interpolation-filters="sRGB">
<feFlood flood-opacity="0" result="BackgroundImageFix"/>
<feColorMatrix in="SourceAlpha" type="matrix" values="0 0 0 0 0 0 0 0 0 0 0 0 0 0 0 0 0 0 127 0" result="hardAlpha"/>
<feOffset dy="1"/>
<feColorMatrix type="matrix" values="0 0 0 0 0.537255 0 0 0 0 0.541176 0 0 0 0 0.552941 0 0 0 1 0"/>
<feBlend mode="normal" in2="BackgroundImageFix" result="effect1_dropShadow_0_1"/>
<feBlend mode="normal" in="SourceGraphic" in2="effect1_dropShadow_0_1" result="shape"/>
</filter>
<filter id="filter5_d_0_1" x="6.08008" y="658.189" width="43" height="44" filterUnits="userSpaceOnUse" color-interpolation-filters="sRGB">
<feFlood flood-opacity="0" result="BackgroundImageFix"/>
<feColorMatrix in="SourceAlpha" type="matrix" values="0 0 0 0 0 0 0 0 0 0 0 0 0 0 0 0 0 0 127 0" result="hardAlpha"/>
<feOffset dy="1"/>
<feColorMatrix type="matrix" values="0 0 0 0 0.537255 0 0 0 0 0.541176 0 0 0 0 0.552941 0 0 0 1 0"/>
<feBlend mode="normal" in2="BackgroundImageFix" result="effect1_dropShadow_0_1"/>
<feBlend mode="normal" in="SourceGraphic" in2="effect1_dropShadow_0_1" result="shape"/>
</filter>
<filter id="filter6_d_0_1" x="295.6" y="658.189" width="33" height="44" filterUnits="userSpaceOnUse" color-interpolation-filters="sRGB">
<feFlood flood-opacity="0" result="BackgroundImageFix"/>
<feColorMatrix in="SourceAlpha" type="matrix" values="0 0 0 0 0 0 0 0 0 0 0 0 0 0 0 0 0 0 127 0" result="hardAlpha"/>
<feOffset dy="1"/>
<feColorMatrix type="matrix" values="0 0 0 0 0.537255 0 0 0 0 0.541176 0 0 0 0 0.552941 0 0 0 1 0"/>
<feBlend mode="normal" in2="BackgroundImageFix" result="effect1_dropShadow_0_1"/>
<feBlend mode="normal" in="SourceGraphic" in2="effect1_dropShadow_0_1" result="shape"/>
</filter>
<filter id="filter7_d_0_1" x="256.587" y="658.189" width="33" height="44" filterUnits="userSpaceOnUse" color-interpolation-filters="sRGB">
<feFlood flood-opacity="0" result="BackgroundImageFix"/>
<feColorMatrix in="SourceAlpha" type="matrix" values="0 0 0 0 0 0 0 0 0 0 0 0 0 0 0 0 0 0 127 0" result="hardAlpha"/>
<feOffset dy="1"/>
<feColorMatrix type="matrix" values="0 0 0 0 0.537255 0 0 0 0 0.541176 0 0 0 0 0.552941 0 0 0 1 0"/>
<feBlend mode="normal" in2="BackgroundImageFix" result="effect1_dropShadow_0_1"/>
<feBlend mode="normal" in="SourceGraphic" in2="effect1_dropShadow_0_1" result="shape"/>
</filter>
<filter id="filter8_d_0_1" x="217.573" y="658.189" width="33" height="44" filterUnits="userSpaceOnUse" color-interpolation-filters="sRGB">
<feFlood flood-opacity="0" result="BackgroundImageFix"/>
<feColorMatrix in="SourceAlpha" type="matrix" values="0 0 0 0 0 0 0 0 0 0 0 0 0 0 0 0 0 0 127 0" result="hardAlpha"/>
<feOffset dy="1"/>
<feColorMatrix type="matrix" values="0 0 0 0 0.537255 0 0 0 0 0.541176 0 0 0 0 0.552941 0 0 0 1 0"/>
<feBlend mode="normal" in2="BackgroundImageFix" result="effect1_dropShadow_0_1"/>
<feBlend mode="normal" in="SourceGraphic" in2="effect1_dropShadow_0_1" result="shape"/>
</filter>
<filter id="filter9_d_0_1" x="179.587" y="658.189" width="33" height="44" filterUnits="userSpaceOnUse" color-interpolation-filters="sRGB">
<feFlood flood-opacity="0" result="BackgroundImageFix"/>
<feColorMatrix in="SourceAlpha" type="matrix" values="0 0 0 0 0 0 0 0 0 0 0 0 0 0 0 0 0 0 127 0" result="hardAlpha"/>
<feOffset dy="1"/>
<feColorMatrix type="matrix" values="0 0 0 0 0.537255 0 0 0 0 0.541176 0 0 0 0 0.552941 0 0 0 1 0"/>
<feBlend mode="normal" in2="BackgroundImageFix" result="effect1_dropShadow_0_1"/>
<feBlend mode="normal" in="SourceGraphic" in2="effect1_dropShadow_0_1" result="shape"/>
</filter>
<filter id="filter10_d_0_1" x="140.573" y="658.189" width="33" height="44" filterUnits="userSpaceOnUse" color-interpolation-filters="sRGB">
<feFlood flood-opacity="0" result="BackgroundImageFix"/>
<feColorMatrix in="SourceAlpha" type="matrix" values="0 0 0 0 0 0 0 0 0 0 0 0 0 0 0 0 0 0 127 0" result="hardAlpha"/>
<feOffset dy="1"/>
<feColorMatrix type="matrix" values="0 0 0 0 0.537255 0 0 0 0 0.541176 0 0 0 0 0.552941 0 0 0 1 0"/>
<feBlend mode="normal" in2="BackgroundImageFix" result="effect1_dropShadow_0_1"/>
<feBlend mode="normal" in="SourceGraphic" in2="effect1_dropShadow_0_1" result="shape"/>
</filter>
<filter id="filter11_d_0_1" x="102.587" y="658.189" width="33" height="44" filterUnits="userSpaceOnUse" color-interpolation-filters="sRGB">
<feFlood flood-opacity="0" result="BackgroundImageFix"/>
<feColorMatrix in="SourceAlpha" type="matrix" values="0 0 0 0 0 0 0 0 0 0 0 0 0 0 0 0 0 0 127 0" result="hardAlpha"/>
<feOffset dy="1"/>
<feColorMatrix type="matrix" values="0 0 0 0 0.537255 0 0 0 0 0.541176 0 0 0 0 0.552941 0 0 0 1 0"/>
<feBlend mode="normal" in2="BackgroundImageFix" result="effect1_dropShadow_0_1"/>
<feBlend mode="normal" in="SourceGraphic" in2="effect1_dropShadow_0_1" result="shape"/>
</filter>
<filter id="filter12_d_0_1" x="63.5735" y="658.189" width="33" height="44" filterUnits="userSpaceOnUse" color-interpolation-filters="sRGB">
<feFlood flood-opacity="0" result="BackgroundImageFix"/>
<feColorMatrix in="SourceAlpha" type="matrix" values="0 0 0 0 0 0 0 0 0 0 0 0 0 0 0 0 0 0 127 0" result="hardAlpha"/>
<feOffset dy="1"/>
<feColorMatrix type="matrix" values="0 0 0 0 0.537255 0 0 0 0 0.541176 0 0 0 0 0.552941 0 0 0 1 0"/>
<feBlend mode="normal" in2="BackgroundImageFix" result="effect1_dropShadow_0_1"/>
<feBlend mode="normal" in="SourceGraphic" in2="effect1_dropShadow_0_1" result="shape"/>
</filter>
<filter id="filter13_d_0_1" x="333.587" y="602.704" width="33" height="44" filterUnits="userSpaceOnUse" color-interpolation-filters="sRGB">
<feFlood flood-opacity="0" result="BackgroundImageFix"/>
<feColorMatrix in="SourceAlpha" type="matrix" values="0 0 0 0 0 0 0 0 0 0 0 0 0 0 0 0 0 0 127 0" result="hardAlpha"/>
<feOffset dy="1"/>
<feColorMatrix type="matrix" values="0 0 0 0 0.537255 0 0 0 0 0.541176 0 0 0 0 0.552941 0 0 0 1 0"/>
<feBlend mode="normal" in2="BackgroundImageFix" result="effect1_dropShadow_0_1"/>
<feBlend mode="normal" in="SourceGraphic" in2="effect1_dropShadow_0_1" result="shape"/>
</filter>
<filter id="filter14_d_0_1" x="294.573" y="602.704" width="33" height="44" filterUnits="userSpaceOnUse" color-interpolation-filters="sRGB">
<feFlood flood-opacity="0" result="BackgroundImageFix"/>
<feColorMatrix in="SourceAlpha" type="matrix" values="0 0 0 0 0 0 0 0 0 0 0 0 0 0 0 0 0 0 127 0" result="hardAlpha"/>
<feOffset dy="1"/>
<feColorMatrix type="matrix" values="0 0 0 0 0.537255 0 0 0 0 0.541176 0 0 0 0 0.552941 0 0 0 1 0"/>
<feBlend mode="normal" in2="BackgroundImageFix" result="effect1_dropShadow_0_1"/>
<feBlend mode="normal" in="SourceGraphic" in2="effect1_dropShadow_0_1" result="shape"/>
</filter>
<filter id="filter15_d_0_1" x="256.587" y="602.704" width="33" height="44" filterUnits="userSpaceOnUse" color-interpolation-filters="sRGB">
<feFlood flood-opacity="0" result="BackgroundImageFix"/>
<feColorMatrix in="SourceAlpha" type="matrix" values="0 0 0 0 0 0 0 0 0 0 0 0 0 0 0 0 0 0 127 0" result="hardAlpha"/>
<feOffset dy="1"/>
<feColorMatrix type="matrix" values="0 0 0 0 0.537255 0 0 0 0 0.541176 0 0 0 0 0.552941 0 0 0 1 0"/>
<feBlend mode="normal" in2="BackgroundImageFix" result="effect1_dropShadow_0_1"/>
<feBlend mode="normal" in="SourceGraphic" in2="effect1_dropShadow_0_1" result="shape"/>
</filter>
<filter id="filter16_d_0_1" x="217.573" y="602.704" width="33" height="44" filterUnits="userSpaceOnUse" color-interpolation-filters="sRGB">
<feFlood flood-opacity="0" result="BackgroundImageFix"/>
<feColorMatrix in="SourceAlpha" type="matrix" values="0 0 0 0 0 0 0 0 0 0 0 0 0 0 0 0 0 0 127 0" result="hardAlpha"/>
<feOffset dy="1"/>
<feColorMatrix type="matrix" values="0 0 0 0 0.537255 0 0 0 0 0.541176 0 0 0 0 0.552941 0 0 0 1 0"/>
<feBlend mode="normal" in2="BackgroundImageFix" result="effect1_dropShadow_0_1"/>
<feBlend mode="normal" in="SourceGraphic" in2="effect1_dropShadow_0_1" result="shape"/>
</filter>
<filter id="filter17_d_0_1" x="179.587" y="602.704" width="33" height="44" filterUnits="userSpaceOnUse" color-interpolation-filters="sRGB">
<feFlood flood-opacity="0" result="BackgroundImageFix"/>
<feColorMatrix in="SourceAlpha" type="matrix" values="0 0 0 0 0 0 0 0 0 0 0 0 0 0 0 0 0 0 127 0" result="hardAlpha"/>
<feOffset dy="1"/>
<feColorMatrix type="matrix" values="0 0 0 0 0.537255 0 0 0 0 0.541176 0 0 0 0 0.552941 0 0 0 1 0"/>
<feBlend mode="normal" in2="BackgroundImageFix" result="effect1_dropShadow_0_1"/>
<feBlend mode="normal" in="SourceGraphic" in2="effect1_dropShadow_0_1" result="shape"/>
</filter>
<filter id="filter18_d_0_1" x="140.573" y="602.704" width="33" height="44" filterUnits="userSpaceOnUse" color-interpolation-filters="sRGB">
<feFlood flood-opacity="0" result="BackgroundImageFix"/>
<feColorMatrix in="SourceAlpha" type="matrix" values="0 0 0 0 0 0 0 0 0 0 0 0 0 0 0 0 0 0 127 0" result="hardAlpha"/>
<feOffset dy="1"/>
<feColorMatrix type="matrix" values="0 0 0 0 0.537255 0 0 0 0 0.541176 0 0 0 0 0.552941 0 0 0 1 0"/>
<feBlend mode="normal" in2="BackgroundImageFix" result="effect1_dropShadow_0_1"/>
<feBlend mode="normal" in="SourceGraphic" in2="effect1_dropShadow_0_1" result="shape"/>
</filter>
<filter id="filter19_d_0_1" x="102.587" y="602.704" width="33" height="44" filterUnits="userSpaceOnUse" color-interpolation-filters="sRGB">
<feFlood flood-opacity="0" result="BackgroundImageFix"/>
<feColorMatrix in="SourceAlpha" type="matrix" values="0 0 0 0 0 0 0 0 0 0 0 0 0 0 0 0 0 0 127 0" result="hardAlpha"/>
<feOffset dy="1"/>
<feColorMatrix type="matrix" values="0 0 0 0 0.537255 0 0 0 0 0.541176 0 0 0 0 0.552941 0 0 0 1 0"/>
<feBlend mode="normal" in2="BackgroundImageFix" result="effect1_dropShadow_0_1"/>
<feBlend mode="normal" in="SourceGraphic" in2="effect1_dropShadow_0_1" result="shape"/>
</filter>
<filter id="filter20_d_0_1" x="63.5735" y="602.704" width="33" height="44" filterUnits="userSpaceOnUse" color-interpolation-filters="sRGB">
<feFlood flood-opacity="0" result="BackgroundImageFix"/>
<feColorMatrix in="SourceAlpha" type="matrix" values="0 0 0 0 0 0 0 0 0 0 0 0 0 0 0 0 0 0 127 0" result="hardAlpha"/>
<feOffset dy="1"/>
<feColorMatrix type="matrix" values="0 0 0 0 0.537255 0 0 0 0 0.541176 0 0 0 0 0.552941 0 0 0 1 0"/>
<feBlend mode="normal" in2="BackgroundImageFix" result="effect1_dropShadow_0_1"/>
<feBlend mode="normal" in="SourceGraphic" in2="effect1_dropShadow_0_1" result="shape"/>
</filter>
<filter id="filter21_d_0_1" x="25.5867" y="602.704" width="33" height="44" filterUnits="userSpaceOnUse" color-interpolation-filters="sRGB">
<feFlood flood-opacity="0" result="BackgroundImageFix"/>
<feColorMatrix in="SourceAlpha" type="matrix" values="0 0 0 0 0 0 0 0 0 0 0 0 0 0 0 0 0 0 127 0" result="hardAlpha"/>
<feOffset dy="1"/>
<feColorMatrix type="matrix" values="0 0 0 0 0.537255 0 0 0 0 0.541176 0 0 0 0 0.552941 0 0 0 1 0"/>
<feBlend mode="normal" in2="BackgroundImageFix" result="effect1_dropShadow_0_1"/>
<feBlend mode="normal" in="SourceGraphic" in2="effect1_dropShadow_0_1" result="shape"/>
</filter>
<filter id="filter22_d_0_1" x="352.067" y="547.22" width="33" height="44" filterUnits="userSpaceOnUse" color-interpolation-filters="sRGB">
<feFlood flood-opacity="0" result="BackgroundImageFix"/>
<feColorMatrix in="SourceAlpha" type="matrix" values="0 0 0 0 0 0 0 0 0 0 0 0 0 0 0 0 0 0 127 0" result="hardAlpha"/>
<feOffset dy="1"/>
<feColorMatrix type="matrix" values="0 0 0 0 0.537255 0 0 0 0 0.541176 0 0 0 0 0.552941 0 0 0 1 0"/>
<feBlend mode="normal" in2="BackgroundImageFix" result="effect1_dropShadow_0_1"/>
<feBlend mode="normal" in="SourceGraphic" in2="effect1_dropShadow_0_1" result="shape"/>
</filter>
<filter id="filter23_d_0_1" x="314.08" y="547.22" width="33" height="44" filterUnits="userSpaceOnUse" color-interpolation-filters="sRGB">
<feFlood flood-opacity="0" result="BackgroundImageFix"/>
<feColorMatrix in="SourceAlpha" type="matrix" values="0 0 0 0 0 0 0 0 0 0 0 0 0 0 0 0 0 0 127 0" result="hardAlpha"/>
<feOffset dy="1"/>
<feColorMatrix type="matrix" values="0 0 0 0 0.537255 0 0 0 0 0.541176 0 0 0 0 0.552941 0 0 0 1 0"/>
<feBlend mode="normal" in2="BackgroundImageFix" result="effect1_dropShadow_0_1"/>
<feBlend mode="normal" in="SourceGraphic" in2="effect1_dropShadow_0_1" result="shape"/>
</filter>
<filter id="filter24_d_0_1" x="275.067" y="547.22" width="33" height="44" filterUnits="userSpaceOnUse" color-interpolation-filters="sRGB">
<feFlood flood-opacity="0" result="BackgroundImageFix"/>
<feColorMatrix in="SourceAlpha" type="matrix" values="0 0 0 0 0 0 0 0 0 0 0 0 0 0 0 0 0 0 127 0" result="hardAlpha"/>
<feOffset dy="1"/>
<feColorMatrix type="matrix" values="0 0 0 0 0.537255 0 0 0 0 0.541176 0 0 0 0 0.552941 0 0 0 1 0"/>
<feBlend mode="normal" in2="BackgroundImageFix" result="effect1_dropShadow_0_1"/>
<feBlend mode="normal" in="SourceGraphic" in2="effect1_dropShadow_0_1" result="shape"/>
</filter>
<filter id="filter25_d_0_1" x="237.08" y="547.22" width="33" height="44" filterUnits="userSpaceOnUse" color-interpolation-filters="sRGB">
<feFlood flood-opacity="0" result="BackgroundImageFix"/>
<feColorMatrix in="SourceAlpha" type="matrix" values="0 0 0 0 0 0 0 0 0 0 0 0 0 0 0 0 0 0 127 0" result="hardAlpha"/>
<feOffset dy="1"/>
<feColorMatrix type="matrix" values="0 0 0 0 0.537255 0 0 0 0 0.541176 0 0 0 0 0.552941 0 0 0 1 0"/>
<feBlend mode="normal" in2="BackgroundImageFix" result="effect1_dropShadow_0_1"/>
<feBlend mode="normal" in="SourceGraphic" in2="effect1_dropShadow_0_1" result="shape"/>
</filter>
<filter id="filter26_d_0_1" x="198.067" y="547.22" width="33" height="44" filterUnits="userSpaceOnUse" color-interpolation-filters="sRGB">
<feFlood flood-opacity="0" result="BackgroundImageFix"/>
<feColorMatrix in="SourceAlpha" type="matrix" values="0 0 0 0 0 0 0 0 0 0 0 0 0 0 0 0 0 0 127 0" result="hardAlpha"/>
<feOffset dy="1"/>
<feColorMatrix type="matrix" values="0 0 0 0 0.537255 0 0 0 0 0.541176 0 0 0 0 0.552941 0 0 0 1 0"/>
<feBlend mode="normal" in2="BackgroundImageFix" result="effect1_dropShadow_0_1"/>
<feBlend mode="normal" in="SourceGraphic" in2="effect1_dropShadow_0_1" result="shape"/>
</filter>
<filter id="filter27_d_0_1" x="160.08" y="547.22" width="33" height="44" filterUnits="userSpaceOnUse" color-interpolation-filters="sRGB">
<feFlood flood-opacity="0" result="BackgroundImageFix"/>
<feColorMatrix in="SourceAlpha" type="matrix" values="0 0 0 0 0 0 0 0 0 0 0 0 0 0 0 0 0 0 127 0" result="hardAlpha"/>
<feOffset dy="1"/>
<feColorMatrix type="matrix" values="0 0 0 0 0.537255 0 0 0 0 0.541176 0 0 0 0 0.552941 0 0 0 1 0"/>
<feBlend mode="normal" in2="BackgroundImageFix" result="effect1_dropShadow_0_1"/>
<feBlend mode="normal" in="SourceGraphic" in2="effect1_dropShadow_0_1" result="shape"/>
</filter>
<filter id="filter28_d_0_1" x="121.067" y="547.22" width="33" height="44" filterUnits="userSpaceOnUse" color-interpolation-filters="sRGB">
<feFlood flood-opacity="0" result="BackgroundImageFix"/>
<feColorMatrix in="SourceAlpha" type="matrix" values="0 0 0 0 0 0 0 0 0 0 0 0 0 0 0 0 0 0 127 0" result="hardAlpha"/>
<feOffset dy="1"/>
<feColorMatrix type="matrix" values="0 0 0 0 0.537255 0 0 0 0 0.541176 0 0 0 0 0.552941 0 0 0 1 0"/>
<feBlend mode="normal" in2="BackgroundImageFix" result="effect1_dropShadow_0_1"/>
<feBlend mode="normal" in="SourceGraphic" in2="effect1_dropShadow_0_1" result="shape"/>
</filter>
<filter id="filter29_d_0_1" x="83.0801" y="547.22" width="33" height="44" filterUnits="userSpaceOnUse" color-interpolation-filters="sRGB">
<feFlood flood-opacity="0" result="BackgroundImageFix"/>
<feColorMatrix in="SourceAlpha" type="matrix" values="0 0 0 0 0 0 0 0 0 0 0 0 0 0 0 0 0 0 127 0" result="hardAlpha"/>
<feOffset dy="1"/>
<feColorMatrix type="matrix" values="0 0 0 0 0.537255 0 0 0 0 0.541176 0 0 0 0 0.552941 0 0 0 1 0"/>
<feBlend mode="normal" in2="BackgroundImageFix" result="effect1_dropShadow_0_1"/>
<feBlend mode="normal" in="SourceGraphic" in2="effect1_dropShadow_0_1" result="shape"/>
</filter>
<filter id="filter30_d_0_1" x="44.0667" y="547.22" width="33" height="44" filterUnits="userSpaceOnUse" color-interpolation-filters="sRGB">
<feFlood flood-opacity="0" result="BackgroundImageFix"/>
<feColorMatrix in="SourceAlpha" type="matrix" values="0 0 0 0 0 0 0 0 0 0 0 0 0 0 0 0 0 0 127 0" result="hardAlpha"/>
<feOffset dy="1"/>
<feColorMatrix type="matrix" values="0 0 0 0 0.537255 0 0 0 0 0.541176 0 0 0 0 0.552941 0 0 0 1 0"/>
<feBlend mode="normal" in2="BackgroundImageFix" result="effect1_dropShadow_0_1"/>
<feBlend mode="normal" in="SourceGraphic" in2="effect1_dropShadow_0_1" result="shape"/>
</filter>
<filter id="filter31_d_0_1" x="6.08008" y="547.22" width="33" height="44" filterUnits="userSpaceOnUse" color-interpolation-filters="sRGB">
<feFlood flood-opacity="0" result="BackgroundImageFix"/>
<feColorMatrix in="SourceAlpha" type="matrix" values="0 0 0 0 0 0 0 0 0 0 0 0 0 0 0 0 0 0 127 0" result="hardAlpha"/>
<feOffset dy="1"/>
<feColorMatrix type="matrix" values="0 0 0 0 0.537255 0 0 0 0 0.541176 0 0 0 0 0.552941 0 0 0 1 0"/>
<feBlend mode="normal" in2="BackgroundImageFix" result="effect1_dropShadow_0_1"/>
<feBlend mode="normal" in="SourceGraphic" in2="effect1_dropShadow_0_1" result="shape"/>
</filter>
<clipPath id="clip0_0_1">
<rect width="382" height="836" fill="white" transform="translate(3 1)"/>
</clipPath>
<clipPath id="clip1_0_1">
<rect width="382" height="44" fill="white" transform="translate(3 1)"/>
</clipPath>
</defs>
</svg>
