<svg width="390" height="844" viewBox="0 0 390 844" fill="none" xmlns="http://www.w3.org/2000/svg">
<g clip-path="url(#clip0_5_1484)">
<rect width="390" height="844" fill="white"/>
<path d="M0 -2H390V168H0V-2Z" fill="#FFB84E"/>
<g clip-path="url(#clip1_5_1484)">
<path d="M85 -2H304C301.894 -1.39731 300.418 0.495246 300.345 2.68446L300.317 3.5618C300.317 17.0587 289.375 28 275.878 28H113.122C99.6249 28 88.6835 17.0587 88.6835 3.5618L88.6545 2.68447C88.5823 0.49525 87.1059 -1.39731 85 -2Z" fill="black"/>
<path opacity="0.35" d="M351.5 20C351.5 18.8034 352.47 17.8334 353.667 17.8334H370.333C371.53 17.8334 372.5 18.8034 372.5 20V26C372.5 27.1967 371.53 28.1667 370.333 28.1667H353.667C352.47 28.1667 351.5 27.1967 351.5 26V20Z" stroke="white"/>
<path opacity="0.4" d="M374 21V25C374.805 24.6613 375.328 23.8732 375.328 23C375.328 22.1269 374.805 21.3388 374 21Z" fill="white"/>
<path d="M353 20.6667C353 19.9303 353.597 19.3334 354.333 19.3334H369.667C370.403 19.3334 371 19.9303 371 20.6667V25.3334C371 26.0698 370.403 26.6667 369.667 26.6667H354.333C353.597 26.6667 353 26.0698 353 25.3334V20.6667Z" fill="white"/>
<path fill-rule="evenodd" clip-rule="evenodd" d="M338.33 19.608C340.546 19.6081 342.678 20.4596 344.283 21.9863C344.404 22.1042 344.598 22.1027 344.717 21.983L345.873 20.8163C345.933 20.7556 345.967 20.6734 345.966 20.5878C345.966 20.5022 345.931 20.4204 345.87 20.3603C341.655 16.3208 335.005 16.3208 330.79 20.3603C330.729 20.4203 330.694 20.5021 330.694 20.5877C330.693 20.6733 330.727 20.7556 330.787 20.8163L331.943 21.983C332.062 22.1029 332.256 22.1044 332.377 21.9863C333.983 20.4595 336.114 19.608 338.33 19.608ZM338.33 23.4037C339.548 23.4036 340.722 23.8561 341.624 24.6733C341.747 24.7893 341.939 24.7868 342.058 24.6677L343.212 23.501C343.273 23.4398 343.307 23.3568 343.306 23.2705C343.305 23.1843 343.27 23.102 343.208 23.042C340.46 20.4856 336.204 20.4856 333.455 23.042C333.393 23.102 333.358 23.1843 333.357 23.2706C333.356 23.3569 333.39 23.4399 333.451 23.501L334.605 24.6677C334.724 24.7868 334.917 24.7893 335.039 24.6733C335.941 23.8567 337.114 23.4042 338.33 23.4037ZM340.643 25.9575C340.645 26.044 340.611 26.1274 340.549 26.188L338.552 28.2037C338.494 28.2629 338.414 28.2963 338.33 28.2963C338.247 28.2963 338.167 28.2629 338.109 28.2037L336.111 26.188C336.049 26.1274 336.015 26.0439 336.017 25.9574C336.019 25.8709 336.057 25.789 336.121 25.731C337.396 24.6521 339.265 24.6521 340.54 25.731C340.604 25.789 340.642 25.871 340.643 25.9575Z" fill="white"/>
<path fill-rule="evenodd" clip-rule="evenodd" d="M324.667 17.6666H323.667C323.114 17.6666 322.667 18.1143 322.667 18.6666V27.3333C322.667 27.8856 323.114 28.3333 323.667 28.3333H324.667C325.219 28.3333 325.667 27.8856 325.667 27.3333V18.6666C325.667 18.1143 325.219 17.6666 324.667 17.6666ZM319 20H320C320.552 20 321 20.4477 321 21V27.3333C321 27.8856 320.552 28.3333 320 28.3333H319C318.448 28.3333 318 27.8856 318 27.3333V21C318 20.4477 318.448 20 319 20ZM315.333 22.3333H314.333C313.781 22.3333 313.333 22.781 313.333 23.3333V27.3333C313.333 27.8856 313.781 28.3333 314.333 28.3333H315.333C315.886 28.3333 316.333 27.8856 316.333 27.3333V23.3333C316.333 22.781 315.886 22.3333 315.333 22.3333ZM310.667 24.3333H309.667C309.114 24.3333 308.667 24.781 308.667 25.3333V27.3333C308.667 27.8856 309.114 28.3333 309.667 28.3333H310.667C311.219 28.3333 311.667 27.8856 311.667 27.3333V25.3333C311.667 24.781 311.219 24.3333 310.667 24.3333Z" fill="white"/>
<path d="M37.3208 28.2563C40.0088 28.2563 41.6055 26.1543 41.6055 22.5947C41.6055 21.2544 41.3491 20.1265 40.8584 19.2549C40.1479 17.8999 38.9248 17.1675 37.3794 17.1675C35.0796 17.1675 33.4536 18.7129 33.4536 20.8809C33.4536 22.917 34.9185 24.3965 36.9326 24.3965C38.1704 24.3965 39.1738 23.8179 39.6719 22.8145H39.6938C39.6938 22.8145 39.7231 22.8145 39.7305 22.8145C39.7451 22.8145 39.7964 22.8145 39.7964 22.8145C39.7964 25.2314 38.8809 26.6743 37.3354 26.6743C36.4272 26.6743 35.7241 26.1763 35.4824 25.3779H33.6001C33.915 27.1138 35.3872 28.2563 37.3208 28.2563ZM37.3867 22.895C36.1709 22.895 35.3066 22.0308 35.3066 20.8223C35.3066 19.6431 36.2148 18.7422 37.394 18.7422C38.5732 18.7422 39.4814 19.6577 39.4814 20.8516C39.4814 22.0308 38.5952 22.895 37.3867 22.895Z" fill="white"/>
<path d="M44.6966 28.1538C45.3924 28.1538 45.8685 27.6558 45.8685 26.9966C45.8685 26.3301 45.3924 25.8394 44.6966 25.8394C44.0081 25.8394 43.5247 26.3301 43.5247 26.9966C43.5247 27.6558 44.0081 28.1538 44.6966 28.1538ZM44.6966 22.6606C45.3924 22.6606 45.8685 22.1699 45.8685 21.5107C45.8685 20.8442 45.3924 20.3535 44.6966 20.3535C44.0081 20.3535 43.5247 20.8442 43.5247 21.5107C43.5247 22.1699 44.0081 22.6606 44.6966 22.6606Z" fill="white"/>
<path d="M52.7242 28H54.5333V26.0298H55.9615V24.4331H54.5333V17.4312H51.8673C49.9996 20.2437 48.5128 22.5947 47.5606 24.3452V26.0298H52.7242V28ZM49.3111 24.3672C50.5416 22.1992 51.6402 20.4634 52.651 18.9692H52.7535V24.4771H49.3111V24.3672Z" fill="white"/>
<path d="M59.9901 28H61.8798V17.4312H59.9975L57.2362 19.3647V21.1812L59.8656 19.3354H59.9901V28Z" fill="white"/>
</g>
<g clip-path="url(#clip2_5_1484)">
<path d="M85 -2H304C301.894 -1.39731 300.418 0.495246 300.345 2.68446L300.317 3.5618C300.317 17.0587 289.375 28 275.878 28H113.122C99.6249 28 88.6835 17.0587 88.6835 3.5618L88.6545 2.68447C88.5823 0.49525 87.1059 -1.39731 85 -2Z" fill="black"/>
<path opacity="0.35" d="M351.5 20C351.5 18.8034 352.47 17.8334 353.667 17.8334H370.333C371.53 17.8334 372.5 18.8034 372.5 20V26C372.5 27.1967 371.53 28.1667 370.333 28.1667H353.667C352.47 28.1667 351.5 27.1967 351.5 26V20Z" stroke="white"/>
<path opacity="0.4" d="M374 21V25C374.805 24.6613 375.328 23.8732 375.328 23C375.328 22.1269 374.805 21.3388 374 21Z" fill="white"/>
<path d="M353 20.6667C353 19.9303 353.597 19.3334 354.333 19.3334H369.667C370.403 19.3334 371 19.9303 371 20.6667V25.3334C371 26.0698 370.403 26.6667 369.667 26.6667H354.333C353.597 26.6667 353 26.0698 353 25.3334V20.6667Z" fill="white"/>
<path fill-rule="evenodd" clip-rule="evenodd" d="M338.33 19.608C340.546 19.6081 342.678 20.4596 344.283 21.9863C344.404 22.1042 344.598 22.1027 344.717 21.983L345.873 20.8163C345.933 20.7556 345.967 20.6734 345.966 20.5878C345.966 20.5022 345.931 20.4204 345.87 20.3603C341.655 16.3208 335.005 16.3208 330.79 20.3603C330.729 20.4203 330.694 20.5021 330.694 20.5877C330.693 20.6733 330.727 20.7556 330.787 20.8163L331.943 21.983C332.062 22.1029 332.256 22.1044 332.377 21.9863C333.983 20.4595 336.114 19.608 338.33 19.608ZM338.33 23.4037C339.548 23.4036 340.722 23.8561 341.624 24.6733C341.747 24.7893 341.939 24.7868 342.058 24.6677L343.212 23.501C343.273 23.4398 343.307 23.3568 343.306 23.2705C343.305 23.1843 343.27 23.102 343.208 23.042C340.46 20.4856 336.204 20.4856 333.455 23.042C333.393 23.102 333.358 23.1843 333.357 23.2706C333.356 23.3569 333.39 23.4399 333.451 23.501L334.605 24.6677C334.724 24.7868 334.917 24.7893 335.039 24.6733C335.941 23.8567 337.114 23.4042 338.33 23.4037ZM340.643 25.9575C340.645 26.044 340.611 26.1274 340.549 26.188L338.552 28.2037C338.494 28.2629 338.414 28.2963 338.33 28.2963C338.247 28.2963 338.167 28.2629 338.109 28.2037L336.111 26.188C336.049 26.1274 336.015 26.0439 336.017 25.9574C336.019 25.8709 336.057 25.789 336.121 25.731C337.396 24.6521 339.265 24.6521 340.54 25.731C340.604 25.789 340.642 25.871 340.643 25.9575Z" fill="white"/>
<path fill-rule="evenodd" clip-rule="evenodd" d="M324.667 17.6666H323.667C323.114 17.6666 322.667 18.1143 322.667 18.6666V27.3333C322.667 27.8856 323.114 28.3333 323.667 28.3333H324.667C325.219 28.3333 325.667 27.8856 325.667 27.3333V18.6666C325.667 18.1143 325.219 17.6666 324.667 17.6666ZM319 20H320C320.552 20 321 20.4477 321 21V27.3333C321 27.8856 320.552 28.3333 320 28.3333H319C318.448 28.3333 318 27.8856 318 27.3333V21C318 20.4477 318.448 20 319 20ZM315.333 22.3333H314.333C313.781 22.3333 313.333 22.781 313.333 23.3333V27.3333C313.333 27.8856 313.781 28.3333 314.333 28.3333H315.333C315.886 28.3333 316.333 27.8856 316.333 27.3333V23.3333C316.333 22.781 315.886 22.3333 315.333 22.3333ZM310.667 24.3333H309.667C309.114 24.3333 308.667 24.781 308.667 25.3333V27.3333C308.667 27.8856 309.114 28.3333 309.667 28.3333H310.667C311.219 28.3333 311.667 27.8856 311.667 27.3333V25.3333C311.667 24.781 311.219 24.3333 310.667 24.3333Z" fill="white"/>
<path d="M37.3208 28.2563C40.0088 28.2563 41.6055 26.1543 41.6055 22.5947C41.6055 21.2544 41.3491 20.1265 40.8584 19.2549C40.1479 17.8999 38.9248 17.1675 37.3794 17.1675C35.0796 17.1675 33.4536 18.7129 33.4536 20.8809C33.4536 22.917 34.9185 24.3965 36.9326 24.3965C38.1704 24.3965 39.1738 23.8179 39.6719 22.8145H39.6938C39.6938 22.8145 39.7231 22.8145 39.7305 22.8145C39.7451 22.8145 39.7964 22.8145 39.7964 22.8145C39.7964 25.2314 38.8809 26.6743 37.3354 26.6743C36.4272 26.6743 35.7241 26.1763 35.4824 25.3779H33.6001C33.915 27.1138 35.3872 28.2563 37.3208 28.2563ZM37.3867 22.895C36.1709 22.895 35.3066 22.0308 35.3066 20.8223C35.3066 19.6431 36.2148 18.7422 37.394 18.7422C38.5732 18.7422 39.4814 19.6577 39.4814 20.8516C39.4814 22.0308 38.5952 22.895 37.3867 22.895Z" fill="white"/>
<path d="M44.6966 28.1538C45.3924 28.1538 45.8685 27.6558 45.8685 26.9966C45.8685 26.3301 45.3924 25.8394 44.6966 25.8394C44.0081 25.8394 43.5247 26.3301 43.5247 26.9966C43.5247 27.6558 44.0081 28.1538 44.6966 28.1538ZM44.6966 22.6606C45.3924 22.6606 45.8685 22.1699 45.8685 21.5107C45.8685 20.8442 45.3924 20.3535 44.6966 20.3535C44.0081 20.3535 43.5247 20.8442 43.5247 21.5107C43.5247 22.1699 44.0081 22.6606 44.6966 22.6606Z" fill="white"/>
<path d="M52.7242 28H54.5333V26.0298H55.9615V24.4331H54.5333V17.4312H51.8673C49.9996 20.2437 48.5128 22.5947 47.5606 24.3452V26.0298H52.7242V28ZM49.3111 24.3672C50.5416 22.1992 51.6402 20.4634 52.651 18.9692H52.7535V24.4771H49.3111V24.3672Z" fill="white"/>
<path d="M59.9901 28H61.8798V17.4312H59.9975L57.2362 19.3647V21.1812L59.8656 19.3354H59.9901V28Z" fill="white"/>
</g>
<path d="M75.5 129C75.5 119.335 83.335 111.5 93 111.5H305C314.665 111.5 322.5 119.335 322.5 129C322.5 138.665 314.665 146.5 305 146.5H93C83.335 146.5 75.5 138.665 75.5 129Z" fill="#F6F6F6" stroke="#E8E8E8"/>
<path d="M199 130C199 120.059 207.059 112 217 112H305C314.941 112 323 120.059 323 130C323 139.941 314.941 148 305 148H217C207.059 148 199 139.941 199 130Z" fill="white"/>
<path d="M240.957 125.131V123.364H250.241V125.131H246.644V135H244.553V125.131H240.957ZM254.481 135.17C253.629 135.17 252.89 134.983 252.265 134.608C251.64 134.233 251.155 133.708 250.81 133.034C250.469 132.36 250.299 131.572 250.299 130.67C250.299 129.769 250.469 128.979 250.81 128.301C251.155 127.623 251.64 127.097 252.265 126.722C252.89 126.347 253.629 126.159 254.481 126.159C255.333 126.159 256.072 126.347 256.697 126.722C257.322 127.097 257.805 127.623 258.146 128.301C258.49 128.979 258.663 129.769 258.663 130.67C258.663 131.572 258.49 132.36 258.146 133.034C257.805 133.708 257.322 134.233 256.697 134.608C256.072 134.983 255.333 135.17 254.481 135.17ZM254.492 133.523C254.954 133.523 255.341 133.396 255.651 133.142C255.962 132.884 256.193 132.54 256.344 132.108C256.5 131.676 256.577 131.195 256.577 130.665C256.577 130.131 256.5 129.648 256.344 129.216C256.193 128.78 255.962 128.434 255.651 128.176C255.341 127.919 254.954 127.79 254.492 127.79C254.019 127.79 253.625 127.919 253.31 128.176C253 128.434 252.767 128.78 252.612 129.216C252.46 129.648 252.384 130.131 252.384 130.665C252.384 131.195 252.46 131.676 252.612 132.108C252.767 132.54 253 132.884 253.31 133.142C253.625 133.396 254.019 133.523 254.492 133.523ZM264.442 135H260.499V123.364H264.522C265.677 123.364 266.67 123.597 267.499 124.062C268.333 124.525 268.973 125.189 269.42 126.057C269.867 126.924 270.09 127.962 270.09 129.17C270.09 130.383 269.865 131.424 269.414 132.295C268.967 133.167 268.321 133.835 267.477 134.301C266.636 134.767 265.624 135 264.442 135ZM262.607 133.176H264.34C265.151 133.176 265.827 133.028 266.369 132.733C266.91 132.434 267.317 131.989 267.59 131.398C267.863 130.803 267.999 130.061 267.999 129.17C267.999 128.28 267.863 127.542 267.59 126.955C267.317 126.364 266.914 125.922 266.38 125.631C265.85 125.335 265.191 125.188 264.403 125.188H262.607V133.176ZM275.809 135.17C274.957 135.17 274.218 134.983 273.593 134.608C272.968 134.233 272.483 133.708 272.138 133.034C271.798 132.36 271.627 131.572 271.627 130.67C271.627 129.769 271.798 128.979 272.138 128.301C272.483 127.623 272.968 127.097 273.593 126.722C274.218 126.347 274.957 126.159 275.809 126.159C276.661 126.159 277.4 126.347 278.025 126.722C278.65 127.097 279.133 127.623 279.474 128.301C279.818 128.979 279.991 129.769 279.991 130.67C279.991 131.572 279.818 132.36 279.474 133.034C279.133 133.708 278.65 134.233 278.025 134.608C277.4 134.983 276.661 135.17 275.809 135.17ZM275.82 133.523C276.282 133.523 276.669 133.396 276.979 133.142C277.29 132.884 277.521 132.54 277.673 132.108C277.828 131.676 277.906 131.195 277.906 130.665C277.906 130.131 277.828 129.648 277.673 129.216C277.521 128.78 277.29 128.434 276.979 128.176C276.669 127.919 276.282 127.79 275.82 127.79C275.347 127.79 274.953 127.919 274.638 128.176C274.328 128.434 274.095 128.78 273.94 129.216C273.788 129.648 273.712 130.131 273.712 130.665C273.712 131.195 273.788 131.676 273.94 132.108C274.095 132.54 274.328 132.884 274.638 133.142C274.953 133.396 275.347 133.523 275.82 133.523Z" fill="#FFB84E"/>
<path d="M117.263 127.148H115.491C115.423 126.769 115.296 126.436 115.11 126.148C114.924 125.86 114.697 125.616 114.428 125.415C114.159 125.214 113.858 125.062 113.525 124.96C113.195 124.858 112.845 124.807 112.474 124.807C111.803 124.807 111.203 124.975 110.673 125.312C110.146 125.65 109.729 126.144 109.423 126.795C109.12 127.447 108.968 128.242 108.968 129.182C108.968 130.129 109.12 130.928 109.423 131.58C109.729 132.231 110.148 132.723 110.678 133.057C111.209 133.39 111.805 133.557 112.468 133.557C112.835 133.557 113.184 133.508 113.513 133.409C113.847 133.307 114.148 133.157 114.417 132.96C114.686 132.763 114.913 132.523 115.099 132.239C115.288 131.951 115.419 131.621 115.491 131.25L117.263 131.256C117.169 131.828 116.985 132.354 116.712 132.835C116.443 133.312 116.097 133.725 115.673 134.074C115.252 134.419 114.771 134.686 114.229 134.875C113.688 135.064 113.097 135.159 112.457 135.159C111.449 135.159 110.551 134.92 109.763 134.443C108.976 133.962 108.354 133.275 107.9 132.381C107.449 131.487 107.224 130.42 107.224 129.182C107.224 127.939 107.451 126.873 107.906 125.983C108.36 125.089 108.981 124.403 109.769 123.926C110.557 123.445 111.453 123.205 112.457 123.205C113.074 123.205 113.65 123.294 114.184 123.472C114.722 123.646 115.205 123.903 115.633 124.244C116.061 124.581 116.415 124.994 116.695 125.483C116.976 125.968 117.165 126.523 117.263 127.148ZM121.768 135.193C121.215 135.193 120.715 135.091 120.268 134.886C119.821 134.678 119.467 134.377 119.205 133.983C118.948 133.589 118.819 133.106 118.819 132.534C118.819 132.042 118.914 131.636 119.103 131.318C119.292 131 119.548 130.748 119.87 130.562C120.192 130.377 120.552 130.237 120.95 130.142C121.347 130.047 121.753 129.975 122.165 129.926C122.688 129.866 123.112 129.816 123.438 129.778C123.764 129.737 124.001 129.67 124.148 129.58C124.296 129.489 124.37 129.341 124.37 129.136V129.097C124.37 128.6 124.23 128.216 123.95 127.943C123.673 127.67 123.26 127.534 122.711 127.534C122.139 127.534 121.688 127.661 121.359 127.915C121.033 128.165 120.808 128.443 120.683 128.75L119.086 128.386C119.275 127.856 119.552 127.428 119.915 127.102C120.283 126.773 120.705 126.534 121.183 126.386C121.66 126.235 122.162 126.159 122.688 126.159C123.037 126.159 123.406 126.201 123.796 126.284C124.19 126.364 124.558 126.511 124.898 126.727C125.243 126.943 125.525 127.252 125.745 127.653C125.965 128.051 126.075 128.568 126.075 129.205V135H124.415V133.807H124.347C124.237 134.027 124.073 134.242 123.853 134.455C123.633 134.667 123.351 134.843 123.006 134.983C122.662 135.123 122.249 135.193 121.768 135.193ZM122.137 133.83C122.607 133.83 123.008 133.737 123.342 133.551C123.679 133.366 123.934 133.123 124.109 132.824C124.287 132.521 124.376 132.197 124.376 131.852V130.727C124.315 130.788 124.198 130.845 124.023 130.898C123.853 130.947 123.658 130.991 123.438 131.028C123.219 131.062 123.004 131.095 122.796 131.125C122.588 131.152 122.414 131.174 122.273 131.193C121.944 131.235 121.643 131.305 121.37 131.403C121.101 131.502 120.885 131.644 120.722 131.83C120.563 132.011 120.484 132.254 120.484 132.557C120.484 132.977 120.639 133.295 120.95 133.511C121.26 133.723 121.656 133.83 122.137 133.83ZM130.036 123.364V135H128.337V123.364H130.036ZM136.083 135.176C135.223 135.176 134.483 134.992 133.862 134.625C133.244 134.254 132.767 133.733 132.43 133.062C132.096 132.388 131.93 131.598 131.93 130.693C131.93 129.799 132.096 129.011 132.43 128.33C132.767 127.648 133.237 127.116 133.839 126.733C134.445 126.35 135.153 126.159 135.964 126.159C136.456 126.159 136.933 126.241 137.396 126.403C137.858 126.566 138.272 126.822 138.64 127.17C139.007 127.519 139.297 127.972 139.509 128.528C139.721 129.081 139.827 129.754 139.827 130.545V131.148H132.89V129.875H138.163C138.163 129.428 138.072 129.032 137.89 128.688C137.708 128.339 137.452 128.064 137.123 127.864C136.797 127.663 136.415 127.562 135.975 127.562C135.498 127.562 135.081 127.68 134.725 127.915C134.373 128.146 134.1 128.449 133.907 128.824C133.718 129.195 133.623 129.598 133.623 130.034V131.028C133.623 131.612 133.725 132.108 133.93 132.517C134.138 132.926 134.428 133.239 134.799 133.455C135.17 133.667 135.604 133.773 136.1 133.773C136.422 133.773 136.716 133.727 136.981 133.636C137.246 133.542 137.475 133.402 137.668 133.216C137.862 133.03 138.009 132.801 138.112 132.528L139.719 132.818C139.591 133.292 139.36 133.706 139.026 134.062C138.697 134.415 138.282 134.689 137.782 134.886C137.286 135.08 136.719 135.176 136.083 135.176ZM143.411 129.818V135H141.712V126.273H143.343V127.693H143.451C143.652 127.231 143.966 126.86 144.394 126.58C144.826 126.299 145.37 126.159 146.025 126.159C146.62 126.159 147.14 126.284 147.587 126.534C148.034 126.78 148.381 127.148 148.627 127.636C148.873 128.125 148.996 128.729 148.996 129.449V135H147.298V129.653C147.298 129.021 147.133 128.527 146.803 128.17C146.474 127.811 146.021 127.631 145.445 127.631C145.051 127.631 144.701 127.716 144.394 127.886C144.091 128.057 143.851 128.307 143.673 128.636C143.498 128.962 143.411 129.356 143.411 129.818ZM154.542 135.17C153.837 135.17 153.209 134.991 152.656 134.631C152.106 134.267 151.674 133.75 151.36 133.08C151.049 132.405 150.894 131.597 150.894 130.653C150.894 129.71 151.051 128.903 151.366 128.233C151.684 127.562 152.12 127.049 152.673 126.693C153.226 126.337 153.853 126.159 154.553 126.159C155.095 126.159 155.531 126.25 155.86 126.432C156.193 126.61 156.451 126.818 156.633 127.057C156.818 127.295 156.962 127.506 157.065 127.688H157.167V123.364H158.866V135H157.207V133.642H157.065C156.962 133.828 156.815 134.04 156.621 134.278C156.432 134.517 156.171 134.725 155.837 134.903C155.504 135.081 155.072 135.17 154.542 135.17ZM154.917 133.722C155.406 133.722 155.818 133.593 156.156 133.335C156.496 133.074 156.754 132.712 156.928 132.25C157.106 131.788 157.195 131.25 157.195 130.636C157.195 130.03 157.108 129.5 156.934 129.045C156.76 128.591 156.504 128.237 156.167 127.983C155.83 127.729 155.413 127.602 154.917 127.602C154.406 127.602 153.979 127.735 153.638 128C153.298 128.265 153.04 128.627 152.866 129.085C152.695 129.544 152.61 130.061 152.61 130.636C152.61 131.22 152.697 131.744 152.871 132.21C153.046 132.676 153.303 133.045 153.644 133.318C153.989 133.587 154.413 133.722 154.917 133.722ZM165.052 135.176C164.192 135.176 163.451 134.992 162.83 134.625C162.213 134.254 161.736 133.733 161.398 133.062C161.065 132.388 160.898 131.598 160.898 130.693C160.898 129.799 161.065 129.011 161.398 128.33C161.736 127.648 162.205 127.116 162.808 126.733C163.414 126.35 164.122 126.159 164.933 126.159C165.425 126.159 165.902 126.241 166.364 126.403C166.826 126.566 167.241 126.822 167.609 127.17C167.976 127.519 168.266 127.972 168.478 128.528C168.69 129.081 168.796 129.754 168.796 130.545V131.148H161.859V129.875H167.131C167.131 129.428 167.04 129.032 166.859 128.688C166.677 128.339 166.421 128.064 166.092 127.864C165.766 127.663 165.383 127.562 164.944 127.562C164.467 127.562 164.05 127.68 163.694 127.915C163.342 128.146 163.069 128.449 162.876 128.824C162.686 129.195 162.592 129.598 162.592 130.034V131.028C162.592 131.612 162.694 132.108 162.898 132.517C163.107 132.926 163.397 133.239 163.768 133.455C164.139 133.667 164.573 133.773 165.069 133.773C165.391 133.773 165.684 133.727 165.95 133.636C166.215 133.542 166.444 133.402 166.637 133.216C166.83 133.03 166.978 132.801 167.08 132.528L168.688 132.818C168.559 133.292 168.328 133.706 167.995 134.062C167.665 134.415 167.251 134.689 166.751 134.886C166.254 135.08 165.688 135.176 165.052 135.176ZM170.681 135V126.273H172.323V127.659H172.414C172.573 127.189 172.853 126.82 173.255 126.551C173.66 126.278 174.119 126.142 174.63 126.142C174.736 126.142 174.861 126.146 175.005 126.153C175.153 126.161 175.268 126.17 175.352 126.182V127.807C175.283 127.788 175.162 127.767 174.988 127.744C174.814 127.718 174.639 127.705 174.465 127.705C174.064 127.705 173.706 127.79 173.391 127.96C173.081 128.127 172.835 128.36 172.653 128.659C172.471 128.955 172.38 129.292 172.38 129.67V135H170.681Z" fill="#BDBDBD"/>
<g filter="url(#filter0_b_5_1484)">
<path d="M1 747H392V843.617H1V747Z" fill="white"/>
<path d="M1 747.901H392V746.099H1V747.901Z" fill="#E2E2E2"/>
</g>
<g clip-path="url(#clip3_5_1484)">
<path d="M72.3361 763.444C72.8474 763.444 73.3378 763.658 73.6994 764.039C74.061 764.42 74.2641 764.936 74.2641 765.475V767.505H78.1201C79.1428 767.505 80.1236 767.933 80.8467 768.694C81.5699 769.455 81.9761 770.488 81.9761 771.565V795.927C81.9761 797.004 81.5699 798.037 80.8467 798.798C80.1236 799.56 79.1428 799.987 78.1201 799.987H51.128C50.1053 799.987 49.1245 799.56 48.4014 798.798C47.6782 798.037 47.272 797.004 47.272 795.927V771.565C47.272 770.488 47.6782 769.455 48.4014 768.694C49.1245 767.933 50.1053 767.505 51.128 767.505H54.984V765.475C54.984 764.936 55.1871 764.42 55.5487 764.039C55.9103 763.658 56.4007 763.444 56.912 763.444C57.4234 763.444 57.9137 763.658 58.2753 764.039C58.6369 764.42 58.84 764.936 58.84 765.475V767.505H70.4081V765.475C70.4081 764.936 70.6112 764.42 70.9728 764.039C71.3343 763.658 71.8247 763.444 72.3361 763.444ZM78.1201 771.565H51.128V795.927H78.1201V771.565ZM70.0687 776.395C70.4324 776.025 70.9194 775.82 71.4249 775.825C71.9304 775.83 72.414 776.043 72.7715 776.42C73.1289 776.796 73.3317 777.305 73.3361 777.838C73.3405 778.37 73.1461 778.883 72.7949 779.266L63.2667 789.301C63.0859 789.491 62.8711 789.642 62.6348 789.746C62.3984 789.849 62.145 789.902 61.8892 789.902C61.6333 789.902 61.3799 789.849 61.1436 789.746C60.9072 789.642 60.6924 789.491 60.5116 789.301L56.4358 785.005C56.0846 784.622 55.8903 784.109 55.8947 783.577C55.899 783.044 56.1018 782.535 56.4593 782.159C56.8167 781.782 57.3003 781.569 57.8058 781.564C58.3114 781.56 58.7984 781.764 59.162 782.134L61.8901 785.005L70.0687 776.395Z" fill="black"/>
</g>
<path d="M340.908 768.114H314.687C312.879 768.114 311.409 769.662 311.409 771.565V792.273C311.409 794.176 312.879 795.724 314.687 795.724H319.603V802.224L329.89 795.724H340.908C342.715 795.724 344.185 794.176 344.185 792.273V771.565C344.185 769.662 342.715 768.114 340.908 768.114ZM340.908 792.273H328.982L322.881 796.126V792.273H314.687V771.565H340.908V792.273Z" fill="black"/>
<path d="M198.343 785.472C198.696 785.472 199.041 785.362 199.334 785.155C199.627 784.949 199.856 784.656 199.991 784.312C200.126 783.969 200.161 783.592 200.092 783.227C200.023 782.863 199.854 782.528 199.604 782.266C199.355 782.003 199.037 781.824 198.691 781.752C198.345 781.679 197.986 781.717 197.661 781.859C197.335 782.001 197.056 782.242 196.86 782.55C196.664 782.859 196.56 783.222 196.56 783.594C196.56 784.092 196.748 784.569 197.082 784.922C197.417 785.274 197.87 785.472 198.343 785.472ZM207.26 785.472C207.613 785.472 207.958 785.362 208.251 785.155C208.544 784.949 208.773 784.656 208.908 784.312C209.043 783.969 209.078 783.592 209.009 783.227C208.94 782.863 208.771 782.528 208.521 782.266C208.272 782.003 207.954 781.824 207.608 781.752C207.262 781.679 206.904 781.717 206.578 781.859C206.252 782.001 205.973 782.242 205.777 782.55C205.581 782.859 205.477 783.222 205.477 783.594C205.477 784.092 205.665 784.569 205.999 784.922C206.334 785.274 206.787 785.472 207.26 785.472ZM198.343 792.983C198.696 792.983 199.041 792.873 199.334 792.667C199.627 792.46 199.856 792.167 199.991 791.824C200.126 791.481 200.161 791.103 200.092 790.739C200.023 790.375 199.854 790.04 199.604 789.777C199.355 789.515 199.037 789.336 198.691 789.264C198.345 789.191 197.986 789.228 197.661 789.37C197.335 789.513 197.056 789.753 196.86 790.062C196.664 790.371 196.56 790.734 196.56 791.105C196.56 791.603 196.748 792.081 197.082 792.433C197.417 792.785 197.87 792.983 198.343 792.983ZM207.26 792.983C207.613 792.983 207.958 792.873 208.251 792.667C208.544 792.46 208.773 792.167 208.908 791.824C209.043 791.481 209.078 791.103 209.009 790.739C208.94 790.375 208.771 790.04 208.521 789.777C208.272 789.515 207.954 789.336 207.608 789.264C207.262 789.191 206.904 789.228 206.578 789.37C206.252 789.513 205.973 789.753 205.777 790.062C205.581 790.371 205.477 790.734 205.477 791.105C205.477 791.603 205.665 792.081 205.999 792.433C206.334 792.785 206.787 792.983 207.26 792.983ZM189.426 785.472C189.779 785.472 190.124 785.362 190.417 785.155C190.71 784.949 190.939 784.656 191.074 784.312C191.209 783.969 191.244 783.592 191.175 783.227C191.106 782.863 190.937 782.528 190.687 782.266C190.438 782.003 190.12 781.824 189.774 781.752C189.428 781.679 189.069 781.717 188.744 781.859C188.418 782.001 188.139 782.242 187.943 782.55C187.747 782.859 187.643 783.222 187.643 783.594C187.643 784.092 187.831 784.569 188.165 784.922C188.499 785.274 188.953 785.472 189.426 785.472ZM210.827 766.693H209.044V764.815C209.044 764.317 208.856 763.839 208.521 763.487C208.187 763.135 207.733 762.937 207.26 762.937C206.787 762.937 206.334 763.135 205.999 763.487C205.665 763.839 205.477 764.317 205.477 764.815V766.693H191.209V764.815C191.209 764.317 191.022 763.839 190.687 763.487C190.353 763.135 189.899 762.937 189.426 762.937C188.953 762.937 188.499 763.135 188.165 763.487C187.831 763.839 187.643 764.317 187.643 764.815V766.693H185.859C184.44 766.693 183.079 767.286 182.076 768.343C181.073 769.399 180.509 770.832 180.509 772.326V794.861C180.509 796.355 181.073 797.788 182.076 798.845C183.079 799.901 184.44 800.495 185.859 800.495H210.827C212.246 800.495 213.607 799.901 214.61 798.845C215.613 797.788 216.177 796.355 216.177 794.861V772.326C216.177 770.832 215.613 769.399 214.61 768.343C213.607 767.286 212.246 766.693 210.827 766.693ZM212.61 794.861C212.61 795.359 212.422 795.837 212.088 796.189C211.754 796.541 211.3 796.739 210.827 796.739H185.859C185.386 796.739 184.933 796.541 184.598 796.189C184.264 795.837 184.076 795.359 184.076 794.861V777.96H212.61V794.861ZM212.61 774.204H184.076V772.326C184.076 771.828 184.264 771.351 184.598 770.998C184.933 770.646 185.386 770.448 185.859 770.448H210.827C211.3 770.448 211.754 770.646 212.088 770.998C212.422 771.351 212.61 771.828 212.61 772.326V774.204ZM189.426 792.983C189.779 792.983 190.124 792.873 190.417 792.667C190.71 792.46 190.939 792.167 191.074 791.824C191.209 791.481 191.244 791.103 191.175 790.739C191.106 790.375 190.937 790.04 190.687 789.777C190.438 789.515 190.12 789.336 189.774 789.264C189.428 789.191 189.069 789.228 188.744 789.37C188.418 789.513 188.139 789.753 187.943 790.062C187.747 790.371 187.643 790.734 187.643 791.105C187.643 791.603 187.831 792.081 188.165 792.433C188.499 792.785 188.953 792.983 189.426 792.983Z" fill="black"/>
<path d="M44.6605 814.508V813.091H53.1033V814.508H49.6996V824H48.0589V814.508H44.6605ZM57.101 824.165C56.334 824.165 55.6646 823.989 55.0929 823.638C54.5211 823.286 54.0772 822.794 53.7612 822.162C53.4451 821.53 53.2871 820.792 53.2871 819.946C53.2871 819.098 53.4451 818.355 53.7612 817.72C54.0772 817.084 54.5211 816.591 55.0929 816.239C55.6646 815.887 56.334 815.712 57.101 815.712C57.8681 815.712 58.5375 815.887 59.1092 816.239C59.6809 816.591 60.1248 817.084 60.4409 817.72C60.7569 818.355 60.915 819.098 60.915 819.946C60.915 820.792 60.7569 821.53 60.4409 822.162C60.1248 822.794 59.6809 823.286 59.1092 823.638C58.5375 823.989 57.8681 824.165 57.101 824.165ZM57.1064 822.828C57.6035 822.828 58.0154 822.697 58.3422 822.434C58.6689 822.171 58.9103 821.821 59.0666 821.385C59.2264 820.948 59.3063 820.467 59.3063 819.941C59.3063 819.419 59.2264 818.94 59.0666 818.503C58.9103 818.062 58.6689 817.709 58.3422 817.443C58.0154 817.176 57.6035 817.043 57.1064 817.043C56.6056 817.043 56.1902 817.176 55.8599 817.443C55.5332 817.709 55.29 818.062 55.1301 818.503C54.9739 818.94 54.8958 819.419 54.8958 819.941C54.8958 820.467 54.9739 820.948 55.1301 821.385C55.29 821.821 55.5332 822.171 55.8599 822.434C56.1902 822.697 56.6056 822.828 57.1064 822.828ZM66.3522 824H62.8206V813.091H66.464C67.5329 813.091 68.4509 813.309 69.218 813.746C69.985 814.179 70.5727 814.803 70.9811 815.616C71.393 816.425 71.599 817.397 71.599 818.529C71.599 819.666 71.3912 820.642 70.9758 821.459C70.5638 822.276 69.9672 822.904 69.186 823.345C68.4047 823.782 67.4601 824 66.3522 824ZM64.4665 822.562H66.2616C67.0926 822.562 67.7833 822.406 68.3337 822.093C68.8841 821.777 69.2961 821.321 69.5695 820.724C69.843 820.124 69.9797 819.392 69.9797 818.529C69.9797 817.674 69.843 816.947 69.5695 816.351C69.2996 815.754 68.8966 815.301 68.3604 814.993C67.8241 814.684 67.1583 814.529 66.3628 814.529H64.4665V822.562ZM76.9643 824.165C76.1973 824.165 75.5279 823.989 74.9561 823.638C74.3844 823.286 73.9405 822.794 73.6245 822.162C73.3084 821.53 73.1504 820.792 73.1504 819.946C73.1504 819.098 73.3084 818.355 73.6245 817.72C73.9405 817.084 74.3844 816.591 74.9561 816.239C75.5279 815.887 76.1973 815.712 76.9643 815.712C77.7314 815.712 78.4007 815.887 78.9725 816.239C79.5442 816.591 79.9881 817.084 80.3042 817.72C80.6202 818.355 80.7782 819.098 80.7782 819.946C80.7782 820.792 80.6202 821.53 80.3042 822.162C79.9881 822.794 79.5442 823.286 78.9725 823.638C78.4007 823.989 77.7314 824.165 76.9643 824.165ZM76.9696 822.828C77.4668 822.828 77.8787 822.697 78.2054 822.434C78.5321 822.171 78.7736 821.821 78.9299 821.385C79.0897 820.948 79.1696 820.467 79.1696 819.941C79.1696 819.419 79.0897 818.94 78.9299 818.503C78.7736 818.062 78.5321 817.709 78.2054 817.443C77.8787 817.176 77.4668 817.043 76.9696 817.043C76.4689 817.043 76.0534 817.176 75.7232 817.443C75.3965 817.709 75.1532 818.062 74.9934 818.503C74.8372 818.94 74.7591 819.419 74.7591 819.941C74.7591 820.467 74.8372 820.948 74.9934 821.385C75.1532 821.821 75.3965 822.171 75.7232 822.434C76.0534 822.697 76.4689 822.828 76.9696 822.828Z" fill="#1E1E1E"/>
<path d="M183.149 813.338H190.649V814.328H183.149V813.338ZM182.504 816.248H191.294V817.253H182.504V816.248ZM182.579 818.963H191.129V819.968H182.579V818.963ZM186.299 811.538H187.409V816.863H186.299V811.538ZM188.279 817.103H189.374V824.003C189.374 824.648 189.224 824.978 188.759 825.143C188.294 825.308 187.529 825.323 186.329 825.323C186.284 825.023 186.104 824.573 185.939 824.273C186.869 824.303 187.709 824.303 187.949 824.288C188.204 824.273 188.279 824.213 188.279 823.988V817.103ZM183.494 821.018L184.394 820.478C185.174 821.258 186.014 822.323 186.374 823.058L185.399 823.658C185.069 822.923 184.259 821.798 183.494 821.018ZM178.499 812.528H182.249V822.383H178.499V821.363H181.199V813.548H178.499V812.528ZM178.544 816.893H181.694V817.898H178.544V816.893ZM177.959 812.528H179.024V823.613H177.959V812.528ZM197.039 820.733H201.584V821.603H197.039V820.733ZM196.994 818.468H202.109V823.943H196.994V823.073H201.044V819.353H196.994V818.468ZM196.499 818.468H197.534V824.708H196.499V818.468ZM193.739 814.313H197.909V815.138H193.739V814.313ZM200.654 814.313H204.899V815.138H200.654V814.313ZM204.434 812.183H205.559V823.853C205.559 824.573 205.394 824.948 204.914 825.143C204.434 825.323 203.624 825.338 202.364 825.338C202.319 825.023 202.139 824.498 201.974 824.183C202.889 824.228 203.804 824.213 204.074 824.198C204.344 824.198 204.434 824.108 204.434 823.853V812.183ZM193.829 812.183H198.629V817.343H193.829V816.473H197.564V813.053H193.829V812.183ZM204.989 812.183V813.053H201.059V816.503H204.989V817.358H199.979V812.183H204.989ZM193.184 812.183H194.294V825.353H193.184V812.183ZM216.479 813.173H217.544V821.438H216.479V813.173ZM219.539 811.808H220.649V823.793C220.649 824.558 220.469 824.888 219.989 825.083C219.524 825.263 218.669 825.308 217.499 825.308C217.454 824.978 217.289 824.453 217.124 824.108C218.039 824.153 218.924 824.138 219.224 824.138C219.464 824.123 219.539 824.048 219.539 823.793V811.808ZM209.099 823.643H214.139V824.543H209.099V823.643ZM207.659 818.933H215.414V819.833H207.659V818.933ZM208.484 815.243H214.709V816.098H208.484V815.243ZM208.559 817.073H214.529V817.898H208.559V817.073ZM211.019 811.583H212.114V813.443H211.019V811.583ZM211.049 814.268H212.099V819.428H211.049V814.268ZM208.559 820.658H214.724V825.143H213.659V821.543H209.594V825.308H208.559V820.658ZM207.659 812.933H215.579V815.303H214.529V813.833H208.664V815.303H207.659V812.933Z" fill="#1E1E1E"/>
<path d="M298.389 814.229H300.387L303.86 822.709H303.988L307.461 814.229H309.458V825.138H307.892V817.244H307.791L304.574 825.122H303.274L300.057 817.239H299.955V825.138H298.389V814.229ZM315.25 825.303C314.444 825.303 313.749 825.131 313.167 824.787C312.588 824.439 312.141 823.95 311.825 823.322C311.512 822.69 311.356 821.949 311.356 821.1C311.356 820.262 311.512 819.524 311.825 818.885C312.141 818.245 312.581 817.746 313.146 817.388C313.714 817.029 314.378 816.85 315.138 816.85C315.6 816.85 316.047 816.926 316.48 817.079C316.913 817.231 317.302 817.471 317.647 817.798C317.991 818.125 318.263 818.549 318.462 819.071C318.661 819.589 318.76 820.22 318.76 820.962V821.527H312.256V820.333H317.199C317.199 819.914 317.114 819.543 316.944 819.22C316.773 818.893 316.534 818.636 316.225 818.448C315.919 818.26 315.561 818.165 315.149 818.165C314.701 818.165 314.311 818.276 313.977 818.496C313.646 818.712 313.391 818.996 313.21 819.348C313.032 819.696 312.943 820.074 312.943 820.483V821.415C312.943 821.962 313.039 822.427 313.231 822.81C313.426 823.194 313.698 823.487 314.046 823.689C314.394 823.888 314.801 823.988 315.266 823.988C315.568 823.988 315.843 823.945 316.091 823.86C316.34 823.771 316.555 823.64 316.736 823.466C316.917 823.292 317.056 823.077 317.151 822.821L318.659 823.093C318.538 823.537 318.322 823.925 318.009 824.259C317.7 824.589 317.311 824.847 316.842 825.032C316.377 825.213 315.846 825.303 315.25 825.303ZM326.658 818.954L325.215 819.209C325.154 819.025 325.058 818.849 324.927 818.682C324.799 818.515 324.625 818.379 324.405 818.272C324.185 818.165 323.91 818.112 323.579 818.112C323.128 818.112 322.752 818.213 322.45 818.416C322.148 818.615 321.997 818.872 321.997 819.188C321.997 819.462 322.099 819.682 322.301 819.849C322.503 820.016 322.83 820.152 323.281 820.259L324.581 820.557C325.334 820.731 325.895 820.999 326.264 821.361C326.633 821.724 326.818 822.194 326.818 822.773C326.818 823.263 326.676 823.7 326.392 824.083C326.111 824.463 325.719 824.762 325.215 824.978C324.714 825.195 324.133 825.303 323.473 825.303C322.557 825.303 321.809 825.108 321.23 824.717C320.652 824.323 320.296 823.764 320.165 823.039L321.704 822.805C321.8 823.206 321.997 823.51 322.296 823.716C322.594 823.918 322.983 824.019 323.462 824.019C323.984 824.019 324.402 823.911 324.714 823.695C325.027 823.474 325.183 823.206 325.183 822.89C325.183 822.635 325.087 822.42 324.895 822.246C324.707 822.072 324.417 821.94 324.027 821.852L322.642 821.548C321.878 821.374 321.314 821.097 320.948 820.717C320.586 820.337 320.405 819.856 320.405 819.273C320.405 818.79 320.54 818.368 320.81 818.006C321.079 817.643 321.452 817.361 321.928 817.159C322.404 816.953 322.949 816.85 323.563 816.85C324.448 816.85 325.144 817.042 325.652 817.425C326.159 817.805 326.495 818.315 326.658 818.954ZM334.7 818.954L333.257 819.209C333.196 819.025 333.1 818.849 332.969 818.682C332.841 818.515 332.667 818.379 332.447 818.272C332.227 818.165 331.952 818.112 331.621 818.112C331.17 818.112 330.794 818.213 330.492 818.416C330.19 818.615 330.039 818.872 330.039 819.188C330.039 819.462 330.141 819.682 330.343 819.849C330.545 820.016 330.872 820.152 331.323 820.259L332.623 820.557C333.376 820.731 333.937 820.999 334.306 821.361C334.675 821.724 334.86 822.194 334.86 822.773C334.86 823.263 334.718 823.7 334.434 824.083C334.153 824.463 333.761 824.762 333.257 824.978C332.756 825.195 332.175 825.303 331.515 825.303C330.599 825.303 329.851 825.108 329.272 824.717C328.693 824.323 328.338 823.764 328.207 823.039L329.746 822.805C329.842 823.206 330.039 823.51 330.338 823.716C330.636 823.918 331.025 824.019 331.504 824.019C332.026 824.019 332.443 823.911 332.756 823.695C333.068 823.474 333.225 823.206 333.225 822.89C333.225 822.635 333.129 822.42 332.937 822.246C332.749 822.072 332.459 821.94 332.069 821.852L330.684 821.548C329.92 821.374 329.356 821.097 328.99 820.717C328.628 820.337 328.447 819.856 328.447 819.273C328.447 818.79 328.582 818.368 328.852 818.006C329.121 817.643 329.494 817.361 329.97 817.159C330.446 816.953 330.991 816.85 331.605 816.85C332.49 816.85 333.186 817.042 333.693 817.425C334.201 817.805 334.537 818.315 334.7 818.954ZM338.992 825.319C338.474 825.319 338.005 825.223 337.586 825.032C337.167 824.836 336.835 824.554 336.59 824.185C336.348 823.815 336.228 823.363 336.228 822.826C336.228 822.365 336.316 821.985 336.494 821.686C336.672 821.388 336.911 821.152 337.213 820.978C337.515 820.804 337.852 820.673 338.225 820.584C338.598 820.495 338.978 820.428 339.365 820.381C339.855 820.325 340.253 820.278 340.558 820.243C340.864 820.204 341.086 820.142 341.224 820.056C341.363 819.971 341.432 819.833 341.432 819.641V819.604C341.432 819.138 341.3 818.778 341.038 818.522C340.778 818.267 340.391 818.139 339.876 818.139C339.34 818.139 338.918 818.258 338.609 818.496C338.303 818.73 338.092 818.991 337.975 819.279L336.478 818.938C336.656 818.441 336.915 818.039 337.256 817.734C337.6 817.425 337.996 817.201 338.444 817.063C338.891 816.921 339.362 816.85 339.855 816.85C340.182 816.85 340.528 816.889 340.894 816.967C341.263 817.042 341.608 817.18 341.927 817.382C342.25 817.585 342.515 817.874 342.721 818.251C342.927 818.624 343.03 819.108 343.03 819.705V825.138H341.474V824.019H341.411C341.308 824.225 341.153 824.428 340.947 824.627C340.741 824.826 340.477 824.991 340.153 825.122C339.83 825.254 339.443 825.319 338.992 825.319ZM339.338 824.041C339.779 824.041 340.155 823.954 340.468 823.78C340.784 823.606 341.023 823.379 341.187 823.098C341.354 822.814 341.437 822.51 341.437 822.187V821.132C341.38 821.189 341.27 821.242 341.107 821.292C340.947 821.338 340.764 821.379 340.558 821.415C340.352 821.447 340.152 821.477 339.956 821.505C339.761 821.53 339.598 821.551 339.466 821.569C339.157 821.608 338.875 821.674 338.619 821.766C338.367 821.859 338.165 821.992 338.012 822.166C337.863 822.336 337.788 822.564 337.788 822.848C337.788 823.242 337.934 823.54 338.225 823.742C338.516 823.941 338.887 824.041 339.338 824.041ZM348.582 828.377C347.932 828.377 347.372 828.292 346.904 828.121C346.439 827.951 346.059 827.725 345.764 827.445C345.469 827.164 345.249 826.857 345.103 826.523L346.472 825.958C346.568 826.115 346.696 826.28 346.856 826.454C347.019 826.631 347.239 826.782 347.516 826.907C347.797 827.031 348.157 827.093 348.598 827.093C349.201 827.093 349.7 826.946 350.094 826.651C350.489 826.36 350.686 825.894 350.686 825.255V823.647H350.584C350.489 823.821 350.35 824.014 350.169 824.227C349.991 824.44 349.746 824.625 349.434 824.781C349.121 824.937 348.715 825.016 348.214 825.016C347.568 825.016 346.985 824.865 346.467 824.563C345.952 824.257 345.544 823.808 345.242 823.215C344.943 822.619 344.794 821.885 344.794 821.015C344.794 820.145 344.942 819.399 345.236 818.778C345.535 818.157 345.943 817.681 346.462 817.35C346.98 817.017 347.568 816.85 348.225 816.85C348.733 816.85 349.143 816.935 349.455 817.105C349.768 817.272 350.011 817.468 350.185 817.691C350.363 817.915 350.499 818.112 350.595 818.283H350.712V816.956H352.273V825.319C352.273 826.022 352.11 826.599 351.783 827.05C351.456 827.501 351.014 827.835 350.457 828.052C349.903 828.268 349.278 828.377 348.582 828.377ZM348.566 823.695C349.024 823.695 349.411 823.588 349.727 823.375C350.046 823.158 350.288 822.849 350.451 822.448C350.618 822.043 350.702 821.559 350.702 820.994C350.702 820.443 350.62 819.959 350.457 819.54C350.293 819.121 350.054 818.794 349.738 818.56C349.421 818.322 349.031 818.203 348.566 818.203C348.086 818.203 347.687 818.327 347.367 818.576C347.048 818.821 346.806 819.154 346.643 819.577C346.483 820 346.403 820.472 346.403 820.994C346.403 821.53 346.485 822.001 346.648 822.405C346.811 822.81 347.053 823.126 347.372 823.354C347.696 823.581 348.093 823.695 348.566 823.695ZM357.935 825.303C357.129 825.303 356.435 825.131 355.853 824.787C355.274 824.439 354.826 823.95 354.51 823.322C354.198 822.69 354.042 821.949 354.042 821.1C354.042 820.262 354.198 819.524 354.51 818.885C354.826 818.245 355.267 817.746 355.831 817.388C356.399 817.029 357.064 816.85 357.823 816.85C358.285 816.85 358.733 816.926 359.166 817.079C359.599 817.231 359.988 817.471 360.332 817.798C360.677 818.125 360.948 818.549 361.147 819.071C361.346 819.589 361.446 820.22 361.446 820.962V821.527H354.942V820.333H359.885C359.885 819.914 359.8 819.543 359.629 819.22C359.459 818.893 359.219 818.636 358.91 818.448C358.605 818.26 358.246 818.165 357.834 818.165C357.387 818.165 356.996 818.276 356.662 818.496C356.332 818.712 356.076 818.996 355.895 819.348C355.718 819.696 355.629 820.074 355.629 820.483V821.415C355.629 821.962 355.725 822.427 355.917 822.81C356.112 823.194 356.383 823.487 356.731 823.689C357.08 823.888 357.486 823.988 357.951 823.988C358.253 823.988 358.528 823.945 358.777 823.86C359.026 823.771 359.24 823.64 359.421 823.466C359.603 823.292 359.741 823.077 359.837 822.821L361.344 823.093C361.224 823.537 361.007 823.925 360.695 824.259C360.386 824.589 359.997 824.847 359.528 825.032C359.063 825.213 358.532 825.303 357.935 825.303Z" fill="#1E1E1E"/>
<rect x="335.473" y="759.399" width="22.2441" height="23.3168" rx="11.122" fill="#FF2C20"/>
<path d="M346.559 778.256C345.498 778.256 344.554 778.074 343.725 777.71C342.901 777.34 342.25 776.834 341.772 776.19C341.299 775.541 341.055 774.793 341.041 773.945H344.137C344.156 774.3 344.272 774.613 344.485 774.883C344.703 775.148 344.992 775.354 345.352 775.501C345.712 775.648 346.116 775.721 346.566 775.721C347.035 775.721 347.449 775.638 347.809 775.472C348.169 775.307 348.451 775.077 348.654 774.783C348.858 774.49 348.96 774.151 348.96 773.768C348.96 773.38 348.851 773.036 348.633 772.738C348.42 772.435 348.112 772.198 347.71 772.028C347.312 771.857 346.838 771.772 346.289 771.772H344.933V769.514H346.289C346.753 769.514 347.163 769.433 347.518 769.272C347.878 769.111 348.157 768.889 348.356 768.604C348.555 768.316 348.654 767.979 348.654 767.596C348.654 767.231 348.567 766.912 348.391 766.637C348.221 766.358 347.98 766.14 347.667 765.984C347.359 765.827 346.999 765.749 346.587 765.749C346.171 765.749 345.79 765.825 345.444 765.977C345.098 766.123 344.821 766.334 344.613 766.609C344.405 766.883 344.293 767.205 344.279 767.575H341.332C341.346 766.737 341.585 765.998 342.049 765.359C342.513 764.719 343.138 764.22 343.924 763.86C344.715 763.496 345.607 763.313 346.602 763.313C347.605 763.313 348.484 763.496 349.237 763.86C349.989 764.225 350.574 764.717 350.991 765.337C351.412 765.953 351.621 766.644 351.616 767.411C351.621 768.226 351.367 768.905 350.856 769.45C350.349 769.994 349.689 770.34 348.874 770.487V770.6C349.944 770.737 350.759 771.109 351.318 771.715C351.881 772.317 352.16 773.069 352.156 773.974C352.16 774.802 351.921 775.539 351.438 776.183C350.96 776.826 350.3 777.333 349.457 777.702C348.614 778.072 347.648 778.256 346.559 778.256Z" fill="white"/>
<rect x="335.473" y="759.399" width="22.2441" height="23.3168" rx="11.122" stroke="white" stroke-width="2"/>
<path d="M63.5341 206.364V218H61.7727V208.125H61.7045L58.9205 209.943V208.261L61.8239 206.364H63.5341ZM66.6818 218V216.727L70.6193 212.648C71.0398 212.205 71.3864 211.816 71.6591 211.483C71.9356 211.146 72.142 210.826 72.2784 210.523C72.4148 210.22 72.483 209.898 72.483 209.557C72.483 209.17 72.392 208.837 72.2102 208.557C72.0284 208.273 71.7803 208.055 71.4659 207.903C71.1515 207.748 70.7973 207.67 70.4034 207.67C69.9867 207.67 69.6231 207.756 69.3125 207.926C69.0019 208.097 68.7633 208.337 68.5966 208.648C68.4299 208.958 68.3466 209.322 68.3466 209.739H66.6705C66.6705 209.03 66.8333 208.411 67.1591 207.881C67.4848 207.35 67.9318 206.939 68.5 206.648C69.0682 206.352 69.714 206.205 70.4375 206.205C71.1686 206.205 71.8125 206.35 72.3693 206.642C72.9299 206.93 73.3674 207.324 73.6818 207.824C73.9962 208.32 74.1534 208.881 74.1534 209.506C74.1534 209.938 74.072 210.36 73.9091 210.773C73.75 211.186 73.4716 211.646 73.0739 212.153C72.6761 212.657 72.1231 213.269 71.4148 213.989L69.1023 216.409V216.494H74.3409V218H66.6818ZM78.191 205.648H88.671V219.04H87.407V206.864H79.423V219.104H78.191V205.648ZM79.007 211.2H87.935V212.384H79.007V211.2ZM78.991 216.864H87.967V218.064H78.991V216.864ZM93.0114 213.17C93.0114 211.746 93.1989 210.436 93.5739 209.239C93.9489 208.042 94.4962 206.937 95.2159 205.926H96.7727C96.4924 206.301 96.2311 206.761 95.9886 207.307C95.7462 207.852 95.5341 208.451 95.3523 209.102C95.1705 209.75 95.0284 210.422 94.9261 211.119C94.8239 211.812 94.7727 212.496 94.7727 213.17C94.7727 214.072 94.8617 214.985 95.0398 215.909C95.2178 216.833 95.4583 217.691 95.7614 218.483C96.0644 219.275 96.4015 219.92 96.7727 220.42H95.2159C94.4962 219.409 93.9489 218.305 93.5739 217.108C93.1989 215.911 93.0114 214.598 93.0114 213.17ZM101.47 205.408H109.822V206.576H101.47V205.408ZM101.47 209.264H109.886V210.416H101.47V209.264ZM101.342 213.136H109.806V214.288H101.342V213.136ZM100.734 205.408H101.95V210.352C101.95 213.12 101.55 216.896 98.7979 219.296C98.6219 219.04 98.1419 218.608 97.8859 218.432C100.462 216.176 100.734 212.928 100.734 210.352V205.408ZM109.294 205.408H110.542V217.52C110.542 218.368 110.318 218.784 109.71 218.992C109.086 219.2 108.03 219.216 106.302 219.216C106.222 218.864 105.998 218.288 105.79 217.952C107.118 218 108.43 217.984 108.798 217.984C109.166 217.968 109.294 217.856 109.294 217.504V205.408ZM117.831 212.182C117.831 213.61 117.643 214.922 117.268 216.119C116.893 217.316 116.346 218.42 115.626 219.432H114.07C114.35 219.057 114.611 218.597 114.854 218.051C115.096 217.506 115.308 216.909 115.49 216.261C115.672 215.61 115.814 214.936 115.916 214.239C116.018 213.542 116.07 212.856 116.07 212.182C116.07 211.284 115.981 210.373 115.803 209.449C115.625 208.525 115.384 207.667 115.081 206.875C114.778 206.083 114.441 205.438 114.07 204.938H115.626C116.346 205.949 116.893 207.053 117.268 208.25C117.643 209.447 117.831 210.758 117.831 212.182ZM129.237 206.364V218H127.476V208.125H127.408L124.624 209.943V208.261L127.527 206.364H129.237ZM136.436 218.159C135.656 218.159 134.959 218.025 134.345 217.756C133.735 217.487 133.252 217.114 132.896 216.636C132.544 216.155 132.355 215.598 132.328 214.966H134.112C134.135 215.311 134.25 215.61 134.459 215.864C134.671 216.114 134.947 216.307 135.288 216.443C135.629 216.58 136.008 216.648 136.425 216.648C136.883 216.648 137.288 216.568 137.641 216.409C137.997 216.25 138.275 216.028 138.476 215.744C138.677 215.456 138.777 215.125 138.777 214.75C138.777 214.36 138.677 214.017 138.476 213.722C138.279 213.422 137.989 213.187 137.607 213.017C137.228 212.847 136.769 212.761 136.232 212.761H135.249V211.33H136.232C136.663 211.33 137.042 211.252 137.368 211.097C137.697 210.941 137.955 210.725 138.141 210.449C138.326 210.169 138.419 209.841 138.419 209.466C138.419 209.106 138.338 208.794 138.175 208.528C138.016 208.259 137.788 208.049 137.493 207.898C137.201 207.746 136.857 207.67 136.459 207.67C136.08 207.67 135.726 207.741 135.396 207.881C135.071 208.017 134.805 208.214 134.601 208.472C134.396 208.725 134.286 209.03 134.271 209.386H132.572C132.591 208.758 132.777 208.205 133.129 207.727C133.485 207.25 133.955 206.877 134.538 206.608C135.122 206.339 135.769 206.205 136.482 206.205C137.228 206.205 137.872 206.35 138.413 206.642C138.959 206.93 139.379 207.314 139.675 207.795C139.974 208.277 140.122 208.803 140.118 209.375C140.122 210.027 139.94 210.58 139.572 211.034C139.209 211.489 138.724 211.794 138.118 211.949V212.04C138.891 212.157 139.489 212.464 139.913 212.96C140.341 213.456 140.554 214.072 140.55 214.807C140.554 215.447 140.375 216.021 140.016 216.528C139.66 217.036 139.173 217.436 138.555 217.727C137.938 218.015 137.232 218.159 136.436 218.159ZM143.839 216.557C143.529 216.557 143.262 216.447 143.038 216.227C142.815 216.004 142.703 215.735 142.703 215.42C142.703 215.11 142.815 214.845 143.038 214.625C143.262 214.402 143.529 214.29 143.839 214.29C144.15 214.29 144.417 214.402 144.641 214.625C144.864 214.845 144.976 215.11 144.976 215.42C144.976 215.629 144.923 215.82 144.817 215.994C144.714 216.165 144.578 216.301 144.408 216.403C144.237 216.506 144.048 216.557 143.839 216.557ZM143.839 210.727C143.529 210.727 143.262 210.617 143.038 210.398C142.815 210.174 142.703 209.905 142.703 209.591C142.703 209.28 142.815 209.015 143.038 208.795C143.262 208.572 143.529 208.46 143.839 208.46C144.15 208.46 144.417 208.572 144.641 208.795C144.864 209.015 144.976 209.28 144.976 209.591C144.976 209.799 144.923 209.991 144.817 210.165C144.714 210.335 144.578 210.472 144.408 210.574C144.237 210.676 144.048 210.727 143.839 210.727ZM151.28 218.193C150.382 218.189 149.615 217.953 148.979 217.483C148.342 217.013 147.856 216.33 147.518 215.432C147.181 214.534 147.013 213.453 147.013 212.188C147.013 210.926 147.181 209.848 147.518 208.955C147.859 208.061 148.348 207.379 148.984 206.909C149.625 206.439 150.39 206.205 151.28 206.205C152.17 206.205 152.933 206.441 153.57 206.915C154.206 207.384 154.693 208.066 155.03 208.96C155.371 209.85 155.541 210.926 155.541 212.188C155.541 213.456 155.373 214.54 155.036 215.438C154.698 216.331 154.212 217.015 153.575 217.489C152.939 217.958 152.174 218.193 151.28 218.193ZM151.28 216.676C152.068 216.676 152.683 216.292 153.126 215.523C153.573 214.754 153.797 213.642 153.797 212.188C153.797 211.222 153.695 210.405 153.49 209.739C153.289 209.068 153 208.561 152.621 208.216C152.246 207.867 151.799 207.693 151.28 207.693C150.496 207.693 149.88 208.08 149.433 208.852C148.986 209.625 148.761 210.737 148.757 212.188C148.757 213.157 148.857 213.977 149.058 214.648C149.263 215.314 149.553 215.82 149.928 216.165C150.303 216.506 150.753 216.676 151.28 216.676ZM161.608 218.193C160.71 218.189 159.943 217.953 159.307 217.483C158.67 217.013 158.184 216.33 157.847 215.432C157.509 214.534 157.341 213.453 157.341 212.188C157.341 210.926 157.509 209.848 157.847 208.955C158.188 208.061 158.676 207.379 159.312 206.909C159.953 206.439 160.718 206.205 161.608 206.205C162.498 206.205 163.261 206.441 163.898 206.915C164.534 207.384 165.021 208.066 165.358 208.96C165.699 209.85 165.869 210.926 165.869 212.188C165.869 213.456 165.701 214.54 165.364 215.438C165.027 216.331 164.54 217.015 163.903 217.489C163.267 217.958 162.502 218.193 161.608 218.193ZM161.608 216.676C162.396 216.676 163.011 216.292 163.455 215.523C163.902 214.754 164.125 213.642 164.125 212.188C164.125 211.222 164.023 210.405 163.818 209.739C163.617 209.068 163.328 208.561 162.949 208.216C162.574 207.867 162.127 207.693 161.608 207.693C160.824 207.693 160.208 208.08 159.761 208.852C159.314 209.625 159.089 210.737 159.085 212.188C159.085 213.157 159.186 213.977 159.386 214.648C159.591 215.314 159.881 215.82 160.256 216.165C160.631 216.506 161.081 216.676 161.608 216.676ZM189.262 212.816H197.902V213.904H189.262V212.816ZM194.526 213.44C195.358 214.992 196.926 216.704 198.302 217.536C198.03 217.76 197.646 218.16 197.454 218.464C196.094 217.44 194.526 215.52 193.646 213.776L194.526 213.44ZM190.942 208.832V210.496H196.286V208.832H190.942ZM190.942 206.224V207.856H196.286V206.224H190.942ZM189.854 205.232H197.422V211.488H189.854V205.232ZM192.702 213.36L193.614 213.696C192.734 215.648 191.118 217.584 189.534 218.56C189.358 218.288 188.99 217.872 188.734 217.648C190.286 216.816 191.886 215.072 192.702 213.36ZM193.054 205.744H194.11V211.008H194.174V219.28H193.006V211.008H193.054V205.744ZM184.094 209.408H188.638V210.368H184.094V209.408ZM184.158 205.136H188.574V206.096H184.158V205.136ZM184.094 211.552H188.638V212.512H184.094V211.552ZM183.374 207.232H189.054V208.224H183.374V207.232ZM184.622 213.712H188.638V218.384H184.622V217.376H187.598V214.704H184.622V213.712ZM184.078 213.712H185.102V219.12H184.078V213.712ZM201.518 208.16V209.376H204.638V208.16H201.518ZM201.518 206.112V207.312H204.638V206.112H201.518ZM200.446 205.248H205.758V210.272H200.446V205.248ZM199.486 211.456H206.702V212.384H199.486V211.456ZM206.606 205.36H213.902V206.256H206.606V205.36ZM202.686 211.744H203.71V217.84L202.686 217.2V211.744ZM203.23 214.112H206.43V215.024H203.23V214.112ZM209.774 205.584L210.91 205.808C210.606 206.624 210.286 207.536 209.998 208.128L209.102 207.92C209.358 207.264 209.63 206.272 209.774 205.584ZM208.318 210.432V211.632H212.142V210.432H208.318ZM208.318 212.464V213.696H212.142V212.464H208.318ZM208.318 208.384V209.568H212.142V208.384H208.318ZM207.23 207.504H213.262V214.576H207.23V207.504ZM208.558 214.864L209.582 215.168C208.878 216.064 207.71 216.976 206.718 217.52C206.542 217.344 206.142 216.96 205.918 216.784C206.91 216.32 207.95 215.6 208.558 214.864ZM200.606 213.264H201.614C201.518 215.568 201.198 217.968 200.062 219.328C199.902 219.088 199.55 218.736 199.294 218.56C200.27 217.392 200.526 215.232 200.606 213.264ZM201.358 214.832C202.494 217.584 204.99 217.936 208.59 217.936C209.31 217.936 213.278 217.936 214.222 217.904C214.046 218.16 213.854 218.624 213.79 218.944H208.59C204.51 218.944 201.934 218.416 200.606 215.104L201.358 214.832ZM210.798 215.296L211.614 214.832C212.542 215.392 213.598 216.288 214.126 216.896L213.246 217.456C212.734 216.816 211.662 215.888 210.798 215.296ZM224.878 204.56H226.062V206.656H224.878V204.56ZM224.91 210.64H226.014V219.264H224.91V210.64ZM227.23 206.784L228.446 207.04C228.078 207.904 227.678 208.832 227.326 209.44L226.286 209.184C226.606 208.528 227.022 207.488 227.23 206.784ZM222.702 207.12L223.742 206.864C224.094 207.568 224.398 208.528 224.51 209.136L223.422 209.44C223.326 208.816 223.022 207.84 222.702 207.12ZM221.182 206.048H229.806V207.072H221.182V206.048ZM221.07 209.088H229.982V211.856H228.862V210.096H222.158V211.856H221.07V209.088ZM221.95 212.144H228.558V213.152H223.006V217.712H221.95V212.144ZM228.078 212.144H229.134V216.448C229.134 216.96 229.054 217.28 228.686 217.472C228.334 217.664 227.79 217.664 226.974 217.664C226.942 217.36 226.782 216.912 226.638 216.624C227.23 216.64 227.71 216.64 227.87 216.624C228.03 216.624 228.078 216.576 228.078 216.432V212.144ZM217.902 204.576L218.926 204.96C218.35 206.144 217.598 207.584 217.006 208.48L216.206 208.128C216.766 207.2 217.502 205.632 217.902 204.576ZM219.598 206.4L220.59 206.848C219.534 208.624 218.062 210.896 216.91 212.272L216.19 211.888C217.326 210.464 218.766 208.08 219.598 206.4ZM215.342 207.888L215.982 207.12C216.83 207.904 217.806 208.992 218.222 209.712L217.55 210.592C217.15 209.824 216.19 208.688 215.342 207.888ZM218.99 210.016L219.838 209.696C220.446 210.752 221.038 212.16 221.198 213.056L220.302 213.44C220.126 212.544 219.582 211.104 218.99 210.016ZM215.214 211.648C216.542 211.584 218.446 211.488 220.366 211.376V212.4C218.542 212.528 216.718 212.624 215.326 212.72L215.214 211.648ZM219.294 213.904L220.142 213.664C220.526 214.576 220.862 215.792 220.942 216.576L220.046 216.848C219.966 216.048 219.662 214.832 219.294 213.904ZM216.174 213.712L217.166 213.888C216.958 215.392 216.574 216.944 216.078 217.968C215.886 217.824 215.422 217.616 215.182 217.52C215.694 216.544 215.998 215.104 216.174 213.712ZM217.79 212.112H218.83V219.28H217.79V212.112ZM241.47 205.616C241.358 206.016 241.262 206.576 241.182 206.88C240.606 209.52 239.486 212.864 238.206 214.624C236.99 216.32 235.822 217.52 234.366 217.52C233.15 217.52 232.126 216.512 232.126 214.64C232.126 212.624 233.358 210.496 235.054 209.36C236.638 208.288 238.206 207.872 239.854 207.872C242.99 207.872 245.262 209.984 245.262 213.104C245.262 216.304 242.974 218.24 239.534 218.72L238.798 217.584C242.142 217.28 243.982 215.536 243.982 213.056C243.982 210.704 242.286 208.976 239.71 208.976C238.158 208.976 236.766 209.504 235.518 210.432C234.158 211.408 233.294 213.12 233.294 214.56C233.294 215.616 233.758 216.256 234.478 216.256C235.518 216.256 236.638 214.896 237.454 213.6C238.51 211.968 239.582 209.04 239.982 206.704C240.046 206.384 240.094 205.856 240.078 205.488L241.47 205.616ZM234.91 206.352C234.99 206.784 235.118 207.312 235.246 207.76C235.662 209.328 236.558 211.792 237.23 212.912C237.774 213.84 238.526 214.896 239.294 215.632L238.286 216.448C237.646 215.744 237.054 214.96 236.446 213.92C235.662 212.672 234.734 210.224 234.126 208.224C233.966 207.712 233.79 207.184 233.582 206.768L234.91 206.352ZM253.166 205.968H261.086V207.12H253.166V205.968ZM260.574 205.968H261.806C261.806 205.968 261.79 206.48 261.79 206.656C261.598 214.864 261.406 217.584 260.798 218.4C260.43 218.896 260.078 219.04 259.534 219.12C259.006 219.184 258.126 219.168 257.278 219.104C257.246 218.752 257.102 218.224 256.894 217.872C257.822 217.952 258.67 217.952 259.022 217.952C259.326 217.968 259.486 217.904 259.662 217.68C260.174 217.072 260.398 214.192 260.574 206.288V205.968ZM247.214 209.712L253.982 208.288L254.19 209.36L247.438 210.816L247.214 209.712ZM249.166 205.024H250.35V214.432C250.35 215.008 250.414 215.088 250.846 215.088C251.038 215.088 252.014 215.088 252.286 215.088C252.686 215.088 252.75 214.688 252.814 212.8C253.07 213.024 253.55 213.232 253.886 213.328C253.758 215.552 253.47 216.24 252.382 216.24C252.11 216.24 250.91 216.24 250.67 216.24C249.47 216.24 249.166 215.84 249.166 214.416V205.024ZM256.014 206.48H257.198C257.102 211.744 256.91 216.768 252.558 219.344C252.382 219.04 251.998 218.624 251.694 218.4C255.838 216.096 255.918 211.36 256.014 206.48ZM268.174 205.376C267.838 206.56 267.534 208.72 267.438 209.84C268.094 208.192 269.758 206.192 271.79 206.192C273.902 206.192 275.438 208.336 275.438 211.696C275.438 216.128 272.638 218.096 268.686 218.816L267.918 217.664C271.406 217.136 274.11 215.728 274.11 211.712C274.11 209.184 273.262 207.36 271.582 207.36C269.582 207.36 267.726 210.272 267.534 212.368C267.454 212.976 267.454 213.536 267.566 214.336L266.318 214.432C266.238 213.824 266.158 212.928 266.158 211.888C266.158 210.368 266.462 208.016 266.654 206.704C266.718 206.224 266.75 205.776 266.782 205.328L268.174 205.376Z" fill="black"/>
<line x1="26" y1="264.5" x2="369" y2="264.5" stroke="#E8E8E8"/>
<line x1="26" y1="362.5" x2="369" y2="362.5" stroke="#E8E8E8"/>
<path d="M63.5341 292.364V304H61.7727V294.125H61.7045L58.9205 295.943V294.261L61.8239 292.364H63.5341ZM70.5227 304.159C69.8106 304.159 69.1705 304.023 68.6023 303.75C68.0379 303.473 67.5871 303.095 67.25 302.614C66.9129 302.133 66.733 301.583 66.7102 300.966H68.4148C68.4564 301.466 68.678 301.877 69.0795 302.199C69.4811 302.521 69.9621 302.682 70.5227 302.682C70.9697 302.682 71.3655 302.58 71.7102 302.375C72.0587 302.167 72.3314 301.881 72.5284 301.517C72.7292 301.153 72.8295 300.739 72.8295 300.273C72.8295 299.799 72.7273 299.377 72.5227 299.006C72.3182 298.634 72.036 298.343 71.6761 298.131C71.3201 297.919 70.911 297.811 70.4489 297.807C70.0966 297.807 69.7424 297.867 69.3864 297.989C69.0303 298.11 68.7424 298.269 68.5227 298.466L66.9148 298.227L67.5682 292.364H73.9659V293.869H69.0284L68.6591 297.125H68.7273C68.9545 296.905 69.2557 296.722 69.6307 296.574C70.0095 296.426 70.4148 296.352 70.8466 296.352C71.5549 296.352 72.1856 296.521 72.7386 296.858C73.2955 297.195 73.733 297.655 74.0511 298.239C74.3731 298.818 74.5322 299.485 74.5284 300.239C74.5322 300.992 74.3617 301.665 74.017 302.256C73.6761 302.847 73.2027 303.312 72.5966 303.653C71.9943 303.991 71.303 304.159 70.5227 304.159ZM78.3004 291.648H88.7804V305.04H87.5164V292.864H79.5324V305.104H78.3004V291.648ZM79.1164 297.2H88.0444V298.384H79.1164V297.2ZM79.1004 302.864H88.0764V304.064H79.1004V302.864ZM93.1207 299.17C93.1207 297.746 93.3082 296.436 93.6832 295.239C94.0582 294.042 94.6056 292.937 95.3253 291.926H96.8821C96.6018 292.301 96.3404 292.761 96.098 293.307C95.8556 293.852 95.6435 294.451 95.4616 295.102C95.2798 295.75 95.1378 296.422 95.0355 297.119C94.9332 297.812 94.8821 298.496 94.8821 299.17C94.8821 300.072 94.9711 300.985 95.1491 301.909C95.3272 302.833 95.5677 303.691 95.8707 304.483C96.1738 305.275 96.5109 305.92 96.8821 306.42H95.3253C94.6056 305.409 94.0582 304.305 93.6832 303.108C93.3082 301.911 93.1207 300.598 93.1207 299.17ZM98.5872 294.512H112.475V295.696H98.5872V294.512ZM104.875 290.576H106.139V305.28H104.875V290.576ZM104.603 295.12L105.643 295.472C104.155 298.8 101.563 301.936 98.8753 303.584C98.6513 303.264 98.2513 302.816 97.9633 302.56C100.603 301.136 103.243 298.096 104.603 295.12ZM106.379 295.136C107.771 298.032 110.475 301.072 113.051 302.496C112.747 302.736 112.331 303.216 112.123 303.536C109.515 301.888 106.891 298.704 105.371 295.504L106.379 295.136ZM117.94 298.182C117.94 299.61 117.753 300.922 117.378 302.119C117.003 303.316 116.455 304.42 115.736 305.432H114.179C114.459 305.057 114.721 304.597 114.963 304.051C115.205 303.506 115.418 302.909 115.599 302.261C115.781 301.61 115.923 300.936 116.026 300.239C116.128 299.542 116.179 298.856 116.179 298.182C116.179 297.284 116.09 296.373 115.912 295.449C115.734 294.525 115.493 293.667 115.19 292.875C114.887 292.083 114.55 291.438 114.179 290.938H115.736C116.455 291.949 117.003 293.053 117.378 294.25C117.753 295.447 117.94 296.758 117.94 298.182ZM129.347 292.364V304H127.585V294.125H127.517L124.733 295.943V294.261L127.636 292.364H129.347ZM136.335 304.159C135.623 304.159 134.983 304.023 134.415 303.75C133.85 303.473 133.4 303.095 133.062 302.614C132.725 302.133 132.545 301.583 132.523 300.966H134.227C134.269 301.466 134.491 301.877 134.892 302.199C135.294 302.521 135.775 302.682 136.335 302.682C136.782 302.682 137.178 302.58 137.523 302.375C137.871 302.167 138.144 301.881 138.341 301.517C138.542 301.153 138.642 300.739 138.642 300.273C138.642 299.799 138.54 299.377 138.335 299.006C138.131 298.634 137.848 298.343 137.489 298.131C137.133 297.919 136.723 297.811 136.261 297.807C135.909 297.807 135.555 297.867 135.199 297.989C134.843 298.11 134.555 298.269 134.335 298.466L132.727 298.227L133.381 292.364H139.778V293.869H134.841L134.472 297.125H134.54C134.767 296.905 135.068 296.722 135.443 296.574C135.822 296.426 136.227 296.352 136.659 296.352C137.367 296.352 137.998 296.521 138.551 296.858C139.108 297.195 139.545 297.655 139.864 298.239C140.186 298.818 140.345 299.485 140.341 300.239C140.345 300.992 140.174 301.665 139.83 302.256C139.489 302.847 139.015 303.312 138.409 303.653C137.807 303.991 137.116 304.159 136.335 304.159ZM143.558 302.557C143.248 302.557 142.981 302.447 142.757 302.227C142.534 302.004 142.422 301.735 142.422 301.42C142.422 301.11 142.534 300.845 142.757 300.625C142.981 300.402 143.248 300.29 143.558 300.29C143.869 300.29 144.136 300.402 144.359 300.625C144.583 300.845 144.695 301.11 144.695 301.42C144.695 301.629 144.642 301.82 144.536 301.994C144.433 302.165 144.297 302.301 144.126 302.403C143.956 302.506 143.767 302.557 143.558 302.557ZM143.558 296.727C143.248 296.727 142.981 296.617 142.757 296.398C142.534 296.174 142.422 295.905 142.422 295.591C142.422 295.28 142.534 295.015 142.757 294.795C142.981 294.572 143.248 294.46 143.558 294.46C143.869 294.46 144.136 294.572 144.359 294.795C144.583 295.015 144.695 295.28 144.695 295.591C144.695 295.799 144.642 295.991 144.536 296.165C144.433 296.335 144.297 296.472 144.126 296.574C143.956 296.676 143.767 296.727 143.558 296.727ZM150.999 304.193C150.101 304.189 149.334 303.953 148.697 303.483C148.061 303.013 147.574 302.33 147.237 301.432C146.9 300.534 146.732 299.453 146.732 298.188C146.732 296.926 146.9 295.848 147.237 294.955C147.578 294.061 148.067 293.379 148.703 292.909C149.343 292.439 150.108 292.205 150.999 292.205C151.889 292.205 152.652 292.441 153.288 292.915C153.925 293.384 154.411 294.066 154.749 294.96C155.089 295.85 155.26 296.926 155.26 298.188C155.26 299.456 155.091 300.54 154.754 301.438C154.417 302.331 153.93 303.015 153.294 303.489C152.658 303.958 151.893 304.193 150.999 304.193ZM150.999 302.676C151.786 302.676 152.402 302.292 152.845 301.523C153.292 300.754 153.516 299.642 153.516 298.188C153.516 297.222 153.413 296.405 153.209 295.739C153.008 295.068 152.718 294.561 152.339 294.216C151.964 293.867 151.518 293.693 150.999 293.693C150.214 293.693 149.599 294.08 149.152 294.852C148.705 295.625 148.48 296.737 148.476 298.188C148.476 299.157 148.576 299.977 148.777 300.648C148.982 301.314 149.271 301.82 149.646 302.165C150.021 302.506 150.472 302.676 150.999 302.676ZM161.327 304.193C160.429 304.189 159.662 303.953 159.026 303.483C158.389 303.013 157.902 302.33 157.565 301.432C157.228 300.534 157.06 299.453 157.06 298.188C157.06 296.926 157.228 295.848 157.565 294.955C157.906 294.061 158.395 293.379 159.031 292.909C159.671 292.439 160.437 292.205 161.327 292.205C162.217 292.205 162.98 292.441 163.616 292.915C164.253 293.384 164.74 294.066 165.077 294.96C165.418 295.85 165.588 296.926 165.588 298.188C165.588 299.456 165.42 300.54 165.082 301.438C164.745 302.331 164.259 303.015 163.622 303.489C162.986 303.958 162.221 304.193 161.327 304.193ZM161.327 302.676C162.115 302.676 162.73 302.292 163.173 301.523C163.62 300.754 163.844 299.642 163.844 298.188C163.844 297.222 163.741 296.405 163.537 295.739C163.336 295.068 163.046 294.561 162.668 294.216C162.293 293.867 161.846 293.693 161.327 293.693C160.543 293.693 159.927 294.08 159.48 294.852C159.033 295.625 158.808 296.737 158.804 298.188C158.804 299.157 158.904 299.977 159.105 300.648C159.31 301.314 159.599 301.82 159.974 302.165C160.349 302.506 160.8 302.676 161.327 302.676ZM185.908 292.176C186.372 292.224 186.836 292.256 187.364 292.256C188.292 292.256 192.948 292.256 193.844 292.256C194.292 292.256 194.868 292.224 195.332 292.176V293.504C194.852 293.472 194.292 293.44 193.844 293.44C192.948 293.44 188.292 293.44 187.38 293.44C186.852 293.44 186.324 293.472 185.908 293.504V292.176ZM184.004 296.192C184.436 296.24 184.9 296.256 185.396 296.256C186.324 296.256 195.012 296.256 195.86 296.256C196.196 296.256 196.724 296.24 197.124 296.192V297.504C196.756 297.488 196.26 297.472 195.86 297.472C195.012 297.472 186.324 297.472 185.396 297.472C184.916 297.472 184.436 297.488 184.004 297.52V296.192ZM191.54 296.832C191.54 298.848 191.284 300.512 190.564 301.856C189.988 302.928 188.772 304.064 187.428 304.768L186.244 303.904C187.476 303.376 188.628 302.464 189.252 301.44C190.052 300.176 190.18 298.608 190.196 296.848L191.54 296.832ZM211.268 293.312C211.172 293.44 210.964 293.792 210.884 294C210.244 295.584 209.028 297.824 207.7 299.296C205.908 301.296 203.62 303.2 201.092 304.352L200.068 303.28C202.66 302.288 205.012 300.368 206.66 298.544C207.748 297.312 208.916 295.408 209.332 294.08C208.756 294.08 203.636 294.08 203.092 294.08C202.516 294.08 201.652 294.144 201.476 294.16V292.72C201.684 292.752 202.596 292.816 203.092 292.816C203.716 292.816 208.66 292.816 209.268 292.816C209.78 292.816 210.212 292.768 210.468 292.688L211.268 293.312ZM207.908 298.464C209.636 299.904 211.764 302.144 212.852 303.472L211.748 304.448C210.596 302.928 208.724 300.88 206.996 299.36L207.908 298.464ZM219.86 302.592C219.86 301.696 219.86 294.624 219.86 293.296C219.86 292.832 219.828 292.128 219.748 291.616H221.316C221.252 292.112 221.204 292.8 221.204 293.296C221.204 295.776 221.22 301.84 221.22 302.592C221.22 303.104 221.252 303.968 221.316 304.496H219.764C219.844 303.984 219.86 303.184 219.86 302.592ZM220.916 295.824C223.028 296.432 226.26 297.664 228.036 298.528L227.476 299.888C225.652 298.912 222.66 297.776 220.916 297.232V295.824Z" fill="black"/>
<g clip-path="url(#clip4_5_1484)">
<path d="M352.58 210.034C352.58 209.482 352.361 208.952 351.97 208.561C351.579 208.17 351.049 207.951 350.497 207.951H343.913L344.913 203.19C344.934 203.086 344.945 202.972 344.945 202.857C344.945 202.43 344.767 202.034 344.486 201.753L343.382 200.659L336.528 207.513C336.142 207.899 335.913 208.42 335.913 208.993V219.409C335.913 219.962 336.133 220.492 336.524 220.882C336.914 221.273 337.444 221.493 337.997 221.493H347.372C348.236 221.493 348.976 220.972 349.288 220.222L352.434 212.878C352.528 212.638 352.58 212.388 352.58 212.118V210.034ZM329.663 221.493H333.83V208.993H329.663V221.493Z" fill="black"/>
</g>
<g clip-path="url(#clip5_5_1484)">
<path d="M350.386 296.757C350.386 296.16 350.149 295.588 349.727 295.166C349.306 294.744 348.733 294.507 348.136 294.507H341.026L342.106 289.366C342.129 289.253 342.14 289.129 342.14 289.006C342.14 288.544 341.949 288.117 341.645 287.813L340.453 286.632L333.05 294.034C332.634 294.451 332.386 295.013 332.386 295.632V306.882C332.386 307.479 332.624 308.051 333.045 308.473C333.467 308.895 334.04 309.132 334.636 309.132H344.761C345.695 309.132 346.494 308.569 346.831 307.759L350.229 299.828C350.33 299.569 350.386 299.299 350.386 299.007V296.757ZM325.636 309.132H330.136V295.632H325.636V309.132Z" fill="black"/>
</g>
<rect x="27" y="671" width="343" height="51" rx="25.5" fill="#FFB84E"/>
<path d="M154.957 692.131V690.364H164.241V692.131H160.644V702H158.553V692.131H154.957ZM168.481 702.17C167.629 702.17 166.89 701.983 166.265 701.608C165.64 701.233 165.155 700.708 164.81 700.034C164.469 699.36 164.299 698.572 164.299 697.67C164.299 696.769 164.469 695.979 164.81 695.301C165.155 694.623 165.64 694.097 166.265 693.722C166.89 693.347 167.629 693.159 168.481 693.159C169.333 693.159 170.072 693.347 170.697 693.722C171.322 694.097 171.805 694.623 172.146 695.301C172.49 695.979 172.663 696.769 172.663 697.67C172.663 698.572 172.49 699.36 172.146 700.034C171.805 700.708 171.322 701.233 170.697 701.608C170.072 701.983 169.333 702.17 168.481 702.17ZM168.492 700.523C168.954 700.523 169.341 700.396 169.651 700.142C169.962 699.884 170.193 699.54 170.344 699.108C170.5 698.676 170.577 698.195 170.577 697.665C170.577 697.131 170.5 696.648 170.344 696.216C170.193 695.78 169.962 695.434 169.651 695.176C169.341 694.919 168.954 694.79 168.492 694.79C168.019 694.79 167.625 694.919 167.31 695.176C167 695.434 166.767 695.78 166.612 696.216C166.46 696.648 166.384 697.131 166.384 697.665C166.384 698.195 166.46 698.676 166.612 699.108C166.767 699.54 167 699.884 167.31 700.142C167.625 700.396 168.019 700.523 168.492 700.523ZM178.442 702H174.499V690.364H178.522C179.677 690.364 180.67 690.597 181.499 691.062C182.333 691.525 182.973 692.189 183.42 693.057C183.867 693.924 184.09 694.962 184.09 696.17C184.09 697.383 183.865 698.424 183.414 699.295C182.967 700.167 182.321 700.835 181.477 701.301C180.636 701.767 179.624 702 178.442 702ZM176.607 700.176H178.34C179.151 700.176 179.827 700.028 180.369 699.733C180.91 699.434 181.317 698.989 181.59 698.398C181.863 697.803 181.999 697.061 181.999 696.17C181.999 695.28 181.863 694.542 181.59 693.955C181.317 693.364 180.914 692.922 180.38 692.631C179.85 692.335 179.191 692.188 178.403 692.188H176.607V700.176ZM189.809 702.17C188.957 702.17 188.218 701.983 187.593 701.608C186.968 701.233 186.483 700.708 186.138 700.034C185.798 699.36 185.627 698.572 185.627 697.67C185.627 696.769 185.798 695.979 186.138 695.301C186.483 694.623 186.968 694.097 187.593 693.722C188.218 693.347 188.957 693.159 189.809 693.159C190.661 693.159 191.4 693.347 192.025 693.722C192.65 694.097 193.133 694.623 193.474 695.301C193.818 695.979 193.991 696.769 193.991 697.67C193.991 698.572 193.818 699.36 193.474 700.034C193.133 700.708 192.65 701.233 192.025 701.608C191.4 701.983 190.661 702.17 189.809 702.17ZM189.82 700.523C190.282 700.523 190.669 700.396 190.979 700.142C191.29 699.884 191.521 699.54 191.673 699.108C191.828 698.676 191.906 698.195 191.906 697.665C191.906 697.131 191.828 696.648 191.673 696.216C191.521 695.78 191.29 695.434 190.979 695.176C190.669 694.919 190.282 694.79 189.82 694.79C189.347 694.79 188.953 694.919 188.638 695.176C188.328 695.434 188.095 695.78 187.94 696.216C187.788 696.648 187.712 697.131 187.712 697.665C187.712 698.195 187.788 698.676 187.94 699.108C188.095 699.54 188.328 699.884 188.638 700.142C188.953 700.396 189.347 700.523 189.82 700.523ZM202.456 689.168C202.328 689.76 202.12 690.704 201.672 691.856C201.336 692.64 200.872 693.552 200.424 694.192C200.856 694 201.704 693.888 202.248 693.888C203.576 693.888 204.584 694.672 204.584 696.16C204.584 697.024 204.632 698.768 204.648 699.776H202.728C202.792 699.024 202.824 697.664 202.808 696.8C202.808 695.776 202.168 695.44 201.496 695.44C200.616 695.44 199.608 695.968 199 696.544C198.52 697.024 198.072 697.6 197.528 698.304L195.816 697.024C197.864 695.136 199.096 693.408 199.768 691.648C200.088 690.784 200.296 689.808 200.344 688.992L202.456 689.168ZM196.424 690.656C197.24 690.768 198.424 690.832 199.24 690.832C201.352 690.832 204.248 690.72 206.568 690.304L206.552 692.16C204.296 692.48 201.08 692.624 199.128 692.624C198.472 692.624 197.304 692.592 196.424 692.512V690.656ZM209.096 695.2C208.6 695.344 207.736 695.664 207.192 695.872C206.152 696.272 204.712 696.848 203.208 697.616C201.752 698.368 200.968 699.056 200.968 699.936C200.968 700.816 201.736 701.056 203.288 701.056C204.648 701.056 206.44 700.88 207.848 700.592L207.784 702.656C206.712 702.8 204.76 702.944 203.24 702.944C200.744 702.944 198.872 702.32 198.872 700.256C198.872 698.032 201.16 696.72 203.08 695.76C204.552 694.992 205.56 694.608 206.52 694.16C207.144 693.888 207.704 693.632 208.312 693.328L209.096 695.2ZM215.112 694.656V700.544H213.24V696.432H211.368V694.656H215.112ZM215.112 699.712C215.752 700.768 216.968 701.232 218.632 701.296C220.504 701.376 224.136 701.328 226.296 701.152C226.088 701.6 225.768 702.528 225.688 703.104C223.752 703.2 220.52 703.232 218.6 703.152C216.632 703.072 215.304 702.608 214.264 701.36C213.56 701.984 212.84 702.592 211.976 703.296L211.032 701.296C211.752 700.848 212.616 700.288 213.352 699.712H215.112ZM211.4 689.936L212.824 688.784C213.784 689.456 214.952 690.464 215.512 691.216L213.976 692.48C213.496 691.728 212.344 690.656 211.4 689.936ZM217.496 689.984H224.52V694.512H217.496V692.944H222.648V691.552H217.496V689.984ZM219.592 688.384L221.864 688.672C221.496 689.552 221.112 690.368 220.824 690.944L219 690.608C219.24 689.952 219.48 689.056 219.592 688.384ZM216.568 689.984H218.44V700.368H216.568V689.984ZM217.656 695.584H225.144V700.368H217.656V698.784H223.256V697.168H217.656V695.584ZM236.472 700.144H240.584V702H236.472V700.144ZM227.464 691.28H233.336V693.168H227.464V691.28ZM235.624 690.24H241.448V702.992H239.512V692.096H237.464V703.12H235.624V690.24ZM232.856 691.28H234.712C234.712 691.28 234.712 691.92 234.712 692.16C234.568 699.008 234.456 701.472 233.944 702.224C233.576 702.752 233.24 702.944 232.712 703.04C232.232 703.152 231.512 703.152 230.776 703.12C230.744 702.56 230.536 701.728 230.216 701.184C230.856 701.248 231.432 701.248 231.736 701.248C231.976 701.264 232.12 701.184 232.28 700.96C232.616 700.48 232.744 698.176 232.856 691.712V691.28ZM229.368 688.64H231.256C231.24 694.944 231.176 700.256 228.408 703.44C228.104 702.976 227.464 702.336 226.984 702.032C229.48 699.216 229.352 694.496 229.368 688.64Z" fill="white"/>
<path d="M359.004 221.099C358.476 221.099 358.007 221.011 357.598 220.833C357.191 220.656 356.871 220.413 356.639 220.105C356.409 219.795 356.296 219.443 356.298 219.05C356.296 218.745 356.362 218.464 356.497 218.209C356.632 217.953 356.814 217.74 357.044 217.57C357.276 217.397 357.534 217.287 357.818 217.239V217.19C357.444 217.107 357.141 216.916 356.909 216.618C356.679 216.317 356.566 215.97 356.568 215.577C356.566 215.203 356.67 214.87 356.88 214.576C357.091 214.282 357.38 214.052 357.747 213.884C358.114 213.713 358.533 213.628 359.004 213.628C359.47 213.628 359.886 213.713 360.25 213.884C360.617 214.052 360.906 214.282 361.117 214.576C361.33 214.87 361.437 215.203 361.437 215.577C361.437 215.97 361.319 216.317 361.085 216.618C360.853 216.916 360.553 217.107 360.187 217.19V217.239C360.471 217.287 360.726 217.397 360.954 217.57C361.183 217.74 361.366 217.953 361.5 218.209C361.638 218.464 361.706 218.745 361.706 219.05C361.706 219.443 361.59 219.795 361.358 220.105C361.126 220.413 360.807 220.656 360.4 220.833C359.995 221.011 359.53 221.099 359.004 221.099ZM359.004 220.084C359.276 220.084 359.513 220.038 359.714 219.945C359.915 219.851 360.072 219.718 360.183 219.548C360.294 219.377 360.351 219.181 360.353 218.958C360.351 218.726 360.291 218.521 360.172 218.344C360.056 218.164 359.897 218.023 359.693 217.921C359.492 217.819 359.262 217.768 359.004 217.768C358.744 217.768 358.512 217.819 358.308 217.921C358.104 218.023 357.943 218.164 357.825 218.344C357.709 218.521 357.652 218.726 357.655 218.958C357.652 219.181 357.707 219.377 357.818 219.548C357.929 219.716 358.085 219.847 358.287 219.942C358.49 220.036 358.729 220.084 359.004 220.084ZM359.004 216.771C359.227 216.771 359.423 216.726 359.593 216.636C359.766 216.546 359.902 216.42 360.002 216.259C360.101 216.098 360.152 215.912 360.155 215.702C360.152 215.493 360.102 215.311 360.005 215.155C359.908 214.996 359.773 214.874 359.601 214.789C359.428 214.701 359.229 214.658 359.004 214.658C358.774 214.658 358.572 214.701 358.397 214.789C358.224 214.874 358.089 214.996 357.992 215.155C357.897 215.311 357.851 215.493 357.853 215.702C357.851 215.912 357.898 216.098 357.995 216.259C358.095 216.418 358.231 216.543 358.404 216.636C358.579 216.726 358.779 216.771 359.004 216.771Z" fill="black"/>
<path d="M353.206 310V309.048L355.731 306.573C355.972 306.329 356.173 306.113 356.334 305.923C356.495 305.734 356.616 305.55 356.697 305.373C356.777 305.195 356.817 305.006 356.817 304.805C356.817 304.575 356.765 304.379 356.661 304.215C356.557 304.049 356.414 303.922 356.231 303.832C356.049 303.742 355.842 303.697 355.61 303.697C355.371 303.697 355.161 303.746 354.981 303.846C354.802 303.943 354.662 304.081 354.562 304.261C354.465 304.441 354.417 304.656 354.417 304.904H353.163C353.163 304.442 353.269 304.041 353.479 303.7C353.69 303.359 353.98 303.095 354.349 302.908C354.721 302.721 355.147 302.628 355.628 302.628C356.115 302.628 356.544 302.719 356.913 302.901C357.283 303.084 357.569 303.333 357.773 303.651C357.979 303.968 358.082 304.33 358.082 304.737C358.082 305.009 358.03 305.277 357.925 305.54C357.821 305.803 357.638 306.094 357.375 306.413C357.114 306.733 356.749 307.12 356.278 307.575L355.024 308.849V308.899H358.192V310H353.206ZM362.105 310.138C361.52 310.138 361.018 309.991 360.599 309.695C360.183 309.396 359.862 308.967 359.637 308.406C359.414 307.842 359.303 307.164 359.303 306.371C359.306 305.578 359.418 304.903 359.641 304.347C359.865 303.788 360.186 303.362 360.603 303.068C361.022 302.775 361.523 302.628 362.105 302.628C362.687 302.628 363.188 302.775 363.607 303.068C364.026 303.362 364.347 303.788 364.57 304.347C364.794 304.905 364.907 305.58 364.907 306.371C364.907 307.166 364.794 307.846 364.57 308.409C364.347 308.97 364.026 309.399 363.607 309.695C363.19 309.991 362.69 310.138 362.105 310.138ZM362.105 309.027C362.56 309.027 362.918 308.803 363.181 308.356C363.446 307.906 363.579 307.244 363.579 306.371C363.579 305.793 363.518 305.308 363.398 304.915C363.277 304.522 363.106 304.226 362.886 304.027C362.666 303.826 362.406 303.725 362.105 303.725C361.653 303.725 361.295 303.95 361.033 304.4C360.77 304.847 360.637 305.504 360.635 306.371C360.632 306.951 360.69 307.438 360.809 307.834C360.93 308.229 361.1 308.527 361.32 308.729C361.54 308.928 361.802 309.027 362.105 309.027Z" fill="black"/>
<path d="M45.7778 203H30.2222C29.6329 203 29.0676 203.234 28.6509 203.651C28.2341 204.068 28 204.633 28 205.222V220.778C28 221.367 28.2341 221.932 28.6509 222.349C29.0676 222.766 29.6329 223 30.2222 223H45.7778C46.3671 223 46.9324 222.766 47.3491 222.349C47.7659 221.932 48 221.367 48 220.778V205.222C48 204.633 47.7659 204.068 47.3491 203.651C46.9324 203.234 46.3671 203 45.7778 203ZM45.7778 205.222V220.778H30.2222V205.222H45.7778ZM35.7778 218.556L31.3333 214.111L32.9 212.533L35.7778 215.411L43.1 208.089L44.6667 209.667" fill="black"/>
<path d="M45.7778 289H30.2222C29.6329 289 29.0676 289.234 28.6509 289.651C28.2341 290.068 28 290.633 28 291.222V306.778C28 307.367 28.2341 307.932 28.6509 308.349C29.0676 308.766 29.6329 309 30.2222 309H45.7778C46.3672 309 46.9324 308.766 47.3492 308.349C47.7659 307.932 48 307.367 48 306.778V291.222C48 290.633 47.7659 290.068 47.3492 289.651C46.9324 289.234 46.3672 289 45.7778 289ZM45.7778 291.222V306.778H30.2222V291.222H45.7778Z" fill="black"/>
<path d="M367.368 71.904V71.968L355.528 78.176L354.776 76.736L363.944 71.968V71.92L354.776 67.152L355.528 65.712L367.368 71.904Z" fill="white"/>
<path d="M155.478 62.1818H160.315L166.792 77.9915H167.048L173.525 62.1818H178.362V84H174.569V69.0107H174.367L168.337 83.9361H165.503L159.473 68.9787H159.271V84H155.478V62.1818ZM187.204 84.3303C186.167 84.3303 185.233 84.1456 184.402 83.7763C183.578 83.3999 182.925 82.8459 182.442 82.1143C181.966 81.3828 181.728 80.4808 181.728 79.4084C181.728 78.4851 181.899 77.7216 182.24 77.1179C182.58 76.5142 183.046 76.0312 183.635 75.669C184.225 75.3068 184.889 75.0334 185.627 74.8487C186.373 74.657 187.144 74.5185 187.939 74.4332C188.898 74.3338 189.676 74.245 190.272 74.1669C190.869 74.0817 191.302 73.9538 191.572 73.7834C191.849 73.6058 191.987 73.3324 191.987 72.9631V72.8991C191.987 72.0966 191.749 71.4751 191.274 71.0348C190.798 70.5945 190.112 70.3743 189.218 70.3743C188.273 70.3743 187.524 70.5803 186.97 70.9922C186.423 71.4041 186.053 71.8906 185.862 72.4517L182.261 71.9403C182.545 70.946 183.014 70.1151 183.667 69.4474C184.32 68.7727 185.119 68.2685 186.064 67.9347C187.009 67.5938 188.053 67.4233 189.196 67.4233C189.985 67.4233 190.769 67.5156 191.551 67.7003C192.332 67.8849 193.046 68.1903 193.692 68.6165C194.338 69.0355 194.857 69.6072 195.247 70.3317C195.645 71.0561 195.844 71.9616 195.844 73.0483V84H192.137V81.7521H192.009C191.774 82.2067 191.444 82.6328 191.018 83.0305C190.599 83.4212 190.07 83.7372 189.431 83.9787C188.798 84.2131 188.056 84.3303 187.204 84.3303ZM188.205 81.4964C188.98 81.4964 189.651 81.3437 190.219 81.0384C190.787 80.7259 191.224 80.3139 191.529 79.8026C191.842 79.2912 191.998 78.7337 191.998 78.13V76.2017C191.877 76.3011 191.671 76.3935 191.38 76.4787C191.096 76.5639 190.776 76.6385 190.421 76.7024C190.066 76.7663 189.715 76.8232 189.367 76.8729C189.019 76.9226 188.717 76.9652 188.461 77.0007C187.886 77.0788 187.371 77.2067 186.916 77.3842C186.462 77.5618 186.103 77.8104 185.84 78.13C185.578 78.4425 185.446 78.8473 185.446 79.3445C185.446 80.0547 185.705 80.5909 186.224 80.9531C186.742 81.3153 187.403 81.4964 188.205 81.4964ZM199.722 84V67.6364H203.461V70.3636H203.632C203.93 69.419 204.441 68.6911 205.166 68.1797C205.897 67.6612 206.732 67.402 207.669 67.402C207.882 67.402 208.12 67.4126 208.383 67.4339C208.653 67.4482 208.877 67.473 209.054 67.5085V71.0561C208.891 70.9993 208.632 70.9496 208.276 70.907C207.928 70.8572 207.591 70.8324 207.264 70.8324C206.561 70.8324 205.929 70.9851 205.368 71.2905C204.814 71.5888 204.377 72.0043 204.058 72.5369C203.738 73.0696 203.578 73.6839 203.578 74.38V84H199.722ZM218.08 84.3196C216.447 84.3196 215.044 83.9609 213.872 83.2436C212.707 82.5263 211.809 81.5355 211.177 80.2713C210.552 79 210.239 77.5369 210.239 75.8821C210.239 74.2202 210.559 72.7536 211.198 71.4822C211.837 70.2038 212.739 69.2095 213.904 68.4993C215.076 67.782 216.461 67.4233 218.059 67.4233C219.387 67.4233 220.563 67.6683 221.585 68.1584C222.615 68.6413 223.435 69.3267 224.046 70.2145C224.657 71.0952 225.005 72.125 225.09 73.304H221.404C221.255 72.5156 220.9 71.8587 220.339 71.3331C219.785 70.8004 219.043 70.5341 218.112 70.5341C217.324 70.5341 216.631 70.7472 216.035 71.1733C215.438 71.5923 214.973 72.196 214.639 72.9844C214.313 73.7727 214.149 74.7173 214.149 75.8182C214.149 76.9332 214.313 77.892 214.639 78.6946C214.966 79.4901 215.424 80.1044 216.013 80.5376C216.61 80.9638 217.31 81.1768 218.112 81.1768C218.68 81.1768 219.188 81.0703 219.636 80.8572C220.09 80.6371 220.47 80.321 220.776 79.9091C221.081 79.4972 221.29 78.9964 221.404 78.407H225.09C224.998 79.5646 224.657 80.5909 224.067 81.4858C223.478 82.3736 222.675 83.0696 221.66 83.5739C220.644 84.071 219.451 84.3196 218.08 84.3196ZM232.113 74.4119V84H228.257V62.1818H232.028V70.4169H232.22C232.604 69.4936 233.197 68.7656 233.999 68.233C234.809 67.6932 235.839 67.4233 237.089 67.4233C238.225 67.4233 239.216 67.6612 240.061 68.1371C240.906 68.6129 241.559 69.3089 242.021 70.2251C242.49 71.1413 242.724 72.2599 242.724 73.581V84H238.868V74.1776C238.868 73.0767 238.584 72.2209 238.015 71.6101C237.454 70.9922 236.666 70.6832 235.65 70.6832C234.969 70.6832 234.358 70.8324 233.818 71.1307C233.285 71.4219 232.866 71.8445 232.561 72.3984C232.263 72.9524 232.113 73.6236 232.113 74.4119Z" fill="white"/>
<path d="M40.208 67.152L31.04 71.92V71.968L40.208 76.736L39.456 78.176L27.616 71.968V71.904L39.456 65.712L40.208 67.152Z" fill="white"/>
<path d="M367.368 71.904V71.968L355.528 78.176L354.776 76.736L363.944 71.968V71.92L354.776 67.152L355.528 65.712L367.368 71.904Z" fill="white"/>
<path d="M155.478 62.1818H160.315L166.792 77.9915H167.048L173.525 62.1818H178.362V84H174.569V69.0107H174.367L168.337 83.9361H165.503L159.473 68.9787H159.271V84H155.478V62.1818ZM187.204 84.3303C186.167 84.3303 185.233 84.1456 184.402 83.7763C183.578 83.3999 182.925 82.8459 182.442 82.1143C181.966 81.3828 181.728 80.4808 181.728 79.4084C181.728 78.4851 181.899 77.7216 182.24 77.1179C182.58 76.5142 183.046 76.0312 183.635 75.669C184.225 75.3068 184.889 75.0334 185.627 74.8487C186.373 74.657 187.144 74.5185 187.939 74.4332C188.898 74.3338 189.676 74.245 190.272 74.1669C190.869 74.0817 191.302 73.9538 191.572 73.7834C191.849 73.6058 191.987 73.3324 191.987 72.9631V72.8991C191.987 72.0966 191.749 71.4751 191.274 71.0348C190.798 70.5945 190.112 70.3743 189.218 70.3743C188.273 70.3743 187.524 70.5803 186.97 70.9922C186.423 71.4041 186.053 71.8906 185.862 72.4517L182.261 71.9403C182.545 70.946 183.014 70.1151 183.667 69.4474C184.32 68.7727 185.119 68.2685 186.064 67.9347C187.009 67.5938 188.053 67.4233 189.196 67.4233C189.985 67.4233 190.769 67.5156 191.551 67.7003C192.332 67.8849 193.046 68.1903 193.692 68.6165C194.338 69.0355 194.857 69.6072 195.247 70.3317C195.645 71.0561 195.844 71.9616 195.844 73.0483V84H192.137V81.7521H192.009C191.774 82.2067 191.444 82.6328 191.018 83.0305C190.599 83.4212 190.07 83.7372 189.431 83.9787C188.798 84.2131 188.056 84.3303 187.204 84.3303ZM188.205 81.4964C188.98 81.4964 189.651 81.3437 190.219 81.0384C190.787 80.7259 191.224 80.3139 191.529 79.8026C191.842 79.2912 191.998 78.7337 191.998 78.13V76.2017C191.877 76.3011 191.671 76.3935 191.38 76.4787C191.096 76.5639 190.776 76.6385 190.421 76.7024C190.066 76.7663 189.715 76.8232 189.367 76.8729C189.019 76.9226 188.717 76.9652 188.461 77.0007C187.886 77.0788 187.371 77.2067 186.916 77.3842C186.462 77.5618 186.103 77.8104 185.84 78.13C185.578 78.4425 185.446 78.8473 185.446 79.3445C185.446 80.0547 185.705 80.5909 186.224 80.9531C186.742 81.3153 187.403 81.4964 188.205 81.4964ZM199.722 84V67.6364H203.461V70.3636H203.632C203.93 69.419 204.441 68.6911 205.166 68.1797C205.897 67.6612 206.732 67.402 207.669 67.402C207.882 67.402 208.12 67.4126 208.383 67.4339C208.653 67.4482 208.877 67.473 209.054 67.5085V71.0561C208.891 70.9993 208.632 70.9496 208.276 70.907C207.928 70.8572 207.591 70.8324 207.264 70.8324C206.561 70.8324 205.929 70.9851 205.368 71.2905C204.814 71.5888 204.377 72.0043 204.058 72.5369C203.738 73.0696 203.578 73.6839 203.578 74.38V84H199.722ZM218.08 84.3196C216.447 84.3196 215.044 83.9609 213.872 83.2436C212.707 82.5263 211.809 81.5355 211.177 80.2713C210.552 79 210.239 77.5369 210.239 75.8821C210.239 74.2202 210.559 72.7536 211.198 71.4822C211.837 70.2038 212.739 69.2095 213.904 68.4993C215.076 67.782 216.461 67.4233 218.059 67.4233C219.387 67.4233 220.563 67.6683 221.585 68.1584C222.615 68.6413 223.435 69.3267 224.046 70.2145C224.657 71.0952 225.005 72.125 225.09 73.304H221.404C221.255 72.5156 220.9 71.8587 220.339 71.3331C219.785 70.8004 219.043 70.5341 218.112 70.5341C217.324 70.5341 216.631 70.7472 216.035 71.1733C215.438 71.5923 214.973 72.196 214.639 72.9844C214.313 73.7727 214.149 74.7173 214.149 75.8182C214.149 76.9332 214.313 77.892 214.639 78.6946C214.966 79.4901 215.424 80.1044 216.013 80.5376C216.61 80.9638 217.31 81.1768 218.112 81.1768C218.68 81.1768 219.188 81.0703 219.636 80.8572C220.09 80.6371 220.47 80.321 220.776 79.9091C221.081 79.4972 221.29 78.9964 221.404 78.407H225.09C224.998 79.5646 224.657 80.5909 224.067 81.4858C223.478 82.3736 222.675 83.0696 221.66 83.5739C220.644 84.071 219.451 84.3196 218.08 84.3196ZM232.113 74.4119V84H228.257V62.1818H232.028V70.4169H232.22C232.604 69.4936 233.197 68.7656 233.999 68.233C234.809 67.6932 235.839 67.4233 237.089 67.4233C238.225 67.4233 239.216 67.6612 240.061 68.1371C240.906 68.6129 241.559 69.3089 242.021 70.2251C242.49 71.1413 242.724 72.2599 242.724 73.581V84H238.868V74.1776C238.868 73.0767 238.584 72.2209 238.015 71.6101C237.454 70.9922 236.666 70.6832 235.65 70.6832C234.969 70.6832 234.358 70.8324 233.818 71.1307C233.285 71.4219 232.866 71.8445 232.561 72.3984C232.263 72.9524 232.113 73.6236 232.113 74.4119Z" fill="white"/>
<path d="M40.208 67.152L31.04 71.92V71.968L40.208 76.736L39.456 78.176L27.616 71.968V71.904L39.456 65.712L40.208 67.152Z" fill="white"/>
<rect x="181" y="231" width="99" height="21" rx="10.5" fill="#F7E330"/>
<path d="M202.372 236.98C202.828 237.028 203.44 237.064 203.86 237.064H209.908C210.256 237.064 210.748 237.04 210.952 237.028C210.94 237.316 210.916 237.784 210.916 238.144V244.36C210.916 244.78 210.952 245.404 210.976 245.776H209.236C209.248 245.416 209.26 244.984 209.26 244.54V238.612H203.86C203.356 238.612 202.708 238.636 202.372 238.66V236.98ZM202.228 243.496C202.636 243.532 203.176 243.568 203.716 243.568H210.208V245.152H203.764C203.296 245.152 202.624 245.176 202.228 245.224V243.496ZM215.392 236.38C216.22 236.944 217.78 238.192 218.488 238.924L217.264 240.172C216.64 239.5 215.128 238.192 214.252 237.592L215.392 236.38ZM213.88 244.372C215.764 244.108 217.312 243.496 218.476 242.812C220.528 241.588 222.088 239.764 222.856 238.144L223.78 239.824C222.88 241.456 221.284 243.112 219.352 244.276C218.128 245.008 216.58 245.668 214.9 245.956L213.88 244.372ZM234.112 236.872C234.112 237.256 234.424 237.568 234.808 237.568C235.18 237.568 235.492 237.256 235.492 236.872C235.492 236.488 235.18 236.176 234.808 236.176C234.424 236.176 234.112 236.488 234.112 236.872ZM233.368 236.872C233.368 236.08 234.016 235.432 234.808 235.432C235.588 235.432 236.236 236.08 236.236 236.872C236.236 237.664 235.588 238.312 234.808 238.312C234.016 238.312 233.368 237.664 233.368 236.872ZM226.804 241.768C227.332 240.436 227.788 238.744 227.944 237.208L229.684 237.58C229.588 237.916 229.444 238.504 229.396 238.78C229.228 239.62 228.796 241.264 228.376 242.38C227.944 243.544 227.236 244.912 226.612 245.812L224.932 245.104C225.676 244.12 226.384 242.836 226.804 241.768ZM232.72 241.528C232.264 240.268 231.496 238.492 230.98 237.58L232.576 237.064C233.08 237.988 233.896 239.836 234.352 240.988C234.784 242.08 235.42 243.988 235.744 245.176L233.968 245.752C233.644 244.336 233.2 242.824 232.72 241.528ZM237.244 240.844C239.392 240.292 241.144 239.512 242.488 238.684C243.712 237.928 245.08 236.728 245.86 235.78L247.156 237.004C246.064 238.108 244.6 239.236 243.184 240.088C241.828 240.892 239.884 241.792 237.988 242.356L237.244 240.844ZM242.236 239.464L243.94 239.056V244.468C243.94 244.996 243.964 245.74 244.048 246.04H242.14C242.188 245.752 242.236 244.996 242.236 244.468V239.464ZM251.176 236.296C251.5 236.344 252.016 236.368 252.424 236.368C253.18 236.368 256.336 236.368 257.032 236.368C257.416 236.368 258.004 236.344 258.328 236.296V237.856C258.016 237.832 257.452 237.808 257.008 237.808C256.348 237.808 253.132 237.808 252.424 237.808C252.028 237.808 251.524 237.82 251.176 237.856V236.296ZM259.348 239.788C259.264 239.944 259.156 240.16 259.12 240.28C258.748 241.444 258.232 242.62 257.344 243.604C256.132 244.96 254.596 245.764 253.06 246.208L251.86 244.852C253.672 244.468 255.1 243.688 256.024 242.74C256.66 242.092 257.044 241.336 257.248 240.676C256.648 240.676 252.532 240.676 251.464 240.676C251.164 240.676 250.564 240.688 250.06 240.724V239.164C250.576 239.212 251.08 239.248 251.464 239.248C252.28 239.248 256.576 239.248 257.392 239.248C257.788 239.248 258.112 239.2 258.28 239.116L259.348 239.788Z" fill="white"/>
<rect x="181" y="320" width="99" height="21" rx="10.5" fill="#30F75C"/>
<path d="M202.708 324.888C202.648 325.272 202.624 325.728 202.636 326.112C202.672 328.092 202.756 331.392 202.78 333.816C202.792 334.584 202.348 335.028 201.436 335.028C200.704 335.028 200.044 335.004 199.36 334.956L199.216 333.396C199.768 333.48 200.416 333.528 200.824 333.528C201.124 333.528 201.232 333.372 201.232 333.036C201.232 331.38 201.208 328.092 201.112 326.112C201.076 325.596 201.052 325.212 200.992 324.888H202.708ZM195.856 326.892C196.192 326.928 196.768 326.976 197.176 326.976C198.016 326.976 203.56 326.976 204.148 326.976C204.532 326.976 205.096 326.916 205.384 326.88V328.464C205.012 328.452 204.544 328.44 204.22 328.44C203.752 328.44 197.884 328.44 197.224 328.44C196.78 328.44 196.276 328.464 195.856 328.488V326.892ZM195.208 332.604C197.716 331.404 199.816 329.556 200.68 328.14H201.46L201.472 329.424C200.5 330.876 198.376 332.76 196.312 333.852L195.208 332.604ZM207.592 328.944C208.036 328.98 208.9 329.028 209.524 329.028C210.94 329.028 214.9 329.028 215.968 329.028C216.532 329.028 217.06 328.968 217.384 328.944V330.84C217.096 330.828 216.484 330.768 215.98 330.768C214.888 330.768 210.94 330.768 209.524 330.768C208.852 330.768 208.048 330.804 207.592 330.84V328.944ZM222.256 333.36C222.256 332.436 222.256 327.468 222.256 326.46C222.256 326.028 222.22 325.44 222.136 325.008H224.008C223.96 325.44 223.9 325.956 223.9 326.46C223.9 327.78 223.912 332.472 223.912 333.36C223.912 333.696 223.96 334.536 224.02 335.028H222.136C222.22 334.56 222.256 333.828 222.256 333.36ZM223.552 328.116C225.148 328.56 227.74 329.508 228.916 330.084L228.244 331.752C226.876 331.044 224.86 330.276 223.552 329.844V328.116ZM241.924 326.94C241.756 327.132 241.612 327.3 241.516 327.444C240.58 328.992 238.804 331.152 236.944 332.52L235.744 331.416C237.328 330.312 238.672 328.68 239.296 327.576C238.24 327.576 233.872 327.576 232.96 327.576C232.468 327.576 231.82 327.636 231.568 327.672V325.98C231.892 326.04 232.54 326.1 232.96 326.1C233.716 326.1 238.324 326.1 239.608 326.1C240.076 326.1 240.472 326.052 240.736 325.968L241.924 326.94ZM235.6 332.7C234.892 331.992 233.668 330.9 232.96 330.396L234.22 329.364C234.868 329.856 236.068 330.828 236.98 331.704C237.772 332.472 238.72 333.468 239.296 334.164L237.88 335.292C237.388 334.62 236.38 333.492 235.6 332.7ZM246.256 333.36C246.256 332.436 246.256 327.468 246.256 326.46C246.256 326.028 246.22 325.44 246.136 325.008H248.008C247.96 325.44 247.9 325.956 247.9 326.46C247.9 327.78 247.912 332.472 247.912 333.36C247.912 333.696 247.96 334.536 248.02 335.028H246.136C246.22 334.56 246.256 333.828 246.256 333.36ZM247.552 328.116C249.148 328.56 251.74 329.508 252.916 330.084L252.244 331.752C250.876 331.044 248.86 330.276 247.552 329.844V328.116ZM257.392 325.38C258.22 325.944 259.78 327.192 260.488 327.924L259.264 329.172C258.64 328.5 257.128 327.192 256.252 326.592L257.392 325.38ZM255.88 333.372C257.764 333.108 259.312 332.496 260.476 331.812C262.528 330.588 264.088 328.764 264.856 327.144L265.78 328.824C264.88 330.456 263.284 332.112 261.352 333.276C260.128 334.008 258.58 334.668 256.9 334.956L255.88 333.372Z" fill="white"/>
</g>
<rect x="0.5" y="0.5" width="389" height="843" stroke="black"/>
<defs>
<filter id="filter0_b_5_1484" x="-35.0533" y="710.045" width="463.107" height="169.625" filterUnits="userSpaceOnUse" color-interpolation-filters="sRGB">
<feFlood flood-opacity="0" result="BackgroundImageFix"/>
<feGaussianBlur in="BackgroundImageFix" stdDeviation="18.0267"/>
<feComposite in2="SourceAlpha" operator="in" result="effect1_backgroundBlur_5_1484"/>
<feBlend mode="normal" in="SourceGraphic" in2="effect1_backgroundBlur_5_1484" result="shape"/>
</filter>
<clipPath id="clip0_5_1484">
<rect width="390" height="844" fill="white"/>
</clipPath>
<clipPath id="clip1_5_1484">
<rect width="390" height="45" fill="white"/>
</clipPath>
<clipPath id="clip2_5_1484">
<rect width="390" height="45" fill="white"/>
</clipPath>
<clipPath id="clip3_5_1484">
<rect width="46.2722" height="48.7241" fill="white" transform="translate(41.488 757.354)"/>
</clipPath>
<clipPath id="clip4_5_1484">
<rect width="25" height="25" fill="white" transform="translate(330 201)"/>
</clipPath>
<clipPath id="clip5_5_1484">
<rect width="27" height="27" fill="white" transform="translate(326 287)"/>
</clipPath>
</defs>
</svg>
