<svg width="390" height="844" viewBox="0 0 390 844" fill="none" xmlns="http://www.w3.org/2000/svg">
<g clip-path="url(#clip0_5_1484)">
<rect width="390" height="844" fill="white"/>
<rect width="390" height="173" fill="#FFB84E"/>
<g clip-path="url(#clip1_5_1484)">
<path d="M85 -2H304C301.894 -1.39731 300.418 0.495246 300.345 2.68446L300.317 3.5618C300.317 17.0587 289.375 28 275.878 28H113.122C99.6249 28 88.6835 17.0587 88.6835 3.5618L88.6545 2.68447C88.5823 0.49525 87.1059 -1.39731 85 -2Z" fill="black"/>
<path opacity="0.35" d="M351.5 20C351.5 18.8034 352.47 17.8334 353.667 17.8334H370.333C371.53 17.8334 372.5 18.8034 372.5 20V26C372.5 27.1967 371.53 28.1667 370.333 28.1667H353.667C352.47 28.1667 351.5 27.1967 351.5 26V20Z" stroke="white"/>
<path opacity="0.4" d="M374 21V25C374.805 24.6613 375.328 23.8732 375.328 23C375.328 22.1269 374.805 21.3388 374 21Z" fill="white"/>
<path d="M353 20.6667C353 19.9303 353.597 19.3334 354.333 19.3334H369.667C370.403 19.3334 371 19.9303 371 20.6667V25.3334C371 26.0698 370.403 26.6667 369.667 26.6667H354.333C353.597 26.6667 353 26.0698 353 25.3334V20.6667Z" fill="white"/>
<path fill-rule="evenodd" clip-rule="evenodd" d="M338.33 19.608C340.546 19.6081 342.678 20.4596 344.283 21.9863C344.404 22.1042 344.598 22.1027 344.717 21.983L345.873 20.8163C345.933 20.7556 345.967 20.6734 345.966 20.5878C345.966 20.5022 345.931 20.4204 345.87 20.3603C341.655 16.3208 335.005 16.3208 330.79 20.3603C330.729 20.4203 330.694 20.5021 330.694 20.5877C330.693 20.6733 330.727 20.7556 330.787 20.8163L331.943 21.983C332.062 22.1029 332.256 22.1044 332.377 21.9863C333.983 20.4595 336.114 19.608 338.33 19.608ZM338.33 23.4037C339.548 23.4036 340.722 23.8561 341.624 24.6733C341.747 24.7893 341.939 24.7868 342.058 24.6677L343.212 23.501C343.273 23.4398 343.307 23.3568 343.306 23.2705C343.305 23.1843 343.27 23.102 343.208 23.042C340.46 20.4856 336.204 20.4856 333.455 23.042C333.393 23.102 333.358 23.1843 333.357 23.2706C333.356 23.3569 333.39 23.4399 333.451 23.501L334.605 24.6677C334.724 24.7868 334.917 24.7893 335.039 24.6733C335.941 23.8567 337.114 23.4042 338.33 23.4037ZM340.643 25.9575C340.645 26.044 340.611 26.1274 340.549 26.188L338.552 28.2037C338.494 28.2629 338.414 28.2963 338.33 28.2963C338.247 28.2963 338.167 28.2629 338.109 28.2037L336.111 26.188C336.049 26.1274 336.015 26.0439 336.017 25.9574C336.019 25.8709 336.057 25.789 336.121 25.731C337.396 24.6521 339.265 24.6521 340.54 25.731C340.604 25.789 340.642 25.871 340.643 25.9575Z" fill="white"/>
<path fill-rule="evenodd" clip-rule="evenodd" d="M324.667 17.6666H323.667C323.114 17.6666 322.667 18.1143 322.667 18.6666V27.3333C322.667 27.8856 323.114 28.3333 323.667 28.3333H324.667C325.219 28.3333 325.667 27.8856 325.667 27.3333V18.6666C325.667 18.1143 325.219 17.6666 324.667 17.6666ZM319 20H320C320.552 20 321 20.4477 321 21V27.3333C321 27.8856 320.552 28.3333 320 28.3333H319C318.448 28.3333 318 27.8856 318 27.3333V21C318 20.4477 318.448 20 319 20ZM315.333 22.3333H314.333C313.781 22.3333 313.333 22.781 313.333 23.3333V27.3333C313.333 27.8856 313.781 28.3333 314.333 28.3333H315.333C315.886 28.3333 316.333 27.8856 316.333 27.3333V23.3333C316.333 22.781 315.886 22.3333 315.333 22.3333ZM310.667 24.3333H309.667C309.114 24.3333 308.667 24.781 308.667 25.3333V27.3333C308.667 27.8856 309.114 28.3333 309.667 28.3333H310.667C311.219 28.3333 311.667 27.8856 311.667 27.3333V25.3333C311.667 24.781 311.219 24.3333 310.667 24.3333Z" fill="white"/>
<path d="M37.3208 28.2563C40.0088 28.2563 41.6055 26.1543 41.6055 22.5947C41.6055 21.2544 41.3491 20.1265 40.8584 19.2549C40.1479 17.8999 38.9248 17.1675 37.3794 17.1675C35.0796 17.1675 33.4536 18.7129 33.4536 20.8809C33.4536 22.917 34.9185 24.3965 36.9326 24.3965C38.1704 24.3965 39.1738 23.8179 39.6719 22.8145H39.6938C39.6938 22.8145 39.7231 22.8145 39.7305 22.8145C39.7451 22.8145 39.7964 22.8145 39.7964 22.8145C39.7964 25.2314 38.8809 26.6743 37.3354 26.6743C36.4272 26.6743 35.7241 26.1763 35.4824 25.3779H33.6001C33.915 27.1138 35.3872 28.2563 37.3208 28.2563ZM37.3867 22.895C36.1709 22.895 35.3066 22.0308 35.3066 20.8223C35.3066 19.6431 36.2148 18.7422 37.394 18.7422C38.5732 18.7422 39.4814 19.6577 39.4814 20.8516C39.4814 22.0308 38.5952 22.895 37.3867 22.895Z" fill="white"/>
<path d="M44.6966 28.1538C45.3924 28.1538 45.8685 27.6558 45.8685 26.9966C45.8685 26.3301 45.3924 25.8394 44.6966 25.8394C44.0081 25.8394 43.5247 26.3301 43.5247 26.9966C43.5247 27.6558 44.0081 28.1538 44.6966 28.1538ZM44.6966 22.6606C45.3924 22.6606 45.8685 22.1699 45.8685 21.5107C45.8685 20.8442 45.3924 20.3535 44.6966 20.3535C44.0081 20.3535 43.5247 20.8442 43.5247 21.5107C43.5247 22.1699 44.0081 22.6606 44.6966 22.6606Z" fill="white"/>
<path d="M52.7242 28H54.5333V26.0298H55.9615V24.4331H54.5333V17.4312H51.8673C49.9996 20.2437 48.5128 22.5947 47.5606 24.3452V26.0298H52.7242V28ZM49.3111 24.3672C50.5416 22.1992 51.6402 20.4634 52.651 18.9692H52.7535V24.4771H49.3111V24.3672Z" fill="white"/>
<path d="M59.9901 28H61.8798V17.4312H59.9975L57.2362 19.3647V21.1812L59.8656 19.3354H59.9901V28Z" fill="white"/>
</g>
<path d="M24.5 134C24.5 120.469 35.469 109.5 49 109.5H342C355.531 109.5 366.5 120.469 366.5 134C366.5 147.531 355.531 158.5 342 158.5H49C35.469 158.5 24.5 147.531 24.5 134Z" fill="#F6F6F6" stroke="#E8E8E8"/>
<path d="M194 134C194 121.297 204.297 111 217 111H342.5C355.203 111 365.5 121.297 365.5 134C365.5 146.703 355.203 157 342.5 157H217C204.297 157 194 146.703 194 134Z" fill="white"/>
<path d="M259.957 130.131V128.364H269.241V130.131H265.644V140H263.553V130.131H259.957ZM273.481 140.17C272.629 140.17 271.89 139.983 271.265 139.608C270.64 139.233 270.155 138.708 269.81 138.034C269.469 137.36 269.299 136.572 269.299 135.67C269.299 134.769 269.469 133.979 269.81 133.301C270.155 132.623 270.64 132.097 271.265 131.722C271.89 131.347 272.629 131.159 273.481 131.159C274.333 131.159 275.072 131.347 275.697 131.722C276.322 132.097 276.805 132.623 277.146 133.301C277.49 133.979 277.663 134.769 277.663 135.67C277.663 136.572 277.49 137.36 277.146 138.034C276.805 138.708 276.322 139.233 275.697 139.608C275.072 139.983 274.333 140.17 273.481 140.17ZM273.492 138.523C273.954 138.523 274.341 138.396 274.651 138.142C274.962 137.884 275.193 137.54 275.344 137.108C275.5 136.676 275.577 136.195 275.577 135.665C275.577 135.131 275.5 134.648 275.344 134.216C275.193 133.78 274.962 133.434 274.651 133.176C274.341 132.919 273.954 132.79 273.492 132.79C273.019 132.79 272.625 132.919 272.31 133.176C272 133.434 271.767 133.78 271.612 134.216C271.46 134.648 271.384 135.131 271.384 135.665C271.384 136.195 271.46 136.676 271.612 137.108C271.767 137.54 272 137.884 272.31 138.142C272.625 138.396 273.019 138.523 273.492 138.523ZM283.442 140H279.499V128.364H283.522C284.677 128.364 285.67 128.597 286.499 129.062C287.333 129.525 287.973 130.189 288.42 131.057C288.867 131.924 289.09 132.962 289.09 134.17C289.09 135.383 288.865 136.424 288.414 137.295C287.967 138.167 287.321 138.835 286.477 139.301C285.636 139.767 284.624 140 283.442 140ZM281.607 138.176H283.34C284.151 138.176 284.827 138.028 285.369 137.733C285.91 137.434 286.317 136.989 286.59 136.398C286.863 135.803 286.999 135.061 286.999 134.17C286.999 133.28 286.863 132.542 286.59 131.955C286.317 131.364 285.914 130.922 285.38 130.631C284.85 130.335 284.191 130.188 283.403 130.188H281.607V138.176ZM294.809 140.17C293.957 140.17 293.218 139.983 292.593 139.608C291.968 139.233 291.483 138.708 291.138 138.034C290.798 137.36 290.627 136.572 290.627 135.67C290.627 134.769 290.798 133.979 291.138 133.301C291.483 132.623 291.968 132.097 292.593 131.722C293.218 131.347 293.957 131.159 294.809 131.159C295.661 131.159 296.4 131.347 297.025 131.722C297.65 132.097 298.133 132.623 298.474 133.301C298.818 133.979 298.991 134.769 298.991 135.67C298.991 136.572 298.818 137.36 298.474 138.034C298.133 138.708 297.65 139.233 297.025 139.608C296.4 139.983 295.661 140.17 294.809 140.17ZM294.82 138.523C295.282 138.523 295.669 138.396 295.979 138.142C296.29 137.884 296.521 137.54 296.673 137.108C296.828 136.676 296.906 136.195 296.906 135.665C296.906 135.131 296.828 134.648 296.673 134.216C296.521 133.78 296.29 133.434 295.979 133.176C295.669 132.919 295.282 132.79 294.82 132.79C294.347 132.79 293.953 132.919 293.638 133.176C293.328 133.434 293.095 133.78 292.94 134.216C292.788 134.648 292.712 135.131 292.712 135.665C292.712 136.195 292.788 136.676 292.94 137.108C293.095 137.54 293.328 137.884 293.638 138.142C293.953 138.396 294.347 138.523 294.82 138.523Z" fill="#FFB84E"/>
<path d="M88.2635 132.148H86.4908C86.4226 131.769 86.2957 131.436 86.1101 131.148C85.9245 130.86 85.6972 130.616 85.4283 130.415C85.1593 130.214 84.8582 130.062 84.5249 129.96C84.1953 129.858 83.8449 129.807 83.4737 129.807C82.8033 129.807 82.2029 129.975 81.6726 130.312C81.1461 130.65 80.7294 131.144 80.4226 131.795C80.1196 132.447 79.968 133.242 79.968 134.182C79.968 135.129 80.1196 135.928 80.4226 136.58C80.7294 137.231 81.148 137.723 81.6783 138.057C82.2086 138.39 82.8052 138.557 83.468 138.557C83.8355 138.557 84.1839 138.508 84.5135 138.409C84.8468 138.307 85.148 138.157 85.4169 137.96C85.6858 137.763 85.9131 137.523 86.0987 137.239C86.2881 136.951 86.4188 136.621 86.4908 136.25L88.2635 136.256C88.1688 136.828 87.9851 137.354 87.7124 137.835C87.4434 138.312 87.0968 138.725 86.6726 139.074C86.2521 139.419 85.7711 139.686 85.2294 139.875C84.6877 140.064 84.0968 140.159 83.4567 140.159C82.4491 140.159 81.5514 139.92 80.7635 139.443C79.9756 138.962 79.3544 138.275 78.8999 137.381C78.4491 136.487 78.2237 135.42 78.2237 134.182C78.2237 132.939 78.451 131.873 78.9055 130.983C79.3601 130.089 79.9813 129.403 80.7692 128.926C81.5571 128.445 82.4529 128.205 83.4567 128.205C84.0741 128.205 84.6499 128.294 85.1839 128.472C85.7218 128.646 86.2048 128.903 86.6328 129.244C87.0608 129.581 87.415 129.994 87.6953 130.483C87.9756 130.968 88.165 131.523 88.2635 132.148ZM92.7678 140.193C92.2147 140.193 91.7147 140.091 91.2678 139.886C90.8208 139.678 90.4666 139.377 90.2053 138.983C89.9477 138.589 89.8189 138.106 89.8189 137.534C89.8189 137.042 89.9136 136.636 90.103 136.318C90.2924 136 90.5481 135.748 90.87 135.562C91.192 135.377 91.5518 135.237 91.9496 135.142C92.3473 135.047 92.7526 134.975 93.1655 134.926C93.6882 134.866 94.1125 134.816 94.4382 134.778C94.764 134.737 95.0007 134.67 95.1484 134.58C95.2962 134.489 95.37 134.341 95.37 134.136V134.097C95.37 133.6 95.2299 133.216 94.9496 132.943C94.6731 132.67 94.2602 132.534 93.7109 132.534C93.139 132.534 92.6882 132.661 92.3587 132.915C92.0329 133.165 91.8075 133.443 91.6825 133.75L90.0859 133.386C90.2753 132.856 90.5518 132.428 90.9155 132.102C91.2829 131.773 91.7053 131.534 92.1825 131.386C92.6598 131.235 93.1617 131.159 93.6882 131.159C94.0367 131.159 94.406 131.201 94.7962 131.284C95.1901 131.364 95.5575 131.511 95.8984 131.727C96.2431 131.943 96.5253 132.252 96.745 132.653C96.9647 133.051 97.0746 133.568 97.0746 134.205V140H95.4155V138.807H95.3473C95.2375 139.027 95.0727 139.242 94.853 139.455C94.6333 139.667 94.3511 139.843 94.0064 139.983C93.6617 140.123 93.2488 140.193 92.7678 140.193ZM93.1371 138.83C93.6068 138.83 94.0083 138.737 94.3416 138.551C94.6787 138.366 94.9344 138.123 95.1087 137.824C95.2867 137.521 95.3757 137.197 95.3757 136.852V135.727C95.3151 135.788 95.1977 135.845 95.0234 135.898C94.853 135.947 94.6579 135.991 94.4382 136.028C94.2185 136.062 94.0045 136.095 93.7962 136.125C93.5878 136.152 93.4136 136.174 93.2734 136.193C92.9439 136.235 92.6428 136.305 92.37 136.403C92.1011 136.502 91.8852 136.644 91.7223 136.83C91.5632 137.011 91.4837 137.254 91.4837 137.557C91.4837 137.977 91.639 138.295 91.9496 138.511C92.2602 138.723 92.656 138.83 93.1371 138.83ZM101.036 128.364V140H99.3374V128.364H101.036ZM107.083 140.176C106.223 140.176 105.483 139.992 104.862 139.625C104.244 139.254 103.767 138.733 103.43 138.062C103.096 137.388 102.93 136.598 102.93 135.693C102.93 134.799 103.096 134.011 103.43 133.33C103.767 132.648 104.237 132.116 104.839 131.733C105.445 131.35 106.153 131.159 106.964 131.159C107.456 131.159 107.933 131.241 108.396 131.403C108.858 131.566 109.272 131.822 109.64 132.17C110.007 132.519 110.297 132.972 110.509 133.528C110.721 134.081 110.827 134.754 110.827 135.545V136.148H103.89V134.875H109.163C109.163 134.428 109.072 134.032 108.89 133.688C108.708 133.339 108.452 133.064 108.123 132.864C107.797 132.663 107.415 132.562 106.975 132.562C106.498 132.562 106.081 132.68 105.725 132.915C105.373 133.146 105.1 133.449 104.907 133.824C104.718 134.195 104.623 134.598 104.623 135.034V136.028C104.623 136.612 104.725 137.108 104.93 137.517C105.138 137.926 105.428 138.239 105.799 138.455C106.17 138.667 106.604 138.773 107.1 138.773C107.422 138.773 107.716 138.727 107.981 138.636C108.246 138.542 108.475 138.402 108.668 138.216C108.862 138.03 109.009 137.801 109.112 137.528L110.719 137.818C110.591 138.292 110.36 138.706 110.026 139.062C109.697 139.415 109.282 139.689 108.782 139.886C108.286 140.08 107.719 140.176 107.083 140.176ZM114.411 134.818V140H112.712V131.273H114.343V132.693H114.451C114.652 132.231 114.966 131.86 115.394 131.58C115.826 131.299 116.37 131.159 117.025 131.159C117.62 131.159 118.14 131.284 118.587 131.534C119.034 131.78 119.381 132.148 119.627 132.636C119.873 133.125 119.996 133.729 119.996 134.449V140H118.298V134.653C118.298 134.021 118.133 133.527 117.803 133.17C117.474 132.811 117.021 132.631 116.445 132.631C116.051 132.631 115.701 132.716 115.394 132.886C115.091 133.057 114.851 133.307 114.673 133.636C114.498 133.962 114.411 134.356 114.411 134.818ZM125.542 140.17C124.837 140.17 124.209 139.991 123.656 139.631C123.106 139.267 122.674 138.75 122.36 138.08C122.049 137.405 121.894 136.597 121.894 135.653C121.894 134.71 122.051 133.903 122.366 133.233C122.684 132.562 123.12 132.049 123.673 131.693C124.226 131.337 124.853 131.159 125.553 131.159C126.095 131.159 126.531 131.25 126.86 131.432C127.193 131.61 127.451 131.818 127.633 132.057C127.818 132.295 127.962 132.506 128.065 132.688H128.167V128.364H129.866V140H128.207V138.642H128.065C127.962 138.828 127.815 139.04 127.621 139.278C127.432 139.517 127.171 139.725 126.837 139.903C126.504 140.081 126.072 140.17 125.542 140.17ZM125.917 138.722C126.406 138.722 126.818 138.593 127.156 138.335C127.496 138.074 127.754 137.712 127.928 137.25C128.106 136.788 128.195 136.25 128.195 135.636C128.195 135.03 128.108 134.5 127.934 134.045C127.76 133.591 127.504 133.237 127.167 132.983C126.83 132.729 126.413 132.602 125.917 132.602C125.406 132.602 124.979 132.735 124.638 133C124.298 133.265 124.04 133.627 123.866 134.085C123.695 134.544 123.61 135.061 123.61 135.636C123.61 136.22 123.697 136.744 123.871 137.21C124.046 137.676 124.303 138.045 124.644 138.318C124.989 138.587 125.413 138.722 125.917 138.722ZM136.052 140.176C135.192 140.176 134.451 139.992 133.83 139.625C133.213 139.254 132.736 138.733 132.398 138.062C132.065 137.388 131.898 136.598 131.898 135.693C131.898 134.799 132.065 134.011 132.398 133.33C132.736 132.648 133.205 132.116 133.808 131.733C134.414 131.35 135.122 131.159 135.933 131.159C136.425 131.159 136.902 131.241 137.364 131.403C137.826 131.566 138.241 131.822 138.609 132.17C138.976 132.519 139.266 132.972 139.478 133.528C139.69 134.081 139.796 134.754 139.796 135.545V136.148H132.859V134.875H138.131C138.131 134.428 138.04 134.032 137.859 133.688C137.677 133.339 137.421 133.064 137.092 132.864C136.766 132.663 136.383 132.562 135.944 132.562C135.467 132.562 135.05 132.68 134.694 132.915C134.342 133.146 134.069 133.449 133.876 133.824C133.686 134.195 133.592 134.598 133.592 135.034V136.028C133.592 136.612 133.694 137.108 133.898 137.517C134.107 137.926 134.397 138.239 134.768 138.455C135.139 138.667 135.573 138.773 136.069 138.773C136.391 138.773 136.684 138.727 136.95 138.636C137.215 138.542 137.444 138.402 137.637 138.216C137.83 138.03 137.978 137.801 138.08 137.528L139.688 137.818C139.559 138.292 139.328 138.706 138.995 139.062C138.665 139.415 138.251 139.689 137.751 139.886C137.254 140.08 136.688 140.176 136.052 140.176ZM141.681 140V131.273H143.323V132.659H143.414C143.573 132.189 143.853 131.82 144.255 131.551C144.66 131.278 145.119 131.142 145.63 131.142C145.736 131.142 145.861 131.146 146.005 131.153C146.153 131.161 146.268 131.17 146.352 131.182V132.807C146.283 132.788 146.162 132.767 145.988 132.744C145.814 132.718 145.639 132.705 145.465 132.705C145.064 132.705 144.706 132.79 144.391 132.96C144.081 133.127 143.835 133.36 143.653 133.659C143.471 133.955 143.38 134.292 143.38 134.67V140H141.681Z" fill="#BDBDBD"/>
<g filter="url(#filter0_b_5_1484)">
<path d="M1 747H392V843.617H1V747Z" fill="white"/>
<path d="M1 747.901H392V746.099H1V747.901Z" fill="#E2E2E2"/>
</g>
<g clip-path="url(#clip2_5_1484)">
<path d="M72.3361 763.444C72.8474 763.444 73.3378 763.658 73.6994 764.039C74.061 764.42 74.2641 764.936 74.2641 765.475V767.505H78.1201C79.1428 767.505 80.1236 767.933 80.8467 768.694C81.5699 769.455 81.9761 770.488 81.9761 771.565V795.927C81.9761 797.004 81.5699 798.037 80.8467 798.798C80.1236 799.56 79.1428 799.987 78.1201 799.987H51.128C50.1053 799.987 49.1245 799.56 48.4014 798.798C47.6782 798.037 47.272 797.004 47.272 795.927V771.565C47.272 770.488 47.6782 769.455 48.4014 768.694C49.1245 767.933 50.1053 767.505 51.128 767.505H54.984V765.475C54.984 764.936 55.1871 764.42 55.5487 764.039C55.9103 763.658 56.4007 763.444 56.912 763.444C57.4234 763.444 57.9137 763.658 58.2753 764.039C58.6369 764.42 58.84 764.936 58.84 765.475V767.505H70.4081V765.475C70.4081 764.936 70.6112 764.42 70.9728 764.039C71.3343 763.658 71.8247 763.444 72.3361 763.444ZM78.1201 771.565H51.128V795.927H78.1201V771.565ZM70.0687 776.395C70.4324 776.025 70.9194 775.82 71.4249 775.825C71.9304 775.83 72.414 776.043 72.7715 776.42C73.1289 776.796 73.3317 777.305 73.3361 777.838C73.3405 778.37 73.1461 778.883 72.7949 779.266L63.2667 789.301C63.0859 789.491 62.8711 789.642 62.6348 789.746C62.3984 789.849 62.145 789.902 61.8892 789.902C61.6333 789.902 61.3799 789.849 61.1436 789.746C60.9072 789.642 60.6924 789.491 60.5116 789.301L56.4358 785.005C56.0846 784.622 55.8903 784.109 55.8947 783.577C55.899 783.044 56.1018 782.535 56.4593 782.159C56.8167 781.782 57.3003 781.569 57.8058 781.564C58.3114 781.56 58.7984 781.764 59.162 782.134L61.8901 785.005L70.0687 776.395Z" fill="black"/>
</g>
<path d="M340.908 768.114H314.687C312.879 768.114 311.409 769.662 311.409 771.565V792.273C311.409 794.176 312.879 795.724 314.687 795.724H319.603V802.224L329.89 795.724H340.908C342.715 795.724 344.185 794.176 344.185 792.273V771.565C344.185 769.662 342.715 768.114 340.908 768.114ZM340.908 792.273H328.982L322.881 796.126V792.273H314.687V771.565H340.908V792.273Z" fill="black"/>
<path d="M198.343 785.472C198.696 785.472 199.041 785.362 199.334 785.155C199.627 784.949 199.856 784.656 199.991 784.312C200.126 783.969 200.161 783.592 200.092 783.227C200.023 782.863 199.854 782.528 199.604 782.266C199.355 782.003 199.037 781.824 198.691 781.752C198.345 781.679 197.986 781.717 197.661 781.859C197.335 782.001 197.056 782.242 196.86 782.55C196.664 782.859 196.56 783.222 196.56 783.594C196.56 784.092 196.748 784.569 197.082 784.922C197.417 785.274 197.87 785.472 198.343 785.472ZM207.26 785.472C207.613 785.472 207.958 785.362 208.251 785.155C208.544 784.949 208.773 784.656 208.908 784.312C209.043 783.969 209.078 783.592 209.009 783.227C208.94 782.863 208.771 782.528 208.521 782.266C208.272 782.003 207.954 781.824 207.608 781.752C207.262 781.679 206.904 781.717 206.578 781.859C206.252 782.001 205.973 782.242 205.777 782.55C205.581 782.859 205.477 783.222 205.477 783.594C205.477 784.092 205.665 784.569 205.999 784.922C206.334 785.274 206.787 785.472 207.26 785.472ZM198.343 792.983C198.696 792.983 199.041 792.873 199.334 792.667C199.627 792.46 199.856 792.167 199.991 791.824C200.126 791.481 200.161 791.103 200.092 790.739C200.023 790.375 199.854 790.04 199.604 789.777C199.355 789.515 199.037 789.336 198.691 789.264C198.345 789.191 197.986 789.228 197.661 789.37C197.335 789.513 197.056 789.753 196.86 790.062C196.664 790.371 196.56 790.734 196.56 791.105C196.56 791.603 196.748 792.081 197.082 792.433C197.417 792.785 197.87 792.983 198.343 792.983ZM207.26 792.983C207.613 792.983 207.958 792.873 208.251 792.667C208.544 792.46 208.773 792.167 208.908 791.824C209.043 791.481 209.078 791.103 209.009 790.739C208.94 790.375 208.771 790.04 208.521 789.777C208.272 789.515 207.954 789.336 207.608 789.264C207.262 789.191 206.904 789.228 206.578 789.37C206.252 789.513 205.973 789.753 205.777 790.062C205.581 790.371 205.477 790.734 205.477 791.105C205.477 791.603 205.665 792.081 205.999 792.433C206.334 792.785 206.787 792.983 207.26 792.983ZM189.426 785.472C189.779 785.472 190.124 785.362 190.417 785.155C190.71 784.949 190.939 784.656 191.074 784.312C191.209 783.969 191.244 783.592 191.175 783.227C191.106 782.863 190.937 782.528 190.687 782.266C190.438 782.003 190.12 781.824 189.774 781.752C189.428 781.679 189.069 781.717 188.744 781.859C188.418 782.001 188.139 782.242 187.943 782.55C187.747 782.859 187.643 783.222 187.643 783.594C187.643 784.092 187.831 784.569 188.165 784.922C188.499 785.274 188.953 785.472 189.426 785.472ZM210.827 766.693H209.044V764.815C209.044 764.317 208.856 763.839 208.521 763.487C208.187 763.135 207.733 762.937 207.26 762.937C206.787 762.937 206.334 763.135 205.999 763.487C205.665 763.839 205.477 764.317 205.477 764.815V766.693H191.209V764.815C191.209 764.317 191.022 763.839 190.687 763.487C190.353 763.135 189.899 762.937 189.426 762.937C188.953 762.937 188.499 763.135 188.165 763.487C187.831 763.839 187.643 764.317 187.643 764.815V766.693H185.859C184.44 766.693 183.079 767.286 182.076 768.343C181.073 769.399 180.509 770.832 180.509 772.326V794.861C180.509 796.355 181.073 797.788 182.076 798.845C183.079 799.901 184.44 800.495 185.859 800.495H210.827C212.246 800.495 213.607 799.901 214.61 798.845C215.613 797.788 216.177 796.355 216.177 794.861V772.326C216.177 770.832 215.613 769.399 214.61 768.343C213.607 767.286 212.246 766.693 210.827 766.693ZM212.61 794.861C212.61 795.359 212.422 795.837 212.088 796.189C211.754 796.541 211.3 796.739 210.827 796.739H185.859C185.386 796.739 184.933 796.541 184.598 796.189C184.264 795.837 184.076 795.359 184.076 794.861V777.96H212.61V794.861ZM212.61 774.204H184.076V772.326C184.076 771.828 184.264 771.351 184.598 770.998C184.933 770.646 185.386 770.448 185.859 770.448H210.827C211.3 770.448 211.754 770.646 212.088 770.998C212.422 771.351 212.61 771.828 212.61 772.326V774.204ZM189.426 792.983C189.779 792.983 190.124 792.873 190.417 792.667C190.71 792.46 190.939 792.167 191.074 791.824C191.209 791.481 191.244 791.103 191.175 790.739C191.106 790.375 190.937 790.04 190.687 789.777C190.438 789.515 190.12 789.336 189.774 789.264C189.428 789.191 189.069 789.228 188.744 789.37C188.418 789.513 188.139 789.753 187.943 790.062C187.747 790.371 187.643 790.734 187.643 791.105C187.643 791.603 187.831 792.081 188.165 792.433C188.499 792.785 188.953 792.983 189.426 792.983Z" fill="black"/>
<path d="M44.6605 814.508V813.091H53.1033V814.508H49.6996V824H48.0589V814.508H44.6605ZM57.101 824.165C56.334 824.165 55.6646 823.989 55.0929 823.638C54.5211 823.286 54.0772 822.794 53.7612 822.162C53.4451 821.53 53.2871 820.792 53.2871 819.946C53.2871 819.098 53.4451 818.355 53.7612 817.72C54.0772 817.084 54.5211 816.591 55.0929 816.239C55.6646 815.887 56.334 815.712 57.101 815.712C57.8681 815.712 58.5375 815.887 59.1092 816.239C59.6809 816.591 60.1248 817.084 60.4409 817.72C60.7569 818.355 60.915 819.098 60.915 819.946C60.915 820.792 60.7569 821.53 60.4409 822.162C60.1248 822.794 59.6809 823.286 59.1092 823.638C58.5375 823.989 57.8681 824.165 57.101 824.165ZM57.1064 822.828C57.6035 822.828 58.0154 822.697 58.3422 822.434C58.6689 822.171 58.9103 821.821 59.0666 821.385C59.2264 820.948 59.3063 820.467 59.3063 819.941C59.3063 819.419 59.2264 818.94 59.0666 818.503C58.9103 818.062 58.6689 817.709 58.3422 817.443C58.0154 817.176 57.6035 817.043 57.1064 817.043C56.6056 817.043 56.1902 817.176 55.8599 817.443C55.5332 817.709 55.29 818.062 55.1301 818.503C54.9739 818.94 54.8958 819.419 54.8958 819.941C54.8958 820.467 54.9739 820.948 55.1301 821.385C55.29 821.821 55.5332 822.171 55.8599 822.434C56.1902 822.697 56.6056 822.828 57.1064 822.828ZM66.3522 824H62.8206V813.091H66.464C67.5329 813.091 68.4509 813.309 69.218 813.746C69.985 814.179 70.5727 814.803 70.9811 815.616C71.393 816.425 71.599 817.397 71.599 818.529C71.599 819.666 71.3912 820.642 70.9758 821.459C70.5638 822.276 69.9672 822.904 69.186 823.345C68.4047 823.782 67.4601 824 66.3522 824ZM64.4665 822.562H66.2616C67.0926 822.562 67.7833 822.406 68.3337 822.093C68.8841 821.777 69.2961 821.321 69.5695 820.724C69.843 820.124 69.9797 819.392 69.9797 818.529C69.9797 817.674 69.843 816.947 69.5695 816.351C69.2996 815.754 68.8966 815.301 68.3604 814.993C67.8241 814.684 67.1583 814.529 66.3628 814.529H64.4665V822.562ZM76.9643 824.165C76.1973 824.165 75.5279 823.989 74.9561 823.638C74.3844 823.286 73.9405 822.794 73.6245 822.162C73.3084 821.53 73.1504 820.792 73.1504 819.946C73.1504 819.098 73.3084 818.355 73.6245 817.72C73.9405 817.084 74.3844 816.591 74.9561 816.239C75.5279 815.887 76.1973 815.712 76.9643 815.712C77.7314 815.712 78.4007 815.887 78.9725 816.239C79.5442 816.591 79.9881 817.084 80.3042 817.72C80.6202 818.355 80.7782 819.098 80.7782 819.946C80.7782 820.792 80.6202 821.53 80.3042 822.162C79.9881 822.794 79.5442 823.286 78.9725 823.638C78.4007 823.989 77.7314 824.165 76.9643 824.165ZM76.9696 822.828C77.4668 822.828 77.8787 822.697 78.2054 822.434C78.5321 822.171 78.7736 821.821 78.9299 821.385C79.0897 820.948 79.1696 820.467 79.1696 819.941C79.1696 819.419 79.0897 818.94 78.9299 818.503C78.7736 818.062 78.5321 817.709 78.2054 817.443C77.8787 817.176 77.4668 817.043 76.9696 817.043C76.4689 817.043 76.0534 817.176 75.7232 817.443C75.3965 817.709 75.1532 818.062 74.9934 818.503C74.8372 818.94 74.7591 819.419 74.7591 819.941C74.7591 820.467 74.8372 820.948 74.9934 821.385C75.1532 821.821 75.3965 822.171 75.7232 822.434C76.0534 822.697 76.4689 822.828 76.9696 822.828Z" fill="#1E1E1E"/>
<path d="M183.149 813.338H190.649V814.328H183.149V813.338ZM182.504 816.248H191.294V817.253H182.504V816.248ZM182.579 818.963H191.129V819.968H182.579V818.963ZM186.299 811.538H187.409V816.863H186.299V811.538ZM188.279 817.103H189.374V824.003C189.374 824.648 189.224 824.978 188.759 825.143C188.294 825.308 187.529 825.323 186.329 825.323C186.284 825.023 186.104 824.573 185.939 824.273C186.869 824.303 187.709 824.303 187.949 824.288C188.204 824.273 188.279 824.213 188.279 823.988V817.103ZM183.494 821.018L184.394 820.478C185.174 821.258 186.014 822.323 186.374 823.058L185.399 823.658C185.069 822.923 184.259 821.798 183.494 821.018ZM178.499 812.528H182.249V822.383H178.499V821.363H181.199V813.548H178.499V812.528ZM178.544 816.893H181.694V817.898H178.544V816.893ZM177.959 812.528H179.024V823.613H177.959V812.528ZM197.039 820.733H201.584V821.603H197.039V820.733ZM196.994 818.468H202.109V823.943H196.994V823.073H201.044V819.353H196.994V818.468ZM196.499 818.468H197.534V824.708H196.499V818.468ZM193.739 814.313H197.909V815.138H193.739V814.313ZM200.654 814.313H204.899V815.138H200.654V814.313ZM204.434 812.183H205.559V823.853C205.559 824.573 205.394 824.948 204.914 825.143C204.434 825.323 203.624 825.338 202.364 825.338C202.319 825.023 202.139 824.498 201.974 824.183C202.889 824.228 203.804 824.213 204.074 824.198C204.344 824.198 204.434 824.108 204.434 823.853V812.183ZM193.829 812.183H198.629V817.343H193.829V816.473H197.564V813.053H193.829V812.183ZM204.989 812.183V813.053H201.059V816.503H204.989V817.358H199.979V812.183H204.989ZM193.184 812.183H194.294V825.353H193.184V812.183ZM216.479 813.173H217.544V821.438H216.479V813.173ZM219.539 811.808H220.649V823.793C220.649 824.558 220.469 824.888 219.989 825.083C219.524 825.263 218.669 825.308 217.499 825.308C217.454 824.978 217.289 824.453 217.124 824.108C218.039 824.153 218.924 824.138 219.224 824.138C219.464 824.123 219.539 824.048 219.539 823.793V811.808ZM209.099 823.643H214.139V824.543H209.099V823.643ZM207.659 818.933H215.414V819.833H207.659V818.933ZM208.484 815.243H214.709V816.098H208.484V815.243ZM208.559 817.073H214.529V817.898H208.559V817.073ZM211.019 811.583H212.114V813.443H211.019V811.583ZM211.049 814.268H212.099V819.428H211.049V814.268ZM208.559 820.658H214.724V825.143H213.659V821.543H209.594V825.308H208.559V820.658ZM207.659 812.933H215.579V815.303H214.529V813.833H208.664V815.303H207.659V812.933Z" fill="#1E1E1E"/>
<path d="M298.389 814.229H300.387L303.86 822.709H303.988L307.461 814.229H309.458V825.138H307.892V817.244H307.791L304.574 825.122H303.274L300.057 817.239H299.955V825.138H298.389V814.229ZM315.25 825.303C314.444 825.303 313.749 825.131 313.167 824.787C312.588 824.439 312.141 823.95 311.825 823.322C311.512 822.69 311.356 821.949 311.356 821.1C311.356 820.262 311.512 819.524 311.825 818.885C312.141 818.245 312.581 817.746 313.146 817.388C313.714 817.029 314.378 816.85 315.138 816.85C315.6 816.85 316.047 816.926 316.48 817.079C316.913 817.231 317.302 817.471 317.647 817.798C317.991 818.125 318.263 818.549 318.462 819.071C318.661 819.589 318.76 820.22 318.76 820.962V821.527H312.256V820.333H317.199C317.199 819.914 317.114 819.543 316.944 819.22C316.773 818.893 316.534 818.636 316.225 818.448C315.919 818.26 315.561 818.165 315.149 818.165C314.701 818.165 314.311 818.276 313.977 818.496C313.646 818.712 313.391 818.996 313.21 819.348C313.032 819.696 312.943 820.074 312.943 820.483V821.415C312.943 821.962 313.039 822.427 313.231 822.81C313.426 823.194 313.698 823.487 314.046 823.689C314.394 823.888 314.801 823.988 315.266 823.988C315.568 823.988 315.843 823.945 316.091 823.86C316.34 823.771 316.555 823.64 316.736 823.466C316.917 823.292 317.056 823.077 317.151 822.821L318.659 823.093C318.538 823.537 318.322 823.925 318.009 824.259C317.7 824.589 317.311 824.847 316.842 825.032C316.377 825.213 315.846 825.303 315.25 825.303ZM326.658 818.954L325.215 819.209C325.154 819.025 325.058 818.849 324.927 818.682C324.799 818.515 324.625 818.379 324.405 818.272C324.185 818.165 323.91 818.112 323.579 818.112C323.128 818.112 322.752 818.213 322.45 818.416C322.148 818.615 321.997 818.872 321.997 819.188C321.997 819.462 322.099 819.682 322.301 819.849C322.503 820.016 322.83 820.152 323.281 820.259L324.581 820.557C325.334 820.731 325.895 820.999 326.264 821.361C326.633 821.724 326.818 822.194 326.818 822.773C326.818 823.263 326.676 823.7 326.392 824.083C326.111 824.463 325.719 824.762 325.215 824.978C324.714 825.195 324.133 825.303 323.473 825.303C322.557 825.303 321.809 825.108 321.23 824.717C320.652 824.323 320.296 823.764 320.165 823.039L321.704 822.805C321.8 823.206 321.997 823.51 322.296 823.716C322.594 823.918 322.983 824.019 323.462 824.019C323.984 824.019 324.402 823.911 324.714 823.695C325.027 823.474 325.183 823.206 325.183 822.89C325.183 822.635 325.087 822.42 324.895 822.246C324.707 822.072 324.417 821.94 324.027 821.852L322.642 821.548C321.878 821.374 321.314 821.097 320.948 820.717C320.586 820.337 320.405 819.856 320.405 819.273C320.405 818.79 320.54 818.368 320.81 818.006C321.079 817.643 321.452 817.361 321.928 817.159C322.404 816.953 322.949 816.85 323.563 816.85C324.448 816.85 325.144 817.042 325.652 817.425C326.159 817.805 326.495 818.315 326.658 818.954ZM334.7 818.954L333.257 819.209C333.196 819.025 333.1 818.849 332.969 818.682C332.841 818.515 332.667 818.379 332.447 818.272C332.227 818.165 331.952 818.112 331.621 818.112C331.17 818.112 330.794 818.213 330.492 818.416C330.19 818.615 330.039 818.872 330.039 819.188C330.039 819.462 330.141 819.682 330.343 819.849C330.545 820.016 330.872 820.152 331.323 820.259L332.623 820.557C333.376 820.731 333.937 820.999 334.306 821.361C334.675 821.724 334.86 822.194 334.86 822.773C334.86 823.263 334.718 823.7 334.434 824.083C334.153 824.463 333.761 824.762 333.257 824.978C332.756 825.195 332.175 825.303 331.515 825.303C330.599 825.303 329.851 825.108 329.272 824.717C328.693 824.323 328.338 823.764 328.207 823.039L329.746 822.805C329.842 823.206 330.039 823.51 330.338 823.716C330.636 823.918 331.025 824.019 331.504 824.019C332.026 824.019 332.443 823.911 332.756 823.695C333.068 823.474 333.225 823.206 333.225 822.89C333.225 822.635 333.129 822.42 332.937 822.246C332.749 822.072 332.459 821.94 332.069 821.852L330.684 821.548C329.92 821.374 329.356 821.097 328.99 820.717C328.628 820.337 328.447 819.856 328.447 819.273C328.447 818.79 328.582 818.368 328.852 818.006C329.121 817.643 329.494 817.361 329.97 817.159C330.446 816.953 330.991 816.85 331.605 816.85C332.49 816.85 333.186 817.042 333.693 817.425C334.201 817.805 334.537 818.315 334.7 818.954ZM338.992 825.319C338.474 825.319 338.005 825.223 337.586 825.032C337.167 824.836 336.835 824.554 336.59 824.185C336.348 823.815 336.228 823.363 336.228 822.826C336.228 822.365 336.316 821.985 336.494 821.686C336.672 821.388 336.911 821.152 337.213 820.978C337.515 820.804 337.852 820.673 338.225 820.584C338.598 820.495 338.978 820.428 339.365 820.381C339.855 820.325 340.253 820.278 340.558 820.243C340.864 820.204 341.086 820.142 341.224 820.056C341.363 819.971 341.432 819.833 341.432 819.641V819.604C341.432 819.138 341.3 818.778 341.038 818.522C340.778 818.267 340.391 818.139 339.876 818.139C339.34 818.139 338.918 818.258 338.609 818.496C338.303 818.73 338.092 818.991 337.975 819.279L336.478 818.938C336.656 818.441 336.915 818.039 337.256 817.734C337.6 817.425 337.996 817.201 338.444 817.063C338.891 816.921 339.362 816.85 339.855 816.85C340.182 816.85 340.528 816.889 340.894 816.967C341.263 817.042 341.608 817.18 341.927 817.382C342.25 817.585 342.515 817.874 342.721 818.251C342.927 818.624 343.03 819.108 343.03 819.705V825.138H341.474V824.019H341.411C341.308 824.225 341.153 824.428 340.947 824.627C340.741 824.826 340.477 824.991 340.153 825.122C339.83 825.254 339.443 825.319 338.992 825.319ZM339.338 824.041C339.779 824.041 340.155 823.954 340.468 823.78C340.784 823.606 341.023 823.379 341.187 823.098C341.354 822.814 341.437 822.51 341.437 822.187V821.132C341.38 821.189 341.27 821.242 341.107 821.292C340.947 821.338 340.764 821.379 340.558 821.415C340.352 821.447 340.152 821.477 339.956 821.505C339.761 821.53 339.598 821.551 339.466 821.569C339.157 821.608 338.875 821.674 338.619 821.766C338.367 821.859 338.165 821.992 338.012 822.166C337.863 822.336 337.788 822.564 337.788 822.848C337.788 823.242 337.934 823.54 338.225 823.742C338.516 823.941 338.887 824.041 339.338 824.041ZM348.582 828.377C347.932 828.377 347.372 828.292 346.904 828.121C346.439 827.951 346.059 827.725 345.764 827.445C345.469 827.164 345.249 826.857 345.103 826.523L346.472 825.958C346.568 826.115 346.696 826.28 346.856 826.454C347.019 826.631 347.239 826.782 347.516 826.907C347.797 827.031 348.157 827.093 348.598 827.093C349.201 827.093 349.7 826.946 350.094 826.651C350.489 826.36 350.686 825.894 350.686 825.255V823.647H350.584C350.489 823.821 350.35 824.014 350.169 824.227C349.991 824.44 349.746 824.625 349.434 824.781C349.121 824.937 348.715 825.016 348.214 825.016C347.568 825.016 346.985 824.865 346.467 824.563C345.952 824.257 345.544 823.808 345.242 823.215C344.943 822.619 344.794 821.885 344.794 821.015C344.794 820.145 344.942 819.399 345.236 818.778C345.535 818.157 345.943 817.681 346.462 817.35C346.98 817.017 347.568 816.85 348.225 816.85C348.733 816.85 349.143 816.935 349.455 817.105C349.768 817.272 350.011 817.468 350.185 817.691C350.363 817.915 350.499 818.112 350.595 818.283H350.712V816.956H352.273V825.319C352.273 826.022 352.11 826.599 351.783 827.05C351.456 827.501 351.014 827.835 350.457 828.052C349.903 828.268 349.278 828.377 348.582 828.377ZM348.566 823.695C349.024 823.695 349.411 823.588 349.727 823.375C350.046 823.158 350.288 822.849 350.451 822.448C350.618 822.043 350.702 821.559 350.702 820.994C350.702 820.443 350.62 819.959 350.457 819.54C350.293 819.121 350.054 818.794 349.738 818.56C349.421 818.322 349.031 818.203 348.566 818.203C348.086 818.203 347.687 818.327 347.367 818.576C347.048 818.821 346.806 819.154 346.643 819.577C346.483 820 346.403 820.472 346.403 820.994C346.403 821.53 346.485 822.001 346.648 822.405C346.811 822.81 347.053 823.126 347.372 823.354C347.696 823.581 348.093 823.695 348.566 823.695ZM357.935 825.303C357.129 825.303 356.435 825.131 355.853 824.787C355.274 824.439 354.826 823.95 354.51 823.322C354.198 822.69 354.042 821.949 354.042 821.1C354.042 820.262 354.198 819.524 354.51 818.885C354.826 818.245 355.267 817.746 355.831 817.388C356.399 817.029 357.064 816.85 357.823 816.85C358.285 816.85 358.733 816.926 359.166 817.079C359.599 817.231 359.988 817.471 360.332 817.798C360.677 818.125 360.948 818.549 361.147 819.071C361.346 819.589 361.446 820.22 361.446 820.962V821.527H354.942V820.333H359.885C359.885 819.914 359.8 819.543 359.629 819.22C359.459 818.893 359.219 818.636 358.91 818.448C358.605 818.26 358.246 818.165 357.834 818.165C357.387 818.165 356.996 818.276 356.662 818.496C356.332 818.712 356.076 818.996 355.895 819.348C355.718 819.696 355.629 820.074 355.629 820.483V821.415C355.629 821.962 355.725 822.427 355.917 822.81C356.112 823.194 356.383 823.487 356.731 823.689C357.08 823.888 357.486 823.988 357.951 823.988C358.253 823.988 358.528 823.945 358.777 823.86C359.026 823.771 359.24 823.64 359.421 823.466C359.603 823.292 359.741 823.077 359.837 822.821L361.344 823.093C361.224 823.537 361.007 823.925 360.695 824.259C360.386 824.589 359.997 824.847 359.528 825.032C359.063 825.213 358.532 825.303 357.935 825.303Z" fill="#1E1E1E"/>
<rect x="335.473" y="759.399" width="22.2441" height="23.3168" rx="11.122" fill="#FF2C20"/>
<path d="M346.559 778.256C345.498 778.256 344.554 778.074 343.725 777.71C342.901 777.34 342.25 776.834 341.772 776.19C341.299 775.541 341.055 774.793 341.041 773.945H344.137C344.156 774.3 344.272 774.613 344.485 774.883C344.703 775.148 344.992 775.354 345.352 775.501C345.712 775.648 346.116 775.721 346.566 775.721C347.035 775.721 347.449 775.638 347.809 775.472C348.169 775.307 348.451 775.077 348.654 774.783C348.858 774.49 348.96 774.151 348.96 773.768C348.96 773.38 348.851 773.036 348.633 772.738C348.42 772.435 348.112 772.198 347.71 772.028C347.312 771.857 346.838 771.772 346.289 771.772H344.933V769.514H346.289C346.753 769.514 347.163 769.433 347.518 769.272C347.878 769.111 348.157 768.889 348.356 768.604C348.555 768.316 348.654 767.979 348.654 767.596C348.654 767.231 348.567 766.912 348.391 766.637C348.221 766.358 347.98 766.14 347.667 765.984C347.359 765.827 346.999 765.749 346.587 765.749C346.171 765.749 345.79 765.825 345.444 765.977C345.098 766.123 344.821 766.334 344.613 766.609C344.405 766.883 344.293 767.205 344.279 767.575H341.332C341.346 766.737 341.585 765.998 342.049 765.359C342.513 764.719 343.138 764.22 343.924 763.86C344.715 763.496 345.607 763.313 346.602 763.313C347.605 763.313 348.484 763.496 349.237 763.86C349.989 764.225 350.574 764.717 350.991 765.337C351.412 765.953 351.621 766.644 351.616 767.411C351.621 768.226 351.367 768.905 350.856 769.45C350.349 769.994 349.689 770.34 348.874 770.487V770.6C349.944 770.737 350.759 771.109 351.318 771.715C351.881 772.317 352.16 773.069 352.156 773.974C352.16 774.802 351.921 775.539 351.438 776.183C350.96 776.826 350.3 777.333 349.457 777.702C348.614 778.072 347.648 778.256 346.559 778.256Z" fill="white"/>
<rect x="335.473" y="759.399" width="22.2441" height="23.3168" rx="11.122" stroke="white" stroke-width="2"/>
<path d="M63.5341 206.364V218H61.7727V208.125H61.7045L58.9205 209.943V208.261L61.8239 206.364H63.5341ZM66.6818 218V216.727L70.6193 212.648C71.0398 212.205 71.3864 211.816 71.6591 211.483C71.9356 211.146 72.142 210.826 72.2784 210.523C72.4148 210.22 72.483 209.898 72.483 209.557C72.483 209.17 72.392 208.837 72.2102 208.557C72.0284 208.273 71.7803 208.055 71.4659 207.903C71.1515 207.748 70.7973 207.67 70.4034 207.67C69.9867 207.67 69.6231 207.756 69.3125 207.926C69.0019 208.097 68.7633 208.337 68.5966 208.648C68.4299 208.958 68.3466 209.322 68.3466 209.739H66.6705C66.6705 209.03 66.8333 208.411 67.1591 207.881C67.4848 207.35 67.9318 206.939 68.5 206.648C69.0682 206.352 69.714 206.205 70.4375 206.205C71.1686 206.205 71.8125 206.35 72.3693 206.642C72.9299 206.93 73.3674 207.324 73.6818 207.824C73.9962 208.32 74.1534 208.881 74.1534 209.506C74.1534 209.938 74.072 210.36 73.9091 210.773C73.75 211.186 73.4716 211.646 73.0739 212.153C72.6761 212.657 72.1231 213.269 71.4148 213.989L69.1023 216.409V216.494H74.3409V218H66.6818ZM78.191 205.648H88.671V219.04H87.407V206.864H79.423V219.104H78.191V205.648ZM79.007 211.2H87.935V212.384H79.007V211.2ZM78.991 216.864H87.967V218.064H78.991V216.864ZM93.0114 213.17C93.0114 211.746 93.1989 210.436 93.5739 209.239C93.9489 208.042 94.4962 206.937 95.2159 205.926H96.7727C96.4924 206.301 96.2311 206.761 95.9886 207.307C95.7462 207.852 95.5341 208.451 95.3523 209.102C95.1705 209.75 95.0284 210.422 94.9261 211.119C94.8239 211.812 94.7727 212.496 94.7727 213.17C94.7727 214.072 94.8617 214.985 95.0398 215.909C95.2178 216.833 95.4583 217.691 95.7614 218.483C96.0644 219.275 96.4015 219.92 96.7727 220.42H95.2159C94.4962 219.409 93.9489 218.305 93.5739 217.108C93.1989 215.911 93.0114 214.598 93.0114 213.17ZM101.47 205.408H109.822V206.576H101.47V205.408ZM101.47 209.264H109.886V210.416H101.47V209.264ZM101.342 213.136H109.806V214.288H101.342V213.136ZM100.734 205.408H101.95V210.352C101.95 213.12 101.55 216.896 98.7979 219.296C98.6219 219.04 98.1419 218.608 97.8859 218.432C100.462 216.176 100.734 212.928 100.734 210.352V205.408ZM109.294 205.408H110.542V217.52C110.542 218.368 110.318 218.784 109.71 218.992C109.086 219.2 108.03 219.216 106.302 219.216C106.222 218.864 105.998 218.288 105.79 217.952C107.118 218 108.43 217.984 108.798 217.984C109.166 217.968 109.294 217.856 109.294 217.504V205.408ZM117.831 212.182C117.831 213.61 117.643 214.922 117.268 216.119C116.893 217.316 116.346 218.42 115.626 219.432H114.07C114.35 219.057 114.611 218.597 114.854 218.051C115.096 217.506 115.308 216.909 115.49 216.261C115.672 215.61 115.814 214.936 115.916 214.239C116.018 213.542 116.07 212.856 116.07 212.182C116.07 211.284 115.981 210.373 115.803 209.449C115.625 208.525 115.384 207.667 115.081 206.875C114.778 206.083 114.441 205.438 114.07 204.938H115.626C116.346 205.949 116.893 207.053 117.268 208.25C117.643 209.447 117.831 210.758 117.831 212.182ZM129.237 206.364V218H127.476V208.125H127.408L124.624 209.943V208.261L127.527 206.364H129.237ZM136.436 218.159C135.656 218.159 134.959 218.025 134.345 217.756C133.735 217.487 133.252 217.114 132.896 216.636C132.544 216.155 132.355 215.598 132.328 214.966H134.112C134.135 215.311 134.25 215.61 134.459 215.864C134.671 216.114 134.947 216.307 135.288 216.443C135.629 216.58 136.008 216.648 136.425 216.648C136.883 216.648 137.288 216.568 137.641 216.409C137.997 216.25 138.275 216.028 138.476 215.744C138.677 215.456 138.777 215.125 138.777 214.75C138.777 214.36 138.677 214.017 138.476 213.722C138.279 213.422 137.989 213.187 137.607 213.017C137.228 212.847 136.769 212.761 136.232 212.761H135.249V211.33H136.232C136.663 211.33 137.042 211.252 137.368 211.097C137.697 210.941 137.955 210.725 138.141 210.449C138.326 210.169 138.419 209.841 138.419 209.466C138.419 209.106 138.338 208.794 138.175 208.528C138.016 208.259 137.788 208.049 137.493 207.898C137.201 207.746 136.857 207.67 136.459 207.67C136.08 207.67 135.726 207.741 135.396 207.881C135.071 208.017 134.805 208.214 134.601 208.472C134.396 208.725 134.286 209.03 134.271 209.386H132.572C132.591 208.758 132.777 208.205 133.129 207.727C133.485 207.25 133.955 206.877 134.538 206.608C135.122 206.339 135.769 206.205 136.482 206.205C137.228 206.205 137.872 206.35 138.413 206.642C138.959 206.93 139.379 207.314 139.675 207.795C139.974 208.277 140.122 208.803 140.118 209.375C140.122 210.027 139.94 210.58 139.572 211.034C139.209 211.489 138.724 211.794 138.118 211.949V212.04C138.891 212.157 139.489 212.464 139.913 212.96C140.341 213.456 140.554 214.072 140.55 214.807C140.554 215.447 140.375 216.021 140.016 216.528C139.66 217.036 139.173 217.436 138.555 217.727C137.938 218.015 137.232 218.159 136.436 218.159ZM143.839 216.557C143.529 216.557 143.262 216.447 143.038 216.227C142.815 216.004 142.703 215.735 142.703 215.42C142.703 215.11 142.815 214.845 143.038 214.625C143.262 214.402 143.529 214.29 143.839 214.29C144.15 214.29 144.417 214.402 144.641 214.625C144.864 214.845 144.976 215.11 144.976 215.42C144.976 215.629 144.923 215.82 144.817 215.994C144.714 216.165 144.578 216.301 144.408 216.403C144.237 216.506 144.048 216.557 143.839 216.557ZM143.839 210.727C143.529 210.727 143.262 210.617 143.038 210.398C142.815 210.174 142.703 209.905 142.703 209.591C142.703 209.28 142.815 209.015 143.038 208.795C143.262 208.572 143.529 208.46 143.839 208.46C144.15 208.46 144.417 208.572 144.641 208.795C144.864 209.015 144.976 209.28 144.976 209.591C144.976 209.799 144.923 209.991 144.817 210.165C144.714 210.335 144.578 210.472 144.408 210.574C144.237 210.676 144.048 210.727 143.839 210.727ZM151.28 218.193C150.382 218.189 149.615 217.953 148.979 217.483C148.342 217.013 147.856 216.33 147.518 215.432C147.181 214.534 147.013 213.453 147.013 212.188C147.013 210.926 147.181 209.848 147.518 208.955C147.859 208.061 148.348 207.379 148.984 206.909C149.625 206.439 150.39 206.205 151.28 206.205C152.17 206.205 152.933 206.441 153.57 206.915C154.206 207.384 154.693 208.066 155.03 208.96C155.371 209.85 155.541 210.926 155.541 212.188C155.541 213.456 155.373 214.54 155.036 215.438C154.698 216.331 154.212 217.015 153.575 217.489C152.939 217.958 152.174 218.193 151.28 218.193ZM151.28 216.676C152.068 216.676 152.683 216.292 153.126 215.523C153.573 214.754 153.797 213.642 153.797 212.188C153.797 211.222 153.695 210.405 153.49 209.739C153.289 209.068 153 208.561 152.621 208.216C152.246 207.867 151.799 207.693 151.28 207.693C150.496 207.693 149.88 208.08 149.433 208.852C148.986 209.625 148.761 210.737 148.757 212.188C148.757 213.157 148.857 213.977 149.058 214.648C149.263 215.314 149.553 215.82 149.928 216.165C150.303 216.506 150.753 216.676 151.28 216.676ZM161.608 218.193C160.71 218.189 159.943 217.953 159.307 217.483C158.67 217.013 158.184 216.33 157.847 215.432C157.509 214.534 157.341 213.453 157.341 212.188C157.341 210.926 157.509 209.848 157.847 208.955C158.188 208.061 158.676 207.379 159.312 206.909C159.953 206.439 160.718 206.205 161.608 206.205C162.498 206.205 163.261 206.441 163.898 206.915C164.534 207.384 165.021 208.066 165.358 208.96C165.699 209.85 165.869 210.926 165.869 212.188C165.869 213.456 165.701 214.54 165.364 215.438C165.027 216.331 164.54 217.015 163.903 217.489C163.267 217.958 162.502 218.193 161.608 218.193ZM161.608 216.676C162.396 216.676 163.011 216.292 163.455 215.523C163.902 214.754 164.125 213.642 164.125 212.188C164.125 211.222 164.023 210.405 163.818 209.739C163.617 209.068 163.328 208.561 162.949 208.216C162.574 207.867 162.127 207.693 161.608 207.693C160.824 207.693 160.208 208.08 159.761 208.852C159.314 209.625 159.089 210.737 159.085 212.188C159.085 213.157 159.186 213.977 159.386 214.648C159.591 215.314 159.881 215.82 160.256 216.165C160.631 216.506 161.081 216.676 161.608 216.676ZM189.262 212.816H197.902V213.904H189.262V212.816ZM194.526 213.44C195.358 214.992 196.926 216.704 198.302 217.536C198.03 217.76 197.646 218.16 197.454 218.464C196.094 217.44 194.526 215.52 193.646 213.776L194.526 213.44ZM190.942 208.832V210.496H196.286V208.832H190.942ZM190.942 206.224V207.856H196.286V206.224H190.942ZM189.854 205.232H197.422V211.488H189.854V205.232ZM192.702 213.36L193.614 213.696C192.734 215.648 191.118 217.584 189.534 218.56C189.358 218.288 188.99 217.872 188.734 217.648C190.286 216.816 191.886 215.072 192.702 213.36ZM193.054 205.744H194.11V211.008H194.174V219.28H193.006V211.008H193.054V205.744ZM184.094 209.408H188.638V210.368H184.094V209.408ZM184.158 205.136H188.574V206.096H184.158V205.136ZM184.094 211.552H188.638V212.512H184.094V211.552ZM183.374 207.232H189.054V208.224H183.374V207.232ZM184.622 213.712H188.638V218.384H184.622V217.376H187.598V214.704H184.622V213.712ZM184.078 213.712H185.102V219.12H184.078V213.712ZM201.518 208.16V209.376H204.638V208.16H201.518ZM201.518 206.112V207.312H204.638V206.112H201.518ZM200.446 205.248H205.758V210.272H200.446V205.248ZM199.486 211.456H206.702V212.384H199.486V211.456ZM206.606 205.36H213.902V206.256H206.606V205.36ZM202.686 211.744H203.71V217.84L202.686 217.2V211.744ZM203.23 214.112H206.43V215.024H203.23V214.112ZM209.774 205.584L210.91 205.808C210.606 206.624 210.286 207.536 209.998 208.128L209.102 207.92C209.358 207.264 209.63 206.272 209.774 205.584ZM208.318 210.432V211.632H212.142V210.432H208.318ZM208.318 212.464V213.696H212.142V212.464H208.318ZM208.318 208.384V209.568H212.142V208.384H208.318ZM207.23 207.504H213.262V214.576H207.23V207.504ZM208.558 214.864L209.582 215.168C208.878 216.064 207.71 216.976 206.718 217.52C206.542 217.344 206.142 216.96 205.918 216.784C206.91 216.32 207.95 215.6 208.558 214.864ZM200.606 213.264H201.614C201.518 215.568 201.198 217.968 200.062 219.328C199.902 219.088 199.55 218.736 199.294 218.56C200.27 217.392 200.526 215.232 200.606 213.264ZM201.358 214.832C202.494 217.584 204.99 217.936 208.59 217.936C209.31 217.936 213.278 217.936 214.222 217.904C214.046 218.16 213.854 218.624 213.79 218.944H208.59C204.51 218.944 201.934 218.416 200.606 215.104L201.358 214.832ZM210.798 215.296L211.614 214.832C212.542 215.392 213.598 216.288 214.126 216.896L213.246 217.456C212.734 216.816 211.662 215.888 210.798 215.296ZM224.878 204.56H226.062V206.656H224.878V204.56ZM224.91 210.64H226.014V219.264H224.91V210.64ZM227.23 206.784L228.446 207.04C228.078 207.904 227.678 208.832 227.326 209.44L226.286 209.184C226.606 208.528 227.022 207.488 227.23 206.784ZM222.702 207.12L223.742 206.864C224.094 207.568 224.398 208.528 224.51 209.136L223.422 209.44C223.326 208.816 223.022 207.84 222.702 207.12ZM221.182 206.048H229.806V207.072H221.182V206.048ZM221.07 209.088H229.982V211.856H228.862V210.096H222.158V211.856H221.07V209.088ZM221.95 212.144H228.558V213.152H223.006V217.712H221.95V212.144ZM228.078 212.144H229.134V216.448C229.134 216.96 229.054 217.28 228.686 217.472C228.334 217.664 227.79 217.664 226.974 217.664C226.942 217.36 226.782 216.912 226.638 216.624C227.23 216.64 227.71 216.64 227.87 216.624C228.03 216.624 228.078 216.576 228.078 216.432V212.144ZM217.902 204.576L218.926 204.96C218.35 206.144 217.598 207.584 217.006 208.48L216.206 208.128C216.766 207.2 217.502 205.632 217.902 204.576ZM219.598 206.4L220.59 206.848C219.534 208.624 218.062 210.896 216.91 212.272L216.19 211.888C217.326 210.464 218.766 208.08 219.598 206.4ZM215.342 207.888L215.982 207.12C216.83 207.904 217.806 208.992 218.222 209.712L217.55 210.592C217.15 209.824 216.19 208.688 215.342 207.888ZM218.99 210.016L219.838 209.696C220.446 210.752 221.038 212.16 221.198 213.056L220.302 213.44C220.126 212.544 219.582 211.104 218.99 210.016ZM215.214 211.648C216.542 211.584 218.446 211.488 220.366 211.376V212.4C218.542 212.528 216.718 212.624 215.326 212.72L215.214 211.648ZM219.294 213.904L220.142 213.664C220.526 214.576 220.862 215.792 220.942 216.576L220.046 216.848C219.966 216.048 219.662 214.832 219.294 213.904ZM216.174 213.712L217.166 213.888C216.958 215.392 216.574 216.944 216.078 217.968C215.886 217.824 215.422 217.616 215.182 217.52C215.694 216.544 215.998 215.104 216.174 213.712ZM217.79 212.112H218.83V219.28H217.79V212.112ZM241.47 205.616C241.358 206.016 241.262 206.576 241.182 206.88C240.606 209.52 239.486 212.864 238.206 214.624C236.99 216.32 235.822 217.52 234.366 217.52C233.15 217.52 232.126 216.512 232.126 214.64C232.126 212.624 233.358 210.496 235.054 209.36C236.638 208.288 238.206 207.872 239.854 207.872C242.99 207.872 245.262 209.984 245.262 213.104C245.262 216.304 242.974 218.24 239.534 218.72L238.798 217.584C242.142 217.28 243.982 215.536 243.982 213.056C243.982 210.704 242.286 208.976 239.71 208.976C238.158 208.976 236.766 209.504 235.518 210.432C234.158 211.408 233.294 213.12 233.294 214.56C233.294 215.616 233.758 216.256 234.478 216.256C235.518 216.256 236.638 214.896 237.454 213.6C238.51 211.968 239.582 209.04 239.982 206.704C240.046 206.384 240.094 205.856 240.078 205.488L241.47 205.616ZM234.91 206.352C234.99 206.784 235.118 207.312 235.246 207.76C235.662 209.328 236.558 211.792 237.23 212.912C237.774 213.84 238.526 214.896 239.294 215.632L238.286 216.448C237.646 215.744 237.054 214.96 236.446 213.92C235.662 212.672 234.734 210.224 234.126 208.224C233.966 207.712 233.79 207.184 233.582 206.768L234.91 206.352ZM253.166 205.968H261.086V207.12H253.166V205.968ZM260.574 205.968H261.806C261.806 205.968 261.79 206.48 261.79 206.656C261.598 214.864 261.406 217.584 260.798 218.4C260.43 218.896 260.078 219.04 259.534 219.12C259.006 219.184 258.126 219.168 257.278 219.104C257.246 218.752 257.102 218.224 256.894 217.872C257.822 217.952 258.67 217.952 259.022 217.952C259.326 217.968 259.486 217.904 259.662 217.68C260.174 217.072 260.398 214.192 260.574 206.288V205.968ZM247.214 209.712L253.982 208.288L254.19 209.36L247.438 210.816L247.214 209.712ZM249.166 205.024H250.35V214.432C250.35 215.008 250.414 215.088 250.846 215.088C251.038 215.088 252.014 215.088 252.286 215.088C252.686 215.088 252.75 214.688 252.814 212.8C253.07 213.024 253.55 213.232 253.886 213.328C253.758 215.552 253.47 216.24 252.382 216.24C252.11 216.24 250.91 216.24 250.67 216.24C249.47 216.24 249.166 215.84 249.166 214.416V205.024ZM256.014 206.48H257.198C257.102 211.744 256.91 216.768 252.558 219.344C252.382 219.04 251.998 218.624 251.694 218.4C255.838 216.096 255.918 211.36 256.014 206.48ZM268.174 205.376C267.838 206.56 267.534 208.72 267.438 209.84C268.094 208.192 269.758 206.192 271.79 206.192C273.902 206.192 275.438 208.336 275.438 211.696C275.438 216.128 272.638 218.096 268.686 218.816L267.918 217.664C271.406 217.136 274.11 215.728 274.11 211.712C274.11 209.184 273.262 207.36 271.582 207.36C269.582 207.36 267.726 210.272 267.534 212.368C267.454 212.976 267.454 213.536 267.566 214.336L266.318 214.432C266.238 213.824 266.158 212.928 266.158 211.888C266.158 210.368 266.462 208.016 266.654 206.704C266.718 206.224 266.75 205.776 266.782 205.328L268.174 205.376Z" fill="black"/>
<line x1="26" y1="264.5" x2="369" y2="264.5" stroke="#E8E8E8"/>
<line x1="26" y1="362.5" x2="369" y2="362.5" stroke="#E8E8E8"/>
<path d="M63.5341 292.364V304H61.7727V294.125H61.7045L58.9205 295.943V294.261L61.8239 292.364H63.5341ZM70.5227 304.159C69.8106 304.159 69.1705 304.023 68.6023 303.75C68.0379 303.473 67.5871 303.095 67.25 302.614C66.9129 302.133 66.733 301.583 66.7102 300.966H68.4148C68.4564 301.466 68.678 301.877 69.0795 302.199C69.4811 302.521 69.9621 302.682 70.5227 302.682C70.9697 302.682 71.3655 302.58 71.7102 302.375C72.0587 302.167 72.3314 301.881 72.5284 301.517C72.7292 301.153 72.8295 300.739 72.8295 300.273C72.8295 299.799 72.7273 299.377 72.5227 299.006C72.3182 298.634 72.036 298.343 71.6761 298.131C71.3201 297.919 70.911 297.811 70.4489 297.807C70.0966 297.807 69.7424 297.867 69.3864 297.989C69.0303 298.11 68.7424 298.269 68.5227 298.466L66.9148 298.227L67.5682 292.364H73.9659V293.869H69.0284L68.6591 297.125H68.7273C68.9545 296.905 69.2557 296.722 69.6307 296.574C70.0095 296.426 70.4148 296.352 70.8466 296.352C71.5549 296.352 72.1856 296.521 72.7386 296.858C73.2955 297.195 73.733 297.655 74.0511 298.239C74.3731 298.818 74.5322 299.485 74.5284 300.239C74.5322 300.992 74.3617 301.665 74.017 302.256C73.6761 302.847 73.2027 303.312 72.5966 303.653C71.9943 303.991 71.303 304.159 70.5227 304.159ZM78.3004 291.648H88.7804V305.04H87.5164V292.864H79.5324V305.104H78.3004V291.648ZM79.1164 297.2H88.0444V298.384H79.1164V297.2ZM79.1004 302.864H88.0764V304.064H79.1004V302.864ZM93.1207 299.17C93.1207 297.746 93.3082 296.436 93.6832 295.239C94.0582 294.042 94.6056 292.937 95.3253 291.926H96.8821C96.6018 292.301 96.3404 292.761 96.098 293.307C95.8556 293.852 95.6435 294.451 95.4616 295.102C95.2798 295.75 95.1378 296.422 95.0355 297.119C94.9332 297.812 94.8821 298.496 94.8821 299.17C94.8821 300.072 94.9711 300.985 95.1491 301.909C95.3272 302.833 95.5677 303.691 95.8707 304.483C96.1738 305.275 96.5109 305.92 96.8821 306.42H95.3253C94.6056 305.409 94.0582 304.305 93.6832 303.108C93.3082 301.911 93.1207 300.598 93.1207 299.17ZM98.5872 294.512H112.475V295.696H98.5872V294.512ZM104.875 290.576H106.139V305.28H104.875V290.576ZM104.603 295.12L105.643 295.472C104.155 298.8 101.563 301.936 98.8753 303.584C98.6513 303.264 98.2513 302.816 97.9633 302.56C100.603 301.136 103.243 298.096 104.603 295.12ZM106.379 295.136C107.771 298.032 110.475 301.072 113.051 302.496C112.747 302.736 112.331 303.216 112.123 303.536C109.515 301.888 106.891 298.704 105.371 295.504L106.379 295.136ZM117.94 298.182C117.94 299.61 117.753 300.922 117.378 302.119C117.003 303.316 116.455 304.42 115.736 305.432H114.179C114.459 305.057 114.721 304.597 114.963 304.051C115.205 303.506 115.418 302.909 115.599 302.261C115.781 301.61 115.923 300.936 116.026 300.239C116.128 299.542 116.179 298.856 116.179 298.182C116.179 297.284 116.09 296.373 115.912 295.449C115.734 294.525 115.493 293.667 115.19 292.875C114.887 292.083 114.55 291.438 114.179 290.938H115.736C116.455 291.949 117.003 293.053 117.378 294.25C117.753 295.447 117.94 296.758 117.94 298.182ZM129.347 292.364V304H127.585V294.125H127.517L124.733 295.943V294.261L127.636 292.364H129.347ZM136.335 304.159C135.623 304.159 134.983 304.023 134.415 303.75C133.85 303.473 133.4 303.095 133.062 302.614C132.725 302.133 132.545 301.583 132.523 300.966H134.227C134.269 301.466 134.491 301.877 134.892 302.199C135.294 302.521 135.775 302.682 136.335 302.682C136.782 302.682 137.178 302.58 137.523 302.375C137.871 302.167 138.144 301.881 138.341 301.517C138.542 301.153 138.642 300.739 138.642 300.273C138.642 299.799 138.54 299.377 138.335 299.006C138.131 298.634 137.848 298.343 137.489 298.131C137.133 297.919 136.723 297.811 136.261 297.807C135.909 297.807 135.555 297.867 135.199 297.989C134.843 298.11 134.555 298.269 134.335 298.466L132.727 298.227L133.381 292.364H139.778V293.869H134.841L134.472 297.125H134.54C134.767 296.905 135.068 296.722 135.443 296.574C135.822 296.426 136.227 296.352 136.659 296.352C137.367 296.352 137.998 296.521 138.551 296.858C139.108 297.195 139.545 297.655 139.864 298.239C140.186 298.818 140.345 299.485 140.341 300.239C140.345 300.992 140.174 301.665 139.83 302.256C139.489 302.847 139.015 303.312 138.409 303.653C137.807 303.991 137.116 304.159 136.335 304.159ZM143.558 302.557C143.248 302.557 142.981 302.447 142.757 302.227C142.534 302.004 142.422 301.735 142.422 301.42C142.422 301.11 142.534 300.845 142.757 300.625C142.981 300.402 143.248 300.29 143.558 300.29C143.869 300.29 144.136 300.402 144.359 300.625C144.583 300.845 144.695 301.11 144.695 301.42C144.695 301.629 144.642 301.82 144.536 301.994C144.433 302.165 144.297 302.301 144.126 302.403C143.956 302.506 143.767 302.557 143.558 302.557ZM143.558 296.727C143.248 296.727 142.981 296.617 142.757 296.398C142.534 296.174 142.422 295.905 142.422 295.591C142.422 295.28 142.534 295.015 142.757 294.795C142.981 294.572 143.248 294.46 143.558 294.46C143.869 294.46 144.136 294.572 144.359 294.795C144.583 295.015 144.695 295.28 144.695 295.591C144.695 295.799 144.642 295.991 144.536 296.165C144.433 296.335 144.297 296.472 144.126 296.574C143.956 296.676 143.767 296.727 143.558 296.727ZM150.999 304.193C150.101 304.189 149.334 303.953 148.697 303.483C148.061 303.013 147.574 302.33 147.237 301.432C146.9 300.534 146.732 299.453 146.732 298.188C146.732 296.926 146.9 295.848 147.237 294.955C147.578 294.061 148.067 293.379 148.703 292.909C149.343 292.439 150.108 292.205 150.999 292.205C151.889 292.205 152.652 292.441 153.288 292.915C153.925 293.384 154.411 294.066 154.749 294.96C155.089 295.85 155.26 296.926 155.26 298.188C155.26 299.456 155.091 300.54 154.754 301.438C154.417 302.331 153.93 303.015 153.294 303.489C152.658 303.958 151.893 304.193 150.999 304.193ZM150.999 302.676C151.786 302.676 152.402 302.292 152.845 301.523C153.292 300.754 153.516 299.642 153.516 298.188C153.516 297.222 153.413 296.405 153.209 295.739C153.008 295.068 152.718 294.561 152.339 294.216C151.964 293.867 151.518 293.693 150.999 293.693C150.214 293.693 149.599 294.08 149.152 294.852C148.705 295.625 148.48 296.737 148.476 298.188C148.476 299.157 148.576 299.977 148.777 300.648C148.982 301.314 149.271 301.82 149.646 302.165C150.021 302.506 150.472 302.676 150.999 302.676ZM161.327 304.193C160.429 304.189 159.662 303.953 159.026 303.483C158.389 303.013 157.902 302.33 157.565 301.432C157.228 300.534 157.06 299.453 157.06 298.188C157.06 296.926 157.228 295.848 157.565 294.955C157.906 294.061 158.395 293.379 159.031 292.909C159.671 292.439 160.437 292.205 161.327 292.205C162.217 292.205 162.98 292.441 163.616 292.915C164.253 293.384 164.74 294.066 165.077 294.96C165.418 295.85 165.588 296.926 165.588 298.188C165.588 299.456 165.42 300.54 165.082 301.438C164.745 302.331 164.259 303.015 163.622 303.489C162.986 303.958 162.221 304.193 161.327 304.193ZM161.327 302.676C162.115 302.676 162.73 302.292 163.173 301.523C163.62 300.754 163.844 299.642 163.844 298.188C163.844 297.222 163.741 296.405 163.537 295.739C163.336 295.068 163.046 294.561 162.668 294.216C162.293 293.867 161.846 293.693 161.327 293.693C160.543 293.693 159.927 294.08 159.48 294.852C159.033 295.625 158.808 296.737 158.804 298.188C158.804 299.157 158.904 299.977 159.105 300.648C159.31 301.314 159.599 301.82 159.974 302.165C160.349 302.506 160.8 302.676 161.327 302.676ZM185.908 292.176C186.372 292.224 186.836 292.256 187.364 292.256C188.292 292.256 192.948 292.256 193.844 292.256C194.292 292.256 194.868 292.224 195.332 292.176V293.504C194.852 293.472 194.292 293.44 193.844 293.44C192.948 293.44 188.292 293.44 187.38 293.44C186.852 293.44 186.324 293.472 185.908 293.504V292.176ZM184.004 296.192C184.436 296.24 184.9 296.256 185.396 296.256C186.324 296.256 195.012 296.256 195.86 296.256C196.196 296.256 196.724 296.24 197.124 296.192V297.504C196.756 297.488 196.26 297.472 195.86 297.472C195.012 297.472 186.324 297.472 185.396 297.472C184.916 297.472 184.436 297.488 184.004 297.52V296.192ZM191.54 296.832C191.54 298.848 191.284 300.512 190.564 301.856C189.988 302.928 188.772 304.064 187.428 304.768L186.244 303.904C187.476 303.376 188.628 302.464 189.252 301.44C190.052 300.176 190.18 298.608 190.196 296.848L191.54 296.832ZM211.268 293.312C211.172 293.44 210.964 293.792 210.884 294C210.244 295.584 209.028 297.824 207.7 299.296C205.908 301.296 203.62 303.2 201.092 304.352L200.068 303.28C202.66 302.288 205.012 300.368 206.66 298.544C207.748 297.312 208.916 295.408 209.332 294.08C208.756 294.08 203.636 294.08 203.092 294.08C202.516 294.08 201.652 294.144 201.476 294.16V292.72C201.684 292.752 202.596 292.816 203.092 292.816C203.716 292.816 208.66 292.816 209.268 292.816C209.78 292.816 210.212 292.768 210.468 292.688L211.268 293.312ZM207.908 298.464C209.636 299.904 211.764 302.144 212.852 303.472L211.748 304.448C210.596 302.928 208.724 300.88 206.996 299.36L207.908 298.464ZM219.86 302.592C219.86 301.696 219.86 294.624 219.86 293.296C219.86 292.832 219.828 292.128 219.748 291.616H221.316C221.252 292.112 221.204 292.8 221.204 293.296C221.204 295.776 221.22 301.84 221.22 302.592C221.22 303.104 221.252 303.968 221.316 304.496H219.764C219.844 303.984 219.86 303.184 219.86 302.592ZM220.916 295.824C223.028 296.432 226.26 297.664 228.036 298.528L227.476 299.888C225.652 298.912 222.66 297.776 220.916 297.232V295.824Z" fill="black"/>
<g clip-path="url(#clip3_5_1484)">
<path d="M352.774 211.312C352.774 210.803 352.572 210.316 352.212 209.956C351.853 209.597 351.365 209.395 350.857 209.395H344.8L345.72 205.015C345.74 204.919 345.749 204.814 345.749 204.709C345.749 204.316 345.586 203.952 345.328 203.693L344.312 202.687L338.006 208.992C337.651 209.347 337.44 209.826 337.44 210.353V219.937C337.44 220.445 337.642 220.932 338.002 221.292C338.361 221.651 338.849 221.853 339.357 221.853H347.982C348.778 221.853 349.458 221.374 349.745 220.684L352.64 213.928C352.726 213.707 352.774 213.477 352.774 213.228V211.312ZM331.69 221.853H335.524V210.353H331.69V221.853Z" fill="black"/>
</g>
<g clip-path="url(#clip4_5_1484)">
<path d="M350.774 299.312C350.774 298.803 350.572 298.316 350.212 297.956C349.853 297.597 349.365 297.395 348.857 297.395H342.8L343.72 293.015C343.74 292.919 343.749 292.814 343.749 292.709C343.749 292.316 343.586 291.952 343.328 291.693L342.312 290.687L336.006 296.992C335.651 297.347 335.44 297.826 335.44 298.353V307.937C335.44 308.445 335.642 308.932 336.002 309.292C336.361 309.651 336.849 309.853 337.357 309.853H345.982C346.778 309.853 347.458 309.374 347.745 308.684L350.64 301.928C350.726 301.707 350.774 301.477 350.774 301.228V299.312ZM329.69 309.853H333.524V298.353H329.69V309.853Z" fill="black"/>
</g>
<rect x="27" y="671" width="343" height="51" rx="25.5" fill="#FFB84E"/>
<path d="M154.957 692.131V690.364H164.241V692.131H160.644V702H158.553V692.131H154.957ZM168.481 702.17C167.629 702.17 166.89 701.983 166.265 701.608C165.64 701.233 165.155 700.708 164.81 700.034C164.469 699.36 164.299 698.572 164.299 697.67C164.299 696.769 164.469 695.979 164.81 695.301C165.155 694.623 165.64 694.097 166.265 693.722C166.89 693.347 167.629 693.159 168.481 693.159C169.333 693.159 170.072 693.347 170.697 693.722C171.322 694.097 171.805 694.623 172.146 695.301C172.49 695.979 172.663 696.769 172.663 697.67C172.663 698.572 172.49 699.36 172.146 700.034C171.805 700.708 171.322 701.233 170.697 701.608C170.072 701.983 169.333 702.17 168.481 702.17ZM168.492 700.523C168.954 700.523 169.341 700.396 169.651 700.142C169.962 699.884 170.193 699.54 170.344 699.108C170.5 698.676 170.577 698.195 170.577 697.665C170.577 697.131 170.5 696.648 170.344 696.216C170.193 695.78 169.962 695.434 169.651 695.176C169.341 694.919 168.954 694.79 168.492 694.79C168.019 694.79 167.625 694.919 167.31 695.176C167 695.434 166.767 695.78 166.612 696.216C166.46 696.648 166.384 697.131 166.384 697.665C166.384 698.195 166.46 698.676 166.612 699.108C166.767 699.54 167 699.884 167.31 700.142C167.625 700.396 168.019 700.523 168.492 700.523ZM178.442 702H174.499V690.364H178.522C179.677 690.364 180.67 690.597 181.499 691.062C182.333 691.525 182.973 692.189 183.42 693.057C183.867 693.924 184.09 694.962 184.09 696.17C184.09 697.383 183.865 698.424 183.414 699.295C182.967 700.167 182.321 700.835 181.477 701.301C180.636 701.767 179.624 702 178.442 702ZM176.607 700.176H178.34C179.151 700.176 179.827 700.028 180.369 699.733C180.91 699.434 181.317 698.989 181.59 698.398C181.863 697.803 181.999 697.061 181.999 696.17C181.999 695.28 181.863 694.542 181.59 693.955C181.317 693.364 180.914 692.922 180.38 692.631C179.85 692.335 179.191 692.188 178.403 692.188H176.607V700.176ZM189.809 702.17C188.957 702.17 188.218 701.983 187.593 701.608C186.968 701.233 186.483 700.708 186.138 700.034C185.798 699.36 185.627 698.572 185.627 697.67C185.627 696.769 185.798 695.979 186.138 695.301C186.483 694.623 186.968 694.097 187.593 693.722C188.218 693.347 188.957 693.159 189.809 693.159C190.661 693.159 191.4 693.347 192.025 693.722C192.65 694.097 193.133 694.623 193.474 695.301C193.818 695.979 193.991 696.769 193.991 697.67C193.991 698.572 193.818 699.36 193.474 700.034C193.133 700.708 192.65 701.233 192.025 701.608C191.4 701.983 190.661 702.17 189.809 702.17ZM189.82 700.523C190.282 700.523 190.669 700.396 190.979 700.142C191.29 699.884 191.521 699.54 191.673 699.108C191.828 698.676 191.906 698.195 191.906 697.665C191.906 697.131 191.828 696.648 191.673 696.216C191.521 695.78 191.29 695.434 190.979 695.176C190.669 694.919 190.282 694.79 189.82 694.79C189.347 694.79 188.953 694.919 188.638 695.176C188.328 695.434 188.095 695.78 187.94 696.216C187.788 696.648 187.712 697.131 187.712 697.665C187.712 698.195 187.788 698.676 187.94 699.108C188.095 699.54 188.328 699.884 188.638 700.142C188.953 700.396 189.347 700.523 189.82 700.523ZM202.456 689.168C202.328 689.76 202.12 690.704 201.672 691.856C201.336 692.64 200.872 693.552 200.424 694.192C200.856 694 201.704 693.888 202.248 693.888C203.576 693.888 204.584 694.672 204.584 696.16C204.584 697.024 204.632 698.768 204.648 699.776H202.728C202.792 699.024 202.824 697.664 202.808 696.8C202.808 695.776 202.168 695.44 201.496 695.44C200.616 695.44 199.608 695.968 199 696.544C198.52 697.024 198.072 697.6 197.528 698.304L195.816 697.024C197.864 695.136 199.096 693.408 199.768 691.648C200.088 690.784 200.296 689.808 200.344 688.992L202.456 689.168ZM196.424 690.656C197.24 690.768 198.424 690.832 199.24 690.832C201.352 690.832 204.248 690.72 206.568 690.304L206.552 692.16C204.296 692.48 201.08 692.624 199.128 692.624C198.472 692.624 197.304 692.592 196.424 692.512V690.656ZM209.096 695.2C208.6 695.344 207.736 695.664 207.192 695.872C206.152 696.272 204.712 696.848 203.208 697.616C201.752 698.368 200.968 699.056 200.968 699.936C200.968 700.816 201.736 701.056 203.288 701.056C204.648 701.056 206.44 700.88 207.848 700.592L207.784 702.656C206.712 702.8 204.76 702.944 203.24 702.944C200.744 702.944 198.872 702.32 198.872 700.256C198.872 698.032 201.16 696.72 203.08 695.76C204.552 694.992 205.56 694.608 206.52 694.16C207.144 693.888 207.704 693.632 208.312 693.328L209.096 695.2ZM215.112 694.656V700.544H213.24V696.432H211.368V694.656H215.112ZM215.112 699.712C215.752 700.768 216.968 701.232 218.632 701.296C220.504 701.376 224.136 701.328 226.296 701.152C226.088 701.6 225.768 702.528 225.688 703.104C223.752 703.2 220.52 703.232 218.6 703.152C216.632 703.072 215.304 702.608 214.264 701.36C213.56 701.984 212.84 702.592 211.976 703.296L211.032 701.296C211.752 700.848 212.616 700.288 213.352 699.712H215.112ZM211.4 689.936L212.824 688.784C213.784 689.456 214.952 690.464 215.512 691.216L213.976 692.48C213.496 691.728 212.344 690.656 211.4 689.936ZM217.496 689.984H224.52V694.512H217.496V692.944H222.648V691.552H217.496V689.984ZM219.592 688.384L221.864 688.672C221.496 689.552 221.112 690.368 220.824 690.944L219 690.608C219.24 689.952 219.48 689.056 219.592 688.384ZM216.568 689.984H218.44V700.368H216.568V689.984ZM217.656 695.584H225.144V700.368H217.656V698.784H223.256V697.168H217.656V695.584ZM236.472 700.144H240.584V702H236.472V700.144ZM227.464 691.28H233.336V693.168H227.464V691.28ZM235.624 690.24H241.448V702.992H239.512V692.096H237.464V703.12H235.624V690.24ZM232.856 691.28H234.712C234.712 691.28 234.712 691.92 234.712 692.16C234.568 699.008 234.456 701.472 233.944 702.224C233.576 702.752 233.24 702.944 232.712 703.04C232.232 703.152 231.512 703.152 230.776 703.12C230.744 702.56 230.536 701.728 230.216 701.184C230.856 701.248 231.432 701.248 231.736 701.248C231.976 701.264 232.12 701.184 232.28 700.96C232.616 700.48 232.744 698.176 232.856 691.712V691.28ZM229.368 688.64H231.256C231.24 694.944 231.176 700.256 228.408 703.44C228.104 702.976 227.464 702.336 226.984 702.032C229.48 699.216 229.352 694.496 229.368 688.64Z" fill="white"/>
<path d="M359.003 220.08C358.581 220.08 358.206 220.009 357.878 219.866C357.552 219.724 357.297 219.53 357.111 219.284C356.927 219.036 356.837 218.755 356.838 218.44C356.837 218.196 356.89 217.972 356.998 217.767C357.105 217.562 357.251 217.392 357.435 217.256C357.621 217.117 357.827 217.029 358.054 216.991V216.952C357.755 216.885 357.513 216.733 357.327 216.494C357.143 216.254 357.052 215.976 357.054 215.662C357.052 215.363 357.136 215.096 357.304 214.861C357.473 214.626 357.704 214.441 357.998 214.307C358.291 214.17 358.626 214.102 359.003 214.102C359.376 214.102 359.709 214.17 360 214.307C360.294 214.441 360.525 214.626 360.694 214.861C360.864 215.096 360.949 215.363 360.949 215.662C360.949 215.976 360.855 216.254 360.668 216.494C360.482 216.733 360.243 216.885 359.949 216.952V216.991C360.176 217.029 360.381 217.117 360.563 217.256C360.747 217.392 360.892 217.562 361 217.767C361.11 217.972 361.165 218.196 361.165 218.44C361.165 218.755 361.072 219.036 360.887 219.284C360.701 219.53 360.445 219.724 360.12 219.866C359.796 220.009 359.424 220.08 359.003 220.08ZM359.003 219.267C359.221 219.267 359.41 219.23 359.571 219.156C359.732 219.08 359.857 218.974 359.946 218.838C360.035 218.702 360.081 218.545 360.083 218.366C360.081 218.181 360.033 218.017 359.938 217.875C359.845 217.731 359.717 217.618 359.554 217.537C359.393 217.455 359.21 217.415 359.003 217.415C358.795 217.415 358.609 217.455 358.446 217.537C358.283 217.618 358.155 217.731 358.06 217.875C357.967 218.017 357.922 218.181 357.924 218.366C357.922 218.545 357.965 218.702 358.054 218.838C358.143 218.973 358.268 219.078 358.429 219.153C358.592 219.229 358.783 219.267 359.003 219.267ZM359.003 216.616C359.181 216.616 359.338 216.58 359.475 216.509C359.613 216.437 359.722 216.336 359.801 216.207C359.881 216.079 359.922 215.93 359.924 215.761C359.922 215.595 359.882 215.449 359.804 215.324C359.727 215.197 359.619 215.099 359.48 215.031C359.342 214.961 359.183 214.926 359.003 214.926C358.819 214.926 358.658 214.961 358.517 215.031C358.379 215.099 358.271 215.197 358.194 215.324C358.118 215.449 358.081 215.595 358.083 215.761C358.081 215.93 358.119 216.079 358.196 216.207C358.276 216.334 358.385 216.435 358.523 216.509C358.663 216.58 358.823 216.616 359.003 216.616Z" fill="black"/>
<path d="M354.365 310V309.239L356.385 307.259C356.578 307.063 356.739 306.89 356.868 306.739C356.996 306.587 357.093 306.44 357.157 306.298C357.222 306.156 357.254 306.005 357.254 305.844C357.254 305.66 357.212 305.503 357.129 305.372C357.046 305.24 356.931 305.137 356.785 305.065C356.639 304.993 356.474 304.957 356.288 304.957C356.097 304.957 355.929 304.997 355.785 305.077C355.641 305.154 355.529 305.265 355.45 305.409C355.372 305.553 355.333 305.724 355.333 305.923H354.331C354.331 305.554 354.415 305.233 354.583 304.96C354.752 304.687 354.984 304.476 355.279 304.327C355.577 304.177 355.918 304.102 356.302 304.102C356.692 304.102 357.035 304.175 357.331 304.321C357.626 304.467 357.855 304.667 358.018 304.92C358.183 305.174 358.265 305.464 358.265 305.79C358.265 306.008 358.224 306.222 358.14 306.432C358.057 306.642 357.91 306.875 357.7 307.131C357.492 307.386 357.199 307.696 356.822 308.06L355.819 309.08V309.119H358.353V310H354.365ZM361.484 310.111C361.016 310.111 360.615 309.992 360.279 309.756C359.946 309.517 359.69 309.173 359.51 308.724C359.332 308.274 359.243 307.731 359.243 307.097C359.244 306.462 359.334 305.922 359.512 305.477C359.692 305.03 359.949 304.689 360.282 304.455C360.618 304.22 361.018 304.102 361.484 304.102C361.95 304.102 362.35 304.22 362.686 304.455C363.021 304.689 363.278 305.03 363.456 305.477C363.636 305.924 363.725 306.464 363.725 307.097C363.725 307.733 363.636 308.277 363.456 308.727C363.278 309.176 363.021 309.519 362.686 309.756C362.352 309.992 361.952 310.111 361.484 310.111ZM361.484 309.222C361.848 309.222 362.135 309.043 362.345 308.685C362.557 308.325 362.663 307.795 362.663 307.097C362.663 306.634 362.615 306.246 362.518 305.932C362.422 305.617 362.285 305.381 362.109 305.222C361.933 305.061 361.725 304.98 361.484 304.98C361.122 304.98 360.836 305.16 360.626 305.52C360.416 305.878 360.31 306.403 360.308 307.097C360.306 307.561 360.352 307.951 360.447 308.267C360.544 308.583 360.68 308.822 360.856 308.983C361.032 309.142 361.242 309.222 361.484 309.222Z" fill="black"/>
<path d="M45.7778 203H30.2222C29.6329 203 29.0676 203.234 28.6509 203.651C28.2341 204.068 28 204.633 28 205.222V220.778C28 221.367 28.2341 221.932 28.6509 222.349C29.0676 222.766 29.6329 223 30.2222 223H45.7778C46.3671 223 46.9324 222.766 47.3491 222.349C47.7659 221.932 48 221.367 48 220.778V205.222C48 204.633 47.7659 204.068 47.3491 203.651C46.9324 203.234 46.3671 203 45.7778 203ZM45.7778 205.222V220.778H30.2222V205.222H45.7778ZM35.7778 218.556L31.3333 214.111L32.9 212.533L35.7778 215.411L43.1 208.089L44.6667 209.667" fill="black"/>
<path d="M45.7778 289H30.2222C29.6329 289 29.0676 289.234 28.6509 289.651C28.2341 290.068 28 290.633 28 291.222V306.778C28 307.367 28.2341 307.932 28.6509 308.349C29.0676 308.766 29.6329 309 30.2222 309H45.7778C46.3672 309 46.9324 308.766 47.3492 308.349C47.7659 307.932 48 307.367 48 306.778V291.222C48 290.633 47.7659 290.068 47.3492 289.651C46.9324 289.234 46.3672 289 45.7778 289ZM45.7778 291.222V306.778H30.2222V291.222H45.7778Z" fill="black"/>
<path d="M374.368 75.904V75.968L362.528 82.176L361.776 80.736L370.944 75.968V75.92L361.776 71.152L362.528 69.712L374.368 75.904Z" fill="white"/>
<path d="M162.478 66.1818H167.315L173.792 81.9915H174.048L180.525 66.1818H185.362V88H181.569V73.0107H181.367L175.337 87.9361H172.503L166.473 72.9787H166.271V88H162.478V66.1818ZM194.204 88.3303C193.167 88.3303 192.233 88.1456 191.402 87.7763C190.578 87.3999 189.925 86.8459 189.442 86.1143C188.966 85.3828 188.728 84.4808 188.728 83.4084C188.728 82.4851 188.899 81.7216 189.24 81.1179C189.58 80.5142 190.046 80.0312 190.635 79.669C191.225 79.3068 191.889 79.0334 192.627 78.8487C193.373 78.657 194.144 78.5185 194.939 78.4332C195.898 78.3338 196.676 78.245 197.272 78.1669C197.869 78.0817 198.302 77.9538 198.572 77.7834C198.849 77.6058 198.987 77.3324 198.987 76.9631V76.8991C198.987 76.0966 198.749 75.4751 198.274 75.0348C197.798 74.5945 197.112 74.3743 196.218 74.3743C195.273 74.3743 194.524 74.5803 193.97 74.9922C193.423 75.4041 193.053 75.8906 192.862 76.4517L189.261 75.9403C189.545 74.946 190.014 74.1151 190.667 73.4474C191.32 72.7727 192.119 72.2685 193.064 71.9347C194.009 71.5938 195.053 71.4233 196.196 71.4233C196.985 71.4233 197.769 71.5156 198.551 71.7003C199.332 71.8849 200.046 72.1903 200.692 72.6165C201.338 73.0355 201.857 73.6072 202.247 74.3317C202.645 75.0561 202.844 75.9616 202.844 77.0483V88H199.137V85.7521H199.009C198.774 86.2067 198.444 86.6328 198.018 87.0305C197.599 87.4212 197.07 87.7372 196.431 87.9787C195.798 88.2131 195.056 88.3303 194.204 88.3303ZM195.205 85.4964C195.98 85.4964 196.651 85.3437 197.219 85.0384C197.787 84.7259 198.224 84.3139 198.529 83.8026C198.842 83.2912 198.998 82.7337 198.998 82.13V80.2017C198.877 80.3011 198.671 80.3935 198.38 80.4787C198.096 80.5639 197.776 80.6385 197.421 80.7024C197.066 80.7663 196.715 80.8232 196.367 80.8729C196.019 80.9226 195.717 80.9652 195.461 81.0007C194.886 81.0788 194.371 81.2067 193.916 81.3842C193.462 81.5618 193.103 81.8104 192.84 82.13C192.578 82.4425 192.446 82.8473 192.446 83.3445C192.446 84.0547 192.705 84.5909 193.224 84.9531C193.742 85.3153 194.403 85.4964 195.205 85.4964ZM206.722 88V71.6364H210.461V74.3636H210.632C210.93 73.419 211.441 72.6911 212.166 72.1797C212.897 71.6612 213.732 71.402 214.669 71.402C214.882 71.402 215.12 71.4126 215.383 71.4339C215.653 71.4482 215.877 71.473 216.054 71.5085V75.0561C215.891 74.9993 215.632 74.9496 215.276 74.907C214.928 74.8572 214.591 74.8324 214.264 74.8324C213.561 74.8324 212.929 74.9851 212.368 75.2905C211.814 75.5888 211.377 76.0043 211.058 76.5369C210.738 77.0696 210.578 77.6839 210.578 78.38V88H206.722ZM225.08 88.3196C223.447 88.3196 222.044 87.9609 220.872 87.2436C219.707 86.5263 218.809 85.5355 218.177 84.2713C217.552 83 217.239 81.5369 217.239 79.8821C217.239 78.2202 217.559 76.7536 218.198 75.4822C218.837 74.2038 219.739 73.2095 220.904 72.4993C222.076 71.782 223.461 71.4233 225.059 71.4233C226.387 71.4233 227.563 71.6683 228.585 72.1584C229.615 72.6413 230.435 73.3267 231.046 74.2145C231.657 75.0952 232.005 76.125 232.09 77.304H228.404C228.255 76.5156 227.9 75.8587 227.339 75.3331C226.785 74.8004 226.043 74.5341 225.112 74.5341C224.324 74.5341 223.631 74.7472 223.035 75.1733C222.438 75.5923 221.973 76.196 221.639 76.9844C221.313 77.7727 221.149 78.7173 221.149 79.8182C221.149 80.9332 221.313 81.892 221.639 82.6946C221.966 83.4901 222.424 84.1044 223.013 84.5376C223.61 84.9638 224.31 85.1768 225.112 85.1768C225.68 85.1768 226.188 85.0703 226.636 84.8572C227.09 84.6371 227.47 84.321 227.776 83.9091C228.081 83.4972 228.29 82.9964 228.404 82.407H232.09C231.998 83.5646 231.657 84.5909 231.067 85.4858C230.478 86.3736 229.675 87.0696 228.66 87.5739C227.644 88.071 226.451 88.3196 225.08 88.3196ZM239.113 78.4119V88H235.257V66.1818H239.028V74.4169H239.22C239.604 73.4936 240.197 72.7656 240.999 72.233C241.809 71.6932 242.839 71.4233 244.089 71.4233C245.225 71.4233 246.216 71.6612 247.061 72.1371C247.906 72.6129 248.559 73.3089 249.021 74.2251C249.49 75.1413 249.724 76.2599 249.724 77.581V88H245.868V78.1776C245.868 77.0767 245.584 76.2209 245.015 75.6101C244.454 74.9922 243.666 74.6832 242.65 74.6832C241.969 74.6832 241.358 74.8324 240.818 75.1307C240.285 75.4219 239.866 75.8445 239.561 76.3984C239.263 76.9524 239.113 77.6236 239.113 78.4119Z" fill="white"/>
<path d="M47.208 71.152L38.04 75.92V75.968L47.208 80.736L46.456 82.176L34.616 75.968V75.904L46.456 69.712L47.208 71.152Z" fill="white"/>
<rect x="181" y="228" width="99" height="21" rx="10.5" fill="#F7E330"/>
<path d="M202.372 233.98C202.828 234.028 203.44 234.064 203.86 234.064H209.908C210.256 234.064 210.748 234.04 210.952 234.028C210.94 234.316 210.916 234.784 210.916 235.144V241.36C210.916 241.78 210.952 242.404 210.976 242.776H209.236C209.248 242.416 209.26 241.984 209.26 241.54V235.612H203.86C203.356 235.612 202.708 235.636 202.372 235.66V233.98ZM202.228 240.496C202.636 240.532 203.176 240.568 203.716 240.568H210.208V242.152H203.764C203.296 242.152 202.624 242.176 202.228 242.224V240.496ZM215.392 233.38C216.22 233.944 217.78 235.192 218.488 235.924L217.264 237.172C216.64 236.5 215.128 235.192 214.252 234.592L215.392 233.38ZM213.88 241.372C215.764 241.108 217.312 240.496 218.476 239.812C220.528 238.588 222.088 236.764 222.856 235.144L223.78 236.824C222.88 238.456 221.284 240.112 219.352 241.276C218.128 242.008 216.58 242.668 214.9 242.956L213.88 241.372ZM234.112 233.872C234.112 234.256 234.424 234.568 234.808 234.568C235.18 234.568 235.492 234.256 235.492 233.872C235.492 233.488 235.18 233.176 234.808 233.176C234.424 233.176 234.112 233.488 234.112 233.872ZM233.368 233.872C233.368 233.08 234.016 232.432 234.808 232.432C235.588 232.432 236.236 233.08 236.236 233.872C236.236 234.664 235.588 235.312 234.808 235.312C234.016 235.312 233.368 234.664 233.368 233.872ZM226.804 238.768C227.332 237.436 227.788 235.744 227.944 234.208L229.684 234.58C229.588 234.916 229.444 235.504 229.396 235.78C229.228 236.62 228.796 238.264 228.376 239.38C227.944 240.544 227.236 241.912 226.612 242.812L224.932 242.104C225.676 241.12 226.384 239.836 226.804 238.768ZM232.72 238.528C232.264 237.268 231.496 235.492 230.98 234.58L232.576 234.064C233.08 234.988 233.896 236.836 234.352 237.988C234.784 239.08 235.42 240.988 235.744 242.176L233.968 242.752C233.644 241.336 233.2 239.824 232.72 238.528ZM237.244 237.844C239.392 237.292 241.144 236.512 242.488 235.684C243.712 234.928 245.08 233.728 245.86 232.78L247.156 234.004C246.064 235.108 244.6 236.236 243.184 237.088C241.828 237.892 239.884 238.792 237.988 239.356L237.244 237.844ZM242.236 236.464L243.94 236.056V241.468C243.94 241.996 243.964 242.74 244.048 243.04H242.14C242.188 242.752 242.236 241.996 242.236 241.468V236.464ZM251.176 233.296C251.5 233.344 252.016 233.368 252.424 233.368C253.18 233.368 256.336 233.368 257.032 233.368C257.416 233.368 258.004 233.344 258.328 233.296V234.856C258.016 234.832 257.452 234.808 257.008 234.808C256.348 234.808 253.132 234.808 252.424 234.808C252.028 234.808 251.524 234.82 251.176 234.856V233.296ZM259.348 236.788C259.264 236.944 259.156 237.16 259.12 237.28C258.748 238.444 258.232 239.62 257.344 240.604C256.132 241.96 254.596 242.764 253.06 243.208L251.86 241.852C253.672 241.468 255.1 240.688 256.024 239.74C256.66 239.092 257.044 238.336 257.248 237.676C256.648 237.676 252.532 237.676 251.464 237.676C251.164 237.676 250.564 237.688 250.06 237.724V236.164C250.576 236.212 251.08 236.248 251.464 236.248C252.28 236.248 256.576 236.248 257.392 236.248C257.788 236.248 258.112 236.2 258.28 236.116L259.348 236.788Z" fill="white"/>
<rect x="181" y="315" width="99" height="21" rx="10.5" fill="#30F75C"/>
<path d="M202.708 319.888C202.648 320.272 202.624 320.728 202.636 321.112C202.672 323.092 202.756 326.392 202.78 328.816C202.792 329.584 202.348 330.028 201.436 330.028C200.704 330.028 200.044 330.004 199.36 329.956L199.216 328.396C199.768 328.48 200.416 328.528 200.824 328.528C201.124 328.528 201.232 328.372 201.232 328.036C201.232 326.38 201.208 323.092 201.112 321.112C201.076 320.596 201.052 320.212 200.992 319.888H202.708ZM195.856 321.892C196.192 321.928 196.768 321.976 197.176 321.976C198.016 321.976 203.56 321.976 204.148 321.976C204.532 321.976 205.096 321.916 205.384 321.88V323.464C205.012 323.452 204.544 323.44 204.22 323.44C203.752 323.44 197.884 323.44 197.224 323.44C196.78 323.44 196.276 323.464 195.856 323.488V321.892ZM195.208 327.604C197.716 326.404 199.816 324.556 200.68 323.14H201.46L201.472 324.424C200.5 325.876 198.376 327.76 196.312 328.852L195.208 327.604ZM207.592 323.944C208.036 323.98 208.9 324.028 209.524 324.028C210.94 324.028 214.9 324.028 215.968 324.028C216.532 324.028 217.06 323.968 217.384 323.944V325.84C217.096 325.828 216.484 325.768 215.98 325.768C214.888 325.768 210.94 325.768 209.524 325.768C208.852 325.768 208.048 325.804 207.592 325.84V323.944ZM222.256 328.36C222.256 327.436 222.256 322.468 222.256 321.46C222.256 321.028 222.22 320.44 222.136 320.008H224.008C223.96 320.44 223.9 320.956 223.9 321.46C223.9 322.78 223.912 327.472 223.912 328.36C223.912 328.696 223.96 329.536 224.02 330.028H222.136C222.22 329.56 222.256 328.828 222.256 328.36ZM223.552 323.116C225.148 323.56 227.74 324.508 228.916 325.084L228.244 326.752C226.876 326.044 224.86 325.276 223.552 324.844V323.116ZM241.924 321.94C241.756 322.132 241.612 322.3 241.516 322.444C240.58 323.992 238.804 326.152 236.944 327.52L235.744 326.416C237.328 325.312 238.672 323.68 239.296 322.576C238.24 322.576 233.872 322.576 232.96 322.576C232.468 322.576 231.82 322.636 231.568 322.672V320.98C231.892 321.04 232.54 321.1 232.96 321.1C233.716 321.1 238.324 321.1 239.608 321.1C240.076 321.1 240.472 321.052 240.736 320.968L241.924 321.94ZM235.6 327.7C234.892 326.992 233.668 325.9 232.96 325.396L234.22 324.364C234.868 324.856 236.068 325.828 236.98 326.704C237.772 327.472 238.72 328.468 239.296 329.164L237.88 330.292C237.388 329.62 236.38 328.492 235.6 327.7ZM246.256 328.36C246.256 327.436 246.256 322.468 246.256 321.46C246.256 321.028 246.22 320.44 246.136 320.008H248.008C247.96 320.44 247.9 320.956 247.9 321.46C247.9 322.78 247.912 327.472 247.912 328.36C247.912 328.696 247.96 329.536 248.02 330.028H246.136C246.22 329.56 246.256 328.828 246.256 328.36ZM247.552 323.116C249.148 323.56 251.74 324.508 252.916 325.084L252.244 326.752C250.876 326.044 248.86 325.276 247.552 324.844V323.116ZM257.392 320.38C258.22 320.944 259.78 322.192 260.488 322.924L259.264 324.172C258.64 323.5 257.128 322.192 256.252 321.592L257.392 320.38ZM255.88 328.372C257.764 328.108 259.312 327.496 260.476 326.812C262.528 325.588 264.088 323.764 264.856 322.144L265.78 323.824C264.88 325.456 263.284 327.112 261.352 328.276C260.128 329.008 258.58 329.668 256.9 329.956L255.88 328.372Z" fill="white"/>
</g>
<rect x="0.5" y="0.5" width="389" height="843" stroke="black"/>
<defs>
<filter id="filter0_b_5_1484" x="-35.0533" y="710.045" width="463.107" height="169.625" filterUnits="userSpaceOnUse" color-interpolation-filters="sRGB">
<feFlood flood-opacity="0" result="BackgroundImageFix"/>
<feGaussianBlur in="BackgroundImageFix" stdDeviation="18.0267"/>
<feComposite in2="SourceAlpha" operator="in" result="effect1_backgroundBlur_5_1484"/>
<feBlend mode="normal" in="SourceGraphic" in2="effect1_backgroundBlur_5_1484" result="shape"/>
</filter>
<clipPath id="clip0_5_1484">
<rect width="390" height="844" fill="white"/>
</clipPath>
<clipPath id="clip1_5_1484">
<rect width="390" height="45" fill="white"/>
</clipPath>
<clipPath id="clip2_5_1484">
<rect width="46.2722" height="48.7241" fill="white" transform="translate(41.488 757.354)"/>
</clipPath>
<clipPath id="clip3_5_1484">
<rect width="23" height="23" fill="white" transform="translate(332 203)"/>
</clipPath>
<clipPath id="clip4_5_1484">
<rect width="23" height="23" fill="white" transform="translate(330 291)"/>
</clipPath>
</defs>
</svg>
